<svg width="1728" height="1552" viewBox="0 0 1728 1552" fill="none" xmlns="http://www.w3.org/2000/svg">
<mask id="mask0_606_17865" style="mask-type:alpha" maskUnits="userSpaceOnUse" x="-96" y="0" width="1920" height="1552">
<rect x="-96" width="1920" height="1552" fill="#C4C4C4"/>
</mask>
<g mask="url(#mask0_606_17865)">
<path d="M541.5 -161.846C541.5 233.398 220.266 553.809 -176 553.809C-572.266 553.809 -893.5 233.398 -893.5 -161.846C-893.5 -557.089 -572.266 -877.5 -176 -877.5C220.266 -877.5 541.5 -557.089 541.5 -161.846Z" stroke="#E3E3E3"/>
<path d="M2615.5 -120.131C2615.5 336.259 2244.57 706.238 1787 706.238C1329.43 706.238 958.5 336.259 958.5 -120.131C958.5 -576.521 1329.43 -946.5 1787 -946.5C2244.57 -946.5 2615.5 -576.521 2615.5 -120.131Z" stroke="#E3E3E3"/>
<path d="M2365.5 -120.133C2365.5 198.54 2106.5 456.878 1787 456.878C1467.5 456.878 1208.5 198.54 1208.5 -120.133C1208.5 -438.806 1467.5 -697.145 1787 -697.145C2106.5 -697.145 2365.5 -438.806 2365.5 -120.133Z" stroke="#E3E3E3"/>
</g>
</svg>
