<svg width="484" height="317" viewBox="0 0 484 317" fill="none" xmlns="http://www.w3.org/2000/svg">
<g filter="url(#filter0_d_606_18325)">
<rect x="238.703" y="22.9121" width="86.2064" height="109.688" rx="10.1115" fill="white"/>
</g>
<rect x="237.086" y="19.998" width="89.7638" height="118.176" rx="10.1115" fill="white"/>
<rect x="265.793" y="104.242" width="32.354" height="4.25353" rx="2.12677" fill="#B1B3CB"/>
<rect x="255.273" y="115.172" width="53.3906" height="4.25353" rx="2.12677" fill="#D9DBE9"/>
<rect x="258.594" y="122.75" width="46.7508" height="4.25353" rx="2.12677" fill="#D9DBE9"/>
<path d="M274.187 87.7706C270.528 86.6343 267.163 84.7104 264.327 82.1342C261.492 79.558 259.255 76.392 257.774 72.8588C256.293 69.3255 255.604 65.5108 255.755 61.6827C255.907 57.8547 256.894 54.1062 258.649 50.7008" stroke="#FFC147" stroke-width="10.6338" stroke-linecap="round"/>
<path d="M257.438 53.4205C259.613 47.6812 263.732 42.8864 269.078 39.8704C274.423 36.8545 280.657 35.8084 286.694 36.9141C292.731 38.0199 298.19 41.2075 302.119 45.9222C306.049 50.637 308.201 56.5804 308.201 62.718" stroke="#F58220" stroke-width="10.6338" stroke-linecap="round"/>
<path d="M308.201 62.718C308.201 67.4359 306.929 72.0665 304.518 76.122C302.108 80.1775 298.648 83.5079 294.504 85.7623C290.359 88.0168 285.684 89.1118 280.969 88.9322C276.255 88.7525 271.676 87.3048 267.715 84.7414" stroke="#00AFEF" stroke-width="10.6338" stroke-linecap="round"/>
<path d="M216.472 147.828H207.427C205.049 147.828 203.121 149.756 203.121 152.134V160.629C203.121 163.007 205.049 164.935 207.427 164.935H216.472C218.85 164.935 220.778 163.007 220.778 160.629V152.134C220.778 149.756 218.85 147.828 216.472 147.828Z" fill="#F58220"/>
<path d="M182.531 8.99219H173.486C171.107 8.99219 169.18 10.92 169.18 13.2981V21.7929C169.18 24.171 171.107 26.0988 173.486 26.0988H182.531C184.909 26.0988 186.837 24.171 186.837 21.7929V13.2981C186.837 10.92 184.909 8.99219 182.531 8.99219Z" fill="#FFC147"/>
<path d="M466.499 135.42H457.454C455.076 135.42 453.148 137.348 453.148 139.726V148.221C453.148 150.599 455.076 152.526 457.454 152.526H466.499C468.877 152.526 470.805 150.599 470.805 148.221V139.726C470.805 137.348 468.877 135.42 466.499 135.42Z" fill="#FFC147"/>
<path d="M396.703 13.4316H383.307C379.785 13.4316 376.93 16.2867 376.93 19.8087V32.3897C376.93 35.9117 379.785 38.7668 383.307 38.7668H396.703C400.225 38.7668 403.08 35.9117 403.08 32.3897V19.8087C403.08 16.2867 400.225 13.4316 396.703 13.4316Z" fill="#F58220"/>
<path d="M38.5074 64.5195H25.1115C21.5895 64.5195 18.7344 67.3746 18.7344 70.8966V83.4776C18.7344 86.9995 21.5895 89.8547 25.1115 89.8547H38.5074C42.0294 89.8547 44.8845 86.9995 44.8845 83.4776V70.8966C44.8845 67.3746 42.0294 64.5195 38.5074 64.5195Z" fill="#00AFEF"/>
<rect x="292.68" y="203.801" width="41.6724" height="5.87021" rx="2.9351" fill="#FF5F85"/>
<rect x="37.5312" y="111.428" width="41.6724" height="5.87021" rx="2.9351" fill="#FF5F85"/>
<path d="M385.699 169.167H299.861C294.709 169.167 290.531 164.989 290.531 159.836V103.856C290.531 98.7034 294.709 94.5254 299.861 94.5254H385.699C390.851 94.5254 395.029 98.7034 395.029 103.856V159.836C395.029 164.989 390.851 169.167 385.699 169.167Z" fill="#00AFEF"/>
<path d="M342.786 118.783L290.695 161.403C291.444 165.805 295.25 169.166 299.867 169.166H385.704C390.321 169.166 394.127 165.805 394.876 161.403L342.786 118.783Z" fill="#53D1FF"/>
<path d="M290.691 102.288L338.742 141.603C341.091 143.525 344.47 143.525 346.822 141.603L394.872 102.288C394.124 97.8861 390.317 94.5254 385.7 94.5254H299.863C295.246 94.5254 291.44 97.8861 290.691 102.288Z" fill="#30C8FF"/>
<path d="M381.216 189.727L408.53 189.727C415.684 189.727 421.484 183.927 421.484 176.772L421.484 151.13C421.484 143.976 415.684 138.176 408.53 138.176L381.216 138.176C374.062 138.176 368.262 143.976 368.262 151.13L368.262 176.772C368.262 183.927 374.062 189.727 381.216 189.727Z" fill="#FF5F85"/>
<path d="M403.081 160.414H381.869C380.566 160.414 379.512 161.469 379.512 162.771V165.128C379.512 166.43 380.566 167.485 381.869 167.485H403.081V160.414Z" fill="white"/>
<path d="M398.366 173.462C398.19 173.462 398.014 173.423 397.849 173.342C397.444 173.145 397.188 172.735 397.188 172.283V155.617C397.188 155.167 397.444 154.756 397.849 154.559C398.255 154.361 398.735 154.412 399.091 154.689L409.781 163.022C410.067 163.244 410.234 163.587 410.234 163.952C410.234 164.316 410.067 164.657 409.781 164.881L399.091 173.214C398.88 173.378 398.624 173.462 398.366 173.462Z" fill="white"/>
<path d="M20.7031 293.079C20.7881 292.916 20.8604 292.746 20.9193 292.571C21.0706 292.193 21.2436 291.706 21.4706 291.112C21.9461 289.836 22.5514 287.966 23.3513 285.707C24.8753 281.092 26.7885 274.65 28.8206 267.505C30.8526 260.361 32.7009 253.919 34.1493 249.282C34.8735 247.012 35.4572 245.153 35.8895 243.791C36.0841 243.185 36.2354 242.71 36.3543 242.299C36.4207 242.128 36.4678 241.951 36.4948 241.77C36.3984 241.925 36.3222 242.092 36.2678 242.267C36.1273 242.656 35.9436 243.142 35.7166 243.737C35.241 245.012 34.6357 246.871 33.8467 249.141C32.3118 253.757 30.3986 260.199 28.3774 267.343C26.3561 274.488 24.5295 280.952 23.0378 285.567C22.3245 287.837 21.73 289.696 21.3084 291.047C21.1139 291.663 20.9625 292.128 20.8328 292.549C20.7724 292.721 20.729 292.899 20.7031 293.079Z" fill="#E0E0E0"/>
<path d="M72.9639 247.974L40.332 215.19L56.7398 185.055C82.3227 168.539 107.887 165.394 107.887 165.394C125.026 164.229 142.243 165.286 159.11 168.539C181.688 172.894 184.479 192.168 184.479 192.168L188.175 259.798L192.142 314.869L90.3769 316.923L72.9639 248.017" fill="#F58220"/>
<path d="M127.786 313.702L36.6355 314.783C31.6142 314.842 26.6604 313.623 22.2395 311.241C17.8186 308.86 14.0756 305.393 11.362 301.168C8.64848 296.942 7.05348 292.097 6.72682 287.086C6.40016 282.075 7.35256 277.063 9.49457 272.521L48.4712 200.242L83.9782 224.238L59.7556 274.466L133.537 275.785L127.786 313.702Z" fill="#F58220"/>
<path d="M182.125 186.5L254.401 294.073L211.728 296.861C211.728 296.861 186.241 256.706 186.814 257.528C187.83 259.041 182.125 186.5 182.125 186.5Z" fill="#F58220"/>
<path d="M82.1417 230.732C82.1443 230.534 82.1771 230.337 82.239 230.149C82.3471 229.716 82.466 229.176 82.6281 228.506C82.9632 227.09 83.4604 225.036 83.9684 222.485C84.4764 219.934 85.0493 216.865 85.406 213.449C85.845 209.747 85.845 206.007 85.406 202.305C84.8195 198.635 83.5393 195.109 81.6337 191.918C80.1022 189.29 78.2901 186.837 76.2293 184.6C74.8402 183.071 73.3603 181.628 71.7976 180.277C71.202 179.811 70.6319 179.313 70.0898 178.785C70.2658 178.873 70.4324 178.978 70.5871 179.099C70.8897 179.326 71.3761 179.639 71.9382 180.104C73.5635 181.387 75.0951 182.785 76.5211 184.287C78.6516 186.507 80.5227 188.962 82.0985 191.604C84.071 194.845 85.3927 198.44 85.9896 202.186C86.4176 205.934 86.3886 209.719 85.9032 213.46C85.5381 216.504 85.0186 219.527 84.3467 222.518C83.7846 225.079 83.2658 227.122 82.8226 228.527C82.6281 229.23 82.4551 229.77 82.3363 230.138C82.2907 230.342 82.2256 230.541 82.1417 230.732Z" fill="#FBFF2B"/>
<path d="M79.1998 234.625C79.0437 235.188 78.8338 235.734 78.5729 236.257C78.1405 237.338 77.492 238.786 76.6597 240.581C75.006 244.245 72.6604 249.282 69.9582 254.794C67.256 260.307 64.7051 265.246 62.8136 268.846C61.8624 270.618 61.0842 272.088 60.5329 273.029C60.2697 273.552 59.9662 274.055 59.625 274.531C59.8191 273.98 60.0577 273.445 60.3384 272.931C60.8896 271.851 61.603 270.402 62.5002 268.662L69.4935 254.611C72.1416 249.13 74.552 244.18 76.3463 240.473C77.1893 238.732 77.8811 237.284 78.4216 236.149C78.6379 235.62 78.8982 235.11 79.1998 234.625Z" fill="black"/>
<path d="M127.786 313.702C127.786 313.702 127.786 313.637 127.786 313.518C127.786 313.399 127.786 313.183 127.786 312.956C127.84 312.437 127.916 311.713 128.002 310.795C128.218 308.871 128.521 306.136 128.899 302.688C129.699 295.695 130.845 285.859 132.142 274.261L132.401 274.542H105.477L58.4474 274.466L44.1798 274.38L40.2994 274.326H39.2834H38.9375C39.0524 274.312 39.1685 274.312 39.2834 274.326H40.2994L44.1798 274.272L58.4474 274.185L105.552 274.109H132.477H132.769V274.39C131.342 285.977 130.142 295.813 129.278 302.796C128.845 306.233 128.489 308.968 128.197 310.892C128.082 311.8 127.984 312.52 127.905 313.054L127.819 313.605C127.808 313.637 127.797 313.702 127.786 313.702Z" fill="#FBFF2B"/>
<path d="M60.3951 275.265C59.7422 274.544 59.1357 273.783 58.5792 272.985C55.6662 269.328 52.059 266.282 47.9649 264.024C47.0906 263.601 46.2391 263.132 45.4141 262.619C46.3735 262.844 47.2949 263.208 48.1487 263.7C52.4127 265.807 56.1 268.919 58.8927 272.769C59.5063 273.528 60.0119 274.368 60.3951 275.265Z" fill="#FBFF2B"/>
<path d="M189.689 282.421C189.61 282.113 189.559 281.798 189.538 281.481C189.462 280.821 189.365 279.924 189.235 278.789C188.986 276.455 188.651 273.071 188.295 268.888C187.549 260.512 186.695 248.925 185.938 236.127C185.182 223.329 184.652 211.721 184.349 203.322C184.198 199.117 184.09 195.756 184.047 193.367C184.047 192.232 184.047 191.335 183.993 190.665C183.976 190.352 183.976 190.038 183.993 189.725C184.053 190.035 184.085 190.349 184.09 190.665C184.09 191.324 184.177 192.232 184.241 193.367C184.36 195.767 184.522 199.15 184.728 203.3C185.128 211.699 185.722 223.286 186.479 236.094C187.235 248.903 188.035 260.468 188.641 268.856C188.965 272.996 189.224 276.422 189.408 278.779C189.494 279.859 189.559 280.811 189.613 281.47C189.667 281.784 189.693 282.102 189.689 282.421Z" fill="#FBFF2B"/>
<path d="M235.023 278.075C234.637 277.781 234.275 277.456 233.942 277.102L230.981 274.249L220.81 264.283L221.264 264.099C221.177 266.758 221.091 269.634 220.993 272.628C220.896 275.622 220.777 278.594 220.68 281.275V281.902L220.237 281.458L210.336 271.352L207.504 268.401C207.152 268.067 206.827 267.705 206.531 267.32C206.916 267.616 207.278 267.941 207.612 268.293L210.552 271.136L220.604 281.102L220.14 281.285C220.226 278.583 220.323 275.665 220.421 272.638C220.518 269.612 220.637 266.769 220.734 264.11V263.494L221.166 263.926L231.186 274.044L234.051 277.005C234.404 277.334 234.729 277.692 235.023 278.075Z" fill="#E0E0E0"/>
<path d="M130.844 288.052C130.844 288.052 149.024 282.809 155.045 281.274C157.39 280.68 167.432 285.976 174.371 290.386C174.371 290.386 183.926 296.05 183.159 297.79C182.305 299.714 178.835 299.325 173.161 296.709C173.161 296.709 175.128 302.406 171.269 302.276C171.269 302.276 173.182 308.437 169.572 309.075C165.962 309.712 165.119 301.854 161.941 301.433C158.763 301.011 152.213 300.579 152.213 300.579C152.213 300.579 146.733 309.658 142.485 310.307C138.237 310.955 128.434 309.799 128.434 309.799L130.844 288.052Z" fill="#FCD0CA"/>
<path d="M161.879 289.307C163.659 290.099 165.36 291.058 166.959 292.171C168.656 293.131 170.256 294.253 171.737 295.522C168.255 293.778 164.953 291.696 161.879 289.307Z" fill="#F9A799"/>
<path d="M160.809 292.84C162.885 293.493 164.903 294.321 166.84 295.315C168.842 296.129 170.773 297.109 172.612 298.244C170.534 297.598 168.516 296.773 166.581 295.78C164.574 294.97 162.643 293.987 160.809 292.84Z" fill="#F9A799"/>
<path d="M162.754 301.281C165.5 301.271 168.234 301.635 170.882 302.362C168.136 302.37 165.402 302.006 162.754 301.281Z" fill="#F9A799"/>
<path d="M107.184 114.047C107.398 114.748 107.401 115.496 107.193 116.198C106.984 116.9 106.574 117.525 106.013 117.996C105.451 118.466 104.764 118.76 104.036 118.843C103.308 118.925 102.572 118.791 101.92 118.457C99.4557 117.214 99.1423 113.809 99.6287 111.096C100.115 108.383 101.034 105.476 99.8989 102.957C99.0234 101.033 97.1318 99.812 95.6618 98.2988C94.3646 96.9835 93.3899 95.3854 92.8141 93.6301C92.2384 91.8747 92.0773 90.0098 92.3435 88.1817C92.655 86.3591 93.4638 84.6578 94.6806 83.2656C95.8974 81.8733 97.475 80.844 99.2395 80.2913C102.86 79.2861 107.325 80.3994 110.048 77.7728C112.005 75.8705 112.124 72.7683 113.637 70.4985C115.982 66.9748 120.944 66.4127 125.138 66.9856C129.331 67.5585 133.59 68.9096 137.697 67.8827C141.124 67.0288 143.934 64.6401 147.155 63.1701C150.666 61.5654 154.59 61.0979 158.379 61.8331C162.168 62.5683 165.633 64.4693 168.289 67.2703C170.945 70.0714 172.659 73.6324 173.191 77.4554C173.724 81.2784 173.048 85.1723 171.259 88.5924C170.066 91.0954 168.036 93.1026 165.519 94.2671" fill="black"/>
<path d="M127.698 190.384C138.985 190.361 148.64 180.418 148.483 169.263C148.445 166.507 148.213 162.34 148.213 162.34C148.213 162.34 164.902 160.665 166.004 144.128C167.107 127.59 166.318 89.424 166.318 89.424C157.135 84.8685 146.903 82.8445 136.678 83.5608C126.452 84.2771 116.603 87.7077 108.145 93.499L105.594 95.2608L106.837 169.804C106.971 181.066 116.435 190.402 127.698 190.384Z" fill="#FCD0CA"/>
<path d="M148.625 162.113C140.974 161.841 133.576 159.297 127.375 154.807C127.375 154.807 131.828 166.988 148.42 166.405L148.625 162.113Z" fill="#FFADC1"/>
<path d="M166.804 93.6189C166.804 93.6189 156.806 98.699 143.565 92.4083C134.918 88.2793 124.79 86.3661 122.607 88.1496C120.423 89.933 120.131 98.7963 111.657 101.553C111.657 101.553 112.576 118.479 105.81 118.004C99.0433 117.528 102.762 91.2301 102.762 91.2301L119.115 82.8425L137.069 79.0918L154.093 81.1563L167.301 84.4962L166.804 93.6189Z" fill="black"/>
<path d="M107.045 112.566C106.775 112.426 95.8581 108.578 95.6095 119.916C95.3609 131.255 106.786 129.169 106.807 128.845C106.829 128.52 107.045 112.566 107.045 112.566Z" fill="#FCD0CA"/>
<path d="M103.433 124.467C103.433 124.467 103.228 124.607 102.893 124.748C102.418 124.94 101.887 124.94 101.412 124.748C100.223 124.283 99.25 122.359 99.25 120.316C99.2486 119.342 99.4588 118.38 99.8661 117.495C99.9825 117.144 100.182 116.826 100.447 116.568C100.712 116.31 101.036 116.12 101.39 116.014C101.619 115.972 101.855 116.006 102.063 116.109C102.272 116.212 102.441 116.38 102.547 116.587C102.687 116.9 102.612 117.127 102.666 117.149C102.72 117.171 102.914 116.965 102.839 116.5C102.779 116.218 102.627 115.963 102.406 115.776C102.1 115.536 101.713 115.423 101.325 115.463C100.857 115.544 100.418 115.743 100.049 116.042C99.6798 116.341 99.3936 116.73 99.2176 117.171C98.7184 118.144 98.4589 119.222 98.4609 120.316C98.4609 122.597 99.6067 124.769 101.228 125.277C101.531 125.37 101.851 125.395 102.165 125.35C102.479 125.305 102.779 125.192 103.044 125.018C103.433 124.748 103.433 124.488 103.433 124.467Z" fill="#F9A799"/>
<path d="M101.27 77.0803C102.563 76.7009 103.944 76.7507 105.207 77.2223C106.47 77.6938 107.546 78.5617 108.274 79.696C107.266 78.9328 106.179 78.2805 105.031 77.7504C103.804 77.397 102.543 77.1724 101.27 77.0803Z" fill="black"/>
<path d="M108.094 70.293C108.299 70.293 107.986 72.6817 108.375 75.5136C108.711 77.2162 109.244 78.8739 109.964 80.4533C109.964 80.4533 109.488 80.0533 109.013 79.2103C108.402 78.0882 107.999 76.8652 107.824 75.6001C107.509 73.8335 107.601 72.0184 108.094 70.293Z" fill="black"/>
<path d="M216.785 301.758C219.214 306.266 222.893 309.976 227.379 312.444C231.866 314.912 236.97 316.032 242.078 315.669C248.112 315.246 253.822 312.779 258.265 308.674C262.709 304.569 265.619 299.071 266.517 293.089L272.786 221.329L247.677 215.125L237.419 271.331C237.419 271.331 232.058 294.883 216.785 301.758Z" fill="#FCD0CA"/>
<path d="M247.453 220.323L248.285 207.731C248.285 207.731 251.842 179.477 251.842 176.71C251.842 173.532 253.366 172.754 254.544 172.84C256.37 172.959 257.667 175.218 257.786 177.953C257.786 178.893 257.7 193.831 257.7 193.831C258.564 192.419 259.528 191.072 260.586 189.799C262.748 187 267.979 185.4 273.308 185.573C278.637 185.746 280.096 186.265 280.128 188.329C280.109 188.724 280.003 189.109 279.816 189.457C279.628 189.805 279.366 190.106 279.047 190.34C278.064 191.16 276.814 191.59 275.534 191.55C267.006 191.399 264.726 195.95 264.726 195.95L264.618 197.603C264.618 197.603 269.795 193.896 273.924 195.442C274.534 195.667 275.093 196.013 275.567 196.458C276.729 196.462 277.871 196.771 278.877 197.352C279.884 197.934 280.721 198.769 281.305 199.774C281.89 200.779 282.201 201.919 282.209 203.082C282.217 204.245 281.921 205.389 281.35 206.402C281.127 206.921 280.751 207.36 280.272 207.66C279.793 207.959 279.233 208.105 278.669 208.077C278.097 207.906 277.58 207.589 277.167 207.158C276.925 206.953 276.668 206.765 276.399 206.596L275.448 211.168C275.448 211.168 272.757 221.329 272.086 225.89" fill="#FCD0CA"/>
<path d="M249.903 219.341C251.459 219.773 253.07 218.627 253.913 217.244C254.756 215.86 255.113 214.228 255.848 212.78C258.074 208.456 263.414 206.403 265.457 201.971C265.738 201.355 265.889 200.512 265.348 200.101C264.808 199.69 264.138 200.025 263.587 200.328L249.535 208.11" fill="#FCD0CA"/>
<path d="M249.527 208.088C249.965 207.7 250.447 207.366 250.965 207.093C251.916 206.499 253.31 205.677 255.04 204.672L261.147 201.181L262.909 200.186C263.565 199.667 264.401 199.43 265.233 199.527C265.489 199.61 265.715 199.77 265.879 199.984C266.043 200.198 266.138 200.457 266.151 200.727C266.179 201.171 266.102 201.616 265.924 202.024C265.599 202.745 265.193 203.427 264.714 204.056C262.768 206.585 260.25 208.174 258.434 210.023C257.551 210.859 256.8 211.825 256.207 212.887C255.678 213.881 255.342 214.919 254.932 215.859C254.679 216.644 254.258 217.364 253.698 217.969C253.138 218.574 252.452 219.049 251.689 219.361C250.533 219.707 249.884 219.361 249.927 219.296C250.487 219.314 251.045 219.222 251.57 219.026C252.246 218.681 252.843 218.199 253.323 217.611C253.803 217.023 254.156 216.342 254.359 215.611C254.705 214.564 255.105 213.535 255.559 212.53C256.155 211.379 256.932 210.332 257.861 209.428C259.72 207.482 262.184 205.85 264 203.505C264.428 202.938 264.791 202.326 265.081 201.678C265.351 201.062 265.308 200.446 264.962 200.381C264.616 200.316 263.936 200.608 263.341 200.943L261.547 201.916L255.353 205.288C253.581 206.229 252.111 206.964 251.138 207.45C250.634 207.738 250.092 207.952 249.527 208.088Z" fill="#F9A799"/>
<path d="M264.419 197.723C264.515 196.7 264.852 195.715 265.403 194.848C266.043 193.958 266.952 193.299 267.997 192.967C269.305 192.537 270.673 192.318 272.05 192.318C273.464 192.332 274.875 192.209 276.265 191.951C277.43 191.713 278.511 191.173 279.4 190.384C279.695 190.111 279.925 189.775 280.071 189.4C280.217 189.025 280.276 188.623 280.243 188.222C280.227 187.927 280.13 187.643 279.962 187.4C279.908 187.4 279.962 187.714 280.016 188.233C280.011 188.595 279.927 188.952 279.77 189.278C279.614 189.605 279.388 189.894 279.108 190.124C278.244 190.804 277.228 191.264 276.147 191.464C274.786 191.688 273.407 191.789 272.028 191.767C270.6 191.752 269.179 191.974 267.824 192.426C266.69 192.821 265.721 193.582 265.068 194.588C264.644 195.266 264.399 196.039 264.354 196.836C264.293 197.132 264.315 197.439 264.419 197.723Z" fill="#F9A799"/>
<path d="M257.709 176.895C257.618 177.883 257.618 178.878 257.709 179.867C257.709 181.899 257.709 184.331 257.785 187.012C257.861 189.692 257.785 192.124 257.785 194.156C257.72 195.147 257.742 196.142 257.85 197.129C258.086 196.159 258.206 195.165 258.207 194.167C258.336 192.34 258.423 189.843 258.412 187.012C258.401 184.18 258.293 181.672 258.163 179.845C258.118 178.848 257.966 177.859 257.709 176.895Z" fill="#F9A799"/>
<path d="M267.794 201.041C268.096 200.968 268.387 200.856 268.659 200.706C269.011 200.526 269.397 200.423 269.793 200.404C270.188 200.386 270.582 200.452 270.95 200.598C271.176 200.72 271.366 200.899 271.502 201.117C271.639 201.335 271.717 201.584 271.728 201.841C271.763 202.485 271.716 203.132 271.588 203.765C271.409 204.56 271.536 205.394 271.944 206.099C272.203 206.462 272.543 206.759 272.937 206.965C273.332 207.172 273.769 207.283 274.214 207.288C274.652 207.285 275.084 207.194 275.486 207.019C275.887 206.845 276.249 206.59 276.549 206.272C277.113 205.707 277.49 204.983 277.63 204.197C277.799 202.926 277.781 201.637 277.576 200.371C277.464 199.515 277.204 198.684 276.808 197.917C276.506 197.377 276.225 197.171 276.203 197.193C276.182 197.215 276.376 197.485 276.603 198.014C276.9 198.792 277.085 199.607 277.154 200.436C277.296 201.654 277.278 202.886 277.1 204.1C276.963 204.787 276.606 205.412 276.084 205.879C275.562 206.347 274.902 206.633 274.203 206.694C273.852 206.692 273.506 206.608 273.192 206.448C272.879 206.289 272.607 206.058 272.398 205.775C272.072 205.182 271.968 204.492 272.107 203.83C272.227 203.148 272.256 202.454 272.193 201.765C272.162 201.436 272.046 201.121 271.856 200.85C271.667 200.579 271.411 200.362 271.112 200.219C270.692 200.059 270.239 200.001 269.792 200.05C269.345 200.099 268.916 200.253 268.54 200.5C268.032 200.803 267.729 200.965 267.794 201.041Z" fill="#F9A799"/>
<path d="M276.299 205.82C276.223 206.102 276.254 206.402 276.385 206.663C276.537 207.034 276.772 207.365 277.072 207.631C277.372 207.897 277.728 208.091 278.115 208.198C278.697 208.323 279.302 208.295 279.87 208.117C280.438 207.939 280.951 207.617 281.357 207.182C282.332 206.111 282.855 204.705 282.817 203.258C282.817 201.828 282.371 200.434 281.541 199.27C280.864 198.32 279.941 197.572 278.871 197.108C278.17 196.791 277.414 196.611 276.645 196.578C276.104 196.578 275.812 196.578 275.812 196.665C276.81 196.793 277.783 197.07 278.698 197.486C279.658 197.963 280.483 198.673 281.098 199.551C281.816 200.64 282.193 201.92 282.179 203.226C282.215 204.522 281.768 205.785 280.925 206.771C280.583 207.159 280.147 207.453 279.658 207.625C279.17 207.797 278.647 207.842 278.136 207.754C277.796 207.678 277.476 207.53 277.198 207.319C276.92 207.108 276.691 206.84 276.526 206.533C276.375 206.122 276.375 205.82 276.299 205.82Z" fill="#F9A799"/>
<path d="M266.033 215.807C265.569 215.66 265.071 215.66 264.606 215.807C263.39 216.073 262.295 216.734 261.494 217.687L261.991 217.839C261.925 217.17 261.817 216.505 261.666 215.85C261.236 213.526 260.17 211.367 258.586 209.613C259.645 211.641 260.485 213.775 261.094 215.98C261.245 216.65 261.353 217.298 261.429 217.904L261.515 218.574L261.937 218.044C262.654 217.161 263.611 216.504 264.693 216.153C265.504 215.904 266.033 215.882 266.033 215.807Z" fill="#F9A799"/>
<path d="M266.302 190.395C266.161 190.46 266.734 191.476 268.053 192.092C269.372 192.708 270.539 192.352 270.485 192.2C270.431 192.049 269.404 192.06 268.323 191.552C267.242 191.044 266.442 190.287 266.302 190.395Z" fill="#F9A799"/>
<path d="M243.127 228.475L274.678 230.734C274.678 230.734 269.825 286.561 268.885 295.219C267.944 303.877 262.4 316.934 243.127 316.934C223.855 316.934 220.267 310.373 211.695 296.862C221.802 289.858 237.853 268.943 237.853 268.943L243.127 228.475Z" fill="#F58220"/>
<path d="M258.001 235.986C257.839 236.457 257.644 236.916 257.417 237.359L255.656 241.077L249.43 253.929L249.116 253.551L257.299 251.119L265.611 248.676L266.216 248.503L265.924 249.054L259.439 261.647L257.525 265.267C257.314 265.71 257.064 266.133 256.78 266.532C256.945 266.07 257.14 265.618 257.363 265.181C257.817 264.251 258.444 263.019 259.136 261.495L265.416 248.816L265.729 249.195L257.428 251.659L249.235 254.059L248.641 254.232L248.922 253.68L255.375 240.958C256.164 239.456 256.801 238.224 257.277 237.305C257.481 236.846 257.723 236.405 258.001 235.986Z" fill="#E0E0E0"/>
<path d="M255.018 289.685C254.534 289.788 254.042 289.853 253.548 289.879L249.44 290.236L235.237 291.317L235.41 290.852L241.636 296.689L247.938 302.634L248.392 303.066H247.765L233.638 303.844L229.552 304.017C229.063 304.06 228.571 304.06 228.082 304.017C228.563 303.922 229.051 303.864 229.541 303.844L233.616 303.509L247.732 302.536L247.57 303.001L241.247 297.067L235.043 291.209L234.589 290.787H235.205L249.419 289.933L253.537 289.728C254.029 289.676 254.524 289.661 255.018 289.685Z" fill="#E0E0E0"/>
<path d="M221.597 223.912L185.722 312.631H121.031V316.641H313.72L353.14 223.912H221.597Z" fill="black"/>
<path d="M276.443 276.291C275.146 280.755 271.363 283.576 267.99 282.603C264.618 281.63 262.942 277.199 264.24 272.735C265.537 268.271 269.331 265.45 272.703 266.422C276.075 267.395 277.751 271.827 276.443 276.291Z" fill="#F5F6FF"/>
<line x1="1.74846e-07" y1="314.643" x2="484" y2="314.643" stroke="black" stroke-width="4"/>
<defs>
<filter id="filter0_d_606_18325" x="201.357" y="0.247836" width="160.899" height="184.38" filterUnits="userSpaceOnUse" color-interpolation-filters="sRGB">
<feFlood flood-opacity="0" result="BackgroundImageFix"/>
<feColorMatrix in="SourceAlpha" type="matrix" values="0 0 0 0 0 0 0 0 0 0 0 0 0 0 0 0 0 0 127 0" result="hardAlpha"/>
<feOffset dy="14.6818"/>
<feGaussianBlur stdDeviation="18.673"/>
<feColorMatrix type="matrix" values="0 0 0 0 0.124574 0 0 0 0 0.141235 0 0 0 0 0.541097 0 0 0 0.09 0"/>
<feBlend mode="normal" in2="BackgroundImageFix" result="effect1_dropShadow_606_18325"/>
<feBlend mode="normal" in="SourceGraphic" in2="effect1_dropShadow_606_18325" result="shape"/>
</filter>
</defs>
</svg>
