<svg width="49" height="12" viewBox="0 0 49 12" fill="none" xmlns="http://www.w3.org/2000/svg">
<g clip-path="url(#clip0_2187_30903)">
<path d="M10.0163 0.765122C11.0065 0.765901 11.9969 0.781055 12.9867 0.758305C13.3729 0.749431 13.4613 0.958424 13.4672 1.37949C13.4734 1.82136 13.3149 1.93123 12.9854 1.93313C11.6344 1.9409 10.2822 1.8656 8.93249 2.00206C8.07941 2.08831 7.2522 2.29957 6.48708 2.78119C5.42715 3.44838 4.7124 4.43184 4.68397 5.95628C4.65503 7.50747 5.33107 8.56273 6.41325 9.23871C7.78535 10.0958 9.25978 10.2787 10.7711 10.0157C11.3807 9.90961 11.5885 9.56148 11.595 8.80073C11.5994 8.28421 11.582 7.76704 11.5973 7.25116C11.6091 6.85228 11.467 6.6995 11.15 6.70665C10.663 6.71764 10.1744 6.68029 9.68879 6.71297C9.29626 6.73939 9.12493 6.61943 9.12943 6.08646C9.13376 5.57216 9.31671 5.49579 9.67368 5.49913C11.2453 5.5138 12.8172 5.48909 14.3886 5.51282C14.7689 5.51856 14.9307 5.41166 15.0048 4.9179C15.2865 3.04299 16.2999 1.82862 17.7033 1.26256C20.1173 0.288841 22.5991 0.238164 25.012 1.2818C27.8653 2.51589 28.7689 6.72905 26.8077 9.37516C26.1209 10.3018 25.2373 10.8478 24.2517 11.0976C21.9394 11.6836 19.6379 11.7558 17.3991 10.644C16.7197 10.3066 16.1468 9.77882 15.6978 9.06252C15.6319 8.95732 15.5582 8.82779 15.4404 8.83695C15.3232 8.84606 15.3115 8.99259 15.3142 9.10357C15.344 10.322 14.6369 10.735 13.8607 11.0421C13.5505 11.1649 13.2153 11.2426 12.8898 11.2518C10.6285 11.3161 8.36342 11.4567 6.11208 11.0635C4.90913 10.8534 3.73931 10.4904 2.69253 9.68857C0.209669 7.7867 0.297473 3.99282 2.85808 2.25186C4.19202 1.34492 5.65271 1.03502 7.14252 0.865493C8.09744 0.756829 9.05729 0.752912 10.0163 0.765122ZM18.7037 5.62618C18.7027 7.05037 18.8727 7.84437 19.2891 8.73231C20.2293 10.737 22.1282 10.889 23.2733 9.05365C23.4832 8.71726 23.5657 8.31388 23.7062 7.94151C24.3395 6.26368 23.9924 3.78881 22.8985 2.53173C21.9642 1.45792 20.6938 1.45822 19.779 2.5595C18.9969 3.50103 18.7176 4.69109 18.7037 5.62618Z" fill="#DD0514"/>
<path d="M30.885 11.3077C30.6025 11.3073 30.3178 11.3089 30.038 11.269C28.9756 11.1177 28.3413 10.2585 28.3385 8.95755C28.3332 6.50915 28.3373 4.06072 28.3405 1.6123C28.3414 0.907008 28.4534 0.767526 29.0244 0.763345C29.8729 0.757132 30.7214 0.755393 31.5699 0.762093C32.0846 0.766157 32.2094 0.922998 32.2145 1.53898C32.2183 2.01715 32.2366 2.49709 32.2103 2.97312C32.1834 3.46045 32.3491 3.59697 32.7321 3.59374C34.759 3.57667 36.7864 3.60661 38.813 3.57183C39.3591 3.56246 39.6997 3.76357 40.0112 4.32602C40.9937 6.10032 42.0272 7.83278 43.0442 9.5787C43.3782 10.1521 43.4057 10.1501 43.7626 9.58297C44.9079 7.76288 46.0507 5.94055 47.1967 4.12112C47.4774 3.67555 48.3594 3.39199 48.7671 3.61952C49.0144 3.75752 48.8076 3.90806 48.744 4.01196C48.134 5.00784 45.3207 9.46397 44.5579 10.7265C44.2969 11.1585 44.0008 11.3267 43.5657 11.323C41.366 11.3043 32.9121 11.3107 30.885 11.3077ZM36.1081 10.1802C37.1132 10.1802 38.1182 10.1812 39.1232 10.1786C39.2287 10.1783 39.362 10.2182 39.4189 10.0725C39.4751 9.92845 39.3638 9.82524 39.3016 9.72602C38.3308 8.17656 37.354 6.63254 36.3847 5.0816C36.2296 4.83348 36.0495 4.7044 35.7888 4.70684C34.7522 4.71652 33.7155 4.72595 32.679 4.71047C32.2957 4.70474 32.2019 4.91395 32.2084 5.34124C32.2263 6.52629 32.213 7.71198 32.218 8.89739C32.2223 9.91864 32.4231 10.1698 33.281 10.1828C34.2232 10.1971 36.1081 10.1821 36.1081 10.1802Z" fill="#05893B"/>
</g>
<defs>
<clipPath id="clip0_2187_30903">
<rect width="48" height="11" fill="white" transform="translate(0.882812 0.515625)"/>
</clipPath>
</defs>
</svg>
