<svg width="81" height="81" viewBox="0 0 81 81" fill="none" xmlns="http://www.w3.org/2000/svg">
<g clip-path="url(#clip0_926_949)">
<path d="M0.535156 0.289062H80.5352V80.2891H0.535156V0.289062Z" fill="#FFC403"/>
<path d="M36.098 35.5664V44.6981H33.6005V39.5762L31.9322 42.0444H30.6249L28.7907 39.5762V44.6981H26.5078V35.5664H28.8102L31.4444 39.1469L33.8054 35.5664H36.098ZM36.82 37.6347V35.5664H45.3468V37.6347H42.3615V44.6981H39.8151V37.6347H36.82ZM54.7419 35.5664V44.6981H52.6444L48.3517 39.4786V44.6981H46.0688V35.5664H48.3419L52.4492 40.6005V35.5664H54.7419Z" fill="black"/>
<path d="M40.5351 54.2404C33.1595 54.2404 26.2034 52.8648 20.9546 50.3575C15.4619 47.7331 12.4375 44.1623 12.4375 40.2891C12.4375 36.416 15.4619 32.8452 20.9546 30.2208C26.2034 27.7135 33.1595 26.3379 40.5351 26.3379C47.9107 26.3379 54.8668 27.7135 60.1156 30.2208C65.6083 32.8452 68.6326 36.416 68.6326 40.2891C68.6326 44.1623 65.6083 47.7331 60.1156 50.3575C54.8668 52.8648 47.9107 54.2404 40.5351 54.2404ZM40.5351 28.3964C33.4521 28.3964 26.818 29.7038 21.8424 32.0842C17.1107 34.3477 14.496 37.2647 14.496 40.2989C14.496 43.3331 17.1009 46.2501 21.8424 48.5038C26.818 50.8843 33.4619 52.1916 40.5351 52.1916C47.6082 52.1916 54.2521 50.8843 59.2278 48.5038C63.9595 46.2501 66.5741 43.3233 66.5741 40.2989C66.5741 37.2745 63.9692 34.3477 59.2278 32.094C54.2521 29.7038 47.618 28.3964 40.5351 28.3964Z" fill="black"/>
</g>
<defs>
<clipPath id="clip0_926_949">
<rect width="80" height="80" fill="white" transform="translate(0.535156 0.289062)"/>
</clipPath>
</defs>
</svg>
