<svg width="82" height="53" viewBox="0 0 82 53" fill="none" xmlns="http://www.w3.org/2000/svg">
<g clip-path="url(#clip0_926_935)">
<path d="M77.5097 0.263055L57.4324 0.257812H57.4269C57.4111 0.257812 57.3962 0.260572 57.381 0.260572C54.6229 0.345005 51.1874 2.55737 50.5618 5.28516L41.067 47.2983C40.4412 50.0518 42.1431 52.292 44.8814 52.3331H65.9739C68.6699 52.1998 71.2907 50.0129 71.9054 47.316L81.4008 5.30255C82.0366 2.5215 80.2938 0.263055 77.5097 0.263055Z" fill="#01798A"/>
<path d="M41.0702 47.2994L50.565 5.28622C51.1906 2.55843 54.6261 0.346065 57.3842 0.261632L49.4012 0.256665L35.0186 0.253906C32.2528 0.310471 28.7728 2.53829 28.1473 5.2865L18.6497 47.2994C18.0217 50.0528 19.7264 52.293 22.4627 52.3342H44.8846C42.1463 52.293 40.4444 50.0528 41.0702 47.2994Z" fill="#024381"/>
<path d="M18.6495 47.2984L28.1471 5.28532C28.7726 2.53711 32.2525 0.309302 35.0184 0.252738L16.5936 0.248047C13.8123 0.248047 10.2462 2.50152 9.61048 5.28532L0.112896 47.2984C0.0552281 47.5547 0.022945 47.8061 0.00390625 48.0517V48.8309C0.189879 50.8379 1.72264 52.2995 3.92589 52.3329H22.4625C19.7261 52.2921 18.0215 50.0518 18.6495 47.2984Z" fill="#DD0228"/>
<path d="M35.4053 30.8668H35.7541C36.0744 30.8668 36.2899 30.7589 36.3912 30.5462L37.2973 29.1903H39.7235L39.2177 30.0821H42.1268L41.7576 31.4487H38.2959C37.8972 32.0486 37.4063 32.3303 36.8164 32.2969H35.0132L35.4053 30.8668ZM35.0069 32.8251H41.381L40.9745 34.3095H38.4109L38.02 35.7421H40.5143L40.1081 37.2266H37.6138L37.0344 39.3438C36.8909 39.6978 37.0796 39.8567 37.5972 39.8208H39.63L39.2533 41.2005H35.3504C34.6106 41.2005 34.3568 40.7772 34.5888 39.9287L35.3297 37.2269H33.7354L34.1405 35.7424H35.735L36.126 34.3098H34.6018L35.0069 32.8251ZM45.1802 29.1798L45.08 30.049C45.08 30.049 46.2822 29.1464 47.374 29.1464H51.4089L49.8659 34.7322C49.7379 35.3707 49.1891 35.6883 48.22 35.6883H43.6466L42.5755 39.6106C42.5134 39.8208 42.6008 39.9285 42.8315 39.9285H43.7316L43.4007 41.1461H41.1131C40.2351 41.1461 39.8697 40.8821 40.0146 40.3514L43.0418 29.1798H45.1802ZM48.5972 30.7589H44.9956L44.5646 32.2663C44.5646 32.2663 45.1644 31.8334 46.1669 31.8179C47.1665 31.8022 48.3075 31.8179 48.3075 31.8179L48.5972 30.7589ZM47.2921 34.2554C47.5584 34.2916 47.7076 34.1865 47.7253 33.9376L47.9458 33.1432H44.3389L44.0365 34.2554H47.2921ZM44.8596 36.0603H46.9386L46.8997 36.9601H47.4532C47.733 36.9601 47.8718 36.8704 47.8718 36.6935L48.0357 36.1116H49.7638L49.5331 36.9601C49.3378 37.6675 48.8204 38.0367 47.9794 38.0729H46.8719L46.8666 39.6106C46.8465 39.857 47.0689 39.9825 47.5277 39.9825H48.5685L48.2327 41.2005H45.7359C45.0359 41.2336 44.6926 40.9003 44.7001 40.1928L44.8596 36.0603ZM19.6655 21.7381C19.3835 23.12 18.7298 24.1812 17.7158 24.9347C16.7109 25.6756 15.4152 26.0472 13.8283 26.0472C12.335 26.0472 11.2404 25.6678 10.5418 24.9066C10.0573 24.3658 9.81641 23.6787 9.81641 22.8482C9.81641 22.5046 9.85752 22.1355 9.93947 21.7384L11.6301 13.5868H14.1832L12.516 21.6457C12.4684 21.8481 12.4452 22.0555 12.4471 22.2635C12.4443 22.6763 12.5469 23.0146 12.7544 23.2786C13.0569 23.671 13.5477 23.8655 14.2312 23.8655C15.0167 23.8655 15.6641 23.6735 16.1665 23.2861C16.669 22.9014 16.997 22.3556 17.1444 21.6454L18.817 13.5859H21.3575L19.6655 21.7381ZM30.3885 18.5311H32.3881L30.8217 25.8064H28.8259L30.3885 18.5311ZM31.0178 15.8805H33.0354L32.6585 17.6464H30.6412L31.0178 15.8805ZM34.1581 25.2526C33.635 24.7526 33.3709 24.0785 33.3684 23.2223C33.3684 23.0761 33.3773 22.9097 33.3969 22.7276C33.4162 22.543 33.4404 22.3637 33.4749 22.197C33.712 21.0152 34.2172 20.0771 34.995 19.3848C35.7717 18.69 36.7088 18.3415 37.8061 18.3415C38.7045 18.3415 39.4172 18.5929 39.939 19.095C40.4605 19.6003 40.7218 20.2818 40.7218 21.1485C40.7218 21.2969 40.7105 21.4688 40.6912 21.6534C40.6688 21.8354 40.641 22.0167 40.6078 22.197C40.3761 23.3608 39.8725 24.2888 39.0944 24.9681C38.3163 25.6524 37.3817 25.9932 36.2924 25.9932C35.3901 25.9934 34.6799 25.7473 34.1581 25.2526ZM37.9689 23.812C38.3215 23.4301 38.5737 22.8507 38.7277 22.0792C38.7509 21.9586 38.7713 21.833 38.784 21.7075C38.7967 21.5844 38.8019 21.4691 38.8019 21.364C38.8019 20.9153 38.6877 20.5668 38.4584 20.3207C38.2305 20.0721 37.9063 19.949 37.4871 19.949C36.9334 19.949 36.482 20.1436 36.1285 20.5334C35.772 20.9233 35.5193 21.5127 35.3603 22.2972C35.3385 22.4177 35.3206 22.5383 35.304 22.6561C35.2913 22.7767 35.2875 22.8893 35.29 22.9919C35.29 23.4381 35.4042 23.7816 35.6335 24.025C35.8617 24.2686 36.1845 24.3889 36.6089 24.3889C37.1654 24.3887 37.6163 24.1963 37.9689 23.812Z" fill="white"/>
<path d="M57.4273 0.258343L49.3984 0.255859L57.3815 0.261102C57.3964 0.261102 57.4115 0.258343 57.4273 0.258343Z" fill="#E02F41"/>
<path d="M49.3982 0.255773L35.126 0.248047C35.0901 0.248047 35.0529 0.25053 35.0156 0.253014L49.3982 0.255773Z" fill="#2E4F7D"/>
<path d="M53.6961 30.9271L54.1781 29.2302H56.6162L56.511 29.8532C56.511 29.8532 57.7566 29.2302 58.6539 29.2302H61.6683L61.1893 30.9271H60.715L58.4411 38.9306H58.9154L58.4643 40.5199H57.99L57.7927 41.2095H55.4316L55.6286 40.5199H50.971L51.4249 38.9306H51.8915L54.1676 30.9271H53.6961ZM56.3264 30.9271L55.7062 33.0931C55.7062 33.0931 56.7679 32.6856 57.6829 32.5702C57.8849 31.8142 58.1489 30.9271 58.1489 30.9271H56.3264ZM55.4189 34.1085L54.7962 36.3775C54.7962 36.3775 55.9727 35.798 56.7801 35.7494C57.0132 34.8726 57.2467 34.1088 57.2467 34.1088L55.4189 34.1085ZM55.875 38.9306L56.3413 37.2847H54.5219L54.0526 38.9306H55.875ZM61.771 29.125H64.0631L64.1605 29.9707C64.145 30.186 64.2733 30.2889 64.5451 30.2889H64.9502L64.5404 31.7215H62.8559C62.213 31.7546 61.8822 31.5087 61.8513 30.9781L61.771 29.125ZM61.0994 32.1988H68.5231L68.0874 33.7371H65.7239L65.3185 35.1672H67.6802L67.2415 36.7028H64.6116L64.0167 37.6028H65.3042L65.6014 39.4049C65.6367 39.5843 65.7956 39.6715 66.0677 39.6715H66.4672L66.0473 41.1554H64.632C63.8986 41.1915 63.5198 40.9454 63.4886 40.4148L63.1476 38.7689L61.9763 40.5199C61.6992 41.0147 61.2735 41.2453 60.6996 41.2095H58.5385L58.9588 39.725H59.6331C59.9102 39.725 60.1406 39.6022 60.348 39.3533L62.1816 36.7028H59.818L60.2562 35.1672H62.8198L63.2273 33.7371H60.6615L61.0994 32.1988ZM22.0177 18.5276H23.8212L23.6148 19.5786L23.8736 19.2786C24.4583 18.6531 25.1682 18.343 26.0065 18.343C26.7653 18.343 27.3124 18.5634 27.6562 19.0068C27.9945 19.4503 28.087 20.0631 27.9266 20.85L26.933 25.8079H25.0797L25.9767 21.3141C26.0691 20.85 26.0435 20.504 25.9011 20.2808C25.7604 20.0578 25.4911 19.9477 25.1026 19.9477C24.6258 19.9477 24.2246 20.0962 23.8976 20.3912C23.5695 20.6886 23.3529 21.1014 23.2464 21.6268L22.4197 25.8079H20.5625L22.0177 18.5276ZM42.6985 18.5276H44.5036L44.2986 19.5786L44.5544 19.2786C45.1396 18.6531 45.8521 18.343 46.6879 18.343C47.4466 18.343 47.9946 18.5634 48.336 19.0068C48.6723 19.4503 48.7692 20.0631 48.6053 20.85L47.6155 25.8079H45.7596L46.6572 21.3141C46.7494 20.85 46.7234 20.504 46.5824 20.2808C46.4362 20.0578 46.1722 19.9477 45.7853 19.9477C45.3082 19.9477 44.9087 20.0962 44.5779 20.3912C44.2498 20.6886 44.0318 21.1014 43.9294 21.6268L43.0986 25.8079H41.2439L42.6985 18.5276ZM51.62 14.0156H56.8598C57.8669 14.0156 58.6464 14.2438 59.182 14.6922C59.7151 15.1464 59.9819 15.7973 59.9819 16.6457V16.6714C59.9819 16.8328 59.9714 17.0149 59.956 17.2122C59.9293 17.4126 59.8951 17.6118 59.8536 17.8096C59.6226 18.9323 59.0871 19.8349 58.2593 20.5192C57.4282 21.201 56.4443 21.5445 55.3113 21.5445H52.5013L51.6324 25.8076H49.1996L51.62 14.0156ZM52.9295 19.4941H55.2597C55.867 19.4941 56.3491 19.3529 56.7009 19.0736C57.0496 18.7916 57.2803 18.3609 57.4078 17.7765C57.4282 17.6686 57.4412 17.5712 57.4566 17.4815C57.4644 17.3971 57.4746 17.3121 57.4746 17.2304C57.4746 16.8124 57.3261 16.51 57.0284 16.3202C56.7312 16.1276 56.2646 16.0357 55.6187 16.0357H53.6398L52.9295 19.4941ZM70.8715 27.2153C70.1022 28.8508 69.3694 29.8041 68.939 30.2475C68.508 30.6862 67.6543 31.7063 65.5983 31.6293L65.7758 30.3813C67.5058 29.848 68.4412 27.4457 68.9748 26.3821L68.3388 18.548L69.6771 18.53H70.7998L70.9206 23.4443L73.0248 18.53H75.1555L70.8715 27.2153ZM64.9143 19.1222L64.0681 19.7041C63.1837 19.0121 62.3764 18.5838 60.8179 19.3068C58.6953 20.291 56.9213 27.8409 62.7662 25.3542L63.0993 25.7491L65.3988 25.8081L66.909 18.9481L64.9143 19.1222ZM63.6064 22.8726C63.2372 23.9622 62.4122 24.6824 61.766 24.4773C61.1201 24.2773 60.8891 23.2263 61.2638 22.1342C61.633 21.0421 62.4636 20.3244 63.1043 20.5294C63.7502 20.7294 63.9833 21.7804 63.6064 22.8726Z" fill="white"/>
</g>
<defs>
<clipPath id="clip0_926_935">
<rect width="81.5358" height="52.0852" fill="white" transform="translate(0 0.248047)"/>
</clipPath>
</defs>
</svg>
