<svg width="81" height="81" viewBox="0 0 81 81" fill="none" xmlns="http://www.w3.org/2000/svg">
<g clip-path="url(#clip0_926_953)">
<path d="M36.0581 50.8474H30.5643L33.9978 29.7462H39.4922L36.0581 50.8474ZM25.9426 29.7462L20.7051 44.2598L20.0854 41.1344L20.0859 41.1356L18.2374 31.6461C18.2374 31.6461 18.0138 29.7462 15.6313 29.7462H6.97269L6.87109 30.1035C6.87109 30.1035 9.51891 30.6544 12.6177 32.5154L17.3907 50.848H23.1147L31.8552 29.7462H25.9426ZM69.1538 50.8474H74.1983L69.8001 29.7456H65.3839C63.3446 29.7456 62.8478 31.3182 62.8478 31.3182L54.6543 50.8474H60.3812L61.5265 47.7131H68.5104L69.1538 50.8474ZM63.1086 43.3832L65.9952 35.4866L67.6191 43.3832H63.1086ZM55.0839 34.8206L55.8679 30.2892C55.8679 30.2892 53.4487 29.3691 50.9267 29.3691C48.2004 29.3691 41.7262 30.5607 41.7262 36.3547C41.7262 41.8061 49.3248 41.8739 49.3248 44.7373C49.3248 47.6007 42.5091 47.0876 40.2598 45.282L39.4431 50.0199C39.4431 50.0199 41.8961 51.2115 45.6441 51.2115C49.3931 51.2115 55.0489 49.2704 55.0489 43.9871C55.0489 38.5007 47.382 37.9899 47.382 35.6046C47.3826 33.2187 52.733 33.5252 55.0839 34.8206Z" fill="#2566AF"/>
<path d="M20.0859 41.1354L18.2374 31.646C18.2374 31.646 18.0138 29.7461 15.6313 29.7461H6.97269L6.87109 30.1034C6.87109 30.1034 11.0328 30.9659 15.0245 34.1973C18.8413 37.2859 20.0859 41.1354 20.0859 41.1354Z" fill="#E6A540"/>
</g>
<defs>
<clipPath id="clip0_926_953">
<rect width="80" height="80" fill="white" transform="translate(0.535156 0.289062)"/>
</clipPath>
</defs>
</svg>
