<svg width="50" height="51" viewBox="0 0 50 51" fill="none" xmlns="http://www.w3.org/2000/svg">
<g clip-path="url(#clip0_758_215)">
<path d="M25 50.4219C38.8071 50.4219 50 39.229 50 25.4219C50 11.6148 38.8071 0.421875 25 0.421875C11.1929 0.421875 0 11.6148 0 25.4219C0 39.229 11.1929 50.4219 25 50.4219Z" fill="url(#paint0_linear_758_215)"/>
<path d="M49.8057 28.5898C48.5664 38.3965 41.6465 46.4326 32.4463 49.293L18.1172 34.9727L37.0869 15.875L49.8057 28.5898Z" fill="url(#paint1_linear_758_215)"/>
<path d="M37.1495 15.9387L37.086 15.8742C36.7581 15.5463 36.3688 15.2862 35.9403 15.1087C35.5119 14.9312 35.0527 14.8398 34.5889 14.8398C34.1252 14.8398 33.666 14.9312 33.2375 15.1087C32.8091 15.2862 32.4198 15.5463 32.0919 15.8742L20.6133 27.3537L17.921 24.6613C17.589 24.3293 17.1948 24.0658 16.761 23.8861C16.3272 23.7064 15.8622 23.6139 15.3926 23.6139C14.9231 23.6139 14.4581 23.7064 14.0243 23.8861C13.5905 24.0658 13.1963 24.3293 12.8643 24.6613C12.5321 24.9933 12.2686 25.3876 12.0888 25.8215C11.909 26.2554 11.8164 26.7205 11.8164 27.1901C11.8164 27.6598 11.909 28.1249 12.0888 28.5588C12.2686 28.9927 12.5321 29.3869 12.8643 29.7189L18.0528 34.9074L18.1163 34.9719C18.4441 35.2998 18.8333 35.5599 19.2617 35.7374C19.69 35.9148 20.1492 36.0062 20.6129 36.0062C21.0765 36.0062 21.5357 35.9148 21.964 35.7374C22.3924 35.5599 22.7816 35.2998 23.1094 34.9719L23.1417 34.9397L37.1495 20.9309C37.8114 20.2688 38.1833 19.371 38.1833 18.4348C38.1833 17.4986 37.8114 16.6007 37.1495 15.9387Z" fill="white"/>
</g>
<defs>
<linearGradient id="paint0_linear_758_215" x1="7.32227" y1="7.74414" x2="42.6777" y2="43.0996" gradientUnits="userSpaceOnUse">
<stop stop-color="#21D1F7"/>
<stop offset="1" stop-color="#2196F3"/>
</linearGradient>
<linearGradient id="paint1_linear_758_215" x1="27.5703" y1="25.3916" x2="43.9785" y2="41.8008" gradientUnits="userSpaceOnUse">
<stop stop-color="#186EB3"/>
<stop offset="0.93" stop-color="#186EB3" stop-opacity="0"/>
</linearGradient>
<clipPath id="clip0_758_215">
<rect width="50" height="50" fill="white" transform="translate(0 0.421875)"/>
</clipPath>
</defs>
</svg>
