<svg width="35" height="35" viewBox="0 0 35 35" fill="none" xmlns="http://www.w3.org/2000/svg">
<rect width="35" height="35" rx="17.5" fill="#EBEBEB"/>
<g clip-path="url(#clip0_606_14075)">
<path d="M25.4244 10.6278V28.7167C25.4244 29.426 24.8495 30.0008 24.1403 30.0008H9.24111C8.53188 30.0008 7.95703 29.4259 7.95703 28.7167V10.6278C7.95703 9.9186 8.53193 9.34375 9.24111 9.34375H24.1403C24.8496 9.34375 25.4244 9.91865 25.4244 10.6278Z" fill="#1F2A40"/>
<path d="M25.4229 10.6278V28.3279H10.6591C9.94985 28.3279 9.375 27.7531 9.375 27.0438V9.34375H24.1389C24.848 9.34375 25.4229 9.91865 25.4229 10.6278Z" fill="#A2A0A0" fill-opacity="0.25"/>
<path d="M29.1339 24.8241L14.8765 29.1483C14.1977 29.3541 13.4809 28.9709 13.275 28.2926L8.0246 10.9818C7.81825 10.3035 8.20151 9.58622 8.88031 9.38036L9.15761 9.29623L23.1377 5.05561C23.8165 4.8498 24.5333 5.23305 24.7392 5.91186L29.871 22.8297L29.9902 23.2226C30.1959 23.9009 29.8127 24.6183 29.1339 24.8241Z" fill="#DDDDDD"/>
<path d="M29.8696 22.8297L15.889 27.0698C15.2102 27.2756 14.4934 26.8924 14.2875 26.2141L9.15625 9.29623L23.1364 5.05561C23.8152 4.8498 24.532 5.23305 24.7378 5.91186L29.8696 22.8297Z" fill="white"/>
<path d="M17.2319 13.6602C17.8079 13.6976 18.0907 13.7348 18.2225 14.1694C18.3359 14.5431 18.1943 14.7762 17.7769 14.9028C17.3888 15.0205 17.2 14.9103 17.0333 14.8129C16.9217 14.7477 16.7951 14.6738 16.6368 14.7218C16.3954 14.795 16.2847 15.104 16.3505 15.3211C16.4585 15.6771 17.0086 15.9022 17.6112 15.8522L17.6572 16.0037C17.7335 16.2553 18.0002 16.3978 18.2517 16.3215C18.5032 16.2452 18.6457 15.9785 18.5695 15.727L18.5204 15.5654C19.1134 15.2095 19.3261 14.5964 19.1039 13.864C18.7824 12.8043 17.9324 12.7537 17.4245 12.7236L17.3652 12.7201C16.8604 12.691 16.6334 12.6656 16.5433 12.3687C16.4932 12.2035 16.5157 12.0839 16.6161 11.9805C16.7213 11.8722 16.8853 11.8064 17.0044 11.7702C17.2923 11.6829 17.4733 11.716 17.6054 11.7402C17.6994 11.7574 17.7883 11.7736 17.885 11.7443C18.1572 11.6617 18.2236 11.3386 18.1654 11.1468C18.0416 10.7386 17.419 10.7806 17.0856 10.8349L17.0392 10.6821C16.9629 10.4306 16.6963 10.2881 16.4448 10.3643C16.1933 10.4406 16.0508 10.7073 16.127 10.9588L16.1907 11.1687C15.6599 11.5178 15.4721 12.048 15.662 12.6741C15.9355 13.5759 16.6543 13.6226 17.2319 13.6602Z" fill="#1F2A40"/>
<path d="M24.9461 15.8598C24.8851 15.6588 24.6726 15.5454 24.4718 15.6063L13.6332 18.8939C13.4323 18.9549 13.3188 19.1672 13.3797 19.3682C13.4296 19.5323 13.5803 19.6381 13.7434 19.6381C13.78 19.6381 13.8172 19.6328 13.8539 19.6217L24.6925 16.334C24.8935 16.273 25.0069 16.0607 24.9461 15.8598Z" fill="#1F2A40"/>
<path d="M25.5789 17.9457C25.5179 17.7447 25.3055 17.6314 25.1046 17.6922L14.266 20.9798C14.0651 21.0408 13.9516 21.2531 14.0126 21.454C14.0624 21.6182 14.2131 21.724 14.3762 21.724C14.4128 21.724 14.45 21.7187 14.4867 21.7075L25.3254 18.4199C25.5263 18.3589 25.6398 18.1466 25.5789 17.9457Z" fill="#1F2A40"/>
<path d="M26.2116 20.0316C26.1506 19.8307 25.9382 19.7173 25.7374 19.7782L14.8988 23.0658C14.6979 23.1268 14.5844 23.3391 14.6454 23.54C14.6952 23.7042 14.846 23.81 15.009 23.81C15.0456 23.81 15.0828 23.8047 15.1195 23.7935L25.9582 20.5059C26.1591 20.4449 26.2726 20.2326 26.2116 20.0316Z" fill="#1F2A40"/>
<path d="M26.8445 22.1176C26.7835 21.9166 26.5712 21.8032 26.3703 21.8641L15.5317 25.1517C15.3307 25.2127 15.2172 25.425 15.2782 25.626C15.328 25.7901 15.4788 25.8959 15.6419 25.8959C15.6784 25.8959 15.7156 25.8906 15.7524 25.8795L26.591 22.5918C26.792 22.5308 26.9054 22.3184 26.8445 22.1176Z" fill="#1F2A40"/>
<path d="M13.898 7.85879L13.17 8.0793C12.9444 7.40859 12.3097 6.92446 11.564 6.92446C10.6297 6.92446 9.86978 7.68438 9.86978 8.6187V13.014C9.86978 13.56 10.3144 14.0045 10.8604 14.0045C11.4063 14.0045 11.8509 13.56 11.8509 13.014V8.62832C11.8509 8.57866 11.8393 8.53149 11.8175 8.48994C11.7673 8.39106 11.6644 8.32314 11.5458 8.32314C11.3774 8.32314 11.2406 8.46001 11.2406 8.62832V12.4005C11.2406 12.6104 11.0703 12.7808 10.8604 12.7808C10.6504 12.7808 10.4801 12.6104 10.4801 12.4005V8.62832C10.4801 8.04077 10.9582 7.5627 11.5458 7.5627C12.0071 7.5627 12.4005 7.85723 12.5485 8.26787C12.5891 8.38042 12.6113 8.5021 12.6113 8.62832V13.0139C12.6113 13.9791 11.8255 14.7649 10.8604 14.7649C9.89463 14.7649 9.10938 13.9791 9.10938 13.0139V8.6187C9.10938 7.26514 10.2104 6.16406 11.564 6.16406C12.6524 6.16406 13.5776 6.87632 13.898 7.85879Z" fill="#0D2D53"/>
</g>
<defs>
<clipPath id="clip0_606_14075">
<rect width="25" height="25" fill="white" transform="translate(6.5 5)"/>
</clipPath>
</defs>
</svg>
