<svg width="49" height="49" viewBox="0 0 49 49" fill="none" xmlns="http://www.w3.org/2000/svg">
<rect x="2" y="1" width="45" height="45" rx="22.5" fill="white"/>
<g filter="url(#filter0_d_606_17685)">
<rect x="2" y="1" width="45" height="45" rx="22.5" fill="white"/>
<path d="M25.4496 31.8768L31.7002 25.6263C31.8786 25.4479 31.9766 25.2101 31.9766 24.9565C31.9766 24.7027 31.8785 24.465 31.7002 24.2866L31.1326 23.7191C30.9544 23.5408 30.7165 23.4426 30.4628 23.4426C30.2092 23.4426 29.9633 23.5408 29.7851 23.7191L26.1307 27.3655L26.1307 15.7807C26.1307 15.2584 25.7218 14.8457 25.1993 14.8457L24.3968 14.8457C23.8744 14.8457 23.4242 15.2584 23.4242 15.7807L23.4242 27.4069L19.7494 23.7193C19.571 23.541 19.3395 23.4428 19.0858 23.4428C18.8324 23.4428 18.5975 23.541 18.4193 23.7193L17.8535 24.2868C17.675 24.4652 17.5778 24.7028 17.5778 24.9567C17.5778 25.2103 17.6763 25.4481 17.8547 25.6265L24.1051 31.8769C24.2841 32.0557 24.5231 32.1541 24.777 32.1534C25.0319 32.154 25.2709 32.0557 25.4496 31.8768Z" fill="#009BFF"/>
</g>
<defs>
<filter id="filter0_d_606_17685" x="0" y="0" width="49" height="49" filterUnits="userSpaceOnUse" color-interpolation-filters="sRGB">
<feFlood flood-opacity="0" result="BackgroundImageFix"/>
<feColorMatrix in="SourceAlpha" type="matrix" values="0 0 0 0 0 0 0 0 0 0 0 0 0 0 0 0 0 0 127 0" result="hardAlpha"/>
<feOffset dy="1"/>
<feGaussianBlur stdDeviation="1"/>
<feColorMatrix type="matrix" values="0 0 0 0 0.0627451 0 0 0 0 0.0941176 0 0 0 0 0.156863 0 0 0 0.05 0"/>
<feBlend mode="normal" in2="BackgroundImageFix" result="effect1_dropShadow_606_17685"/>
<feBlend mode="normal" in="SourceGraphic" in2="effect1_dropShadow_606_17685" result="shape"/>
</filter>
</defs>
</svg>
