<svg width="33" height="32" viewBox="0 0 33 32" fill="none" xmlns="http://www.w3.org/2000/svg">
<g clip-path="url(#clip0_2171_23364)">
<path d="M18.4968 24.6445H0.5V27.428C0.502102 29.1044 1.80132 30.4931 3.47415 30.6069C3.50988 30.6018 3.54592 30.5988 3.58196 30.5985H19.766C18.9491 29.7135 18.4959 28.553 18.4968 27.3484V24.6445Z" fill="#D0D5DD"/>
<path d="M5.5408 3.39538L5.40625 23.1062H19.2655C19.6901 23.1062 20.0343 23.4507 20.0343 23.875V27.348C20.0343 29.0214 21.3693 30.4486 23.0079 30.5982H23.27C23.3121 30.5985 23.3541 30.6021 23.3956 30.6093C25.1537 30.5495 26.5481 29.107 26.5484 27.348V3.64044C26.5481 2.82926 26.8169 2.0409 27.3121 1.3985H7.57281C6.4607 1.39009 5.55191 2.28356 5.5408 3.39538ZM8.83299 6.65243H16.1147C16.5394 6.65243 16.8836 6.9966 16.8836 7.42127C16.8836 7.84593 16.5394 8.19011 16.1147 8.19011H8.83299C8.40833 8.19011 8.06415 7.84593 8.06415 7.42127C8.06415 6.9966 8.40833 6.65243 8.83299 6.65243ZM8.83299 12.1496H22.4162C22.8409 12.1496 23.185 12.4938 23.185 12.9185C23.185 13.3431 22.8409 13.6873 22.4162 13.6873H8.83299C8.40833 13.6873 8.06415 13.3431 8.06415 12.9185C8.06415 12.4938 8.40833 12.1496 8.83299 12.1496ZM8.83299 17.6468H22.4162C22.8409 17.6468 23.185 17.991 23.185 18.4157C23.185 18.8403 22.8409 19.1845 22.4162 19.1845H8.83299C8.40833 19.1845 8.06415 18.8403 8.06415 18.4157C8.06415 17.991 8.40833 17.6468 8.83299 17.6468Z" fill="#D0D5DD"/>
<path d="M30.2927 1.4688C29.0842 1.4607 28.097 2.43196 28.0859 3.64047V14.2847H32.4996V3.64047C32.4884 2.43196 31.5013 1.4604 30.2927 1.4688Z" fill="#D0D5DD"/>
</g>
<defs>
<clipPath id="clip0_2171_23364">
<rect width="32" height="32" fill="white" transform="translate(0.5)"/>
</clipPath>
</defs>
</svg>
