<svg width="22" height="22" viewBox="0 0 22 22" fill="none" xmlns="http://www.w3.org/2000/svg">
<path d="M19.7559 3.66659C19.6726 3.65801 19.5886 3.65801 19.5053 3.66659H2.3942C2.28453 3.66828 2.17559 3.68473 2.07031 3.71548L10.9009 12.5094L19.7559 3.66659Z" fill="white"/>
<path d="M20.6619 4.51758L11.7641 13.3787C11.5351 13.6063 11.2254 13.7341 10.9025 13.7341C10.5796 13.7341 10.2698 13.6063 10.0408 13.3787L1.22247 4.5848C1.19536 4.68444 1.18098 4.78711 1.17969 4.89036V17.1126C1.17969 17.4367 1.30846 17.7476 1.53767 17.9768C1.76688 18.206 2.07776 18.3348 2.40191 18.3348H19.513C19.8372 18.3348 20.1481 18.206 20.3773 17.9768C20.6065 17.7476 20.7352 17.4367 20.7352 17.1126V4.89036C20.7304 4.76303 20.7056 4.63726 20.6619 4.51758ZM3.23913 17.1126H2.38969V16.2387L6.83246 11.8326L7.69413 12.6942L3.23913 17.1126ZM19.5008 17.1126H18.6452L14.1902 12.6942L15.0519 11.8326L19.4947 16.2387L19.5008 17.1126Z" fill="white"/>
</svg>
