<svg width="60" height="86" viewBox="0 0 60 86" fill="none" xmlns="http://www.w3.org/2000/svg">
<g clip-path="url(#clip0_34_785)">
<path d="M9.43359 0.164066C8.44922 0.41016 7.71094 0.832035 6.96094 1.58204C6.19922 2.34375 5.73047 3.17579 5.51953 4.19532C5.42578 4.64063 5.39062 11.918 5.39062 29.9766C5.39062 52.043 5.41406 55.2305 5.56641 55.8867C6.01172 57.7852 7.53516 59.3203 9.43359 59.8242C10.4766 60.0937 31.9453 60.0937 32.9883 59.8242C34.8984 59.3203 36.3984 57.7969 36.8555 55.8867C36.9961 55.2891 37.0312 54.2227 37.0312 50.4727V45.8203H27.1289C20.2031 45.8203 17.0508 45.7852 16.6172 45.6914C14.6133 45.2578 12.9844 43.6289 12.5508 41.625C12.375 40.7578 12.3633 19.2539 12.5508 18.375C12.9727 16.3711 14.6016 14.7422 16.6172 14.3086C17.0508 14.2148 20.2031 14.1797 27.1289 14.1797H37.0312V9.49219C37.0312 6.44532 36.9844 4.59375 36.9023 4.19532C36.4688 2.17969 34.8398 0.550785 32.8359 0.12891C31.8984 -0.0703087 10.2305 -0.0351524 9.43359 0.164066ZM22.0312 5.625C22.5586 5.89454 22.9688 6.5625 22.9688 7.14844C22.9688 8.03907 22.1016 8.90625 21.1992 8.90625C20.6602 8.90625 19.9336 8.44922 19.6758 7.94532C19.2422 7.10157 19.5117 6.17579 20.3438 5.67188C20.9062 5.33204 21.4219 5.32032 22.0312 5.625ZM22.0312 51.3281C22.5586 51.5977 22.9688 52.2656 22.9688 52.8516C22.9688 53.7422 22.1016 54.6094 21.1992 54.6094C20.6602 54.6094 19.9336 54.1523 19.6758 53.6484C19.2422 52.8047 19.5117 51.8789 20.3438 51.375C20.9062 51.0352 21.4219 51.0234 22.0312 51.3281Z" fill="black"/>
<path d="M16.8516 17.9414C16.582 18.082 16.3125 18.3516 16.1719 18.6328C15.9609 19.0547 15.9375 19.3125 15.9375 21.9141V24.7266H35.2734H54.6094V21.9141C54.6094 19.3125 54.5859 19.0547 54.375 18.6328C54.2227 18.3281 53.9766 18.082 53.6719 17.9297C53.2148 17.6953 53.0273 17.6953 35.25 17.6953C17.5898 17.707 17.2734 17.707 16.8516 17.9414Z" fill="black"/>
<path d="M15.9375 34.5703C15.9375 40.6875 15.9492 40.9219 16.1719 41.3672C16.3242 41.6719 16.5703 41.918 16.875 42.0703C17.332 42.3047 17.5312 42.3047 35.2734 42.3047C53.0156 42.3047 53.2148 42.3047 53.6719 42.0703C53.9766 41.918 54.2227 41.6719 54.375 41.3672C54.5977 40.9219 54.6094 40.6875 54.6094 34.5703V28.2422H35.2734H15.9375V34.5703ZM29.0625 33.75C29.5898 34.0195 30 34.6875 30 35.2734C30 35.8594 29.5898 36.5273 29.0625 36.7969C28.6523 37.0078 28.3711 37.0312 26.4727 37.0312C24.4922 37.0312 24.3164 37.0195 23.8828 36.7734C22.6992 36.1055 22.6875 34.5 23.8594 33.7969C24.293 33.5273 24.4102 33.5156 26.4609 33.5156C28.3828 33.5156 28.6523 33.5391 29.0625 33.75Z" fill="black"/>
</g>
<path d="M20.9252 71.44C21.7359 71.44 22.4292 71.5787 23.0052 71.856C23.5812 72.1227 24.0239 72.512 24.3332 73.024C24.6532 73.5253 24.8132 74.1333 24.8132 74.848C24.8132 75.5627 24.6532 76.176 24.3332 76.688C24.0239 77.1893 23.5812 77.5787 23.0052 77.856C22.4292 78.1227 21.7359 78.256 20.9252 78.256H18.7012V82H16.4932V71.44H20.9252ZM20.5892 76.512C21.2505 76.512 21.7465 76.3733 22.0772 76.096C22.4079 75.808 22.5732 75.392 22.5732 74.848C22.5732 74.2933 22.4079 73.8773 22.0772 73.6C21.7465 73.3227 21.2505 73.184 20.5892 73.184H18.7012V76.512H20.5892ZM32.1729 76.896C32.1729 76.4373 32.0396 76.08 31.7729 75.824C31.5169 75.568 31.1756 75.44 30.7489 75.44C30.3543 75.44 30.0076 75.5413 29.7089 75.744C29.4103 75.9467 29.1916 76.2827 29.0529 76.752L27.1809 76.176C27.3623 75.472 27.7569 74.9067 28.3649 74.48C28.9836 74.0533 29.8103 73.84 30.8449 73.84C31.5489 73.84 32.1623 73.952 32.6849 74.176C33.2076 74.3893 33.6129 74.7147 33.9009 75.152C34.1996 75.5893 34.3489 76.1387 34.3489 76.8V80.048C34.3489 80.4533 34.5409 80.656 34.9249 80.656C35.1063 80.656 35.2769 80.6293 35.4369 80.576L35.3089 81.936C35.0316 82.0747 34.6849 82.144 34.2689 82.144C33.8956 82.144 33.5596 82.08 33.2609 81.952C32.9623 81.824 32.7276 81.632 32.5569 81.376C32.3863 81.1093 32.3009 80.7787 32.3009 80.384V80.32L32.6849 80.256C32.6209 80.6613 32.4449 81.008 32.1569 81.296C31.8689 81.5733 31.5169 81.7867 31.1009 81.936C30.6956 82.0853 30.2743 82.16 29.8369 82.16C29.2929 82.16 28.8236 82.08 28.4289 81.92C28.0343 81.7493 27.7303 81.504 27.5169 81.184C27.3036 80.864 27.1969 80.4693 27.1969 80C27.1969 79.4027 27.3889 78.9173 27.7729 78.544C28.1569 78.16 28.7063 77.8987 29.4209 77.76L32.4289 77.152L32.4129 78.512L30.4929 78.896C30.1303 78.9707 29.8529 79.072 29.6609 79.2C29.4796 79.3173 29.3889 79.5147 29.3889 79.792C29.3889 80.0587 29.4849 80.2613 29.6769 80.4C29.8796 80.5387 30.1196 80.608 30.3969 80.608C30.6209 80.608 30.8396 80.5813 31.0529 80.528C31.2663 80.4747 31.4583 80.3893 31.6289 80.272C31.7996 80.1547 31.9329 79.9947 32.0289 79.792C32.1249 79.5893 32.1729 79.344 32.1729 79.056V76.896ZM44.8204 74L41.5884 82.496C41.3324 83.2213 41.0444 83.7973 40.7244 84.224C40.4151 84.6507 40.0524 84.96 39.6364 85.152C39.2311 85.344 38.7458 85.44 38.1804 85.44C37.7644 85.44 37.3804 85.3867 37.0284 85.28C36.6871 85.184 36.3884 85.056 36.1324 84.896L36.5964 83.312C36.7991 83.472 37.0124 83.584 37.2364 83.648C37.4604 83.7227 37.7164 83.76 38.0044 83.76C38.3031 83.76 38.5591 83.696 38.7724 83.568C38.9964 83.44 39.1831 83.184 39.3324 82.8L39.6044 82.112L38.7244 80.032L36.2764 74H38.7084L40.2284 78.8L40.6444 80.4L41.1404 78.704L42.5964 74H44.8204Z" fill="black"/>
<defs>
<clipPath id="clip0_34_785">
<rect width="60" height="60" fill="white"/>
</clipPath>
</defs>
</svg>
