<svg width="60" height="86" viewBox="0 0 60 86" fill="none" xmlns="http://www.w3.org/2000/svg">
<g clip-path="url(#clip0_34_787)">
<path d="M9.43359 0.164066C8.44922 0.41016 7.71094 0.832035 6.96094 1.58204C6.19922 2.34375 5.73047 3.17579 5.51953 4.19532C5.42578 4.64063 5.39062 11.918 5.39062 29.9766C5.39062 52.043 5.41406 55.2305 5.56641 55.8867C6.01172 57.7852 7.53516 59.3203 9.43359 59.8242C10.4766 60.0937 31.9453 60.0937 32.9883 59.8242C34.8984 59.3203 36.3984 57.7969 36.8555 55.8867C36.9961 55.2891 37.0312 54.2227 37.0312 50.4727V45.8203H27.1289C20.2031 45.8203 17.0508 45.7852 16.6172 45.6914C14.6133 45.2578 12.9844 43.6289 12.5508 41.625C12.375 40.7578 12.3633 19.2539 12.5508 18.375C12.9727 16.3711 14.6016 14.7422 16.6172 14.3086C17.0508 14.2148 20.2031 14.1797 27.1289 14.1797H37.0312V9.49219C37.0312 6.44532 36.9844 4.59375 36.9023 4.19532C36.4688 2.17969 34.8398 0.550785 32.8359 0.12891C31.8984 -0.0703087 10.2305 -0.0351524 9.43359 0.164066ZM22.0312 5.625C22.5586 5.89454 22.9688 6.5625 22.9688 7.14844C22.9688 8.03907 22.1016 8.90625 21.1992 8.90625C20.6602 8.90625 19.9336 8.44922 19.6758 7.94532C19.2422 7.10157 19.5117 6.17579 20.3438 5.67188C20.9062 5.33204 21.4219 5.32032 22.0312 5.625ZM22.0312 51.3281C22.5586 51.5977 22.9688 52.2656 22.9688 52.8516C22.9688 53.7422 22.1016 54.6094 21.1992 54.6094C20.6602 54.6094 19.9336 54.1523 19.6758 53.6484C19.2422 52.8047 19.5117 51.8789 20.3438 51.375C20.9062 51.0352 21.4219 51.0234 22.0312 51.3281Z" fill="#009BFF"/>
<path d="M16.8516 17.9414C16.582 18.082 16.3125 18.3516 16.1719 18.6328C15.9609 19.0547 15.9375 19.3125 15.9375 21.9141V24.7266H35.2734H54.6094V21.9141C54.6094 19.3125 54.5859 19.0547 54.375 18.6328C54.2227 18.3281 53.9766 18.082 53.6719 17.9297C53.2148 17.6953 53.0273 17.6953 35.25 17.6953C17.5898 17.707 17.2734 17.707 16.8516 17.9414Z" fill="#009BFF"/>
<path d="M15.9375 34.5703C15.9375 40.6875 15.9492 40.9219 16.1719 41.3672C16.3242 41.6719 16.5703 41.918 16.875 42.0703C17.332 42.3047 17.5312 42.3047 35.2734 42.3047C53.0156 42.3047 53.2148 42.3047 53.6719 42.0703C53.9766 41.918 54.2227 41.6719 54.375 41.3672C54.5977 40.9219 54.6094 40.6875 54.6094 34.5703V28.2422H35.2734H15.9375V34.5703ZM29.0625 33.75C29.5898 34.0195 30 34.6875 30 35.2734C30 35.8594 29.5898 36.5273 29.0625 36.7969C28.6523 37.0078 28.3711 37.0312 26.4727 37.0312C24.4922 37.0312 24.3164 37.0195 23.8828 36.7734C22.6992 36.1055 22.6875 34.5 23.8594 33.7969C24.293 33.5273 24.4102 33.5156 26.4609 33.5156C28.3828 33.5156 28.6523 33.5391 29.0625 33.75Z" fill="#009BFF"/>
</g>
<path d="M20.7894 71.44C21.6534 71.44 22.3894 71.5787 22.9974 71.856C23.6054 72.1333 24.0694 72.5333 24.3894 73.056C24.7094 73.5787 24.8694 74.2133 24.8694 74.96C24.8694 75.7067 24.7094 76.3413 24.3894 76.864C24.0694 77.3867 23.6054 77.7867 22.9974 78.064C22.3894 78.3413 21.6534 78.48 20.7894 78.48H18.6934V82H15.9414V71.44H20.7894ZM20.3574 76.416C20.9334 76.416 21.3654 76.2987 21.6534 76.064C21.9521 75.8187 22.1014 75.4507 22.1014 74.96C22.1014 74.4693 21.9521 74.1067 21.6534 73.872C21.3654 73.6267 20.9334 73.504 20.3574 73.504H18.6934V76.416H20.3574ZM31.9009 76.928C31.9009 76.5547 31.7943 76.2613 31.5809 76.048C31.3783 75.824 31.1009 75.712 30.7489 75.712C30.3969 75.712 30.0929 75.8027 29.8369 75.984C29.5916 76.1547 29.4209 76.464 29.3249 76.912L27.0209 76.368C27.1703 75.6 27.5649 74.9867 28.2049 74.528C28.8449 74.0693 29.7463 73.84 30.9089 73.84C31.6876 73.84 32.3489 73.9573 32.8929 74.192C33.4476 74.416 33.8689 74.7573 34.1569 75.216C34.4556 75.664 34.6049 76.2187 34.6049 76.88V79.808C34.6049 80.224 34.7916 80.432 35.1649 80.432C35.3569 80.432 35.5116 80.4107 35.6289 80.368L35.4689 81.92C35.1489 82.0693 34.7596 82.144 34.3009 82.144C33.8849 82.144 33.5169 82.08 33.1969 81.952C32.8769 81.8133 32.6263 81.6107 32.4449 81.344C32.2636 81.0667 32.1729 80.72 32.1729 80.304V80.208L32.4769 80.096C32.4769 80.5547 32.3383 80.9387 32.0609 81.248C31.7943 81.5573 31.4423 81.7867 31.0049 81.936C30.5783 82.0853 30.1303 82.16 29.6609 82.16C29.1169 82.16 28.6423 82.0747 28.2369 81.904C27.8316 81.7333 27.5169 81.488 27.2929 81.168C27.0796 80.8373 26.9729 80.432 26.9729 79.952C26.9729 79.376 27.1436 78.9013 27.4849 78.528C27.8369 78.144 28.3863 77.8773 29.1329 77.728L32.1569 77.104L32.1409 78.544L30.6049 78.864C30.2849 78.928 30.0449 79.024 29.8849 79.152C29.7356 79.2693 29.6609 79.4507 29.6609 79.696C29.6609 79.9307 29.7463 80.1067 29.9169 80.224C30.0876 80.3413 30.2903 80.4 30.5249 80.4C30.7063 80.4 30.8769 80.3733 31.0369 80.32C31.2076 80.2667 31.3569 80.1867 31.4849 80.08C31.6129 79.9627 31.7143 79.8187 31.7889 79.648C31.8636 79.4773 31.9009 79.2747 31.9009 79.04V76.928ZM45.2349 74L42.3229 82C42.0243 82.8427 41.6989 83.5147 41.3469 84.016C40.9949 84.5173 40.5789 84.88 40.0989 85.104C39.6189 85.328 39.0429 85.44 38.3709 85.44C37.9229 85.44 37.5123 85.392 37.1389 85.296C36.7656 85.2 36.4403 85.0667 36.1629 84.896L36.7069 83.056C36.8989 83.1947 37.1016 83.2907 37.3149 83.344C37.5283 83.408 37.8003 83.44 38.1309 83.44C38.4403 83.44 38.6909 83.3867 38.8829 83.28C39.0856 83.1733 39.2456 82.9707 39.3629 82.672L39.5709 82.176L38.6429 80L36.2429 74H39.2349L40.4669 78.56L40.8509 80.256L41.2989 78.496L42.5309 74H45.2349Z" fill="#009BFF"/>
<defs>
<clipPath id="clip0_34_787">
<rect width="60" height="60" fill="white"/>
</clipPath>
</defs>
</svg>
