<svg width="20" height="20" viewBox="0 0 20 20" fill="none" xmlns="http://www.w3.org/2000/svg">
<path d="M10.3948 6.23495C12.5807 6.23495 13.5131 7.16731 13.5131 9.35321H15.592C15.592 6.00108 13.747 4.15611 10.3948 4.15611V6.23495ZM13.9518 11.8925C13.752 11.711 13.4896 11.6142 13.2198 11.6225C12.95 11.6308 12.694 11.7437 12.5059 11.9372L10.0185 14.4952C9.41976 14.3809 8.21608 14.0057 6.97706 12.7698C5.73804 11.5298 5.3628 10.323 5.25158 9.72844L7.80758 7.24007C8.00135 7.05207 8.11436 6.79605 8.1227 6.52621C8.13104 6.25636 8.03406 5.99385 7.85228 5.79424L4.01152 1.57108C3.82966 1.37084 3.57691 1.24938 3.30693 1.2325C3.03696 1.21561 2.77104 1.30463 2.56565 1.48065L0.310049 3.41501C0.13034 3.59536 0.0230773 3.8354 0.00860866 4.08959C-0.00698305 4.34945 -0.304265 10.5049 4.46888 15.28C8.6329 19.4429 13.8489 19.7474 15.2854 19.7474C15.4953 19.7474 15.6242 19.7412 15.6585 19.7391C15.9127 19.7249 16.1526 19.6171 16.3321 19.4366L18.2655 17.18C18.4416 16.9748 18.5308 16.7089 18.5141 16.439C18.4974 16.169 18.3762 15.9162 18.1761 15.7342L13.9518 11.8925Z" fill="white"/>
</svg>
