<svg width="60" height="86" viewBox="0 0 60 86" fill="none" xmlns="http://www.w3.org/2000/svg">
<path d="M26.0761 0.164062C24.1308 0.64453 22.7246 2.17969 22.373 4.19531C22.1152 5.67187 22.6425 7.27734 23.7558 8.40234C24.7167 9.35156 25.8652 9.84375 27.1894 9.84375C28.9472 9.84375 30.6464 8.87109 31.4902 7.37109C32.2519 6.02344 32.3222 4.30078 31.666 2.89453C30.6699 0.749999 28.3261 -0.38672 26.0761 0.164062Z" fill="#F58220"/>
<path d="M21.6088 11.6606C20.0619 12.1528 19.0307 13.1254 18.1166 14.9536C17.6596 15.8676 12.4682 30.6567 12.351 31.3832C12.2689 31.934 12.4564 32.602 12.8549 33.1411C13.1361 33.5161 13.8978 33.9848 14.226 33.9848C14.3549 33.9848 14.601 34.5707 15.058 35.977C15.4096 37.0786 15.7025 38.0512 15.7025 38.1332C15.7025 38.2153 15.5033 38.3793 15.2689 38.4848C14.7416 38.7309 14.4135 39.1293 14.3432 39.645C14.308 39.8911 14.8705 42.5278 15.9252 47.0629C16.8275 50.9301 17.6127 54.2231 17.683 54.3871C17.8471 54.8325 18.3392 55.2075 18.8314 55.2778C19.183 55.3246 19.933 55.1254 22.3822 54.3168C24.0814 53.7543 25.6049 53.2153 25.7572 53.1098C26.1088 52.8871 26.3666 52.3715 26.3666 51.9262C26.3666 51.645 21.7611 40.7231 20.5892 38.2153C20.2377 37.477 19.8041 37.2309 18.9135 37.3129L18.1986 37.3715L17.4721 35.1215L16.7572 32.8715L17.1439 31.8168C17.3549 31.2309 18.3275 28.5121 19.2767 25.7582C20.2377 23.0043 21.0463 20.7661 21.058 20.7895C21.0697 20.8012 20.5541 23.6489 19.8978 27.1176L18.7025 33.4223L19.0541 34.4887C19.4057 35.5434 19.4174 35.5551 19.8392 35.6489C20.5189 35.7895 21.1517 36.1645 21.5736 36.6684C21.8549 36.9848 22.6752 38.7543 24.2572 42.434L26.5424 47.7426L26.5775 43.7817L26.601 39.8325L27.2221 39.8676L27.8314 39.9028L27.89 48.9848C27.9603 59.1098 27.89 58.3598 28.7807 59.227C29.8236 60.2348 31.4174 60.2465 32.5424 59.2504C33.3158 58.5707 33.515 58.0668 33.515 56.7192C33.515 55.7582 33.4682 55.5239 33.2221 55.0317C32.8471 54.2817 32.8471 53.7192 33.2221 49.6879C33.4564 47.2387 33.515 45.8793 33.515 43.2075V39.8442H33.7963C34.0541 39.8442 34.0892 39.7739 34.1596 39.2231C34.3119 38.0746 34.8392 37.2075 35.7182 36.6567C35.9174 36.5278 36.0932 36.3286 36.0932 36.2114C36.0932 36.0825 35.5072 32.7778 34.8041 28.8637C34.0892 24.9496 33.4799 21.5512 33.4564 21.3286C33.4213 21.1059 33.6322 21.5864 33.9252 22.4184C36.7963 30.5512 37.64 32.8832 37.7455 32.977C37.8041 33.0473 37.851 34.1254 37.851 35.4614V37.8168L37.3236 37.8871C36.6557 37.9809 36.2807 38.227 36.0463 38.7309C35.9057 39.0121 35.683 41.1215 35.1908 46.5004C34.4642 54.6332 34.4642 54.352 35.2025 54.8793C35.5541 55.1371 35.6361 55.1371 39.1049 55.1371C42.515 55.1371 42.6557 55.1254 42.9721 54.8911C43.1478 54.7504 43.3939 54.4809 43.5111 54.2817C43.7221 53.9184 43.7103 53.7661 43.0658 46.5004C42.5971 41.3207 42.351 38.9653 42.2221 38.7075C41.9994 38.227 41.6127 37.9809 40.9564 37.8871L40.4291 37.8168V35.8598V33.8911L40.7807 33.7504C41.5892 33.4106 42.1517 32.3676 42.0346 31.4184C41.9642 30.9262 37.2299 17.2387 36.515 15.4809C35.8236 13.77 34.7689 12.5629 33.3978 11.9067L32.6361 11.5434L27.3627 11.52C23.2963 11.5082 21.9838 11.5434 21.6088 11.6606Z" fill="#F58220"/>
<path d="M42.0703 35.7428C42.0703 36.3757 42.082 36.3991 42.4922 36.6217C43.0312 36.9147 43.6523 37.6413 43.8867 38.2507C43.9922 38.5436 44.2148 40.4655 44.4727 43.3132L44.8711 47.8835L46.1836 50.0514C47.8242 52.7819 48.1641 53.11 49.1367 52.9225C49.582 52.8405 54.8203 49.0085 55.043 48.61C55.125 48.4577 55.1836 48.0944 55.1953 47.7897C55.1953 47.2624 55.1484 47.1803 54.293 46.1842C51.9023 43.4303 45.375 36.1178 45.1406 35.9303C44.6719 35.5671 44.0391 35.5553 43.4297 35.8952C43.1367 36.0592 42.8906 36.1647 42.8906 36.1178C42.8906 36.071 42.7031 35.8249 42.4805 35.5671L42.082 35.0983L42.0703 35.7428Z" fill="#F58220"/>
<path d="M13.1026 36.7617L12.9386 37.3242L12.2472 37.2891C11.3917 37.2539 10.8995 37.5117 10.5714 38.168C10.4425 38.4141 9.09483 41.4961 7.5714 45.0234C4.53624 52.0547 4.5128 52.1367 5.09874 52.8281C5.35655 53.1328 5.84874 53.332 8.59093 54.2461C10.337 54.832 11.9425 55.3125 12.13 55.3125C12.5519 55.3125 13.173 54.9492 13.3605 54.6094C13.5011 54.3398 14.6495 49.5234 14.6495 49.1719C14.6495 49.0547 14.2042 47.0273 13.6534 44.6836C13.0089 41.918 12.6573 40.1836 12.6573 39.75C12.6573 39.0117 12.9151 38.3555 13.4073 37.7695L13.7355 37.3828L13.5362 36.7969C13.4308 36.4805 13.3253 36.2109 13.3019 36.2109C13.2784 36.2109 13.1847 36.457 13.1026 36.7617Z" fill="#F58220"/>
<path d="M26.2061 54.7383C26.0889 54.8086 24.8467 55.2539 23.4522 55.7227C20.6045 56.6719 20.71 56.5781 20.9795 57.7383C21.1436 58.5234 21.6475 59.1914 22.3506 59.6133C22.8311 59.8945 23.042 59.9414 23.7334 59.9414C24.6475 59.9297 25.2569 59.6836 25.7959 59.0977C26.4405 58.4062 26.5342 58.0781 26.5811 56.2734C26.6045 55.3594 26.5811 54.6094 26.5225 54.6094C26.4756 54.6094 26.335 54.6797 26.2061 54.7383Z" fill="#F58220"/>
<path d="M13.8741 71.28C14.8555 71.28 15.7195 71.4347 16.4661 71.744C17.2235 72.0427 17.8795 72.4853 18.4341 73.072L17.1061 74.848C16.6475 74.368 16.1515 74.0107 15.6181 73.776C15.0955 73.5307 14.4981 73.408 13.8261 73.408C13.4315 73.408 13.1115 73.4507 12.8661 73.536C12.6208 73.6213 12.4448 73.7387 12.3381 73.888C12.2315 74.0373 12.1781 74.208 12.1781 74.4C12.1781 74.624 12.2795 74.816 12.4821 74.976C12.6955 75.1253 13.0368 75.2533 13.5061 75.36L15.2821 75.76C16.3381 76.0053 17.1115 76.3627 17.6021 76.832C18.0928 77.3013 18.3381 77.9253 18.3381 78.704C18.3381 79.4507 18.1461 80.0853 17.7621 80.608C17.3781 81.12 16.8501 81.5093 16.1781 81.776C15.5061 82.032 14.7381 82.16 13.8741 82.16C13.1701 82.16 12.4981 82.0853 11.8581 81.936C11.2181 81.776 10.6421 81.552 10.1301 81.264C9.61813 80.976 9.18613 80.6453 8.83413 80.272L10.1621 78.432C10.4288 78.7413 10.7541 79.0187 11.1381 79.264C11.5328 79.4987 11.9595 79.6853 12.4181 79.824C12.8875 79.9627 13.3621 80.032 13.8421 80.032C14.2155 80.032 14.5248 79.9947 14.7701 79.92C15.0261 79.8453 15.2128 79.7333 15.3301 79.584C15.4475 79.4347 15.5061 79.2587 15.5061 79.056C15.5061 78.832 15.4261 78.6453 15.2661 78.496C15.1061 78.336 14.8021 78.2027 14.3541 78.096L12.4021 77.664C11.8048 77.5253 11.2715 77.344 10.8021 77.12C10.3435 76.8853 9.98079 76.576 9.71413 76.192C9.44746 75.7973 9.31413 75.3067 9.31413 74.72C9.31413 74.0587 9.49546 73.472 9.85813 72.96C10.2208 72.4373 10.7435 72.0267 11.4261 71.728C12.1088 71.4293 12.9248 71.28 13.8741 71.28ZM20.8666 82V70.608H23.5866V75.456C23.8213 74.9227 24.1573 74.5227 24.5946 74.256C25.032 73.9787 25.5386 73.84 26.1146 73.84C26.6693 73.84 27.1493 73.9467 27.5546 74.16C27.9706 74.3733 28.296 74.688 28.5306 75.104C28.7653 75.52 28.8826 76.0427 28.8826 76.672V82H26.1626V77.424C26.1626 76.848 26.056 76.4533 25.8426 76.24C25.64 76.016 25.368 75.904 25.0266 75.904C24.7706 75.904 24.5306 75.968 24.3066 76.096C24.0826 76.224 23.9066 76.4267 23.7786 76.704C23.6506 76.9813 23.5866 77.344 23.5866 77.792V82H20.8666ZM35.5965 73.84C36.4392 73.84 37.1752 74.0053 37.8045 74.336C38.4445 74.656 38.9405 75.1307 39.2925 75.76C39.6552 76.3787 39.8365 77.1253 39.8365 78C39.8365 78.8747 39.6552 79.6267 39.2925 80.256C38.9405 80.8747 38.4445 81.3493 37.8045 81.68C37.1752 82 36.4392 82.16 35.5965 82.16C34.7752 82.16 34.0445 82 33.4045 81.68C32.7645 81.3493 32.2632 80.8747 31.9005 80.256C31.5485 79.6267 31.3725 78.8747 31.3725 78C31.3725 77.1253 31.5485 76.3787 31.9005 75.76C32.2632 75.1307 32.7645 74.656 33.4045 74.336C34.0445 74.0053 34.7752 73.84 35.5965 73.84ZM35.5965 75.776C35.2872 75.776 35.0205 75.8507 34.7965 76C34.5725 76.1493 34.4018 76.3893 34.2845 76.72C34.1672 77.0507 34.1085 77.4773 34.1085 78C34.1085 78.5227 34.1672 78.9493 34.2845 79.28C34.4018 79.6 34.5725 79.84 34.7965 80C35.0205 80.1493 35.2872 80.224 35.5965 80.224C35.9165 80.224 36.1885 80.1493 36.4125 80C36.6365 79.84 36.8072 79.6 36.9245 79.28C37.0418 78.9493 37.1005 78.5227 37.1005 78C37.1005 77.4773 37.0418 77.0507 36.9245 76.72C36.8072 76.3893 36.6365 76.1493 36.4125 76C36.1885 75.8507 35.9165 75.776 35.5965 75.776ZM42.3666 85.36V74H44.8146L44.9586 76.896L44.6386 76.56C44.7133 76.0267 44.8786 75.5573 45.1346 75.152C45.3906 74.7467 45.7213 74.4267 46.1266 74.192C46.532 73.9573 46.996 73.84 47.5186 73.84C48.18 73.84 48.756 74.0053 49.2466 74.336C49.7373 74.656 50.116 75.1253 50.3826 75.744C50.66 76.352 50.7986 77.0933 50.7986 77.968C50.7986 78.8427 50.66 79.5947 50.3826 80.224C50.1053 80.8533 49.716 81.3333 49.2146 81.664C48.724 81.9947 48.148 82.16 47.4866 82.16C46.7613 82.16 46.1746 81.9467 45.7266 81.52C45.2786 81.0827 44.98 80.5333 44.8306 79.872L45.0866 79.488V85.36H42.3666ZM46.5586 80.16C47.028 80.16 47.396 79.9893 47.6626 79.648C47.9293 79.296 48.0626 78.7467 48.0626 78C48.0626 77.2533 47.9293 76.7093 47.6626 76.368C47.4066 76.016 47.044 75.84 46.5746 75.84C46.276 75.84 46.0146 75.9253 45.7906 76.096C45.5666 76.256 45.3906 76.496 45.2626 76.816C45.1453 77.136 45.0866 77.5307 45.0866 78C45.0866 78.448 45.14 78.8373 45.2466 79.168C45.364 79.488 45.5346 79.7333 45.7586 79.904C45.9826 80.0747 46.2493 80.16 46.5586 80.16Z" fill="#F58220"/>
</svg>
