<svg width="60" height="90" viewBox="0 0 60 90" fill="none" xmlns="http://www.w3.org/2000/svg">
<g clip-path="url(#clip0_34_887)">
<path d="M26.0761 3.66406C24.1308 4.14453 22.7246 5.67969 22.373 7.69531C22.1152 9.17187 22.6425 10.7773 23.7558 11.9023C24.7167 12.8516 25.8652 13.3438 27.1894 13.3438C28.9472 13.3438 30.6464 12.3711 31.4902 10.8711C32.2519 9.52344 32.3222 7.80078 31.666 6.39453C30.6699 4.25 28.3261 3.11328 26.0761 3.66406Z" fill="black"/>
<path d="M21.6088 15.1606C20.0619 15.6528 19.0307 16.6254 18.1166 18.4536C17.6596 19.3676 12.4682 34.1567 12.351 34.8832C12.2689 35.434 12.4564 36.102 12.8549 36.6411C13.1361 37.0161 13.8978 37.4848 14.226 37.4848C14.3549 37.4848 14.601 38.0707 15.058 39.477C15.4096 40.5786 15.7025 41.5512 15.7025 41.6332C15.7025 41.7153 15.5033 41.8793 15.2689 41.9848C14.7416 42.2309 14.4135 42.6293 14.3432 43.145C14.308 43.3911 14.8705 46.0278 15.9252 50.5629C16.8275 54.4301 17.6127 57.7231 17.683 57.8871C17.8471 58.3325 18.3392 58.7075 18.8314 58.7778C19.183 58.8246 19.933 58.6254 22.3822 57.8168C24.0814 57.2543 25.6049 56.7153 25.7572 56.6098C26.1088 56.3871 26.3666 55.8715 26.3666 55.4262C26.3666 55.145 21.7611 44.2231 20.5892 41.7153C20.2377 40.977 19.8041 40.7309 18.9135 40.8129L18.1986 40.8715L17.4721 38.6215L16.7572 36.3715L17.1439 35.3168C17.3549 34.7309 18.3275 32.0121 19.2767 29.2582C20.2377 26.5043 21.0463 24.2661 21.058 24.2895C21.0697 24.3012 20.5541 27.1489 19.8978 30.6176L18.7025 36.9223L19.0541 37.9887C19.4057 39.0434 19.4174 39.0551 19.8392 39.1489C20.5189 39.2895 21.1517 39.6645 21.5736 40.1684C21.8549 40.4848 22.6752 42.2543 24.2572 45.934L26.5424 51.2426L26.5775 47.2817L26.601 43.3325L27.2221 43.3676L27.8314 43.4028L27.89 52.4848C27.9603 62.6098 27.89 61.8598 28.7807 62.727C29.8236 63.7348 31.4174 63.7465 32.5424 62.7504C33.3158 62.0707 33.515 61.5668 33.515 60.2192C33.515 59.2582 33.4682 59.0239 33.2221 58.5317C32.8471 57.7817 32.8471 57.2192 33.2221 53.1879C33.4564 50.7387 33.515 49.3793 33.515 46.7075V43.3442H33.7963C34.0541 43.3442 34.0892 43.2739 34.1596 42.7231C34.3119 41.5746 34.8392 40.7075 35.7182 40.1567C35.9174 40.0278 36.0932 39.8286 36.0932 39.7114C36.0932 39.5825 35.5072 36.2778 34.8041 32.3637C34.0892 28.4496 33.4799 25.0512 33.4564 24.8286C33.4213 24.6059 33.6322 25.0864 33.9252 25.9184C36.7963 34.0512 37.64 36.3832 37.7455 36.477C37.8041 36.5473 37.851 37.6254 37.851 38.9614V41.3168L37.3236 41.3871C36.6557 41.4809 36.2807 41.727 36.0463 42.2309C35.9057 42.5121 35.683 44.6215 35.1908 50.0004C34.4642 58.1332 34.4642 57.852 35.2025 58.3793C35.5541 58.6371 35.6361 58.6371 39.1049 58.6371C42.515 58.6371 42.6557 58.6254 42.9721 58.3911C43.1478 58.2504 43.3939 57.9809 43.5111 57.7817C43.7221 57.4184 43.7103 57.2661 43.0658 50.0004C42.5971 44.8207 42.351 42.4653 42.2221 42.2075C41.9994 41.727 41.6127 41.4809 40.9564 41.3871L40.4291 41.3168V39.3598V37.3911L40.7807 37.2504C41.5892 36.9106 42.1517 35.8676 42.0346 34.9184C41.9642 34.4262 37.2299 20.7387 36.515 18.9809C35.8236 17.27 34.7689 16.0629 33.3978 15.4067L32.6361 15.0434L27.3627 15.02C23.2963 15.0082 21.9838 15.0434 21.6088 15.1606Z" fill="black"/>
<path d="M42.0703 39.2428C42.0703 39.8757 42.082 39.8991 42.4922 40.1217C43.0312 40.4147 43.6523 41.1413 43.8867 41.7507C43.9922 42.0436 44.2148 43.9655 44.4727 46.8132L44.8711 51.3835L46.1836 53.5514C47.8242 56.2819 48.1641 56.61 49.1367 56.4225C49.582 56.3405 54.8203 52.5085 55.043 52.11C55.125 51.9577 55.1836 51.5944 55.1953 51.2897C55.1953 50.7624 55.1484 50.6803 54.293 49.6842C51.9023 46.9303 45.375 39.6178 45.1406 39.4303C44.6719 39.0671 44.0391 39.0553 43.4297 39.3952C43.1367 39.5592 42.8906 39.6647 42.8906 39.6178C42.8906 39.571 42.7031 39.3249 42.4805 39.0671L42.082 38.5983L42.0703 39.2428Z" fill="black"/>
<path d="M13.1026 40.2617L12.9386 40.8242L12.2472 40.7891C11.3917 40.7539 10.8995 41.0117 10.5714 41.668C10.4425 41.9141 9.09483 44.9961 7.5714 48.5234C4.53624 55.5547 4.5128 55.6367 5.09874 56.3281C5.35655 56.6328 5.84874 56.832 8.59093 57.7461C10.337 58.332 11.9425 58.8125 12.13 58.8125C12.5519 58.8125 13.173 58.4492 13.3605 58.1094C13.5011 57.8398 14.6495 53.0234 14.6495 52.6719C14.6495 52.5547 14.2042 50.5273 13.6534 48.1836C13.0089 45.418 12.6573 43.6836 12.6573 43.25C12.6573 42.5117 12.9151 41.8555 13.4073 41.2695L13.7355 40.8828L13.5362 40.2969C13.4308 39.9805 13.3253 39.7109 13.3019 39.7109C13.2784 39.7109 13.1847 39.957 13.1026 40.2617Z" fill="black"/>
<path d="M26.2061 58.2383C26.0889 58.3086 24.8467 58.7539 23.4522 59.2227C20.6045 60.1719 20.71 60.0781 20.9795 61.2383C21.1436 62.0234 21.6475 62.6914 22.3506 63.1133C22.8311 63.3945 23.042 63.4414 23.7334 63.4414C24.6475 63.4297 25.2569 63.1836 25.7959 62.5977C26.4405 61.9062 26.5342 61.5781 26.5811 59.7734C26.6045 58.8594 26.5811 58.1094 26.5225 58.1094C26.4756 58.1094 26.335 58.1797 26.2061 58.2383Z" fill="black"/>
</g>
<path d="M13.8258 74.78C14.7858 74.78 15.6284 74.9453 16.3538 75.276C17.0791 75.6067 17.6978 76.0973 18.2098 76.748L16.9778 78.172C16.5404 77.6173 16.0604 77.212 15.5378 76.956C15.0258 76.6893 14.4284 76.556 13.7458 76.556C13.2978 76.556 12.9244 76.6147 12.6258 76.732C12.3378 76.8493 12.1244 77.004 11.9858 77.196C11.8578 77.388 11.7938 77.6013 11.7938 77.836C11.7938 78.124 11.9058 78.3693 12.1298 78.572C12.3538 78.764 12.7378 78.924 13.2818 79.052L15.2498 79.5C16.2951 79.7347 17.0418 80.0867 17.4898 80.556C17.9484 81.0147 18.1778 81.612 18.1778 82.348C18.1778 83.0413 17.9964 83.6387 17.6337 84.14C17.2711 84.6307 16.7644 85.0093 16.1138 85.276C15.4631 85.532 14.7164 85.66 13.8738 85.66C13.1378 85.66 12.4604 85.5747 11.8418 85.404C11.2338 85.2227 10.6898 84.9773 10.2098 84.668C9.72975 84.3587 9.32975 84.0013 9.00975 83.596L10.2578 82.108C10.5031 82.4493 10.8071 82.7533 11.1698 83.02C11.5324 83.2867 11.9431 83.5 12.4018 83.66C12.8711 83.8093 13.3618 83.884 13.8738 83.884C14.3111 83.884 14.6791 83.836 14.9778 83.74C15.2871 83.6333 15.5164 83.4893 15.6658 83.308C15.8258 83.116 15.9058 82.8867 15.9058 82.62C15.9058 82.3427 15.8098 82.108 15.6178 81.916C15.4364 81.7133 15.0951 81.5587 14.5938 81.452L12.4498 80.972C11.8311 80.8227 11.2978 80.6307 10.8498 80.396C10.4124 80.1507 10.0764 79.8413 9.84175 79.468C9.61775 79.084 9.50575 78.6307 9.50575 78.108C9.50575 77.4787 9.67642 76.9133 10.0178 76.412C10.3591 75.9107 10.8498 75.516 11.4898 75.228C12.1404 74.9293 12.9191 74.78 13.8258 74.78ZM21.0426 85.5V73.996H23.2346V78.86C23.4906 78.348 23.8426 77.9693 24.2906 77.724C24.7386 77.468 25.2453 77.34 25.8106 77.34C26.3653 77.34 26.856 77.4467 27.2826 77.66C27.72 77.8733 28.0613 78.1987 28.3066 78.636C28.5626 79.0627 28.6906 79.6013 28.6906 80.252V85.5H26.4986V80.892C26.4986 80.1987 26.3653 79.724 26.0986 79.468C25.832 79.2013 25.4906 79.068 25.0746 79.068C24.7653 79.068 24.4666 79.1427 24.1786 79.292C23.9013 79.4307 23.672 79.6653 23.4906 79.996C23.32 80.316 23.2346 80.7427 23.2346 81.276V85.5H21.0426ZM35.5969 77.34C36.4075 77.34 37.1169 77.5053 37.7249 77.836C38.3435 78.1667 38.8235 78.6413 39.1649 79.26C39.5169 79.8787 39.6929 80.6253 39.6929 81.5C39.6929 82.364 39.5169 83.1107 39.1649 83.74C38.8235 84.3587 38.3435 84.8333 37.7249 85.164C37.1169 85.4947 36.4075 85.66 35.5969 85.66C34.7969 85.66 34.0875 85.4947 33.4689 85.164C32.8502 84.8333 32.3649 84.3587 32.0129 83.74C31.6715 83.1107 31.5009 82.364 31.5009 81.5C31.5009 80.6253 31.6715 79.8787 32.0129 79.26C32.3649 78.6413 32.8502 78.1667 33.4689 77.836C34.0875 77.5053 34.7969 77.34 35.5969 77.34ZM35.5969 78.972C35.1915 78.972 34.8449 79.068 34.5569 79.26C34.2795 79.4413 34.0662 79.7187 33.9169 80.092C33.7675 80.4653 33.6929 80.9347 33.6929 81.5C33.6929 82.0653 33.7675 82.5347 33.9169 82.908C34.0662 83.2813 34.2795 83.564 34.5569 83.756C34.8449 83.9373 35.1915 84.028 35.5969 84.028C35.9915 84.028 36.3275 83.9373 36.6049 83.756C36.8929 83.564 37.1115 83.2813 37.2609 82.908C37.4102 82.5347 37.4849 82.0653 37.4849 81.5C37.4849 80.9347 37.4102 80.4653 37.2609 80.092C37.1115 79.7187 36.8929 79.4413 36.6049 79.26C36.3275 79.068 35.9915 78.972 35.5969 78.972ZM42.527 88.86V77.5H44.495L44.639 80.044L44.367 79.756C44.463 79.2867 44.639 78.8707 44.895 78.508C45.1617 78.1453 45.4977 77.8627 45.903 77.66C46.3083 77.4467 46.7617 77.34 47.263 77.34C47.9137 77.34 48.495 77.5053 49.007 77.836C49.519 78.1667 49.919 78.6413 50.207 79.26C50.5057 79.868 50.655 80.6093 50.655 81.484C50.655 82.3587 50.5057 83.1107 50.207 83.74C49.9083 84.3587 49.4977 84.8333 48.975 85.164C48.463 85.4947 47.8763 85.66 47.215 85.66C46.511 85.66 45.9243 85.4627 45.455 85.068C44.9963 84.6733 44.6817 84.1773 44.511 83.58L44.719 83.244V88.86H42.527ZM46.575 83.98C47.1617 83.98 47.6203 83.772 47.951 83.356C48.2923 82.9293 48.463 82.3107 48.463 81.5C48.463 80.6893 48.2977 80.076 47.967 79.66C47.647 79.2333 47.1937 79.02 46.607 79.02C46.2337 79.02 45.903 79.1213 45.615 79.324C45.3377 79.516 45.119 79.7987 44.959 80.172C44.799 80.5347 44.719 80.9773 44.719 81.5C44.719 82.012 44.7937 82.4547 44.943 82.828C45.0923 83.2013 45.3057 83.4893 45.583 83.692C45.871 83.884 46.2017 83.98 46.575 83.98Z" fill="black"/>
<defs>
<clipPath id="clip0_34_887">
<rect width="60" height="60" fill="white" transform="translate(0 3.5)"/>
</clipPath>
</defs>
</svg>
