<svg width="23" height="22" viewBox="0 0 23 22" fill="none" xmlns="http://www.w3.org/2000/svg">
<g clip-path="url(#clip0_606_14290)">
<path d="M10.2463 4.14268C10.0259 4.01158 9.78454 3.98047 9.53433 3.98047C7.68101 3.9809 5.82765 3.98004 3.97476 3.9818C3.81831 3.98223 3.66233 3.99779 3.50588 4.00625C3.44942 4.08269 3.35343 4.07427 3.27742 4.10624C2.66542 4.36624 2.25829 4.8089 2.09699 5.45468C2.00142 5.83779 1.13831 9.54623 0.441406 12.5454C0.754733 14.752 1.72986 16.7458 3.15964 18.3191C4.16008 18.3169 5.16099 18.3178 6.16143 18.332C7.04899 18.3449 7.90011 17.6525 8.08852 16.8004C8.43253 15.244 8.80717 13.6947 9.1694 12.1426C9.69164 9.90532 10.2138 7.66799 10.7356 5.43066C10.8615 4.89114 10.6726 4.39649 10.2463 4.14268Z" fill="#E4363A"/>
<path d="M7.28311 5.45476C7.44459 4.80882 7.85163 4.3665 8.4638 4.1065C8.5399 4.07418 8.63564 4.08282 8.69227 4.00616C8.8485 3.9977 9.00465 3.98206 9.16088 3.98193C11.0142 3.98021 12.8675 3.98098 14.7208 3.98047C14.9708 3.98038 15.2124 4.01166 15.4325 4.14272C15.8587 4.39645 16.0478 4.89132 15.9219 5.43074C15.4001 7.66803 14.8778 9.90523 14.3559 12.1425C13.9937 13.6948 13.619 15.2442 13.2749 16.8004C13.0865 17.6526 12.2354 18.3451 11.348 18.3322C9.52646 18.3059 7.70429 18.3248 5.88242 18.3232C5.72138 18.323 5.56033 18.3087 5.39929 18.301C5.36788 18.2554 5.31417 18.2509 5.26888 18.2391C4.90291 18.1434 4.58993 17.6346 4.58984 17.3113C4.58972 17.0026 4.65623 16.7109 4.72906 16.4163C4.72885 16.4164 7.11996 6.10737 7.28311 5.45476Z" fill="#004A87"/>
<path d="M13.6542 5.45476C13.8157 4.80882 14.2227 4.3665 14.8349 4.1065C14.911 4.07418 15.0067 4.08282 15.0634 4.00616C15.2196 3.9977 15.3757 3.98206 15.532 3.98193C17.3853 3.98021 19.2386 3.98098 21.0919 3.98047C21.3418 3.98038 21.5835 4.01166 21.8036 4.14272C22.2298 4.39645 22.4189 4.89132 22.293 5.43074C21.7712 7.66803 21.2489 9.90523 20.727 12.1425C20.3648 13.6948 19.9901 15.2442 19.646 16.8004C19.4575 17.6526 18.6065 18.3451 17.7191 18.3322C15.8976 18.3059 14.0754 18.3248 12.2535 18.3232C12.0925 18.323 11.9314 18.3087 11.7704 18.301C11.739 18.2554 11.6853 18.2509 11.64 18.2391C11.274 18.1434 10.961 17.6346 10.9609 17.3113C10.9608 17.0026 11.0273 16.7109 11.1002 16.4163C11.0999 16.4164 13.4911 6.10737 13.6542 5.45476Z" fill="#008286"/>
<path d="M14.4008 10.6143C14.2523 10.6143 14.1038 10.6167 13.9554 10.6132C13.8939 10.6117 13.8678 10.6297 13.8554 10.6941C13.7844 11.0611 13.7065 11.4267 13.6348 11.7936C13.6215 11.8613 13.5976 11.8868 13.5241 11.884C13.3489 11.8773 13.1731 11.8769 12.9979 11.8839C12.9112 11.8874 12.89 11.8673 12.9085 11.7801C13.0201 11.253 13.1267 10.7248 13.2354 10.1971C13.3544 9.61993 13.4756 9.04317 13.5912 8.46537C13.6055 8.39383 13.6303 8.37454 13.7016 8.37501C14.1976 8.3784 14.6936 8.37741 15.1896 8.37656C15.3084 8.37634 15.4251 8.39099 15.54 8.41927C15.8664 8.49957 16.0602 8.71218 16.0902 9.04841C16.1418 9.62475 15.8716 10.261 15.2286 10.5206C15.061 10.5883 14.8849 10.615 14.7045 10.6144C14.6032 10.614 14.502 10.6142 14.4008 10.6143ZM14.4341 10.0027C14.5253 10.0027 14.6165 10.0033 14.7076 10.0026C15.0755 9.99973 15.2813 9.8206 15.3389 9.45369C15.3834 9.17014 15.2929 9.03041 15.0141 8.99272C14.763 8.95878 14.5084 8.98121 14.2554 8.97807C14.2163 8.9776 14.2068 8.9993 14.1999 9.03397C14.1399 9.33458 14.0795 9.63523 14.0144 9.93477C14.0017 9.99325 14.0165 10.0044 14.0696 10.0034C14.1911 10.001 14.3126 10.0026 14.4341 10.0027Z" fill="white"/>
<path d="M19.3535 11.1425C19.3958 11.112 19.3994 11.0768 19.4122 11.0472C19.592 10.6298 19.7728 10.2128 19.9489 9.79385C19.974 9.73413 20.0033 9.71363 20.067 9.71569C20.2188 9.72051 20.3709 9.72106 20.5226 9.71574C20.6054 9.71286 20.6104 9.73378 20.576 9.80313C20.1942 10.5722 19.8138 11.342 19.4352 12.1126C19.2717 12.4456 19.1127 12.7809 18.8797 13.0732C18.678 13.3263 18.4448 13.5355 18.1097 13.5908C18.001 13.6087 17.8922 13.6343 17.7812 13.6051C17.7931 13.5018 17.8044 13.3985 17.8172 13.2954C17.8205 13.2688 17.8275 13.2463 17.8593 13.2337C18.1523 13.1181 18.3293 12.8815 18.4856 12.6251C18.5892 12.4553 18.6703 12.2735 18.7583 12.0955C18.7776 12.0565 18.7739 12.0184 18.7706 11.9776C18.7119 11.258 18.6556 10.5383 18.5949 9.81895C18.5883 9.74092 18.6089 9.71973 18.6846 9.72102C18.8601 9.72399 19.0358 9.72364 19.211 9.71531C19.298 9.71118 19.3255 9.73357 19.3264 9.82483C19.3309 10.2599 19.3435 10.6949 19.3535 11.1425Z" fill="white"/>
<path d="M17.0836 11.8654C17.049 11.8656 17.0144 11.8644 16.9955 11.8297C16.9481 11.7428 16.887 11.7593 16.81 11.7912C16.6634 11.8519 16.5096 11.8923 16.3496 11.8971C16.0244 11.9067 15.8026 11.7293 15.7634 11.4072C15.7048 10.9247 15.8395 10.4888 16.1441 10.1156C16.4093 9.79091 16.876 9.75112 17.2275 10.0059C17.2922 10.0528 17.339 10.069 17.3992 10.0088C17.4235 9.98448 17.4848 9.92085 17.5161 9.88832C17.5283 9.87556 17.5448 9.86817 17.5625 9.86761C17.6693 9.86396 18.0523 9.85089 18.0723 9.85038C18.1572 9.84806 18.1507 9.88166 18.1207 10.0168C17.9888 10.6117 17.8565 11.2065 17.728 11.8021C17.7146 11.8643 17.6933 11.8864 17.6297 11.8824C17.539 11.8769 17.1746 11.865 17.0836 11.8654ZM17.2304 10.7099C17.2264 10.6227 17.2188 10.5359 17.1787 10.4554C17.1075 10.3124 16.9781 10.2668 16.8329 10.3342C16.7835 10.3571 16.7391 10.3878 16.7016 10.4268C16.4959 10.6404 16.4084 10.897 16.4314 11.1911C16.436 11.2512 16.4556 11.3094 16.486 11.363C16.5558 11.4859 16.6727 11.5279 16.8041 11.4754C16.8709 11.4486 16.9262 11.4052 16.9746 11.3525C17.141 11.1708 17.2185 10.9538 17.2304 10.7099Z" fill="white"/>
<path d="M9.48896 9.66421C9.9367 9.65742 10.2488 9.88069 10.3401 10.2727C10.5039 10.9763 10.0158 11.7591 9.31464 11.9103C9.07943 11.961 8.84349 11.9555 8.62018 11.8547C8.37397 11.7435 8.22762 11.5471 8.19144 11.2815C8.12948 10.8272 8.3063 10.1454 8.8691 9.82324C9.06121 9.71324 9.26944 9.66705 9.48896 9.66421ZM8.74853 10.9859C8.7478 11.2654 8.84319 11.4176 9.0283 11.4505C9.25491 11.4908 9.45412 11.4318 9.58852 11.2355C9.74811 11.0026 9.81265 10.7398 9.78425 10.4585C9.76568 10.2746 9.63338 10.1539 9.44823 10.1409C9.22724 10.1255 9.05305 10.2109 8.93364 10.3973C8.81088 10.5891 8.76138 10.8042 8.74853 10.9859Z" fill="white"/>
<path d="M12.2374 9.66818C11.9212 9.6409 11.6627 9.74931 11.4394 9.98787C11.4512 9.92213 11.4574 9.85471 11.4764 9.79116C11.4972 9.72168 11.4708 9.71167 11.4097 9.71347C11.2849 9.71717 11.1597 9.71833 11.035 9.71304C10.9706 9.71029 10.9498 9.73259 10.9376 9.79464C10.8906 10.0341 10.6157 11.4012 10.5316 11.807C10.5189 11.8686 10.5333 11.8826 10.5924 11.8811L10.9873 11.8818C11.0575 11.8852 11.0787 11.857 11.0897 11.794C11.1173 11.6348 11.3076 10.7029 11.3445 10.5532C11.4121 10.2793 11.6297 10.1273 11.8937 10.1374C12.0689 10.1441 12.1601 10.2426 12.1491 10.4182C12.1456 10.4751 12.1348 10.5319 12.1237 10.5881C12.0431 10.9946 11.9629 11.4012 11.8788 11.807C11.866 11.8686 11.8805 11.8826 11.9396 11.8811L12.3344 11.8818C12.4046 11.8852 12.4259 11.857 12.4368 11.794C12.4644 11.6348 12.4998 11.4769 12.5295 11.3179C12.5948 10.9669 12.6848 10.6202 12.7296 10.2656C12.7722 9.9287 12.5744 9.69719 12.2374 9.66818Z" fill="white"/>
<path d="M5.63343 10.148C5.37536 10.1846 5.23352 10.3505 5.17929 10.5882C5.09838 10.9427 5.03286 11.3007 4.96321 11.6577C4.91976 11.8804 4.92183 11.8808 4.69332 11.8808C4.61232 11.8808 4.53103 11.8761 4.45046 11.8822C4.37931 11.8875 4.36624 11.8631 4.37969 11.7975C4.47023 11.3553 4.55801 10.9126 4.64678 10.4701C4.69117 10.2489 4.73792 10.028 4.77909 9.80622C4.7912 9.74095 4.80783 9.70653 4.88629 9.71177C5.01395 9.72032 5.1426 9.71615 5.27077 9.71306C5.32259 9.71181 5.33566 9.7299 5.32491 9.77764C5.3094 9.84631 5.29673 9.91561 5.2917 9.99382C5.32732 9.95317 5.36505 9.916 5.40479 9.88214C5.59029 9.7244 5.83345 9.6474 6.07622 9.66708C6.10819 9.66966 6.14016 9.67417 6.17213 9.68113C6.46199 9.74413 6.62252 9.97581 6.57165 10.2861C6.51446 10.6346 6.43961 10.9804 6.37189 11.3272C6.34159 11.4825 6.30731 11.637 6.27993 11.7927C6.26911 11.8545 6.25089 11.8857 6.17913 11.8819C6.05134 11.8753 5.92291 11.8774 5.79486 11.8812C5.73075 11.883 5.71064 11.8749 5.7262 11.8C5.81643 11.365 5.90211 10.929 5.98397 10.4924C6.03334 10.2286 5.90353 10.1048 5.63343 10.148Z" fill="white"/>
<path d="M6.90317 11.881C6.86291 11.8811 6.83287 11.8438 6.84125 11.8045C6.92749 11.4015 7.01201 11.0054 7.09705 10.6094C7.15432 10.3426 7.21478 10.0764 7.2684 9.80879C7.28185 9.74159 7.30149 9.71134 7.3772 9.71517L7.80251 9.71607C7.8661 9.71439 7.88152 9.72604 7.8664 9.79479C7.71897 10.4662 7.57585 11.1385 7.43177 11.8106C7.42395 11.8472 7.42253 11.8828 7.36779 11.882C7.21452 11.8799 7.06112 11.8807 6.90317 11.881Z" fill="white"/>
<path d="M8.01349 8.92976C7.94066 8.93165 7.86779 8.93114 7.79491 8.93075L7.79495 8.93045C7.77549 8.93045 7.7568 8.93049 7.73845 8.93058C7.73248 8.93058 7.72655 8.93054 7.72058 8.93054V8.93066C7.65492 8.93097 7.59558 8.9314 7.53637 8.92976C7.4974 8.92873 7.47308 8.93801 7.4647 8.98046C7.43728 9.11891 7.40867 9.2571 7.37829 9.3949C7.36849 9.43915 7.37945 9.45583 7.42659 9.45458C7.49942 9.45269 7.57229 9.45321 7.64517 9.45359L7.64512 9.45389C7.66459 9.45389 7.68328 9.45381 7.70163 9.45376C7.7076 9.45376 7.71353 9.45381 7.7195 9.45381V9.45368C7.78516 9.45338 7.8445 9.45295 7.90371 9.45458C7.94268 9.45561 7.967 9.44633 7.97538 9.40388C8.00279 9.26543 8.03141 9.12725 8.06179 8.98945C8.07159 8.94519 8.06072 8.92852 8.01349 8.92976Z" fill="white"/>
<path d="M2.38713 11.9566C2.1187 11.9505 1.86094 11.9283 1.62491 11.8008C1.34755 11.651 1.20025 11.417 1.17258 11.1044C1.14766 10.823 1.22934 10.556 1.28391 10.286C1.41398 9.64222 1.55126 8.99997 1.68141 8.35626C1.69852 8.27178 1.73014 8.24278 1.81814 8.24639C2.00342 8.25404 2.18935 8.25241 2.3748 8.24695C2.45167 8.24467 2.46439 8.26968 2.44991 8.33873C2.31099 9.0013 2.17383 9.66427 2.03681 10.3273C2.00819 10.4658 1.97631 10.604 1.95577 10.7438C1.90966 11.058 2.07814 11.2692 2.39237 11.2998C2.90963 11.3501 3.25823 11.0904 3.36187 10.5838C3.51579 9.83146 3.67365 9.07994 3.82787 8.3276C3.83908 8.27299 3.85515 8.24626 3.91746 8.24742C4.12323 8.25116 4.32914 8.24944 4.53496 8.24841C4.57943 8.24819 4.60272 8.25245 4.5906 8.30981C4.41894 9.12381 4.26215 9.9412 4.07584 10.7518C3.91965 11.4314 3.45662 11.8002 2.78248 11.9214C2.73943 11.9292 2.69607 11.9369 2.65255 11.9404C2.56184 11.9474 2.47083 11.9516 2.38713 11.9566Z" fill="white"/>
</g>
<defs>
<clipPath id="clip0_606_14290">
<rect width="22" height="22" fill="white" transform="translate(0.332031)"/>
</clipPath>
</defs>
</svg>
