<svg width="60" height="90" viewBox="0 0 60 90" fill="none" xmlns="http://www.w3.org/2000/svg">
<path d="M11.4961 7.96484C9.46875 8.30469 7.5 10.168 7.04297 12.1836C6.97266 12.4648 6.91406 13.4961 6.91406 14.4805C6.91406 16.3438 6.98438 16.625 7.47656 16.625C7.98047 16.6133 8.02734 16.4727 8.09766 14.4922C8.15625 12.9219 8.21484 12.4648 8.42578 11.9141C8.78906 10.9766 9.65625 10.0508 10.6406 9.57031C11.4023 9.19531 11.4492 9.18359 13.3008 9.13672C14.332 9.11328 15.2695 9.05469 15.3867 8.9961C15.6797 8.83203 15.6445 8.24609 15.3281 8.02344C15.1172 7.87109 14.7539 7.83594 13.5938 7.84766C12.7852 7.85938 11.8477 7.90625 11.4961 7.96484Z" fill="#008D30"/>
<path d="M44.6714 8.02344C44.355 8.24609 44.3199 8.83203 44.6245 8.99609C44.73 9.05469 45.6675 9.11328 46.6988 9.13672C48.5503 9.18359 48.5972 9.19531 49.3589 9.57031C50.3316 10.0508 51.2105 10.9766 51.5738 11.9141C51.7964 12.4766 51.8433 12.8867 51.8902 14.4922C51.937 16.3672 51.9488 16.4141 52.2183 16.5312C52.4175 16.625 52.5816 16.625 52.7925 16.5312L53.0855 16.3906V14.5508C53.0855 13.5312 53.0269 12.4648 52.9566 12.1836C52.4878 10.1094 50.5425 8.30469 48.398 7.96484C47.191 7.76562 44.9878 7.80078 44.6714 8.02344Z" fill="#008D30"/>
<path d="M29.0055 13.5313C26.9899 13.8008 25.9 14.1055 24.5641 14.7617C23.2633 15.418 22.4547 15.9688 21.4586 16.918C19.5602 18.7227 18.3531 20.8203 17.8024 23.3047C17.486 24.7227 17.5094 25.0977 17.9195 25.5547L18.2594 25.9414H22.5836L26.8961 25.9297L28.068 25.6133C29.6266 25.1914 31.5836 24.207 32.7555 23.2695L33.6813 22.5195L33.986 22.9414C34.4195 23.5273 35.6149 24.6172 36.236 24.9805C36.5289 25.1445 37.1852 25.4258 37.6891 25.6016C38.5094 25.8945 38.7906 25.9297 40.1617 25.9297C41.6266 25.9414 41.7086 25.9297 42.0016 25.6602C42.4 25.2852 42.482 24.7695 42.3063 23.7969C41.8492 21.3945 40.7477 19.2148 39.0836 17.457C37.2672 15.5352 35.1813 14.3516 32.6969 13.8125C31.7008 13.5898 29.6735 13.4375 29.0055 13.5313Z" fill="#008D30"/>
<path d="M32.6953 24.8516C31.7578 25.543 29.8711 26.4102 28.5938 26.75C27.0469 27.1719 25.6875 27.2891 22.4766 27.2891H19.6875V28.4844C19.6875 31.543 20.168 35.4688 20.7305 37.0039C22.1602 40.9062 25.8281 43.4609 30 43.4609C34.1719 43.4609 37.8516 40.8945 39.2695 37.0039C39.832 35.4688 40.3125 31.543 40.3125 28.5078V27.3125L39.4688 27.2305C37.3359 27.0312 35.4609 26.2109 33.9961 24.8398C33.7148 24.5703 33.457 24.3594 33.4102 24.3711C33.375 24.3711 33.0469 24.5938 32.6953 24.8516Z" fill="#008D30"/>
<path d="M18.1387 29.3633C17.3184 30.3008 17.3184 31.6719 18.1387 32.5859C18.3613 32.832 18.5723 33.0312 18.6191 33.0312C18.6543 33.0312 18.6543 32.5977 18.6074 32.0586C18.5723 31.5312 18.5254 30.6641 18.5254 30.125C18.5137 29.5977 18.4668 29.1641 18.4199 29.1641C18.3613 29.1641 18.2324 29.2578 18.1387 29.3633Z" fill="#008D30"/>
<path d="M41.474 30.1247C41.474 30.652 41.4272 31.5192 41.3803 32.0348C41.3334 32.5505 41.31 32.9958 41.3334 33.0309C41.3686 33.0661 41.5912 32.8786 41.8256 32.609C42.6225 31.7653 42.7045 30.6051 42.0483 29.6325C41.5795 28.9528 41.4858 29.0348 41.474 30.1247Z" fill="#008D30"/>
<path d="M7.125 35.5039C6.9375 35.6094 6.91406 35.832 6.91406 37.4609C6.91406 38.4688 6.97266 39.5352 7.04297 39.8164C7.51172 41.8906 9.45703 43.6953 11.6016 44.0352C12.8086 44.2344 15.0117 44.1992 15.3281 43.9766C15.6445 43.7539 15.6797 43.168 15.3867 43.0039C15.2695 42.9453 14.332 42.8867 13.3008 42.8633C11.4492 42.8164 11.4023 42.8047 10.6406 42.4297C9.66797 41.9492 8.78906 41.0234 8.42578 40.0859C8.20312 39.5234 8.15625 39.125 8.12109 37.543C8.07422 36.0078 8.02734 35.6445 7.875 35.5156C7.65234 35.3516 7.39453 35.3399 7.125 35.5039Z" fill="#008D30"/>
<path d="M52.1245 35.5039C51.937 35.6094 51.9136 35.8203 51.9136 37.1211C51.9136 37.9531 51.855 38.9141 51.7964 39.2539C51.5269 40.6484 50.566 41.8906 49.2417 42.5C48.6206 42.793 48.4331 42.8164 46.6988 42.8516C45.6675 42.875 44.73 42.9453 44.6245 43.0039C44.3199 43.168 44.355 43.7539 44.6714 43.9766C44.9878 44.1992 47.191 44.2344 48.398 44.0352C50.5425 43.6953 52.4878 41.8789 52.9683 39.793C53.0269 39.5234 53.0855 38.4688 53.0855 37.4609C53.0855 35.7617 53.0738 35.6094 52.8628 35.4922C52.5816 35.3516 52.3824 35.3516 52.1245 35.5039Z" fill="#008D30"/>
<path d="M22.7109 43.7656C22.418 43.8594 21.8906 44.1289 21.5391 44.3633C21.1992 44.5977 20.4961 45.0781 19.9805 45.4297C18.7617 46.2734 16.5586 47.3281 14.9648 47.8555C14.2734 48.0781 12.5508 48.4766 11.1562 48.7461C9.11719 49.1211 8.44922 49.2969 7.78125 49.6133C6.76172 50.1055 5.98828 50.9023 5.47266 51.9922C5.12109 52.7187 5.09766 52.8711 5.09766 54.0078C5.09766 55.0977 5.13281 55.3203 5.41406 55.9062C5.8125 56.7734 6.72656 57.6875 7.59375 58.0859L8.26172 58.4023H30H51.7383L52.4062 58.0859C53.2734 57.6875 54.1172 56.832 54.5625 55.9414C54.8672 55.2969 54.9023 55.1328 54.9023 54.0078C54.9023 52.8711 54.8789 52.7187 54.5273 51.9922C54.0117 50.9023 53.2383 50.1172 52.2188 49.6133C51.5508 49.2852 50.8945 49.1211 48.8555 48.7461C44.5547 47.9492 42.1641 46.9766 39.1758 44.8437C38.0977 44.0703 37.4297 43.7422 36.7031 43.625L36.2109 43.543V45.2422C36.2109 47.1289 36.0586 47.9141 35.5078 48.957C34.7578 50.3633 33.5391 51.3945 32.0273 51.9219C31.3594 52.1445 31.0078 52.1914 29.8828 52.1797C28.7109 52.1797 28.4297 52.1328 27.7383 51.8633C26.7539 51.4766 26.1211 51.0547 25.3594 50.2344C24.1406 48.957 23.7891 47.832 23.7891 45.3125C23.7891 43.332 23.8477 43.4141 22.7109 43.7656Z" fill="#008D30"/>
<path d="M24.9609 44.9727C24.9609 47.2813 25.2891 48.3477 26.3789 49.4962C27.2695 50.4454 28.207 50.8672 29.6016 50.9376C30.4687 50.9844 30.832 50.9493 31.4883 50.7501C32.9648 50.293 34.1016 49.2149 34.7109 47.6797C34.9102 47.1524 34.9687 46.7071 35.0156 45.3008C35.0391 44.3516 35.0391 43.5782 35.0039 43.5782C34.9805 43.5782 34.6523 43.7071 34.2891 43.8712C32.6719 44.586 30.4336 44.8907 28.582 44.6446C27.6094 44.5157 26.0391 44.0704 25.4062 43.7422C25.2305 43.6485 25.0664 43.5782 25.0195 43.5782C24.9844 43.5782 24.9609 44.1993 24.9609 44.9727Z" fill="#008D30"/>
<path d="M15.1054 74.94L11.3614 85.5H8.12944L4.36944 74.94H7.26544L9.20144 81.324L9.77744 83.404L10.3374 81.356L12.3054 74.94H15.1054ZM20.1534 85.66C19.2681 85.66 18.5001 85.4947 17.8494 85.164C17.2094 84.8333 16.7134 84.3587 16.3614 83.74C16.0094 83.1213 15.8334 82.3747 15.8334 81.5C15.8334 80.6253 16.0094 79.8787 16.3614 79.26C16.7134 78.6413 17.2041 78.1667 17.8334 77.836C18.4734 77.5053 19.2041 77.34 20.0254 77.34C20.8681 77.34 21.5828 77.5053 22.1694 77.836C22.7668 78.156 23.2201 78.604 23.5294 79.18C23.8388 79.7453 23.9934 80.396 23.9934 81.132C23.9934 81.324 23.9881 81.516 23.9774 81.708C23.9668 81.9 23.9508 82.06 23.9294 82.188H17.5934V80.732H22.7294L21.4334 81.228C21.4334 80.588 21.3161 80.0973 21.0814 79.756C20.8574 79.4147 20.5054 79.244 20.0254 79.244C19.6841 79.244 19.3908 79.324 19.1454 79.484C18.9108 79.644 18.7294 79.8947 18.6014 80.236C18.4841 80.5773 18.4254 81.0147 18.4254 81.548C18.4254 82.0707 18.4948 82.4973 18.6334 82.828C18.7721 83.148 18.9694 83.3827 19.2254 83.532C19.4814 83.6707 19.7908 83.74 20.1534 83.74C20.5588 83.74 20.8788 83.66 21.1134 83.5C21.3588 83.34 21.5401 83.116 21.6574 82.828L23.8334 83.548C23.6841 84.0067 23.4228 84.396 23.0494 84.716C22.6868 85.0253 22.2494 85.26 21.7374 85.42C21.2361 85.58 20.7081 85.66 20.1534 85.66ZM26.5151 85.5V77.5H28.9151L29.0271 79.228C29.2297 78.6307 29.5284 78.1667 29.9231 77.836C30.3284 77.5053 30.8404 77.34 31.4591 77.34C31.6617 77.34 31.8324 77.356 31.9711 77.388C32.1204 77.42 32.2377 77.4627 32.3231 77.516L32.0511 79.756C31.9444 79.7133 31.8057 79.6813 31.6351 79.66C31.4751 79.628 31.2777 79.612 31.0431 79.612C30.7231 79.612 30.4244 79.6813 30.1471 79.82C29.8697 79.9587 29.6457 80.1667 29.4751 80.444C29.3151 80.7107 29.2351 81.052 29.2351 81.468V85.5H26.5151ZM35.7501 76.572C35.1954 76.572 34.7901 76.4707 34.5341 76.268C34.2887 76.0547 34.1661 75.724 34.1661 75.276C34.1661 74.8173 34.2887 74.4867 34.5341 74.284C34.7901 74.0707 35.1954 73.964 35.7501 73.964C36.2941 73.964 36.6941 74.0707 36.9501 74.284C37.2061 74.4867 37.3341 74.8173 37.3341 75.276C37.3341 75.724 37.2061 76.0547 36.9501 76.268C36.6941 76.4707 36.2941 76.572 35.7501 76.572ZM37.1101 77.5V85.5H34.3901V77.5H37.1101ZM43.7743 73.884C44.2116 73.884 44.5956 73.932 44.9263 74.028C45.257 74.1133 45.5023 74.2147 45.6623 74.332L45.3903 76.028C45.273 75.9533 45.1396 75.8947 44.9903 75.852C44.841 75.8093 44.6543 75.788 44.4303 75.788C44.057 75.788 43.7476 75.8733 43.5023 76.044C43.2676 76.2147 43.1503 76.5133 43.1503 76.94V77.98L43.3103 78.428V85.5H40.5903V76.764C40.5903 76.252 40.6703 75.8147 40.8303 75.452C41.001 75.0893 41.2356 74.7907 41.5343 74.556C41.833 74.3213 42.1743 74.1507 42.5583 74.044C42.9423 73.9373 43.3476 73.884 43.7743 73.884ZM45.5823 77.5V79.436H39.3103V77.5H45.5823ZM55.7349 77.5L52.8229 85.5C52.5243 86.3427 52.1989 87.0147 51.8469 87.516C51.4949 88.0173 51.0789 88.38 50.5989 88.604C50.1189 88.828 49.5429 88.94 48.8709 88.94C48.4229 88.94 48.0123 88.892 47.6389 88.796C47.2656 88.7 46.9403 88.5667 46.6629 88.396L47.2069 86.556C47.3989 86.6947 47.6016 86.7907 47.8149 86.844C48.0283 86.908 48.3003 86.94 48.6309 86.94C48.9403 86.94 49.1909 86.8867 49.3829 86.78C49.5856 86.6733 49.7456 86.4707 49.8629 86.172L50.0709 85.676L49.1429 83.5L46.7429 77.5H49.7349L50.9669 82.06L51.3509 83.756L51.7989 81.996L53.0309 77.5H55.7349Z" fill="#008D30"/>
</svg>
