<svg width="60" height="90" viewBox="0 0 60 90" fill="none" xmlns="http://www.w3.org/2000/svg">
<path d="M11.4961 7.96484C9.46875 8.30469 7.5 10.168 7.04297 12.1836C6.97266 12.4648 6.91406 13.4961 6.91406 14.4805C6.91406 16.3438 6.98438 16.625 7.47656 16.625C7.98047 16.6133 8.02734 16.4727 8.09766 14.4922C8.15625 12.9219 8.21484 12.4648 8.42578 11.9141C8.78906 10.9766 9.65625 10.0508 10.6406 9.57031C11.4023 9.19531 11.4492 9.18359 13.3008 9.13672C14.332 9.11328 15.2695 9.05469 15.3867 8.9961C15.6797 8.83203 15.6445 8.24609 15.3281 8.02344C15.1172 7.87109 14.7539 7.83594 13.5938 7.84766C12.7852 7.85938 11.8477 7.90625 11.4961 7.96484Z" fill="black"/>
<path d="M44.6714 8.02344C44.355 8.24609 44.3199 8.83203 44.6245 8.99609C44.73 9.05469 45.6675 9.11328 46.6988 9.13672C48.5503 9.18359 48.5972 9.19531 49.3589 9.57031C50.3316 10.0508 51.2105 10.9766 51.5738 11.9141C51.7964 12.4766 51.8433 12.8867 51.8902 14.4922C51.937 16.3672 51.9488 16.4141 52.2183 16.5312C52.4175 16.625 52.5816 16.625 52.7925 16.5312L53.0855 16.3906V14.5508C53.0855 13.5312 53.0269 12.4648 52.9566 12.1836C52.4878 10.1094 50.5425 8.30469 48.398 7.96484C47.191 7.76562 44.9878 7.80078 44.6714 8.02344Z" fill="black"/>
<path d="M29.0055 13.5313C26.9899 13.8008 25.9 14.1055 24.5641 14.7617C23.2633 15.418 22.4547 15.9688 21.4586 16.918C19.5602 18.7227 18.3531 20.8203 17.8024 23.3047C17.486 24.7227 17.5094 25.0977 17.9195 25.5547L18.2594 25.9414H22.5836L26.8961 25.9297L28.068 25.6133C29.6266 25.1914 31.5836 24.207 32.7555 23.2695L33.6813 22.5195L33.986 22.9414C34.4195 23.5273 35.6149 24.6172 36.236 24.9805C36.5289 25.1445 37.1852 25.4258 37.6891 25.6016C38.5094 25.8945 38.7906 25.9297 40.1617 25.9297C41.6266 25.9414 41.7086 25.9297 42.0016 25.6602C42.4 25.2852 42.482 24.7695 42.3063 23.7969C41.8492 21.3945 40.7477 19.2148 39.0836 17.457C37.2672 15.5352 35.1813 14.3516 32.6969 13.8125C31.7008 13.5898 29.6735 13.4375 29.0055 13.5313Z" fill="black"/>
<path d="M32.6953 24.8516C31.7578 25.543 29.8711 26.4102 28.5938 26.75C27.0469 27.1719 25.6875 27.2891 22.4766 27.2891H19.6875V28.4844C19.6875 31.543 20.168 35.4688 20.7305 37.0039C22.1602 40.9062 25.8281 43.4609 30 43.4609C34.1719 43.4609 37.8516 40.8945 39.2695 37.0039C39.832 35.4688 40.3125 31.543 40.3125 28.5078V27.3125L39.4688 27.2305C37.3359 27.0312 35.4609 26.2109 33.9961 24.8398C33.7148 24.5703 33.457 24.3594 33.4102 24.3711C33.375 24.3711 33.0469 24.5938 32.6953 24.8516Z" fill="black"/>
<path d="M18.1387 29.3633C17.3184 30.3008 17.3184 31.6719 18.1387 32.5859C18.3613 32.832 18.5723 33.0312 18.6191 33.0312C18.6543 33.0312 18.6543 32.5977 18.6074 32.0586C18.5723 31.5312 18.5254 30.6641 18.5254 30.125C18.5137 29.5977 18.4668 29.1641 18.4199 29.1641C18.3613 29.1641 18.2324 29.2578 18.1387 29.3633Z" fill="black"/>
<path d="M41.474 30.1247C41.474 30.652 41.4272 31.5192 41.3803 32.0348C41.3334 32.5505 41.31 32.9958 41.3334 33.0309C41.3686 33.0661 41.5912 32.8786 41.8256 32.609C42.6225 31.7653 42.7045 30.6051 42.0483 29.6325C41.5795 28.9528 41.4858 29.0348 41.474 30.1247Z" fill="black"/>
<path d="M7.125 35.5039C6.9375 35.6094 6.91406 35.832 6.91406 37.4609C6.91406 38.4688 6.97266 39.5352 7.04297 39.8164C7.51172 41.8906 9.45703 43.6953 11.6016 44.0352C12.8086 44.2344 15.0117 44.1992 15.3281 43.9766C15.6445 43.7539 15.6797 43.168 15.3867 43.0039C15.2695 42.9453 14.332 42.8867 13.3008 42.8633C11.4492 42.8164 11.4023 42.8047 10.6406 42.4297C9.66797 41.9492 8.78906 41.0234 8.42578 40.0859C8.20312 39.5234 8.15625 39.125 8.12109 37.543C8.07422 36.0078 8.02734 35.6445 7.875 35.5156C7.65234 35.3516 7.39453 35.3399 7.125 35.5039Z" fill="black"/>
<path d="M52.1245 35.5039C51.937 35.6094 51.9136 35.8203 51.9136 37.1211C51.9136 37.9531 51.855 38.9141 51.7964 39.2539C51.5269 40.6484 50.566 41.8906 49.2417 42.5C48.6206 42.793 48.4331 42.8164 46.6988 42.8516C45.6675 42.875 44.73 42.9453 44.6245 43.0039C44.3199 43.168 44.355 43.7539 44.6714 43.9766C44.9878 44.1992 47.191 44.2344 48.398 44.0352C50.5425 43.6953 52.4878 41.8789 52.9683 39.793C53.0269 39.5234 53.0855 38.4688 53.0855 37.4609C53.0855 35.7617 53.0738 35.6094 52.8628 35.4922C52.5816 35.3516 52.3824 35.3516 52.1245 35.5039Z" fill="black"/>
<path d="M22.7109 43.7656C22.418 43.8594 21.8906 44.1289 21.5391 44.3633C21.1992 44.5977 20.4961 45.0781 19.9805 45.4297C18.7617 46.2734 16.5586 47.3281 14.9648 47.8555C14.2734 48.0781 12.5508 48.4766 11.1562 48.7461C9.11719 49.1211 8.44922 49.2969 7.78125 49.6133C6.76172 50.1055 5.98828 50.9023 5.47266 51.9922C5.12109 52.7187 5.09766 52.8711 5.09766 54.0078C5.09766 55.0977 5.13281 55.3203 5.41406 55.9062C5.8125 56.7734 6.72656 57.6875 7.59375 58.0859L8.26172 58.4023H30H51.7383L52.4062 58.0859C53.2734 57.6875 54.1172 56.832 54.5625 55.9414C54.8672 55.2969 54.9023 55.1328 54.9023 54.0078C54.9023 52.8711 54.8789 52.7187 54.5273 51.9922C54.0117 50.9023 53.2383 50.1172 52.2188 49.6133C51.5508 49.2852 50.8945 49.1211 48.8555 48.7461C44.5547 47.9492 42.1641 46.9766 39.1758 44.8437C38.0977 44.0703 37.4297 43.7422 36.7031 43.625L36.2109 43.543V45.2422C36.2109 47.1289 36.0586 47.9141 35.5078 48.957C34.7578 50.3633 33.5391 51.3945 32.0273 51.9219C31.3594 52.1445 31.0078 52.1914 29.8828 52.1797C28.7109 52.1797 28.4297 52.1328 27.7383 51.8633C26.7539 51.4766 26.1211 51.0547 25.3594 50.2344C24.1406 48.957 23.7891 47.832 23.7891 45.3125C23.7891 43.332 23.8477 43.4141 22.7109 43.7656Z" fill="black"/>
<path d="M24.9609 44.9727C24.9609 47.2813 25.2891 48.3477 26.3789 49.4962C27.2695 50.4454 28.207 50.8672 29.6016 50.9376C30.4687 50.9844 30.832 50.9493 31.4883 50.7501C32.9648 50.293 34.1016 49.2149 34.7109 47.6797C34.9102 47.1524 34.9687 46.7071 35.0156 45.3008C35.0391 44.3516 35.0391 43.5782 35.0039 43.5782C34.9805 43.5782 34.6523 43.7071 34.2891 43.8712C32.6719 44.586 30.4336 44.8907 28.582 44.6446C27.6094 44.5157 26.0391 44.0704 25.4062 43.7422C25.2305 43.6485 25.0664 43.5782 25.0195 43.5782C24.9844 43.5782 24.9609 44.1993 24.9609 44.9727Z" fill="black"/>
<path d="M15.1757 74.94L11.3357 85.5H8.75969L4.90369 74.94H7.23969L9.46369 81.66L10.0717 83.74L10.6637 81.676L12.9037 74.94H15.1757ZM20.4031 85.66C19.5604 85.66 18.8244 85.4947 18.1951 85.164C17.5764 84.8333 17.0964 84.3587 16.7551 83.74C16.4137 83.1213 16.2431 82.3747 16.2431 81.5C16.2431 80.6253 16.4137 79.8787 16.7551 79.26C17.0964 78.6413 17.5711 78.1667 18.1791 77.836C18.7977 77.5053 19.5017 77.34 20.2911 77.34C21.1017 77.34 21.7897 77.5053 22.3551 77.836C22.9204 78.156 23.3524 78.5987 23.6511 79.164C23.9497 79.7187 24.0991 80.3533 24.0991 81.068C24.0991 81.2813 24.0937 81.484 24.0831 81.676C24.0724 81.868 24.0564 82.0387 24.0351 82.188H17.6511V80.668H23.0751L22.0191 81.052C22.0191 80.38 21.8644 79.8627 21.5551 79.5C21.2564 79.1373 20.8297 78.956 20.2751 78.956C19.8697 78.956 19.5177 79.052 19.2191 79.244C18.9311 79.436 18.7124 79.724 18.5631 80.108C18.4137 80.4813 18.3391 80.956 18.3391 81.532C18.3391 82.0973 18.4191 82.5667 18.5791 82.94C18.7497 83.3027 18.9844 83.5747 19.2831 83.756C19.5924 83.9373 19.9604 84.028 20.3871 84.028C20.8564 84.028 21.2351 83.9373 21.5231 83.756C21.8111 83.5747 22.0351 83.324 22.1951 83.004L23.9391 83.676C23.7684 84.092 23.5071 84.4493 23.1551 84.748C22.8137 85.0467 22.4031 85.276 21.9231 85.436C21.4537 85.5853 20.9471 85.66 20.4031 85.66ZM26.9567 85.5V77.5H28.8607L29.0047 79.068C29.218 78.5133 29.5274 78.0867 29.9327 77.788C30.3487 77.4893 30.866 77.34 31.4847 77.34C31.666 77.34 31.8314 77.356 31.9807 77.388C32.13 77.42 32.2527 77.4627 32.3487 77.516L32.0927 79.356C31.986 79.3133 31.8527 79.2813 31.6927 79.26C31.5434 79.2387 31.346 79.228 31.1007 79.228C30.7807 79.228 30.4714 79.308 30.1727 79.468C29.874 79.6173 29.6287 79.852 29.4367 80.172C29.2447 80.4813 29.1487 80.876 29.1487 81.356V85.5H26.9567ZM35.8107 76.348C35.352 76.348 35.0107 76.252 34.7867 76.06C34.5627 75.8573 34.4507 75.564 34.4507 75.18C34.4507 74.7853 34.5627 74.492 34.7867 74.3C35.0107 74.0973 35.352 73.996 35.8107 73.996C36.2694 73.996 36.6107 74.0973 36.8347 74.3C37.0587 74.492 37.1707 74.7853 37.1707 75.18C37.1707 75.564 37.0587 75.8573 36.8347 76.06C36.6107 76.252 36.2694 76.348 35.8107 76.348ZM36.8987 77.5V85.5H34.7067V77.5H36.8987ZM43.7903 73.836C44.1636 73.836 44.4996 73.8787 44.7983 73.964C45.1076 74.0387 45.337 74.1347 45.4863 74.252L45.1823 75.708C45.065 75.6333 44.9316 75.5747 44.7823 75.532C44.633 75.4893 44.457 75.468 44.2543 75.468C43.8383 75.468 43.5076 75.564 43.2623 75.756C43.017 75.9373 42.8943 76.252 42.8943 76.7V77.804L42.9903 78.236V85.5H40.7983V76.54C40.7983 76.092 40.873 75.6973 41.0223 75.356C41.1716 75.0147 41.3796 74.732 41.6463 74.508C41.913 74.284 42.2276 74.1187 42.5903 74.012C42.9636 73.8947 43.3636 73.836 43.7903 73.836ZM45.4223 77.5V79.132H39.4063V77.5H45.4223ZM55.2579 77.5L52.0259 85.996C51.7699 86.7213 51.4819 87.2973 51.1619 87.724C50.8526 88.1507 50.4899 88.46 50.0739 88.652C49.6686 88.844 49.1833 88.94 48.6179 88.94C48.2019 88.94 47.8179 88.8867 47.4659 88.78C47.1246 88.684 46.8259 88.556 46.5699 88.396L47.0339 86.812C47.2366 86.972 47.4499 87.084 47.6739 87.148C47.8979 87.2227 48.1539 87.26 48.4419 87.26C48.7406 87.26 48.9966 87.196 49.2099 87.068C49.4339 86.94 49.6206 86.684 49.7699 86.3L50.0419 85.612L49.1619 83.532L46.7139 77.5H49.1459L50.6659 82.3L51.0819 83.9L51.5779 82.204L53.0339 77.5H55.2579Z" fill="black"/>
</svg>
