<svg width="32" height="32" viewBox="0 0 32 32" fill="none" xmlns="http://www.w3.org/2000/svg">
<path d="M23.131 0H8.8645C7.67592 0 6.70313 0.971886 6.70313 2.16137V29.8377C6.70312 31.0272 7.67592 32 8.8645 32H23.131C24.3196 32 25.2924 31.029 25.2924 29.8386V2.16137C25.2924 0.971886 24.3196 0 23.131 0ZM13.7157 1.55794H18.2798C18.4243 1.55794 18.5413 1.67497 18.5413 1.82034C18.5413 1.9648 18.4243 2.08183 18.2798 2.08183H13.7157C13.5712 2.08183 13.4542 1.9648 13.4542 1.82034C13.4542 1.67497 13.5712 1.55794 13.7157 1.55794ZM15.9978 30.9193C15.4007 30.9193 14.9171 30.4357 14.9171 29.8377C14.9171 29.2398 15.4007 28.757 15.9978 28.757C16.5948 28.757 17.0784 29.2398 17.0784 29.8377C17.0784 30.4357 16.5948 30.9193 15.9978 30.9193ZM23.7884 28H8.20712V3.42766H23.7884V28Z" fill="white"/>
</svg>
