<svg width="33" height="32" viewBox="0 0 33 32" fill="none" xmlns="http://www.w3.org/2000/svg">
<path d="M32.4692 17.0544C32.4769 16.9931 32.4769 16.9311 32.4692 16.8697C32.4846 16.5773 32.5 16.3002 32.5 16.0078C32.5054 12.3603 31.2559 8.82215 28.9615 5.9876C28.9081 5.88675 28.8348 5.79774 28.7461 5.72594C27.05 3.69743 24.8774 2.12146 22.4231 1.13913L22.2538 1.07757C18.5524 -0.359189 14.4476 -0.359189 10.7462 1.07757L10.5769 1.13913C8.12257 2.12146 5.95003 3.69743 4.25386 5.72594C4.16517 5.79774 4.0919 5.88675 4.03847 5.9876C1.74409 8.82215 0.494641 12.3603 0.500017 16.0078C0.500017 16.3002 0.515402 16.5773 0.530787 16.8697C0.523064 16.9311 0.523064 16.9931 0.530787 17.0544C0.708218 19.6992 1.53809 22.2588 2.94617 24.5041C2.99349 24.5969 3.0502 24.6846 3.1154 24.7658C5.27781 28.0678 8.58047 30.457 12.3923 31.4767H12.4385C15.1012 32.1744 17.8987 32.1744 20.5615 31.4767H20.6077C24.4195 30.457 27.7222 28.0678 29.8846 24.7658C29.9498 24.6846 30.0065 24.5969 30.0538 24.5041C31.4619 22.2588 32.2918 19.6992 32.4692 17.0544ZM7.34616 14.3301L9.37693 14.9919L11.3308 21.0256L10.0846 22.7495H4.76155C3.82136 21.131 3.23414 19.3317 3.03848 17.47L7.34616 14.3301ZM25.6538 14.3301L29.9615 17.47C29.7659 19.3317 29.1786 21.131 28.2384 22.7495H22.9154L21.6692 21.0256L23.6231 14.9919L25.6538 14.3301ZM26.5308 6.92651L24.8846 11.9905L22.8538 12.6523L17.7308 8.91208V6.78799L22.0385 3.64802C23.7488 4.41418 25.2792 5.53111 26.5308 6.92651ZM10.9615 3.64802L15.2692 6.78799V8.91208L10.1462 12.6523L8.11539 11.9905L6.46924 6.92651C7.72077 5.53111 9.25123 4.41418 10.9615 3.64802ZM13.7308 29.2603L12.0846 24.1963L13.3308 22.4724H19.6692L20.9154 24.1963L19.2692 29.2603C17.4437 29.6502 15.5563 29.6502 13.7308 29.2603Z" fill="white"/>
</svg>
