<svg width="33" height="25" viewBox="0 0 33 25" fill="none" xmlns="http://www.w3.org/2000/svg">
<path d="M29.26 1.15911C29.2793 0.456538 28.5576 -0.127987 27.8465 0.024597L17.0893 2.07043V20.8868L29.26 18.5722C29.2647 17.6203 29.2541 1.61799 29.26 1.15911ZM26.2232 14.4817L20.3543 15.5976C20.0428 15.6595 19.7234 15.4594 19.6621 15.149C19.5992 14.8404 19.8071 14.5409 20.1265 14.4806L25.9954 13.3647C26.3144 13.302 26.6247 13.5043 26.6876 13.8133C26.7504 14.1219 26.5422 14.4213 26.2232 14.4817ZM26.2232 10.1687L20.3543 11.2847C20.0428 11.3465 19.7234 11.1465 19.6621 10.836C19.5992 10.5278 19.8071 10.228 20.1265 10.1676L25.9954 9.0517C26.3144 8.99021 26.6247 9.19138 26.6876 9.50034C26.7504 9.80854 26.5422 10.108 26.2232 10.1687ZM26.2232 5.85579L20.3543 6.9717C20.0428 7.03357 19.7234 6.83354 19.6621 6.52306C19.5992 6.21486 19.8071 5.91501 20.1265 5.85466L25.9954 4.73875C26.3144 4.67612 26.6247 4.87842 26.6876 5.18739C26.7504 5.49559 26.5422 5.79544 26.2232 5.85579ZM3.74039 18.5722L15.9107 20.8868V2.07043L5.1535 0.024597C4.44243 -0.128746 3.72154 0.457297 3.74 1.15911C3.74157 1.68214 3.73843 17.5561 3.74039 18.5722ZM6.34582 5.18739C6.40829 4.87842 6.71746 4.6765 7.03804 4.73875L12.9065 5.85466C13.2255 5.91539 13.4337 6.21486 13.3709 6.52306C13.3096 6.83354 12.9902 7.03357 12.6787 6.9717L6.81018 5.85579C6.49079 5.79506 6.28296 5.49559 6.34582 5.18739ZM6.34582 9.50034C6.40829 9.19138 6.71746 8.99021 7.03804 9.0517L12.9065 10.1676C13.2255 10.2283 13.4337 10.5278 13.3709 10.836C13.3096 11.1465 12.9902 11.3465 12.6787 11.2847L6.81018 10.1687C6.49079 10.108 6.28296 9.80854 6.34582 9.50034ZM6.34582 13.8133C6.40829 13.5043 6.71746 13.3024 7.03804 13.3647L12.9065 14.4806C13.2255 14.5413 13.4337 14.8408 13.3709 15.149C13.3096 15.4594 12.9902 15.6595 12.6787 15.5976L6.81018 14.4817C6.49079 14.4213 6.28296 14.1219 6.34582 13.8133ZM33 3.05198V20.8257C33 21.3734 32.5997 21.8501 32.0489 21.9587L16.7353 24.9769C16.579 25.0077 16.4214 25.0077 16.2651 24.9769L0.9515 21.9587C0.400321 21.8501 0 21.3734 0 20.8257V3.05198L2.56182 3.43002V19.0406C2.56182 19.3128 2.761 19.5466 3.03718 19.5993L16.3861 22.1378C16.4611 22.1522 16.5389 22.1522 16.6139 22.1378L29.9632 19.5993C30.2394 19.5469 30.4386 19.3128 30.4386 19.0406V3.43002L33 3.05198Z" fill="white"/>
</svg>
