<svg width="25" height="32" viewBox="0 0 25 32" fill="none" xmlns="http://www.w3.org/2000/svg">
<path d="M23.0701 30.9378C22.9032 31.0553 22.7041 31.1181 22.5001 31.1178C22.2588 31.1174 22.0253 31.0325 21.8401 30.8778L12.5001 22.7778L10.9701 21.4578L7.84005 18.7378L6.85005 17.8778C6.64849 17.7054 6.52366 17.46 6.50303 17.1956C6.4824 16.9312 6.56766 16.6694 6.74005 16.4678C6.91244 16.2663 7.15785 16.1414 7.42227 16.1208C7.6867 16.1002 7.94849 16.1854 8.15005 16.3578L8.59005 16.7378L12.5001 20.1278L14.0301 21.4578L20.1801 26.7878L17.1601 18.7378L16.4101 16.7378L14.1901 10.8278C14.8372 10.5941 15.4294 10.2299 15.9301 9.75781L23.4401 29.7678C23.5184 29.9761 23.5246 30.2047 23.4575 30.4168C23.3904 30.629 23.2539 30.8125 23.0701 30.9378Z" fill="white"/>
<path d="M18.1511 17.8778L17.1611 18.7378L14.0311 21.4578L12.5011 22.7778L3.16108 30.8778C2.97587 31.0325 2.74236 31.1174 2.50108 31.1178C2.33973 31.1172 2.18091 31.0777 2.03803 31.0028C1.89516 30.9278 1.77244 30.8195 1.68024 30.6871C1.58804 30.5547 1.52908 30.402 1.50834 30.242C1.4876 30.082 1.50569 29.9194 1.56108 29.7678L9.07108 9.75781C9.5717 10.2299 10.1639 10.5941 10.8111 10.8278L8.59108 16.7378L7.84108 18.7378L4.82108 26.7878L10.9711 21.4578L12.5011 20.1278L16.4111 16.7378L16.8511 16.3578C16.9509 16.2725 17.0665 16.2076 17.1914 16.1669C17.3163 16.1263 17.4479 16.1106 17.5789 16.1208C17.7098 16.131 17.8374 16.1669 17.9545 16.2265C18.0715 16.286 18.1757 16.368 18.2611 16.4678C18.3464 16.5676 18.4113 16.6833 18.452 16.8081C18.4927 16.933 18.5083 17.0647 18.4981 17.1956C18.4879 17.3265 18.452 17.4542 18.3925 17.5712C18.3329 17.6883 18.2509 17.7925 18.1511 17.8778Z" fill="white"/>
<path d="M12.5 9.11719C14.1569 9.11719 15.5 7.77404 15.5 6.11719C15.5 4.46033 14.1569 3.11719 12.5 3.11719C10.8431 3.11719 9.5 4.46033 9.5 6.11719C9.5 7.77404 10.8431 9.11719 12.5 9.11719Z" fill="white"/>
<path d="M17.5 18.1172H7.5C7.23478 18.1172 6.98043 18.0118 6.79289 17.8243C6.60536 17.6368 6.5 17.3824 6.5 17.1172C6.5 16.852 6.60536 16.5976 6.79289 16.4101C6.98043 16.2225 7.23478 16.1172 7.5 16.1172H17.5C17.7652 16.1172 18.0196 16.2225 18.2071 16.4101C18.3947 16.5976 18.5 16.852 18.5 17.1172C18.5 17.3824 18.3947 17.6368 18.2071 17.8243C18.0196 18.0118 17.7652 18.1172 17.5 18.1172Z" fill="white"/>
<path d="M22.132 12.1584C21.9559 12.1583 21.7829 12.1116 21.6306 12.0232C21.4783 11.9347 21.352 11.8076 21.2646 11.6547C21.1772 11.5018 21.1318 11.3285 21.1328 11.1523C21.1339 10.9762 21.1815 10.8035 21.2707 10.6516C22.0777 9.27717 22.5031 7.71223 22.5031 6.11841C22.5031 4.52459 22.0777 2.95965 21.2707 1.58521C21.1363 1.35651 21.0983 1.08378 21.1649 0.827016C21.2316 0.570251 21.3975 0.350482 21.6262 0.216057C21.8549 0.0816319 22.1276 0.0435617 22.3844 0.110222C22.6412 0.176881 22.8609 0.342811 22.9954 0.571507C23.9826 2.25334 24.5031 4.16821 24.5031 6.11841C24.5031 8.06862 23.9826 9.98348 22.9954 11.6653C22.9069 11.8156 22.7806 11.9401 22.6292 12.0266C22.4778 12.1131 22.3064 12.1585 22.132 12.1584Z" fill="white"/>
<path d="M18.6841 10.1396C18.5078 10.1393 18.3347 10.0925 18.1824 10.0038C18.03 9.91508 17.9039 9.7877 17.8166 9.63453C17.7294 9.48136 17.6842 9.30785 17.6856 9.13158C17.687 8.95531 17.735 8.78254 17.8247 8.63079C18.2704 7.86915 18.5054 7.00258 18.5054 6.12009C18.5054 5.2376 18.2704 4.37102 17.8247 3.60939C17.7537 3.49629 17.7062 3.37014 17.6848 3.23837C17.6634 3.1066 17.6686 2.97188 17.7001 2.84216C17.7316 2.71243 17.7888 2.59033 17.8682 2.48304C17.9477 2.37576 18.0478 2.28547 18.1627 2.21749C18.2775 2.14951 18.4049 2.10522 18.5372 2.08724C18.6694 2.06926 18.804 2.07794 18.9328 2.11278C19.0617 2.14762 19.1823 2.2079 19.2875 2.29008C19.3927 2.37227 19.4804 2.47468 19.5454 2.59129C20.1739 3.66088 20.5054 4.87897 20.5054 6.11959C20.5054 7.36021 20.1739 8.5783 19.5454 9.64789C19.4572 9.79786 19.3313 9.92214 19.1802 10.0084C19.0291 10.0947 18.858 10.1399 18.6841 10.1396Z" fill="white"/>
<path d="M2.8711 12.1584C2.69672 12.1585 2.52534 12.1131 2.37392 12.0266C2.2225 11.9401 2.09629 11.8156 2.0078 11.6653C1.02051 9.98348 0.5 8.06861 0.5 6.11841C0.5 4.1682 1.02051 2.25334 2.0078 0.571504C2.14222 0.342808 2.36199 0.176879 2.61876 0.110219C2.74589 0.0772123 2.87829 0.0695705 3.00838 0.0877297C3.13847 0.105889 3.26371 0.149494 3.37695 0.216054C3.49019 0.282615 3.58921 0.370828 3.66836 0.475656C3.7475 0.580485 3.80523 0.699876 3.83823 0.827013C3.87124 0.954151 3.87888 1.08654 3.86072 1.21664C3.84256 1.34673 3.79896 1.47197 3.7324 1.58521C2.92545 2.95965 2.50001 4.52459 2.50001 6.11841C2.50001 7.71223 2.92545 9.27717 3.7324 10.6516C3.82167 10.8035 3.86924 10.9762 3.87032 11.1523C3.87139 11.3285 3.82592 11.5017 3.73851 11.6547C3.6511 11.8076 3.52485 11.9347 3.37253 12.0232C3.22022 12.1116 3.04724 12.1583 2.8711 12.1584Z" fill="white"/>
<path d="M6.3213 10.1354C6.14737 10.1358 5.97637 10.0906 5.82528 10.0045C5.67419 9.91829 5.54827 9.7941 5.46 9.64423C4.83143 8.57464 4.5 7.35655 4.5 6.11593C4.5 4.87531 4.83143 3.65722 5.46 2.58763C5.52462 2.47038 5.61213 2.3673 5.71733 2.2845C5.82253 2.20171 5.94328 2.14087 6.07243 2.10562C6.20158 2.07036 6.33649 2.06139 6.46917 2.07925C6.60185 2.0971 6.7296 2.14142 6.84483 2.20957C6.96006 2.27771 7.06044 2.36831 7.14001 2.47597C7.21958 2.58363 7.27671 2.70618 7.30804 2.83634C7.33936 2.9665 7.34423 3.10162 7.32236 3.2337C7.30049 3.36578 7.25231 3.49212 7.1807 3.60523C6.73495 4.36686 6.5 5.23344 6.5 6.11593C6.5 6.99842 6.73495 7.865 7.1807 8.62663C7.27039 8.77838 7.31837 8.95115 7.31979 9.12742C7.3212 9.30369 7.27599 9.4772 7.18875 9.63037C7.1015 9.78354 6.97532 9.91093 6.82299 9.99962C6.67065 10.0883 6.49758 10.1352 6.3213 10.1354Z" fill="white"/>
</svg>
