<svg width="41" height="40" viewBox="0 0 41 40" fill="none" xmlns="http://www.w3.org/2000/svg">
<g clip-path="url(#clip0_663_13496)">
<path d="M7.04688 0.125C5.72656 0.4375 4.5625 1.48438 4.07031 2.78906C3.90625 3.23438 3.89844 3.34375 3.85938 7.49219L3.82031 11.7422L3.5 11.8359C2.58594 12.1094 1.52344 12.9453 1.0625 13.7734C0.59375 14.6016 0.539062 14.8906 0.539062 16.5625C0.539062 18.0391 0.546875 18.1016 0.742188 18.5234C1.1875 19.4688 1.94531 19.9297 3.14062 19.9844L3.85938 20.0156V26.5547C3.85938 33.75 3.84375 33.5391 4.34375 34.4688C4.8125 35.3516 5.85938 36.2109 6.8125 36.4922L7.14062 36.5859V37.0312C7.14062 38.3594 7.67969 39.3438 8.65625 39.7812C9.04688 39.9531 9.11719 39.9609 11.3203 39.9609H13.5859L14.0234 39.7578C14.9688 39.3125 15.4297 38.5547 15.4844 37.3594L15.5156 36.6406H20.5H25.4844L25.5156 37.3672C25.5703 38.5547 26.0312 39.3125 26.9766 39.7578L27.4141 39.9609H29.6797C31.8828 39.9609 31.9531 39.9531 32.3438 39.7812C33.3203 39.3438 33.8594 38.3594 33.8594 37.0312V36.5859L34.1953 36.4922C35.1406 36.2109 36.1875 35.3516 36.6562 34.4688C37.1562 33.5391 37.1406 33.75 37.1406 26.5547V20.0156L37.8672 19.9844C39.0547 19.9297 39.8125 19.4688 40.2578 18.5234C40.4531 18.1016 40.4609 18.0391 40.4609 16.5625C40.4609 14.8906 40.4062 14.6016 39.9375 13.7734C39.4766 12.9453 38.4141 12.1094 37.5 11.8359L37.1797 11.7422L37.1406 7.49219C37.1016 3.34375 37.0938 3.23438 36.9297 2.78906C36.4297 1.46875 35.2656 0.4375 33.9219 0.117188C33.2109 -0.046875 7.73438 -0.046875 7.04688 0.125ZM30.7344 3.58594C31.2109 3.83594 31.6484 4.25781 31.8906 4.72656C32.0703 5.0625 32.1016 5.21094 32.1016 5.82031C32.1016 6.64844 31.9453 7.05469 31.4141 7.57812C31.0156 7.98438 30.6641 8.16406 30.0703 8.27344C29.4297 8.39062 11.5703 8.39062 10.9297 8.27344C10.3359 8.16406 9.98438 7.98438 9.58594 7.57812C9.05469 7.05469 8.89844 6.64844 8.89844 5.82031C8.89844 5.23438 8.92969 5.05469 9.08594 4.76562C9.41406 4.13281 10 3.63281 10.6562 3.42969C10.7656 3.39844 15.25 3.375 20.6172 3.38281L30.3828 3.39844L30.7344 3.58594ZM32.3438 10.2188C32.7969 10.4297 33.3047 10.9141 33.5391 11.375C33.8438 11.9688 33.8672 12.3984 33.8438 16.9766L33.8203 21.3672L33.5625 21.8906C33.2734 22.4844 32.9219 22.8281 32.2969 23.1172L31.8672 23.3203H20.5H9.13281L8.60938 23.0625C8.01562 22.7734 7.67188 22.4219 7.38281 21.7969L7.17969 21.3672L7.15625 16.9766C7.13281 12.3984 7.15625 11.9609 7.46094 11.375C7.65625 10.9844 8.10938 10.5 8.42969 10.3281C9.05469 10 8.77344 10.0078 20.6172 10.0234L31.9453 10.0391L32.3438 10.2188ZM12.3359 26.9141C13.3906 27.375 13.9766 28.4766 13.7656 29.6094C13.6641 30.1641 13.4766 30.5156 13.0781 30.9141C12.5547 31.4453 12.1484 31.6016 11.3203 31.6016C10.7344 31.6016 10.5547 31.5703 10.2656 31.4141C9.78906 31.1641 9.35938 30.7422 9.10938 30.2734C8.92969 29.9375 8.89844 29.7891 8.89844 29.1797C8.89844 28.3516 9.05469 27.9453 9.58594 27.4219C9.97656 27.0234 10.2578 26.875 10.8125 26.75C11.3516 26.6328 11.8281 26.6875 12.3359 26.9141ZM30.0703 26.7266C30.6641 26.8359 31.0156 27.0156 31.4141 27.4219C31.9453 27.9453 32.1016 28.3516 32.1016 29.1797C32.1016 29.7891 32.0703 29.9375 31.8906 30.2734C31.6406 30.7422 31.2109 31.1641 30.7344 31.4141C30.2266 31.6797 29.1406 31.6797 28.6094 31.4219C28.1797 31.2109 27.6562 30.7109 27.4531 30.3125C26.7031 28.8438 27.625 26.9922 29.2422 26.7188C29.4375 26.6875 29.6016 26.6562 29.6094 26.6484C29.6094 26.6484 29.8203 26.6797 30.0703 26.7266Z" fill="white"/>
</g>
<defs>
<clipPath id="clip0_663_13496">
<rect width="40" height="40" fill="white" transform="translate(0.5)"/>
</clipPath>
</defs>
</svg>
