<svg width="32" height="32" viewBox="0 0 32 32" fill="none" xmlns="http://www.w3.org/2000/svg">
<path d="M28.6818 7.27273C28.6818 11.4182 22.6227 14.5455 14.5909 14.5455C6.55909 14.5455 0.5 11.4182 0.5 7.27273C0.5 3.12727 6.55909 0 14.5909 0C22.6227 0 28.6818 3.12727 28.6818 7.27273ZM17.4091 29.0909C11.4205 29.0909 6.30545 27.4909 3.31818 24.8C3.40273 28.9164 9.41955 32 17.4091 32C25.3986 32 31.3732 28.9309 31.5 24.8582C28.555 27.4909 23.5668 29.0909 17.4091 29.0909ZM14.5909 23.2727C10.9655 23.3512 7.36319 22.658 4.00864 21.2364C5.81227 24.1745 10.9695 26.1818 17.4091 26.1818C25.4409 26.1818 31.5 23.0545 31.5 18.9091C31.4885 18.0096 31.208 17.1358 30.6968 16.4073C28.5973 20.5673 22.5241 23.2727 14.5909 23.2727ZM16 17.4545H14.5909H13.1818C7.65818 17.2364 3.16318 15.68 0.5 13.2509C0.626818 17.2945 6.64364 20.3636 14.5909 20.3636C22.5382 20.3636 28.555 17.2945 28.6818 13.2218C25.9623 15.6509 21.4673 17.2073 16 17.4545Z" fill="white"/>
</svg>
