<svg width="24" height="33" viewBox="0 0 24 33" fill="none" xmlns="http://www.w3.org/2000/svg">
<path fill-rule="evenodd" clip-rule="evenodd" d="M3.00671 18.1987C3.79232 19.159 5.79144 22.7171 6.21609 24.499H17.649C18.0736 22.7188 20.0703 19.1607 20.8559 18.2011C22.1984 16.5635 23.0434 14.5755 23.2911 12.4725C23.5354 10.3735 23.1699 8.24854 22.2384 6.35178C21.2981 4.44093 19.836 2.83531 18.0213 1.72065C16.1907 0.594658 14.0834 -0.00100845 11.9342 1.28159e-06C9.78069 1.28159e-06 7.67051 0.596144 5.84697 1.71902C4.03182 2.83326 2.56918 4.43859 1.62824 6.34933C0.696211 8.24536 0.329919 10.3697 0.573146 12.4684C0.81732 14.5647 1.6609 16.5515 3.00671 18.1987ZM12.7492 6.53307L7.84935 13.8828H11.1159V18.7826L16.0157 11.4329H12.7492V6.53307Z" fill="white"/>
<path d="M6.21875 26.9494C6.21875 26.7329 6.30479 26.5251 6.45794 26.372C6.61108 26.2188 6.8188 26.1328 7.03538 26.1328H16.835C17.0516 26.1328 17.2593 26.2188 17.4124 26.372C17.5656 26.5251 17.6516 26.7329 17.6516 26.9494C17.6516 27.166 17.5656 27.3737 17.4124 27.5269C17.2593 27.68 17.0516 27.7661 16.835 27.7661H7.03538C6.8188 27.7661 6.61108 27.68 6.45794 27.5269C6.30479 27.3737 6.21875 27.166 6.21875 26.9494ZM17.6516 29.3993H6.21875V31.0326C6.21875 31.4658 6.39083 31.8812 6.69712 32.1875C7.00342 32.4938 7.41885 32.6659 7.85202 32.6659H16.0184C16.4515 32.6659 16.867 32.4938 17.1733 32.1875C17.4795 31.8812 17.6516 31.4658 17.6516 31.0326V29.3993Z" fill="white"/>
</svg>
