<svg width="81" height="81" viewBox="0 0 81 81" fill="none" xmlns="http://www.w3.org/2000/svg">
<g clip-path="url(#clip0_926_947)">
<path d="M44.8444 0.178915C44.6901 0.222992 44.3265 0.267069 44.04 0.278088C42.894 0.300127 39.1915 1.23677 37.8472 1.83181C37.726 1.8869 37.3844 2.03015 37.0758 2.15137C36.2714 2.45991 34.1447 3.47368 33.8141 3.7161C33.6599 3.81528 33.4064 3.94751 33.2411 3.98057C33.0758 4.02464 32.9436 4.10178 32.9436 4.14585C32.9436 4.18993 32.8555 4.25605 32.7563 4.30012C32.6461 4.33318 32.4147 4.46541 32.2274 4.58663C32.0511 4.70784 31.7866 4.85109 31.6433 4.9172C31.5001 4.9723 31.2246 5.14861 31.0263 5.30288C30.8279 5.45715 30.6296 5.57836 30.5965 5.57836C30.3431 5.57836 26.7949 8.15687 25.7921 9.06045C24.9767 9.79874 23.467 11.4076 23.467 11.5398C23.467 11.5728 23.3679 11.7271 23.2356 11.8704C22.9051 12.245 21.9133 13.8098 21.6268 14.3938C21.5056 14.6693 21.2632 15.1541 21.1089 15.4847C20.569 16.5866 20.3486 17.7877 20.4037 19.1872C20.4698 20.5646 20.7783 21.2808 21.715 22.2285C22.6957 23.2092 23.7425 23.639 25.3954 23.7271C26.5304 23.7822 27.3458 23.6941 28.4808 23.3745C28.8444 23.2753 29.3293 23.1541 29.5607 23.088C29.7921 23.0329 30.0566 22.9447 30.1668 22.8786C30.4202 22.7464 31.8417 22.1073 31.9078 22.1073C32.1061 22.1073 34.4312 20.6858 36.58 19.2533C38.0015 18.3056 39.2466 17.4792 39.3568 17.4241C39.456 17.358 40.1282 16.9613 40.8444 16.5315C41.5607 16.1128 42.4422 15.6059 42.8059 15.4186C43.1695 15.2312 43.6874 14.9558 43.9629 14.8125C44.2384 14.6803 44.7563 14.4379 45.1199 14.3056C45.4835 14.1624 45.9353 13.9751 46.1116 13.8979C46.299 13.8208 46.5634 13.6996 46.7177 13.6335C47.1474 13.4571 48.1171 13.2808 49.0648 13.2147C51.1144 13.0825 52.5469 13.9861 53.2852 15.8814C53.4615 16.3332 53.4945 16.7078 53.4945 18.0301C53.4945 19.639 53.3513 20.5205 52.9215 21.5563C52.8334 21.7657 52.7122 22.0632 52.6461 22.2175C52.0951 23.5398 50.9601 25.4351 49.6598 27.1541C48.4257 28.807 45.77 31.5508 44.018 32.9943C43.4119 33.5012 42.7397 34.0522 42.5304 34.2285C42.0676 34.6142 41.5276 34.9998 40.9326 35.3965C40.6902 35.5508 40.2935 35.8153 40.051 35.9916C39.3678 36.4544 37.5497 37.4241 36.5249 37.8648C36.2274 37.9971 35.8196 38.1734 35.6213 38.2615C35.434 38.3497 35.1805 38.4158 35.0593 38.4158C34.9491 38.4158 34.6957 38.4709 34.4973 38.537C33.7811 38.7905 33.0538 38.3056 33.0538 37.5673C33.0538 36.6637 33.4836 36.0907 36.1943 33.402C39.1254 30.4929 39.445 30.0632 39.445 28.9613C39.445 27.8263 38.905 27.0549 37.6929 26.4379C37.164 26.1624 36.9656 26.1293 36.04 26.1293C34.9601 26.1293 34.332 26.2836 33.5497 26.7574C33.3734 26.8676 33.0979 27.0109 32.9436 27.088C32.7893 27.1651 32.6461 27.2533 32.613 27.2863C32.58 27.3194 32.3596 27.4847 32.1172 27.672C31.5331 28.1128 30.5084 29.1596 29.9243 29.9199C29.5166 30.4489 29.2191 30.9447 28.5249 32.245C27.9519 33.3249 27.434 35.3304 27.434 36.4985C27.434 38.8676 28.6681 40.7629 30.5745 41.3029C31.1475 41.4681 33.4836 41.4681 34.288 41.3139C35.0814 41.1486 37.153 40.5095 37.2852 40.3883C37.3513 40.3332 37.4615 40.2891 37.5497 40.2891C37.8362 40.2891 41.1089 38.6252 42.2329 37.8979C42.4863 37.7326 42.7728 37.5453 42.883 37.4792C42.9822 37.4241 43.5001 37.1045 44.04 36.7739C44.5689 36.4434 45.0317 36.1348 45.0648 36.1018C45.0979 36.0577 45.4725 35.7822 45.8913 35.4957C46.321 35.1982 46.8169 34.8566 46.9932 34.7354C47.1805 34.6031 47.6984 34.2064 48.1502 33.8428C51.0152 31.5618 53.5496 29.1266 55.0262 27.2312C55.2686 26.9337 55.489 26.6582 55.5221 26.6252C55.6102 26.5591 56.3596 25.4792 56.8775 24.6638C57.1089 24.3222 57.4615 23.7161 57.6598 23.3194C57.8692 22.9227 58.1557 22.3828 58.2989 22.1073C58.4422 21.8318 58.7507 21.1155 58.9932 20.5095C59.2246 19.9034 59.456 19.3084 59.5 19.1872C59.8086 18.4048 60.2824 16.3883 60.4918 14.9447C60.7232 13.3139 60.5469 10.6362 60.0951 9.15963C59.9078 8.55357 59.8637 8.44337 59.456 7.56183C58.5744 5.66651 57.164 3.94751 55.5441 2.82354C55.3237 2.66927 55.0483 2.45991 54.927 2.33869C54.5304 1.98608 52.5138 1.0825 51.3348 0.740898C50.7067 0.55357 49.77 0.355223 49.2521 0.278088C48.062 0.123818 45.2081 0.0466832 44.8444 0.178915ZM76.7893 54.6692C76.7562 54.6913 76.2493 54.7905 75.6433 54.8896C75.0372 54.9778 74.0455 55.1431 73.4394 55.2533L72.3375 55.4406V65.5783C72.3375 76.5866 72.3154 76.1238 72.9656 77.5012C73.186 77.975 73.4945 78.3827 73.9683 78.8125C75.1364 79.8814 76.2273 80.2119 78.5524 80.223C80.5358 80.223 80.4587 80.3001 80.4146 78.4709L80.3816 77.1486L79.5331 77.0714C78.0234 76.9392 77.2962 76.3331 77.1309 75.077C77.0868 74.7023 77.0537 69.986 77.0648 64.6086C77.0758 55.2973 77.0537 54.4048 76.7893 54.6692ZM46.2769 54.8896C43.8306 55.2533 43.0152 55.4075 42.916 55.5287C42.8389 55.6169 42.8279 59.1321 42.861 65.8538C42.916 75.2422 42.9381 76.0907 43.1144 76.5425C43.5331 77.6114 43.7535 77.986 44.3155 78.548C45.4725 79.705 46.9491 80.1789 49.3733 80.1789C50.7177 80.1789 50.905 80.1568 50.9932 79.9805C51.1034 79.7712 51.1585 77.8538 51.0703 77.413C51.0042 77.1376 50.9601 77.1265 50.1337 77.0604C49.0868 76.9943 48.4698 76.6417 48.04 75.8814L47.7645 75.3855L47.7315 69.6775C47.7094 65.4241 47.7315 63.9254 47.8306 63.8042C47.9298 63.683 48.3045 63.65 49.4835 63.65C51.3017 63.65 51.1474 63.8263 51.1034 61.7216L51.0703 60.2891L49.5276 60.234C48.6791 60.2009 47.9188 60.1348 47.8527 60.0907C47.7425 60.0246 47.7094 59.3524 47.7094 57.358V54.7243L47.467 54.7354C47.3238 54.7464 46.7948 54.8125 46.2769 54.8896ZM8.09517 59.8593C7.26873 59.9365 5.28526 60.4103 4.6792 60.6748C4.55799 60.7298 4.3376 60.807 4.18333 60.8511C3.69848 60.9833 2.08967 61.7877 2.08967 61.8979C2.08967 61.953 2.18884 62.2064 2.29904 62.4709C3.02631 64.0687 3.30179 64.6417 3.35689 64.6417C3.38994 64.6417 3.50014 64.5976 3.61033 64.5425C4.17231 64.256 4.85551 63.9805 5.39545 63.8152C5.72603 63.7161 6.12272 63.5838 6.27699 63.5287C6.89407 63.3084 8.53594 63.1982 9.29627 63.3194C10.7949 63.5618 11.3459 64.256 11.434 66.0301C11.4781 67.0108 11.4781 67.0329 11.2246 67.099C11.0814 67.1431 10.0676 67.1761 8.97671 67.1761C6.35413 67.1761 5.54972 67.3304 3.85275 68.1568C2.39821 68.8621 1.31832 70.1954 0.800417 71.9144C0.535955 72.829 0.569013 74.537 0.866533 75.4406C1.85827 78.4378 4.21639 80.1899 7.50013 80.3662C10.4864 80.5315 13.5607 79.6389 15.5332 78.0522L16.2494 77.4681L16.2825 71.6389C16.3155 64.8841 16.3045 64.6527 15.4891 62.9998C15.1255 62.2505 13.9023 61.0604 13.142 60.7298C12.7894 60.5646 12.4037 60.3993 12.2825 60.3442C11.456 59.9805 9.36239 59.7381 8.09517 59.8593ZM11.3459 70.4819C11.412 70.5701 11.456 71.8814 11.456 73.4681C11.456 76.5976 11.5001 76.3993 10.6847 76.829C10.3762 76.9943 10.0346 77.0274 8.96569 77.0384H7.63236L7.0814 76.6637C6.78388 76.4654 6.43126 76.1348 6.31005 75.9475C5.49462 74.7574 5.54972 72.6307 6.40922 71.5838C6.66267 71.2643 7.63236 70.5921 7.80867 70.5921C7.91886 70.5921 8.04007 70.548 8.10619 70.4929C8.26046 70.3276 8.76735 70.2836 10.0566 70.3056C10.9822 70.3166 11.2687 70.3497 11.3459 70.4819ZM35.5882 60.1238C33.3954 60.6417 31.6433 61.5783 29.8803 63.1872L29.4174 63.6059V79.8814C29.4174 80.0577 29.5827 80.0687 31.8197 80.0466L34.2108 80.0136L34.2439 72.3332L34.2659 64.6637L34.6847 64.3332C35.1805 63.9365 35.423 63.8152 36.0621 63.5949C36.8224 63.3414 38.0125 63.2202 38.905 63.3194C39.3458 63.3635 39.7645 63.3855 39.8307 63.3524C39.9078 63.3304 40.1061 62.9557 40.2824 62.515C40.4477 62.0742 40.7122 61.5012 40.8444 61.2367C41.2081 60.5425 41.175 60.3662 40.6902 60.256C40.4588 60.2009 40.04 60.1017 39.7425 60.0356C38.9601 59.8373 36.569 59.8924 35.5882 60.1238ZM59.5551 60.1458C59.1915 60.2009 58.8499 60.3001 58.7948 60.3552C58.7287 60.4103 58.6185 60.4544 58.5303 60.4544C58.4422 60.4544 58.0455 60.6086 57.6598 60.807C56.8113 61.2257 55.5111 62.4268 54.9601 63.3194C54.4753 64.1017 53.9133 65.2698 53.8251 65.6885C53.781 65.8648 53.7149 66.1183 53.6598 66.2395C53.6158 66.3607 53.4835 66.8345 53.3733 67.2863C53.0758 68.4764 53.0758 72.2891 53.3623 73.402C53.6268 74.4268 54.2218 75.9915 54.332 75.9915C54.3871 75.9915 54.4312 76.0466 54.4312 76.1128C54.4312 76.5315 55.7425 78.1954 56.6681 78.9447C57.0758 79.2753 57.9904 79.7491 58.6736 79.9805C59.4119 80.234 61.0427 80.5095 61.77 80.5095C63.3347 80.5095 66.1557 79.8373 67.0923 79.2422C67.3127 79.11 67.6102 78.9557 67.7645 78.9117C68.0951 78.8125 68.8223 78.3607 68.9105 78.2064C69.0097 78.0522 67.7755 75.5508 67.6102 75.5508C67.5331 75.5508 67.3347 75.6499 67.1805 75.7712C67.0262 75.8924 66.8389 75.9915 66.7507 75.9915C66.6736 75.9915 66.5083 76.0577 66.3871 76.1458C66.2659 76.223 65.6929 76.4544 65.1199 76.6527C64.1392 76.9943 63.9739 77.0163 62.5303 77.0274C61.164 77.0274 60.9325 77.0053 60.4918 76.796C58.9491 76.0577 58.0675 74.1954 58.0675 71.683C58.0675 71.1431 58.0786 70.6913 58.1006 70.6803C58.1116 70.6582 60.5579 70.6252 63.5221 70.5921L68.9215 70.537L68.8885 69.4351C68.8223 67.2753 68.2493 64.3662 67.7535 63.7051C67.7094 63.6389 67.5551 63.3635 67.4119 63.088C66.8168 61.9089 65.5606 60.8951 64.073 60.3993C62.9821 60.0246 60.9876 59.9144 59.5551 60.1458ZM61.9243 63.65C62.3871 63.7712 63.3568 64.5535 63.3568 64.796C63.3568 64.8621 63.4339 65.0604 63.5221 65.2257C63.7755 65.7216 63.9739 67.3524 63.7976 67.5618C63.6874 67.7051 63.2576 67.7271 61.0317 67.7271H58.3981L58.332 67.4516C58.1887 66.8896 58.5744 65.38 59.0152 64.796C59.5 64.1458 59.9298 63.8153 60.5689 63.6279C60.9215 63.5288 61.2631 63.4626 61.3403 63.4847C61.4064 63.5067 61.6708 63.5838 61.9243 63.65ZM21.5938 52.3883C20.7563 52.818 20.5029 53.0274 20.1392 53.5673C19.7866 54.1073 19.7756 54.1513 19.7756 55.2753V56.4433L20.1943 57.0164C20.6902 57.6885 21.0208 57.931 21.748 58.1844C22.7288 58.504 23.5772 58.3827 24.558 57.7657C25.737 57.0164 26.1447 55.099 25.4285 53.6885C25.175 53.1927 24.9546 52.9613 24.2935 52.5425C23.6985 52.1568 22.1888 52.0687 21.5938 52.3883ZM24.2935 60.3442C24.1172 60.3993 23.6213 60.4984 23.1916 60.5535C22.7728 60.6086 22.0015 60.7188 21.4836 60.796C20.9657 60.8621 20.5139 60.9613 20.4588 60.9943C20.3596 61.0825 20.3486 79.8042 20.4367 79.9695C20.4808 80.0246 21.4615 80.0687 22.7508 80.0687C24.9987 80.0687 25.0097 80.0687 25.0648 79.8152C25.0979 79.683 25.1089 75.2312 25.0979 69.9309C25.0648 60.3772 25.0648 60.2891 24.8445 60.267C24.7232 60.256 24.4808 60.2891 24.2935 60.3442Z" fill="#FF0000"/>
</g>
<defs>
<clipPath id="clip0_926_947">
<rect width="80" height="80.58" fill="white" transform="translate(0.535156)"/>
</clipPath>
</defs>
</svg>
