<svg width="81" height="81" viewBox="0 0 81 81" fill="none" xmlns="http://www.w3.org/2000/svg">
<path fill-rule="evenodd" clip-rule="evenodd" d="M0.535156 0.289062H80.5352V80.2891H0.535156V0.289062Z" fill="white"/>
<path fill-rule="evenodd" clip-rule="evenodd" d="M4.05461 74.0405H3.82593C3.82593 73.9264 3.76865 73.7545 3.76865 73.6969C3.76865 73.64 3.76865 73.5259 3.59683 73.5259H3.25318V74.0405H3.08136V72.8386H3.59683C3.82593 72.8386 3.99733 72.8963 3.99733 73.1245C3.99733 73.2963 3.94006 73.354 3.8832 73.4105C3.94048 73.4682 3.99733 73.5254 3.99733 73.64V73.8687C3.99733 73.9264 3.99733 73.9264 4.05461 73.9264V74.0405ZM3.82593 73.1822C3.82593 73.0104 3.71138 73.0104 3.6541 73.0104H3.25318V73.354H3.59683C3.71138 73.354 3.82593 73.2963 3.82593 73.1822ZM4.79918 73.4109C4.79918 72.7244 4.22685 72.1513 3.48228 72.1513C2.7954 72.1513 2.22266 72.7244 2.22266 73.4109C2.22266 74.1551 2.7954 74.7282 3.48228 74.7282C4.22643 74.7278 4.79918 74.1551 4.79918 73.4109ZM4.62735 73.4109C4.62735 74.0409 4.1123 74.4987 3.48228 74.4987C2.85226 74.4987 2.39448 74.0405 2.39448 73.4109C2.39448 72.8386 2.85268 72.3231 3.48228 72.3231C4.11188 72.3231 4.62735 72.8386 4.62735 73.4109ZM75.1638 50.2807C75.1638 51.9986 74.076 52.7992 72.129 52.7992H68.4083V51.0813H72.129C72.4727 51.0813 72.7591 51.0245 72.874 50.9103C72.9882 50.7954 73.1027 50.6236 73.1027 50.3949C73.1027 50.1654 72.9886 49.9367 72.874 49.8225C72.7591 49.7076 72.5304 49.6507 72.1867 49.6507C70.4125 49.593 68.1792 49.7076 68.1792 47.1888C68.1792 46.0433 68.9233 44.7836 70.9271 44.7836H74.7628V46.5015H71.2131C70.8702 46.5015 70.6407 46.5015 70.4689 46.6156C70.2971 46.7874 70.183 46.9592 70.183 47.2456C70.183 47.532 70.3548 47.7038 70.5835 47.8188C70.813 47.8756 71.0421 47.9329 71.3284 47.9329H72.3586C73.4464 47.9329 74.1337 48.1616 74.5918 48.5629C74.9347 48.9634 75.1638 49.4793 75.1638 50.2807ZM67.091 48.5629C66.6328 48.1616 65.9455 47.9329 64.8577 47.9329H63.8276C63.5416 47.9329 63.3121 47.8752 63.0834 47.8188C62.8539 47.7038 62.6829 47.532 62.6829 47.2456C62.6829 46.9592 62.7398 46.7874 62.9689 46.6156C63.1407 46.5015 63.3694 46.5015 63.713 46.5015H67.2628V44.7836H63.4271C61.3656 44.7836 60.6783 46.0433 60.6783 47.1888C60.6783 49.7072 62.9116 49.593 64.6867 49.6507C65.0295 49.6507 65.259 49.7076 65.3731 49.8225C65.4873 49.9367 65.6027 50.1654 65.6027 50.3949C65.6027 50.6236 65.4877 50.7954 65.3731 50.9103C65.2013 51.0245 64.9726 51.0813 64.629 51.0813H60.9074V52.7992H64.629C66.5751 52.7992 67.6633 51.9981 67.6633 50.2807C67.6633 49.4793 67.4346 48.9634 67.091 48.5629ZM59.7623 51.1394H55.2401V49.5362H59.6482V47.9337H55.2401V46.4446H59.7623V44.7845H53.3505V52.7996H59.7623V51.1394ZM51.289 45.1854C50.659 44.8418 49.9149 44.7841 48.9416 44.7841H44.5335V52.7992H46.4796V49.8794H48.5411C49.2276 49.8794 49.6289 49.9371 49.9153 50.2231C50.2589 50.6236 50.2589 51.3109 50.2589 51.8263V52.7992H52.1477V51.2532C52.1477 50.509 52.0909 50.1654 51.8618 49.7649C51.6899 49.5353 51.3471 49.2494 50.8889 49.0776C51.4036 48.9066 52.2631 48.2193 52.2631 46.9592C52.2627 46.0437 51.919 45.5282 51.289 45.1854ZM40.411 44.7841H34.2847L31.8228 47.4179L29.4753 44.7841H21.7462V52.7992H29.3612L31.8232 50.1654L34.1706 52.7992H37.8922V50.1089H40.2969C41.957 50.1089 43.618 49.6507 43.618 47.4179C43.6176 45.2423 41.8997 44.7841 40.411 44.7841ZM49.743 48.1051C49.4571 48.2193 49.1707 48.2193 48.8271 48.2193L46.4796 48.277V46.4442H48.8271C49.1707 46.4442 49.5143 46.4442 49.743 46.616C49.9725 46.731 50.1435 46.9597 50.1435 47.3033C50.1435 47.6469 49.9725 47.9333 49.743 48.1051ZM40.411 48.5057H37.8918V46.4442H40.411C41.0983 46.4442 41.5561 46.731 41.5561 47.4179C41.5561 48.1051 41.0979 48.5057 40.411 48.5057ZM33.0251 48.7916L36.0021 45.6432V52.1127L33.0251 48.7916ZM28.3875 51.1394H23.6354V49.5362H27.8721V47.9337H23.6354V46.4446H28.4448L30.5631 48.792L28.3875 51.1394ZM69.8389 39.0014H67.091L63.4839 32.9897V39.0014H59.5913L58.8463 37.2263H54.8388L54.0946 39.0014H51.8614C50.9454 39.0014 49.743 38.7723 49.0566 38.085C48.4265 37.3981 48.0829 36.4822 48.0829 35.0507C48.0829 33.8484 48.2547 32.7606 49.113 31.9019C49.6853 31.2719 50.7163 30.9859 52.0328 30.9859H53.8647V32.7037H52.0328C51.3463 32.7037 50.945 32.8183 50.5445 33.1619C50.2008 33.5056 50.029 34.1352 50.029 34.9939C50.029 35.8526 50.2008 36.4826 50.5445 36.8835C50.8304 37.1695 51.3463 37.284 51.8609 37.284H52.7201L55.468 30.9863H58.3309L61.537 38.5436V30.9859H64.5144L67.8924 36.5394V30.9859H69.8385V39.0014H69.8389ZM47.1096 30.9859H45.1636V39.0014H47.1096V30.9859ZM43.0444 31.3295C42.4144 30.9859 41.7279 30.9859 40.7547 30.9859H36.3458V39.0014H38.235V36.0813H40.2961C40.9834 36.0813 41.4416 36.1385 41.7275 36.4249C42.0712 36.8258 42.0135 37.5131 42.0135 37.9709V39.0014H43.9596V37.3981C43.9596 36.7113 43.9027 36.3676 43.6167 35.9667C43.4449 35.7376 43.1013 35.4512 42.7008 35.2798C43.2154 35.0507 44.0749 34.4211 44.0749 33.1615C44.0754 32.2455 43.674 31.7301 43.0444 31.3295ZM34.9716 37.3413H30.5059V35.738H34.9143V34.0779H30.5059V32.6464H34.9716V30.9863H28.5594V39.0018H34.9716V37.3413ZM27.1279 30.9859H23.9791L21.6316 36.4249L19.1124 30.9859H16.0208V38.5432L12.7574 30.9859H9.89494L6.45972 39.0014H8.52077L9.26493 37.2263H13.2725L14.0166 39.0014H17.91V32.7037L20.7153 39.0014H22.3754L25.181 32.7037V39.0014H27.1275L27.1279 30.9859ZM58.1599 35.5089L56.8426 32.3601L55.5261 35.5089H58.1599ZM41.5561 34.2497C41.2701 34.4215 40.9838 34.4215 40.5829 34.4215H38.235V32.6469H40.5824C40.9261 32.6469 41.3262 32.6469 41.5557 32.7614C41.7844 32.9332 41.8993 33.1623 41.8993 33.5056C41.8993 33.8488 41.7848 34.1348 41.5561 34.2497ZM9.9518 35.5089L11.2687 32.3601L12.5856 35.5089H9.9518ZM74.706 5.85156H6.40203V34.7075L8.74945 29.383H13.7303L14.4176 30.6999V29.383H20.2575L21.5744 32.2455L22.834 29.383H41.4416C42.2998 29.383 43.044 29.5549 43.6172 30.0127V29.383H48.7125V30.0127C49.5708 29.5545 50.6586 29.383 51.9186 29.383H59.3041L59.9914 30.6999V29.383H65.4304L66.2323 30.6999V29.383H71.5563V40.6047H66.175L65.1449 38.8873V40.6047H58.4458L57.7017 38.7727H56.0407L55.2966 40.6047H51.8045C50.4303 40.6047 49.3994 40.261 48.7129 39.9178V40.6047H40.411V38.0282C40.411 37.6845 40.3538 37.6272 40.1247 37.6272H39.8387V40.6043H23.8072V39.1728L23.2349 40.6043H19.857L19.2846 39.2301V40.6043H12.8147L12.1278 38.7723H10.4673L9.72312 40.6043H6.40203V74.4414H74.706V53.887C73.9618 54.2306 72.9309 54.4024 71.9004 54.4024H66.9191V53.7151C66.3468 54.1737 65.3159 54.4024 64.343 54.4024H48.6552V51.8263C48.6552 51.4827 48.5984 51.4827 48.3116 51.4827H48.0256V54.4024H42.8726V51.3681C42.0143 51.7686 41.0406 51.7686 40.1819 51.7686H39.6092V54.4024H33.3115L31.8232 52.6846L30.163 54.4024H20.0284V43.1812H30.334L31.8228 44.8982L33.426 43.1812H40.3538C41.1548 43.1812 42.4721 43.2953 43.0444 43.8677V43.1812H49.2276C49.8576 43.1812 51.0603 43.2953 51.8614 43.8677V43.1812H61.1938V43.8681C61.7092 43.4099 62.6829 43.1816 63.5412 43.1816H68.7511V43.8681C69.3243 43.4676 70.1253 43.1816 71.1562 43.1816H74.706V5.85156Z" fill="#0077A6"/>
</svg>
