<svg width="24" height="24" viewBox="0 0 24 24" fill="none" xmlns="http://www.w3.org/2000/svg">
<g clip-path="url(#clip0_606_14277)">
<path d="M23.332 18.5724C23.332 19.3234 22.7233 19.9321 21.9725 19.9321H1.69159C0.940723 19.9321 0.332031 19.3234 0.332031 18.5724V5.42992C0.332031 4.67905 0.940723 4.07031 1.69159 4.07031H21.9725C22.7234 4.07031 23.332 4.67905 23.332 5.42992V18.5724Z" fill="#306FC5"/>
<path opacity="0.15" d="M1.29862 18.5724V5.42992C1.29862 4.67905 1.9074 4.07031 2.65827 4.07031H1.69155C0.940723 4.07031 0.332031 4.679 0.332031 5.42992V18.5725C0.332031 19.3234 0.940723 19.9321 1.69159 19.9321H2.65831C1.90744 19.9321 1.29862 19.3234 1.29862 18.5724Z" fill="#202121"/>
<path d="M3.68359 10.4176H4.37081L4.02729 9.54297L3.68359 10.4176Z" fill="white"/>
<path d="M7.33984 13.3516V13.7577H8.49564V14.1951H7.33984V14.6638H8.62052L9.21398 14.0076L8.65179 13.3516H7.33984Z" fill="white"/>
<path d="M16.3671 9.54297L15.9922 10.4176H16.7107L16.3671 9.54297Z" fill="white"/>
<path d="M10.6833 14.9132V13.1328L9.87109 14.0075L10.6833 14.9132Z" fill="white"/>
<path d="M12.2106 13.6328C12.1793 13.4454 12.0543 13.3516 11.8668 13.3516H11.2109V13.9138H11.8982C12.0856 13.9138 12.2106 13.8202 12.2106 13.6328Z" fill="white"/>
<path d="M14.398 13.8514C14.4605 13.8201 14.4919 13.7263 14.4919 13.6328C14.5231 13.5079 14.4605 13.4453 14.398 13.4141C14.3357 13.3828 14.2419 13.3828 14.1483 13.3828H13.5234V13.8827H14.1483C14.2418 13.8827 14.3357 13.8827 14.398 13.8514Z" fill="white"/>
<path d="M18.8961 8.73047V9.1053L18.7088 8.73047H17.2408V9.1053L17.0533 8.73047H15.0542C14.7107 8.73047 14.4294 8.793 14.1796 8.91793V8.73047H12.7741V8.76173V8.91793C12.6179 8.79305 12.4305 8.73047 12.1806 8.73047H7.1516L6.80786 9.51139L6.46434 8.73047H5.3399H4.87132V9.1053L4.71513 8.73047H4.68387H3.34075L2.71593 10.1985L1.99758 11.7915L1.98438 11.8228H1.99758H3.59065H3.61059L3.62191 11.7915L3.80942 11.3231H4.21546L4.40288 11.8228H6.2144V11.7915V11.448L6.37068 11.8228H7.27644L7.43255 11.448V11.7915V11.8228H8.15098H11.7432H11.7744V11.0107H11.837C11.8994 11.0107 11.8994 11.0107 11.8994 11.1044V11.7916H14.1485V11.6042C14.3359 11.698 14.6168 11.7916 14.9917 11.7916H15.9289L16.1163 11.2919H16.5535L16.7409 11.7916H18.5525V11.4793V11.3231L18.8338 11.7916H18.8961H18.9274H20.3018V8.73047H18.8962H18.8961ZM8.30726 11.3544H7.99483H7.80746V11.1671V9.63636L7.7762 9.70801V9.70716L7.04954 11.3544H7.02654H6.85948H6.58918L5.83957 9.63636V11.3544H4.77762L4.55898 10.8859H3.49685L3.27817 11.3544H2.72909L3.65313 9.16783H4.43396L5.30855 11.2606V9.16783H5.49592H6.1361L6.15083 9.19914H6.15191L6.54601 10.0569L6.82902 10.6995L6.83904 10.6671L7.46372 9.16787H8.30722V11.3544H8.30726ZM10.4626 9.63636H9.24438V10.0424H10.4313V10.4797H9.24438V10.9171H10.4626V11.3855H8.7134V9.16787H10.4626V9.63636ZM12.6905 10.4418C12.6913 10.4425 12.6924 10.443 12.6933 10.4437C12.7052 10.4562 12.7153 10.4687 12.7239 10.4807C12.7837 10.5591 12.8321 10.6758 12.8345 10.8469C12.8347 10.8498 12.8348 10.8528 12.835 10.8557C12.835 10.8574 12.8353 10.8589 12.8353 10.8607C12.8353 10.8617 12.8353 10.8624 12.8353 10.8634C12.836 10.8806 12.8364 10.8981 12.8364 10.9171V11.3544H12.368V11.1045C12.368 10.9795 12.368 10.7921 12.2741 10.6671C12.2446 10.6376 12.2147 10.6182 12.1822 10.6043C12.1354 10.574 12.0467 10.5735 11.8994 10.5735H11.337V11.3544H10.8061V9.16787H11.9932C12.2741 9.16787 12.4616 9.16787 12.6179 9.26158C12.7709 9.35349 12.8634 9.50591 12.8669 9.74727C12.8596 10.0797 12.6463 10.2621 12.4929 10.3236C12.4929 10.3236 12.5971 10.3446 12.6905 10.4418ZM13.7424 11.3544H13.2113V9.16783H13.7424V11.3544ZM19.8334 11.3544H19.1461L18.1466 9.6988V11.0732L18.1433 11.07V11.3557H17.6156V11.3544H17.0845L16.8971 10.8859H15.8038L15.6164 11.3856H15.0229C14.7732 11.3856 14.4606 11.3232 14.2733 11.1358C14.0859 10.9484 13.9923 10.6985 13.9923 10.2924C13.9923 9.9801 14.0547 9.66754 14.2733 9.41773C14.4294 9.23018 14.7106 9.16787 15.0541 9.16787H15.554V9.63636H15.0541C14.8667 9.63636 14.7732 9.66749 14.648 9.76138C14.5545 9.85504 14.4919 10.0424 14.4919 10.261C14.4919 10.511 14.5232 10.6671 14.648 10.7921C14.7419 10.8859 14.8668 10.9172 15.0229 10.9172H15.2415L15.9599 9.19923H16.2724H16.7409L17.6156 11.292V11.1853V10.4798V10.4174V9.19927H18.3964L19.3021 10.7298V9.19927H19.8333V11.3545H19.8334V11.3544Z" fill="white"/>
<path d="M12.2441 10.0789C12.2532 10.0691 12.2615 10.0581 12.2685 10.0454C12.2968 10.0006 12.3292 9.91995 12.3117 9.80985C12.311 9.79974 12.3092 9.7904 12.307 9.78137C12.3064 9.77885 12.3065 9.77665 12.3058 9.77414L12.3055 9.77418C12.29 9.72068 12.2503 9.6878 12.2107 9.66785C12.1481 9.63672 12.0544 9.63672 11.9608 9.63672H11.3359V10.1366H11.9608C12.0544 10.1366 12.1482 10.1366 12.2107 10.1053C12.2201 10.1005 12.2285 10.094 12.2365 10.0867L12.2366 10.0871C12.2367 10.0871 12.2399 10.0837 12.2441 10.0789Z" fill="white"/>
<path d="M21.6766 14.4758C21.6766 14.2572 21.6142 14.0385 21.5206 13.8823V12.4767H21.5191V12.3829C21.5191 12.3829 20.2099 12.3829 20.015 12.3829C19.8202 12.3829 19.5838 12.5703 19.5838 12.5703V12.3829H18.1471C17.9283 12.3829 17.6474 12.4454 17.5222 12.5703V12.3829H14.961V12.4767V12.5702C14.7737 12.4142 14.4298 12.3829 14.2738 12.3829H12.587V12.4767V12.5702C12.4308 12.4141 12.0558 12.3828 11.8683 12.3828H9.99446L9.55706 12.8514L9.15096 12.3828H9.0202H8.8074H6.33984V12.4767V12.7234V15.5378H9.08861L9.54026 15.086L9.93175 15.5378H9.96311H11.547H11.6187H11.65H11.6811V15.2255V14.8194H11.8374C12.0558 14.8194 12.3371 14.8194 12.5557 14.7256V15.5064V15.569H13.9614V15.5064V14.7568H14.0237C14.1175 14.7568 14.1175 14.7568 14.1175 14.8506V15.5064V15.569H18.3655C18.6468 15.569 18.9278 15.5064 19.0839 15.3815V15.5064V15.569H20.4272C20.7081 15.569 20.9895 15.5378 21.1769 15.4128C21.4645 15.2402 21.6457 14.9348 21.6727 14.5706C21.6739 14.5598 21.6755 14.549 21.6765 14.5382L21.6746 14.5364C21.6758 14.5162 21.6766 14.4962 21.6766 14.4758ZM11.8374 14.2884H11.2126V14.3819V14.5694V14.7569V15.1005H10.1859L9.58832 14.4132L9.58626 14.4155L9.55706 14.3819L8.86989 15.1005H6.87082V12.914H8.90115L9.45585 13.5216L9.57247 13.6488L9.58828 13.6324L10.2443 12.9141H11.8998C12.2211 12.9141 12.5808 12.9933 12.7172 13.3202C12.7336 13.385 12.7431 13.4569 12.7431 13.5387C12.7431 14.1634 12.3058 14.2884 11.8374 14.2884ZM14.961 14.2571C15.0234 14.3506 15.0546 14.4758 15.0546 14.6633V15.1005H14.5237V14.8194C14.5237 14.6943 14.5237 14.4758 14.4299 14.3819C14.3676 14.2884 14.2425 14.2884 14.0552 14.2884H13.493V15.1005H12.962V12.8827H14.1489C14.3986 12.8827 14.6172 12.8827 14.7737 12.9764C14.9298 13.0702 15.0546 13.2264 15.0546 13.4763C15.0546 13.8198 14.8361 14.0072 14.6799 14.0698C14.8361 14.132 14.9298 14.1946 14.961 14.2571ZM17.1163 13.3511H15.898V13.7572H17.085V14.1946H15.898V14.632H17.1163V15.1005H15.3671V12.8827H17.1163V13.3511ZM18.4281 15.1005H17.4285V14.632H18.4281C18.5217 14.632 18.5843 14.632 18.6469 14.5695C18.6782 14.5382 18.7092 14.4758 18.7092 14.4133C18.7092 14.3507 18.6782 14.2885 18.6469 14.2572C18.6156 14.226 18.553 14.1947 18.4593 14.1947C17.9595 14.1634 17.3661 14.1947 17.3661 13.5076C17.3661 13.1952 17.5535 12.8515 18.1158 12.8515H19.1465V13.3825H18.1782C18.0846 13.3825 18.022 13.3825 17.9595 13.4137C17.8972 13.445 17.8972 13.5076 17.8972 13.57C17.8972 13.6637 17.9595 13.695 18.022 13.726C18.0846 13.7573 18.147 13.7573 18.2094 13.7573H18.4905C18.7717 13.7573 18.9591 13.8198 19.084 13.9447C19.1778 14.0385 19.2402 14.1947 19.2402 14.4133C19.2402 14.8817 18.9591 15.1005 18.4281 15.1005ZM21.1144 14.8817C20.9896 15.0068 20.7709 15.1005 20.4584 15.1005H19.4591V14.632H20.4583C20.5521 14.632 20.6147 14.632 20.6771 14.5695C20.7082 14.5382 20.7396 14.4758 20.7396 14.4133C20.7396 14.3507 20.7082 14.2885 20.6771 14.2572C20.6458 14.226 20.5834 14.1947 20.4897 14.1947C19.9901 14.1634 19.3964 14.1947 19.3964 13.5076C19.3964 13.2107 19.5663 12.9425 19.9852 12.8629C20.0353 12.856 20.0882 12.8515 20.1461 12.8515H21.177V13.3825H20.4897H20.2399H20.2086C20.1149 13.3825 20.0525 13.3825 19.9901 13.4137C19.9586 13.445 19.9274 13.5076 19.9274 13.57C19.9274 13.6637 19.9586 13.695 20.0525 13.726C20.1149 13.7573 20.1774 13.7573 20.2399 13.7573H20.2709H20.5209C20.6574 13.7573 20.7607 13.7741 20.8551 13.8073C20.9417 13.8386 21.2281 13.9668 21.2921 14.3012C21.2977 14.3362 21.3018 14.3728 21.3018 14.4133C21.3018 14.6007 21.2393 14.7569 21.1144 14.8817Z" fill="white"/>
</g>
<defs>
<clipPath id="clip0_606_14277">
<rect width="23" height="23" fill="white" transform="translate(0.332031 0.5)"/>
</clipPath>
</defs>
</svg>
