<svg width="87" height="88" viewBox="0 0 87 88" fill="none" xmlns="http://www.w3.org/2000/svg">
<rect x="0.398438" y="0.933594" width="86.126" height="86.126" rx="25" fill="#00AFEF" fill-opacity="0.2"/>
<path fill-rule="evenodd" clip-rule="evenodd" d="M19.4258 44.0346C19.4258 31.3719 29.5456 19.9609 43.5114 19.9609C57.1648 19.9609 67.501 31.1552 67.501 43.9624C67.501 58.8159 55.386 68.0361 43.4634 68.0361C39.5212 68.0361 35.1464 66.9769 31.6369 64.9065C30.411 64.1602 29.3773 63.6065 28.0553 64.0399L23.1997 65.4843C21.9738 65.8695 20.868 64.9065 21.2286 63.6065L22.8391 58.214C23.1035 57.4678 23.0555 56.6733 22.6709 56.0474C20.6036 52.2438 19.4258 48.079 19.4258 44.0346ZM32.3346 47.1394C30.652 47.1394 29.2578 45.7432 29.2578 44.058C29.2578 42.3488 30.628 40.9766 32.3346 40.9766C34.0413 40.9766 35.4114 42.3488 35.4114 44.058C35.4114 45.7432 34.0413 47.1154 32.3346 47.1394ZM40.3359 44.0342C40.3359 45.7435 41.7061 47.1157 43.4127 47.1397C45.1194 47.1397 46.4896 45.7435 46.4896 44.0583C46.4896 42.3491 45.1194 40.9769 43.4127 40.9769C41.7301 40.9528 40.3359 42.3491 40.3359 44.0342ZM51.418 44.058C51.418 45.7432 52.7881 47.1394 54.4948 47.1394C56.2014 47.1394 57.5716 45.7432 57.5716 44.058C57.5716 42.3488 56.2014 40.9766 54.4948 40.9766C52.7881 40.9766 51.418 42.3488 51.418 44.058Z" fill="#00AFEF"/>
</svg>
