<svg width="18" height="14" viewBox="0 0 18 14" fill="none" xmlns="http://www.w3.org/2000/svg">
<path d="M15.0147 5.0874C14.0946 2.63243 11.7502 0.886719 9.00402 0.886719C6.25781 0.886719 3.91339 2.6304 2.9933 5.08536C1.27165 5.54262 0 7.12982 0 9.01575C0 11.2614 1.79799 13.0803 4.01585 13.0803H4.82143C4.90982 13.0803 4.98214 13.0071 4.98214 12.9177V11.6983C4.98214 11.6089 4.90982 11.5358 4.82143 11.5358H4.01585C3.33884 11.5358 2.70201 11.2634 2.2279 10.7696C1.7558 10.2778 1.50469 9.61527 1.52679 8.92836C1.54487 8.39185 1.72567 7.88785 2.05312 7.46311C2.38862 7.03023 2.85871 6.71523 3.38103 6.57501L4.14241 6.37382L4.42165 5.63001C4.59442 5.16665 4.83549 4.73378 5.13884 4.34156C5.43831 3.9528 5.79306 3.61106 6.19152 3.32746C7.01719 2.74014 7.98951 2.4292 9.00402 2.4292C10.0185 2.4292 10.9908 2.74014 11.8165 3.32746C12.2163 3.61198 12.5699 3.9534 12.8692 4.34156C13.1725 4.73378 13.4136 5.16869 13.5864 5.63001L13.8636 6.37178L14.623 6.57501C15.7118 6.87172 16.4732 7.87362 16.4732 9.01575C16.4732 9.68843 16.2141 10.3225 15.744 10.798C15.5134 11.0326 15.2392 11.2186 14.9371 11.3452C14.635 11.4719 14.3111 11.5366 13.9842 11.5358H13.1786C13.0902 11.5358 13.0179 11.6089 13.0179 11.6983V12.9177C13.0179 13.0071 13.0902 13.0803 13.1786 13.0803H13.9842C16.202 13.0803 18 11.2614 18 9.01575C18 7.13185 16.7324 5.54669 15.0147 5.0874Z" fill="white"/>
</svg>
