<svg width="71" height="70" viewBox="0 0 71 70" fill="none" xmlns="http://www.w3.org/2000/svg">
<path d="M44.397 17.7966H26.6004C25.9455 17.7966 25.4141 17.2651 25.4141 16.6103V10.0846C25.4137 4.52388 29.9376 0 35.4987 0C41.0598 0 45.5833 4.52388 45.5833 10.0846V16.6099C45.5833 17.2651 45.0518 17.7966 44.397 17.7966ZM27.7867 15.4236H43.2103V10.0846C43.2103 5.83255 39.7507 2.37265 35.4983 2.37265C31.2459 2.37265 27.7867 5.83255 27.7867 10.0846V15.4236Z" fill="black"/>
<path d="M61.6019 22.5413H9.39844L12.9578 16.6094H58.0425L61.6019 22.5413Z" fill="#8C6B3B"/>
<path d="M61.6009 23.7275H9.39752C8.96964 23.7275 8.57582 23.4974 8.36518 23.1255C8.15454 22.7536 8.15976 22.2975 8.38013 21.9301L11.9394 15.9978C12.1536 15.6402 12.5397 15.4219 12.9568 15.4219H58.0416C58.4587 15.4219 58.8449 15.6402 59.059 15.9978L62.6183 21.9301C62.8384 22.2968 62.8439 22.7536 62.6333 23.1255C62.4226 23.4971 62.0285 23.7275 61.6009 23.7275ZM11.4928 21.3545H59.5057L57.3701 17.7952H13.6291L11.4928 21.3545Z" fill="black"/>
<path d="M35.4718 25.1594L51.6445 28.9414L55.6967 11.6136L39.5239 7.83156L35.4718 25.1594Z" fill="#83D816"/>
<path d="M51.6431 30.1333C51.5534 30.1333 51.4627 30.1232 51.3713 30.102L35.1976 26.3192C34.891 26.2473 34.6258 26.0575 34.4597 25.7895C34.2935 25.5225 34.2407 25.2 34.3126 24.8937L38.3662 7.56537C38.515 6.92719 39.1528 6.52955 39.7917 6.68041L55.9654 10.4632C56.272 10.5352 56.5372 10.725 56.7033 10.9929C56.8695 11.2599 56.9223 11.5825 56.8503 11.8887L52.7968 29.2171C52.6692 29.7645 52.1812 30.1333 51.6431 30.1333ZM36.8931 24.2789L50.7568 27.5215L54.2691 12.5043L40.4055 9.26161L36.8931 24.2789Z" fill="black"/>
<path d="M16.5385 28.3967L36.3828 26.0508L33.8693 4.78873L14.025 7.13465L16.5385 28.3967Z" fill="#2A8EE6"/>
<path d="M16.5338 29.5855C15.9405 29.5855 15.4285 29.1416 15.3569 28.5379L12.8442 7.27687C12.7677 6.62618 13.2328 6.03632 13.8828 5.95916L33.7266 3.61362C34.0405 3.57678 34.353 3.66576 34.6005 3.86041C34.848 4.05506 35.0075 4.34043 35.0444 4.65292L37.5571 25.9146C37.5939 26.2268 37.5056 26.5417 37.3103 26.7885C37.1156 27.0359 36.8303 27.1955 36.5185 27.2323L16.6746 29.5772C16.627 29.5824 16.5801 29.5855 16.5338 29.5855ZM15.3395 8.17678L17.5742 27.0815L35.0617 25.0154L32.8271 6.11001L15.3395 8.17678Z" fill="black"/>
<path d="M27.7287 37.2878L46.8438 32.6914L42.0065 12.5749L22.8914 17.1714L27.7287 37.2878Z" fill="#ED5481"/>
<path d="M27.7259 38.4743C27.1902 38.4743 26.7036 38.1093 26.5732 37.5654L21.7362 17.45C21.5833 16.8129 21.9753 16.1723 22.6125 16.0193L41.7254 11.4231C42.0326 11.3502 42.3542 11.4012 42.6222 11.5643C42.8901 11.7287 43.0824 11.9932 43.156 12.2987L47.9931 32.4148C48.0668 32.721 48.0157 33.0436 47.8513 33.3116C47.6869 33.5802 47.4231 33.7718 47.1168 33.8454L28.0039 38.4413C27.9111 38.4642 27.8173 38.4743 27.7259 38.4743ZM24.3202 18.0485L28.6025 35.8576L45.4084 31.8166L41.1261 14.0078L24.3202 18.0485Z" fill="black"/>
<path d="M63.9725 68.8141H7.02344L9.39608 22.543H61.5995L63.9725 68.8141Z" fill="#FBAD4A"/>
<path d="M63.9714 69.9992H7.02237C6.69738 69.9992 6.38628 69.8658 6.16209 69.6301C5.93859 69.3944 5.8211 69.0767 5.83744 68.7521L8.21043 22.481C8.24311 21.8504 8.7638 21.3555 9.39571 21.3555H61.5991C62.2311 21.3555 62.7517 21.8501 62.7844 22.481L65.1574 68.7521C65.1741 69.0771 65.0566 69.3944 64.8328 69.6301C64.6072 69.8658 64.2964 69.9992 63.9714 69.9992ZM8.27091 67.6262H62.7225L60.4712 23.7281H10.5223L8.27091 67.6262Z" fill="black"/>
<path d="M44.3964 32.0351C45.707 32.0351 46.7694 30.9726 46.7694 29.6621C46.7694 28.3515 45.707 27.2891 44.3964 27.2891C43.0859 27.2891 42.0234 28.3515 42.0234 29.6621C42.0234 30.9726 43.0859 32.0351 44.3964 32.0351Z" fill="#8C6B3B"/>
<path d="M44.3953 33.2202C42.4324 33.2202 40.8359 31.6237 40.8359 29.6609C40.8359 27.698 42.4324 26.1016 44.3953 26.1016C46.3581 26.1016 47.9546 27.698 47.9546 29.6609C47.9546 31.6237 46.3581 33.2202 44.3953 33.2202ZM44.3953 28.4746C43.7411 28.4746 43.2089 29.0067 43.2089 29.6609C43.2089 30.315 43.7411 30.8472 44.3953 30.8472C45.0494 30.8472 45.5816 30.315 45.5816 29.6609C45.5816 29.0067 45.0494 28.4746 44.3953 28.4746Z" fill="black"/>
<path d="M26.5996 32.0351C27.9101 32.0351 28.9725 30.9726 28.9725 29.6621C28.9725 28.3515 27.9101 27.2891 26.5996 27.2891C25.289 27.2891 24.2266 28.3515 24.2266 29.6621C24.2266 30.9726 25.289 32.0351 26.5996 32.0351Z" fill="#8C6B3B"/>
<path d="M26.5984 33.2202C24.6355 33.2202 23.0391 31.6237 23.0391 29.6609C23.0391 27.698 24.6355 26.1016 26.5984 26.1016C28.5612 26.1016 30.1577 27.698 30.1577 29.6609C30.1577 31.6237 28.5612 33.2202 26.5984 33.2202ZM26.5984 28.4746C25.9442 28.4746 25.4121 29.0067 25.4121 29.6609C25.4121 30.315 25.9442 30.8472 26.5984 30.8472C27.2525 30.8472 27.7847 30.315 27.7847 29.6609C27.7847 29.0067 27.2525 28.4746 26.5984 28.4746Z" fill="black"/>
<path d="M35.4987 47.4564C29.9379 47.4564 25.4141 42.9325 25.4141 37.3718V30.8465C25.4141 30.1916 25.9455 29.6602 26.6004 29.6602C27.2552 29.6602 27.7867 30.1916 27.7867 30.8465V37.3718C27.7867 41.6238 31.2463 45.0837 35.4987 45.0837C39.7511 45.0837 43.2106 41.6242 43.2106 37.3718V31.3039C43.1512 31.1635 43.1192 31.0085 43.1192 30.8465C43.1192 30.1916 43.6507 29.6602 44.3056 29.6602H44.397C45.0518 29.6602 45.5833 30.1916 45.5833 30.8465V37.3718C45.5833 42.9325 41.0594 47.4564 35.4987 47.4564Z" fill="black"/>
</svg>
