<svg width="58" height="58" viewBox="0 0 58 58" fill="none" xmlns="http://www.w3.org/2000/svg">
<rect width="57.9961" height="57.9961" rx="16.8302" fill="#CDF2FF"/>
<path fill-rule="evenodd" clip-rule="evenodd" d="M38.6805 11.3516C41.3098 11.3516 43.839 12.3907 45.6996 14.2553C47.5622 16.1159 48.6033 18.6255 48.6033 21.2528V36.7418C48.6033 42.2119 44.1527 46.643 38.6805 46.643H19.3114C13.8393 46.643 9.39062 42.2119 9.39062 36.7418V21.2528C9.39062 15.7826 13.8197 11.3516 19.3114 11.3516H38.6805ZM41.7997 24.1741L41.9565 24.0173C42.4251 23.4487 42.4251 22.6252 41.935 22.0566C41.6624 21.7645 41.2879 21.5861 40.8978 21.5469C40.486 21.5253 40.0939 21.6645 39.7979 21.939L30.9574 28.9973C29.8202 29.9403 28.1909 29.9403 27.0361 28.9973L18.2132 21.939C17.6035 21.488 16.7604 21.5469 16.2526 22.0762C15.7232 22.6056 15.6644 23.4487 16.1134 24.0369L16.3702 24.2917L25.2911 31.252C26.3891 32.1147 27.7204 32.5852 29.1144 32.5852C30.5045 32.5852 31.8593 32.1147 32.9552 31.252L41.7997 24.1741Z" fill="#00AFEF"/>
</svg>
