<svg width="50" height="51" viewBox="0 0 50 51" fill="none" xmlns="http://www.w3.org/2000/svg">
<path d="M48.699 11.6745L39.674 1.83281C39.5092 1.65192 39.3084 1.50737 39.0846 1.40837C38.8608 1.30937 38.6188 1.2581 38.374 1.25781H11.624C11.3793 1.2581 11.1373 1.30937 10.9135 1.40837C10.6896 1.50737 10.4889 1.65192 10.324 1.83281L1.29903 11.6745C1.00729 11.9969 0.841619 12.4137 0.832435 12.8485C0.82325 13.2832 0.971166 13.7067 1.24903 14.0411L16.4574 32.0995H33.5407L48.749 14.0411C49.0269 13.7067 49.1748 13.2832 49.1656 12.8485C49.1564 12.4137 48.9908 11.9969 48.699 11.6745Z" fill="white"/>
<path d="M21.4904 32.0969H16.457L1.2487 14.0385C0.988069 13.7238 0.841261 13.3304 0.832031 12.9219H14.1654L21.4904 32.0969Z" fill="#D6D6D6"/>
<path d="M49.1667 12.9219C49.1574 13.3304 49.0106 13.7238 48.75 14.0385L33.5417 32.0969H28.5L35.8333 12.9219H49.1667Z" fill="#D6D6D6"/>
<path d="M35.8346 12.9245H14.168L25.0013 1.25781L35.8346 12.9245Z" fill="#D6D6D6"/>
<path d="M25.0013 49.5885C30.9844 49.5885 35.8346 44.7383 35.8346 38.7552C35.8346 32.7721 30.9844 27.9219 25.0013 27.9219C19.0182 27.9219 14.168 32.7721 14.168 38.7552C14.168 44.7383 19.0182 49.5885 25.0013 49.5885Z" fill="#33C455"/>
<path d="M22.6834 43.7551C22.4624 43.755 22.2505 43.6672 22.0942 43.5109L20.2417 41.6584C20.0899 41.5012 20.0059 41.2907 20.0078 41.0722C20.0097 40.8537 20.0974 40.6447 20.2519 40.4902C20.4064 40.3357 20.6154 40.2481 20.8339 40.2462C21.0524 40.2443 21.2629 40.3283 21.4201 40.4801L22.6051 41.6651L28.5067 34.0767C28.6443 33.9078 28.8425 33.7994 29.0589 33.7749C29.2754 33.7503 29.4929 33.8114 29.6648 33.9452C29.8367 34.079 29.9494 34.2748 29.9787 34.4906C30.0081 34.7065 29.9517 34.9253 29.8217 35.1001L23.3409 43.4334C23.2684 43.5266 23.1768 43.6034 23.0724 43.6586C22.968 43.7137 22.853 43.7461 22.7351 43.7534L22.6834 43.7551Z" fill="white"/>
</svg>
