<svg width="87" height="93" viewBox="0 0 87 93" fill="none" xmlns="http://www.w3.org/2000/svg">
<rect x="0.5625" y="6.10352" width="86.126" height="86.126" rx="25" fill="#F58634" fill-opacity="0.2"/>
<path fill-rule="evenodd" clip-rule="evenodd" d="M40.5317 28.9395C38.9331 28.9395 37.5732 30.0503 37.1914 31.5475H50.0277C49.6459 30.0503 48.2859 28.9395 46.6874 28.9395H40.5317ZM53.6536 31.5488H58.3777C63.3881 31.5488 67.468 35.6783 67.468 40.7496C67.468 40.7496 67.3249 42.8965 67.2772 45.8861C67.2724 46.1228 67.1579 46.3546 66.9694 46.4947C65.8218 47.3423 64.772 48.0426 64.6765 48.0909C60.7159 50.7473 56.1134 52.6164 51.2104 53.5462C50.8907 53.609 50.5757 53.4423 50.4135 53.1574C49.0392 50.7763 46.4719 49.2259 43.6088 49.2259C40.7648 49.2259 38.1737 50.7594 36.7588 53.1429C36.5942 53.423 36.284 53.5848 35.9667 53.5244C31.1042 52.5923 26.5017 50.7256 22.565 48.1151L20.2745 46.5212C20.0836 46.4005 19.9643 46.1831 19.9643 45.9416C19.8927 44.71 19.7734 40.7496 19.7734 40.7496C19.7734 35.6783 23.8534 31.5488 28.8638 31.5488H33.5641C34.0174 28.0472 36.9521 25.3184 40.531 25.3184H46.6867C50.2655 25.3184 53.2002 28.0472 53.6536 31.5488ZM66.6565 51.108L66.5611 51.1563C61.7415 54.3923 55.9437 56.5415 49.8596 57.4351C49.0007 57.5558 48.1418 57.0004 47.9032 56.131C47.3783 54.1508 45.6843 52.8467 43.6562 52.8467H43.6324H43.5846C41.5566 52.8467 39.8626 54.1508 39.3377 56.131C39.0991 57.0004 38.2402 57.5558 37.3812 57.4351C31.2971 56.5415 25.4993 54.3923 20.6798 51.1563C20.6559 51.1322 20.4173 50.9873 20.2265 51.108C20.0117 51.2287 20.0117 51.5185 20.0117 51.5185L20.1787 63.8345C20.1787 68.9058 24.2348 73.0112 29.2452 73.0112H57.9718C62.9822 73.0112 67.0383 68.9058 67.0383 63.8345L67.2291 51.5185C67.2291 51.5185 67.2291 51.2287 67.0144 51.108C66.8951 51.0356 66.752 51.0597 66.6565 51.108ZM45.3992 61.2252C45.3992 62.2395 44.6118 63.0364 43.6098 63.0364C42.6315 63.0364 41.8203 62.2395 41.8203 61.2252V58.11C41.8203 57.1199 42.6315 56.2988 43.6098 56.2988C44.6118 56.2988 45.3992 57.1199 45.3992 58.11V61.2252Z" fill="#F58634"/>
</svg>
