<svg width="79" height="63" viewBox="0 0 79 63" fill="none" xmlns="http://www.w3.org/2000/svg">
<g clip-path="url(#clip0_926_929)">
<path d="M77.4425 61.1871V61.3451H77.5899C77.6175 61.3455 77.6448 61.3386 77.6689 61.3249C77.6785 61.3181 77.6862 61.3091 77.6914 61.2985C77.6966 61.2879 77.699 61.2763 77.6985 61.2645C77.699 61.253 77.6965 61.2415 77.6913 61.2312C77.6862 61.2209 77.6784 61.2121 77.6689 61.2057C77.6451 61.1913 77.6176 61.1843 77.5899 61.1855H77.4425V61.1871ZM77.5914 61.0753C77.6546 61.0714 77.7171 61.0896 77.7684 61.1267C77.789 61.1435 77.8053 61.1649 77.816 61.1892C77.8268 61.2135 77.8317 61.2399 77.8304 61.2665C77.8314 61.2893 77.8274 61.3121 77.8188 61.3333C77.8102 61.3545 77.7972 61.3736 77.7807 61.3893C77.7411 61.4237 77.6915 61.4444 77.6392 61.4482L77.8367 61.6733H77.6847L77.503 61.4498H77.4441V61.6733H77.3169V61.0757H77.5934L77.5914 61.0753ZM77.5519 61.8795C77.6187 61.8802 77.6847 61.8667 77.7459 61.84C77.8048 61.8146 77.8585 61.7783 77.9039 61.733C77.9494 61.6877 77.9858 61.634 78.0109 61.575C78.0628 61.4498 78.0628 61.3091 78.0109 61.1839C77.9854 61.1251 77.9491 61.0715 77.9039 61.0259C77.8584 60.9806 77.8048 60.9443 77.7459 60.9189C77.6844 60.8937 77.6184 60.881 77.5519 60.8818C77.4843 60.8811 77.4172 60.8937 77.3544 60.9189C77.2942 60.9438 77.2393 60.9801 77.1929 61.0259C77.123 61.0976 77.0758 61.1882 77.057 61.2866C77.0383 61.3849 77.0488 61.4866 77.0874 61.5789C77.1115 61.6382 77.1474 61.692 77.1929 61.7369C77.2393 61.7827 77.2942 61.819 77.3544 61.844C77.4169 61.8706 77.4841 61.8841 77.5519 61.8835M77.5519 60.738C77.7255 60.7378 77.8923 60.8059 78.0161 60.9276C78.0758 60.986 78.1233 61.0557 78.1559 61.1326C78.1897 61.2115 78.2071 61.2965 78.2071 61.3824C78.2071 61.4683 78.1897 61.5533 78.1559 61.6323C78.1225 61.7087 78.0751 61.7783 78.0161 61.8373C77.9555 61.8954 77.885 61.9422 77.8079 61.9755C77.727 62.0099 77.6399 62.0274 77.5519 62.0269C77.463 62.0275 77.3748 62.01 77.2928 61.9755C77.2149 61.943 77.1437 61.8961 77.0831 61.8373C77.0241 61.7761 76.9773 61.7042 76.9452 61.6255C76.9115 61.5466 76.8941 61.4616 76.8941 61.3757C76.8941 61.2898 76.9115 61.2048 76.9452 61.1259C76.9778 61.049 77.0254 60.9793 77.0851 60.9209C77.1449 60.861 77.2162 60.814 77.2948 60.7826C77.3768 60.7481 77.465 60.7306 77.5539 60.7313M17.0695 58.43C17.0695 57.2904 17.8161 56.3543 19.0363 56.3543C20.2023 56.3543 20.9891 57.2501 20.9891 58.43C20.9891 59.6098 20.2023 60.5057 19.0363 60.5057C17.8161 60.5057 17.0695 59.5696 17.0695 58.43ZM22.3183 58.43V55.187H20.9085V55.977C20.4614 55.3932 19.7832 55.0271 18.8609 55.0271C17.0439 55.0271 15.6179 56.4522 15.6179 58.4316C15.6179 60.4109 17.0431 61.8361 18.8609 61.8361C19.7828 61.8361 20.4614 61.4695 20.9085 60.8861V61.6733H22.3167V58.43H22.3183ZM69.9521 58.43C69.9521 57.2904 70.6987 56.3543 71.9192 56.3543C73.0865 56.3543 73.8721 57.2501 73.8721 58.43C73.8721 59.6098 73.0865 60.5057 71.9192 60.5057C70.6991 60.5057 69.9521 59.5696 69.9521 58.43ZM75.2025 58.43V52.584H73.7915V55.977C73.3444 55.3932 72.6662 55.0271 71.7439 55.0271C69.9269 55.0271 68.5009 56.4522 68.5009 58.4316C68.5009 60.4109 69.9261 61.8361 71.7439 61.8361C72.6662 61.8361 73.3444 61.4695 73.7915 60.8861V61.6733H75.2025V58.43ZM39.8152 56.2875C40.7237 56.2875 41.3071 56.8571 41.4561 57.86H38.0922C38.2427 56.9239 38.8111 56.2875 39.8156 56.2875M39.8437 55.0235C37.9437 55.0235 36.6145 56.406 36.6145 58.428C36.6145 60.4895 37.997 61.8325 39.9381 61.8325C40.9145 61.8325 41.8088 61.5888 42.5956 60.924L41.9048 59.8792C41.3613 60.3137 40.6692 60.5575 40.0187 60.5575C39.1102 60.5575 38.283 60.1368 38.0796 58.9696H42.8935C42.9073 58.7942 42.9215 58.6172 42.9215 58.4276C42.9073 56.4064 41.6575 55.0231 39.8429 55.0231M56.8634 58.4276C56.8634 57.288 57.61 56.3519 58.8301 56.3519C59.9962 56.3519 60.783 57.2478 60.783 58.4276C60.783 59.6075 59.9962 60.5033 58.8301 60.5033C57.61 60.5033 56.863 59.5672 56.863 58.4276M62.1118 58.4276V55.187H60.7028V55.977C60.2541 55.3932 59.5775 55.0271 58.6551 55.0271C56.8381 55.0271 55.4122 56.4522 55.4122 58.4316C55.4122 60.4109 56.8374 61.8361 58.6551 61.8361C59.5775 61.8361 60.2541 61.4695 60.7028 60.8861V61.6733H62.1122V58.43L62.1118 58.4276ZM48.9022 58.4276C48.9022 60.3943 50.2713 61.8321 52.3608 61.8321C53.3373 61.8321 53.9878 61.6149 54.6913 61.0591L54.0143 59.9195C53.485 60.2999 52.9292 60.5033 52.3158 60.5033C51.1904 60.4895 50.3629 59.6758 50.3629 58.4276C50.3629 57.1794 51.1904 56.3661 52.3158 56.3519C52.9276 56.3519 53.4834 56.5553 54.0143 56.9357L54.6913 55.7961C53.9866 55.2404 53.3361 55.0231 52.3608 55.0231C50.2713 55.0231 48.9022 56.4605 48.9022 58.4276ZM67.0762 55.0231C66.2629 55.0231 65.7332 55.4035 65.367 55.9731V55.187H63.9699V61.6698H65.3812V58.0358C65.3812 56.963 65.8422 56.3669 66.7637 56.3669C67.0655 56.3625 67.3651 56.418 67.6453 56.53L68.0798 55.2013C67.7678 55.0784 67.361 55.0243 67.0754 55.0243M29.2881 55.7025C28.6099 55.2554 27.6753 55.0243 26.6443 55.0243C25.0019 55.0243 23.9445 55.8115 23.9445 57.0996C23.9445 58.1566 24.7318 58.8088 26.1814 59.0122L26.8474 59.107C27.6204 59.2156 27.9854 59.4191 27.9854 59.7852C27.9854 60.2865 27.4719 60.5725 26.5077 60.5725C25.5312 60.5725 24.8266 60.2604 24.3514 59.8943L23.689 60.9935C24.462 61.5631 25.4384 61.8349 26.4958 61.8349C28.3681 61.8349 29.4532 60.9532 29.4532 59.7189C29.4532 58.5793 28.5992 57.9832 27.1883 57.7798L26.5239 57.6834C25.9136 57.6044 25.4246 57.4816 25.4246 57.0471C25.4246 56.5731 25.8855 56.2879 26.659 56.2879C27.4865 56.2879 28.2875 56.5999 28.6802 56.8437L29.2904 55.7041L29.2881 55.7025ZM47.4782 55.0255C46.6649 55.0255 46.1352 55.4059 45.7706 55.9755V55.187H44.3735V61.6698H45.7833V58.0358C45.7833 56.963 46.2442 56.3669 47.1658 56.3669C47.4675 56.3625 47.7672 56.418 48.0474 56.53L48.4819 55.2013C48.1699 55.0784 47.763 55.0243 47.4774 55.0243M35.4481 55.187H33.1429V53.2203H31.7177V55.187H30.4028V56.4755H31.7177V59.4329C31.7177 60.9371 32.3015 61.8329 33.9692 61.8329C34.5811 61.8329 35.2858 61.6433 35.7329 61.3317L35.3257 60.1245C34.905 60.3683 34.444 60.4911 34.0775 60.4911C33.3728 60.4911 33.1429 60.0566 33.1429 59.406V56.4767H35.4481V55.187ZM14.3713 61.6714V57.6029C14.3713 56.0707 13.3949 55.0397 11.8208 55.0259C10.9933 55.0121 10.1397 55.2696 9.54203 56.1793C9.09489 55.4604 8.39021 55.0259 7.39955 55.0259C6.70711 55.0259 6.03048 55.2293 5.50078 55.9885V55.187H4.08984V61.6698H5.51184V58.0753C5.51184 56.9499 6.13594 56.3519 7.09974 56.3519C8.03589 56.3519 8.5095 56.9622 8.5095 58.0611V61.669H9.93466V58.0745C9.93466 56.9491 10.5852 56.3511 11.521 56.3511C12.4836 56.3511 12.943 56.9614 12.943 58.0603V61.6682L14.3713 61.6714Z" fill="#231F20"/>
<path d="M78.249 40.1062V39.1582H78.0021L77.7165 39.8088L77.4325 39.1582H77.1848V40.1062H77.3602V39.392L77.6272 40.0082H77.8089L78.076 39.3905V40.1062H78.2498H78.249ZM76.6828 40.1062V39.3205H76.9988V39.1606H76.1914V39.3205H76.5074V40.1062H76.6812H76.6828Z" fill="#F79410"/>
<path d="M50.1882 44.1733H28.8242V5.7793H50.1886L50.1882 44.1733Z" fill="#FF5F00"/>
<path d="M30.178 24.9763C30.178 17.1881 33.8246 10.2503 39.5032 5.77934C35.2048 2.39003 29.8884 0.550532 24.4146 0.55862C10.9304 0.55862 0 11.4906 0 24.9763C0 38.462 10.9304 49.3941 24.4146 49.3941C29.8885 49.4022 35.2051 47.5627 39.5036 44.1733C33.8254 39.7031 30.178 32.7649 30.178 24.9763Z" fill="#EB001B"/>
<path d="M79.0094 24.9763C79.0094 38.462 68.079 49.3941 54.5949 49.3941C49.1203 49.4021 43.8032 47.5626 39.5039 44.1733C45.184 39.7023 48.8306 32.7649 48.8306 24.9763C48.8306 17.1877 45.184 10.2503 39.5039 5.77934C43.8031 2.39013 49.1201 0.550674 54.5945 0.558619C68.0786 0.558619 79.009 11.4906 79.009 24.9763" fill="#F79E1B"/>
</g>
<defs>
<clipPath id="clip0_926_929">
<rect width="79" height="61.462" fill="white" transform="translate(0 0.558594)"/>
</clipPath>
</defs>
</svg>
