<svg width="31" height="20" viewBox="0 0 31 20" fill="none" xmlns="http://www.w3.org/2000/svg">
<path d="M19.2888 3.48438H11.375V16.5131H19.2888V3.48438Z" fill="#FF5F00"/>
<path d="M12.1906 10.003C12.1896 8.74844 12.4718 7.51009 13.0157 6.38168C13.5596 5.25326 14.3511 4.26434 15.3301 3.48976C14.1175 2.52916 12.6612 1.93182 11.1278 1.76602C9.59427 1.60021 8.04544 1.87262 6.65828 2.55211C5.27112 3.2316 4.10159 4.29076 3.28338 5.60854C2.46516 6.92632 2.03125 8.44955 2.03125 10.0041C2.03125 11.5587 2.46516 13.082 3.28338 14.3997C4.10159 15.7175 5.27112 16.7767 6.65828 17.4562C8.04544 18.1357 9.59427 18.4081 11.1278 18.2423C12.6612 18.0765 14.1175 17.4791 15.3301 16.5185C14.3508 15.7437 13.5591 14.7544 13.0152 13.6256C12.4713 12.4967 12.1893 11.2579 12.1906 10.003Z" fill="#EB001B"/>
<path d="M27.845 15.1347V14.8677H27.9592V14.8125H27.6875V14.8677H27.7948V15.1347H27.845ZM28.3725 15.1347V14.8125H28.2903L28.1944 15.0426L28.0985 14.8125H28.0163V15.1347H28.0757V14.8907L28.1647 15.1002H28.2264L28.3154 14.8907V15.1347H28.3725Z" fill="#F79E1B"/>
<path d="M28.6321 9.99844C28.6321 11.5531 28.1981 13.0765 27.3797 14.3943C26.5614 15.7121 25.3917 16.7713 24.0043 17.4507C22.617 18.1301 21.068 18.4023 19.5344 18.2362C18.0009 18.0702 16.5446 17.4726 15.332 16.5117C16.3107 15.7364 17.1019 14.7472 17.646 13.6187C18.1901 12.4902 18.4727 11.252 18.4727 9.99728C18.4727 8.74261 18.1901 7.50432 17.646 6.37584C17.1019 5.24737 16.3107 4.25817 15.332 3.4829C16.5446 2.52201 18.0009 1.92438 19.5344 1.75833C21.068 1.59229 22.617 1.86452 24.0043 2.54391C25.3917 3.22331 26.5614 4.28245 27.3797 5.60028C28.1981 6.9181 28.6321 8.44143 28.6321 9.99613V9.99844Z" fill="#F79E1B"/>
</svg>
