<svg width="123" height="64" viewBox="0 0 123 64" fill="none" xmlns="http://www.w3.org/2000/svg">
<path d="M122.025 30.5194C121.847 31.591 121.678 32.6626 121.489 33.7323C121.028 36.3425 120.214 38.8014 118.588 40.9618C116.831 43.2983 114.409 44.4541 111.615 44.6589C104.883 45.1526 100.74 42.0928 99.2301 35.5369C97.925 29.8727 97.9193 24.1855 99.4349 18.5404C100.801 13.4541 104.538 10.224 109.535 10.0767C114.73 9.92166 118.477 11.9233 120.427 17.3597C121.213 19.5546 121.506 21.9255 122.025 24.2161C122.025 26.3172 122.025 28.4183 122.025 30.5194ZM117.449 28.336C117.003 23.9999 117.149 20.5726 115.381 17.5301C114.546 16.093 113.458 14.9104 111.724 14.5736C108.136 13.8751 105.459 15.3543 104.322 18.8236C102.531 24.2965 102.642 29.842 104.083 35.3608C104.372 36.4668 104.963 37.5997 105.709 38.4646C108.741 41.9818 114.317 40.8949 115.828 36.3386C116.778 33.4759 117.051 30.3893 117.449 28.336Z" fill="#6BCDF5"/>
<path d="M34.6685 14.3911C34.6685 22.2559 34.6685 30.1188 34.6685 37.9817C34.6685 39.5566 34.6475 41.1334 34.6704 42.7082C34.6838 43.5981 34.2992 43.9827 33.4075 43.9597C32.2249 43.9291 31.0365 43.8985 29.8558 43.9712C28.6503 44.0458 28.2523 43.5713 28.2599 42.3772C28.3001 35.5955 28.3633 28.8118 28.2427 22.0301C28.1834 18.6335 27.8007 15.2388 27.4639 11.8537C27.3663 10.8643 27.5596 10.4472 28.5833 10.5161C29.1497 10.5543 29.7315 10.5831 30.2921 10.5084C31.6891 10.3209 32.6784 10.8452 33.2907 12.089C33.6734 12.8679 34.1652 12.9119 34.879 12.4871C37.2805 11.0557 39.862 10.0779 42.6654 9.88459C45.5089 9.68749 48.2052 10.1659 50.247 12.3818C50.8574 13.0458 51.2975 12.8181 51.952 12.5674C54.3114 11.6661 56.6383 10.4874 59.0915 10.053C65.7049 8.8857 70.2592 12.5904 70.4065 19.265C70.5768 27.0494 70.4448 34.8415 70.4639 42.6298C70.4659 43.5674 70.1138 43.9961 69.1455 43.9635C67.9629 43.9234 66.7746 43.9081 65.5939 43.9693C64.4668 44.0286 64.0343 43.6076 64.0496 42.4556C64.0975 38.6495 64.0668 34.8415 64.0668 31.0354C64.0668 27.4914 64.1185 23.9456 64.0362 20.4035C64.0075 19.2037 63.7549 17.9733 63.3913 16.8232C62.9474 15.4168 61.8069 14.724 60.343 14.8082C59.17 14.8752 58.0123 15.2445 56.8431 15.2809C55.2625 15.3306 53.6742 15.189 52.0304 15.1278C52.172 15.8645 52.5031 16.896 52.549 17.9389C52.6925 21.169 52.771 24.4029 52.7958 27.6369C52.8341 32.3615 52.8073 37.0881 52.8054 41.8146C52.8054 43.9559 52.8016 43.9559 50.5991 43.9578C49.8968 43.9578 49.1964 43.9578 48.4941 43.9578C46.2208 43.9559 46.2189 43.9559 46.2189 41.6194C46.2189 36.9809 46.2189 32.3424 46.2189 27.7039C46.2189 24.9043 46.2418 22.1028 46.1978 19.3032C46.1844 18.5301 46.0677 17.7245 45.817 16.9955C45.2736 15.4148 44.3072 14.7757 42.6252 14.7987C41.9305 14.8082 41.2283 14.9211 40.5451 15.0608C38.4344 15.4876 36.3659 15.6368 34.6685 14.3911Z" fill="#231F20"/>
<path d="M12.0628 11.5355C12.0628 14.3886 12.0628 16.9164 12.0628 19.4424C12.0628 23.5087 11.9709 27.5789 12.1068 31.6414C12.1642 33.3579 12.4857 35.1337 13.0597 36.7507C13.961 39.2843 15.7713 40.2219 18.4484 39.8813C19.3994 39.7608 20.3543 39.5637 21.2709 39.2824C22.2028 38.9953 22.8114 39.1216 23.0142 40.1645C23.0314 40.2487 23.0716 40.3291 23.0965 40.4133C24.0131 43.4138 24.7441 43.1229 21.0107 44.1716C17.5375 45.1475 14.1275 44.9944 11.016 42.9928C8.09783 41.1156 6.81956 38.1515 6.51339 34.8945C6.18043 31.3372 6.2608 27.7397 6.20339 24.1594C6.1632 21.7119 6.15746 19.2606 6.21295 16.8131C6.23783 15.6975 5.87042 15.1885 4.70505 15.265C3.74444 15.3282 2.77808 15.2861 1.81364 15.2708C1.14962 15.2612 0.370797 15.2956 0.414809 14.3331C0.456908 13.4146 -0.107598 12.2109 1.32759 11.7957C2.42216 11.48 3.51864 11.1451 4.63808 10.9537C5.88382 10.7394 6.27993 10.0984 6.22061 8.87175C6.13259 6.99453 6.22827 5.11156 6.18617 3.23243C6.16512 2.3407 6.5153 1.85465 7.36876 1.62311C8.46715 1.32459 9.55981 0.993538 10.6314 0.612735C11.6456 0.251069 12.0953 0.4807 12.0762 1.62502C12.036 4.1165 12.1049 6.61182 12.0475 9.1033C12.0226 10.2036 12.4397 10.5634 13.5094 10.5327C15.5684 10.4753 17.6294 10.5557 19.6884 10.5021C20.7849 10.4734 21.2594 10.8121 21.2709 11.9871C21.3054 15.4028 21.2365 15.5061 17.7806 15.2612C15.0116 15.0641 14.2883 14.6144 12.0628 11.5355Z" fill="#231F20"/>
<path d="M90.1969 14.4793C85.8416 15.262 81.6738 14.5329 77.5462 14.7702C76.333 14.8391 75.8297 14.3549 75.9694 13.1685C75.9751 13.1245 75.9694 13.0805 75.9694 13.0365C75.9445 10.568 75.9445 10.5661 78.3748 10.5661C83.5051 10.5661 88.6354 10.5431 93.7638 10.5909C94.4737 10.5967 95.7539 10.8799 95.7864 11.1535C95.9089 12.1735 95.9874 13.5283 95.4267 14.2459C93.1667 17.1335 90.658 19.8278 88.2508 22.6025C87.8929 23.0158 87.5848 23.4732 87.2251 23.9496C88.6775 24.4759 90.0285 24.8452 91.2723 25.4384C97.4838 28.3968 97.9603 35.0771 95.176 39.5683C92.3822 44.0709 87.8604 45.2382 82.9444 44.5723C80.2845 44.2125 77.9519 42.9879 75.7914 41.4264C74.8366 40.7356 74.4768 40.1041 75.3609 38.9712C76.9338 36.9543 76.8535 36.9008 79.0254 38.3187C81.6336 40.0199 84.4446 40.8159 87.5198 39.928C90.415 39.0918 92.0262 36.9505 92.0186 34.1739C92.0109 31.4241 90.3595 29.2675 87.4432 28.4963C86.0616 28.1308 84.5977 28.0294 83.1625 27.9222C82.3512 27.861 81.7274 27.727 81.3925 26.8851C81.0672 26.0661 80.8911 25.3255 81.559 24.5716C84.1078 21.6897 86.6414 18.7945 89.1674 15.8915C89.5482 15.4495 89.8562 14.9501 90.1969 14.4793Z" fill="#6BCDF5"/>
<path d="M119.848 51.3516H2.51344C2.08863 51.3516 1.74609 51.696 1.74609 52.1189C1.74609 52.5437 2.09054 52.8863 2.51344 52.8863H119.85C120.275 52.8863 120.618 52.5418 120.618 52.1189C120.616 51.696 120.273 51.3516 119.848 51.3516Z" fill="#231F20"/>
<path d="M14.064 63.2107H13.2661V62.3343C12.6556 63.0327 11.8673 63.381 10.9047 63.381C9.94219 63.381 9.15188 63.0653 8.53379 62.4338C7.92336 61.7889 7.61719 60.9756 7.61719 59.9921C7.61719 58.9415 7.93293 58.0823 8.56441 57.4106C9.18824 56.7332 9.99577 56.3945 10.9851 56.3945C12.4337 56.3945 13.4593 57.0451 14.064 58.3483L13.1474 58.6066C12.7552 57.6173 12.0471 57.1217 11.0253 57.1217C10.3153 57.1217 9.73361 57.38 9.282 57.8986C8.83614 58.4038 8.61417 59.0716 8.61417 59.9021C8.61417 60.7135 8.83423 61.3603 9.27244 61.8444C9.71065 62.3362 10.2847 62.5811 10.9966 62.5811C11.3889 62.5811 11.7505 62.5084 12.0835 62.3611C12.4165 62.2156 12.6805 62.0128 12.8814 61.7526C13.113 61.4406 13.2431 61.0082 13.2699 60.4571H10.9583V59.6916H14.0679V63.2107H14.064Z" fill="#231F20"/>
<path d="M22.1861 63.2103H17.9609V56.5645H18.8775V62.4143H22.1861V63.2103Z" fill="#231F20"/>
<path d="M28.5636 56.3945C29.5529 56.3945 30.3605 56.7275 30.9843 57.3915C31.6158 58.0555 31.9315 58.9032 31.9315 59.9327C31.9315 60.9221 31.6081 61.743 30.9652 62.3936C30.3279 63.0519 29.53 63.381 28.5732 63.381C27.603 63.381 26.7993 63.0519 26.1621 62.3936C25.5306 61.7219 25.2148 60.8895 25.2148 59.8925C25.2148 58.8956 25.5306 58.0632 26.1621 57.3915C26.7993 56.7256 27.5992 56.3945 28.5636 56.3945ZM26.2118 59.8811C26.2118 60.6982 26.4319 61.366 26.8701 61.8846C27.3083 62.3955 27.8766 62.6519 28.5732 62.6519C29.264 62.6519 29.8285 62.3955 30.2667 61.8846C30.7126 61.3794 30.9345 60.725 30.9345 59.9213C30.9345 59.085 30.7145 58.4095 30.2763 57.8986C29.8438 57.38 29.2774 57.1217 28.5732 57.1217C27.8747 57.1217 27.3083 57.38 26.8701 57.8986C26.43 58.4095 26.2118 59.0716 26.2118 59.8811Z" fill="#231F20"/>
<path d="M38.9755 63.2103H35.6172V56.5645H38.7765C39.4941 56.5645 40.0146 56.7271 40.3399 57.0524C40.6786 57.372 40.8489 57.7796 40.8489 58.2771C40.8489 58.9277 40.5293 59.4023 39.8921 59.7027C40.2901 59.8616 40.581 60.0759 40.7647 60.3457C40.9465 60.6155 41.0384 60.958 41.0384 61.3771C41.0384 61.9952 40.8355 62.4659 40.4298 62.7913C40.0854 63.0706 39.5994 63.2103 38.9755 63.2103ZM36.4936 57.3605V59.3525H38.5756C39.0004 59.3525 39.32 59.2722 39.5324 59.1133C39.7773 58.9277 39.9017 58.6617 39.9017 58.3154C39.9017 57.9958 39.7984 57.7547 39.5936 57.5882C39.4003 57.4351 39.1018 57.3586 38.6961 57.3586H36.4936V57.3605ZM36.4936 60.1199V62.4124H38.7248C39.2032 62.4124 39.5496 62.3262 39.7658 62.154C39.9821 61.9818 40.0892 61.7024 40.0892 61.3178C40.0892 60.5198 39.6376 60.1218 38.7344 60.1218H36.4936V60.1199Z" fill="#231F20"/>
<path d="M44.9525 63.2103H43.9766L46.5676 56.5645H47.4937L49.9259 63.2103H48.95L48.2228 61.1781H45.7217L44.9525 63.2103ZM47.0058 57.7088L46.0088 60.4088H47.9511L47.0058 57.7088Z" fill="#231F20"/>
<path d="M57.4205 63.2103H53.1953V56.5645H54.1119V62.4143H57.4205V63.2103Z" fill="#231F20"/>
<path d="M67.3932 63.2103H63.168V56.5645H64.0846V62.4143H67.3932V63.2103Z" fill="#231F20"/>
<path d="M71.6197 63.2103H70.7031V56.5645H71.6197V63.2103Z" fill="#231F20"/>
<path d="M76.4489 63.2103H75.582V56.5645H76.778L78.7414 61.9359L80.6741 56.5645H81.8796V63.2103H81.0128V58.0283L79.0992 63.2103H78.3625L76.4489 58.0283V63.2103Z" fill="#231F20"/>
<path d="M89.2174 63.2103H88.3008V56.5645H89.2174V63.2103Z" fill="#231F20"/>
<path d="M95.4343 63.2103H94.5177V57.3605H92.4453V56.5625H97.478V57.3605H95.4362V63.2103H95.4343Z" fill="#231F20"/>
<path d="M105.606 63.2103H100.723V56.5645H105.455V57.3624H101.639V59.3946H104.957V60.1926H101.639V62.4143H105.606V63.2103Z" fill="#231F20"/>
<path d="M111.665 63.2103H109.145V56.5645H111.665C112.702 56.5645 113.481 56.8725 114.007 57.4906C114.499 58.0743 114.744 58.8761 114.744 59.8922C114.744 60.9887 114.455 61.8326 113.877 62.4238C113.352 62.9482 112.614 63.2103 111.665 63.2103ZM110.059 57.3605V62.4124H111.556C111.988 62.4124 112.329 62.3645 112.581 62.2688C112.834 62.1732 113.056 62.0048 113.249 61.7656C113.615 61.3197 113.796 60.6959 113.796 59.8922C113.796 59.0158 113.58 58.3517 113.15 57.9001C112.964 57.7011 112.754 57.5614 112.516 57.4811C112.281 57.4007 111.959 57.3624 111.554 57.3624H110.059V57.3605Z" fill="#231F20"/>
</svg>
