<svg width="44" height="15" viewBox="0 0 44 15" fill="none" xmlns="http://www.w3.org/2000/svg">
<path d="M18.7759 14.2996H15.2656L17.4612 0.585938H20.9713L18.7759 14.2996Z" fill="#00579F"/>
<path d="M31.5026 0.919784C30.8102 0.642307 29.7121 0.335938 28.3542 0.335938C24.8876 0.335938 22.4465 2.20324 22.4315 4.87292C22.4027 6.8426 24.1793 7.93661 25.508 8.59336C26.8661 9.26447 27.3278 9.7025 27.3278 10.3007C27.3139 11.2194 26.2303 11.6429 25.2197 11.6429C23.8182 11.6429 23.0673 11.4246 21.9261 10.9134L21.4639 10.6943L20.9727 13.7727C21.796 14.1516 23.3128 14.4879 24.8876 14.5026C28.5709 14.5026 30.9688 12.6642 30.9972 9.81923C31.0112 8.2581 30.0731 7.0619 28.0507 6.08443C26.8229 5.45696 26.071 5.03386 26.071 4.39184C26.0854 3.80819 26.707 3.21038 28.0929 3.21038C29.2341 3.1811 30.0725 3.45819 30.7077 3.73547L31.0252 3.88109L31.5026 0.919784Z" fill="#00579F"/>
<path d="M36.1693 9.44136C36.4584 8.65353 37.5708 5.60438 37.5708 5.60438C37.5562 5.63366 37.8593 4.802 38.0326 4.29145L38.2779 5.47311C38.2779 5.47311 38.9427 8.75572 39.087 9.44136C38.5384 9.44136 36.8626 9.44136 36.1693 9.44136ZM40.5023 0.585938H37.7871C36.9498 0.585938 36.3136 0.833747 35.9524 1.72377L30.7383 14.2994H34.4215C34.4215 14.2994 35.0279 12.6069 35.1583 12.2423C35.5623 12.2423 39.1454 12.2423 39.6652 12.2423C39.766 12.7238 40.084 14.2994 40.084 14.2994H43.3342L40.5023 0.585938Z" fill="#00579F"/>
<path d="M12.3346 0.585938L8.89686 9.93737L8.5212 8.04079C7.88563 5.85238 5.89236 3.47473 3.66797 2.29249L6.81682 14.2851H10.5289L16.0465 0.585938H12.3346Z" fill="#00579F"/>
<path d="M5.70552 0.585938H0.0577786L0 0.863027C4.40559 2.00105 7.32332 4.74422 8.52209 8.04137L7.29434 1.7387C7.09221 0.862833 6.47104 0.614829 5.70552 0.585938Z" fill="#FAA61A"/>
</svg>
