<svg width="81" height="81" viewBox="0 0 81 81" fill="none" xmlns="http://www.w3.org/2000/svg">
<g clip-path="url(#clip0_926_958)">
<path d="M40.5352 0.289062C62.5667 0.289062 80.5352 18.2575 80.5352 40.2891C80.5352 62.3201 62.5667 80.2891 40.5352 80.2891C18.5036 80.2891 0.535156 62.3201 0.535156 40.2891C0.535156 18.2575 18.5036 0.289062 40.5352 0.289062Z" fill="#6158AC"/>
<path d="M40.5345 3.0625C61.038 3.0625 77.7605 19.7844 77.7605 40.2884C77.7605 60.7919 61.038 77.5144 40.5345 77.5144C20.0305 77.5144 3.30859 60.7919 3.30859 40.2884C3.30859 19.7844 20.031 3.0625 40.5345 3.0625Z" fill="#2D254F"/>
<path d="M40.535 3.23438C60.9442 3.23438 77.5891 19.8798 77.5891 40.2889C77.5891 60.6976 60.9442 77.3435 40.535 77.3435C20.1259 77.3435 3.48047 60.6976 3.48047 40.2889C3.48047 19.8798 20.1264 3.23438 40.535 3.23438Z" fill="#2D254F"/>
<path d="M40.5358 14.0978C54.9617 14.0978 66.7277 25.8632 66.7277 40.2897C66.7277 54.7161 54.9617 66.4816 40.5358 66.4816C26.1098 66.4816 14.3439 54.7161 14.3439 40.2897C14.3439 25.8632 26.1098 14.0978 40.5358 14.0978ZM40.5358 12.0156C56.1085 12.0156 68.8098 24.717 68.8098 40.2897C68.8098 55.8629 56.1085 68.5637 40.5358 68.5637C24.9626 68.5637 12.2617 55.8629 12.2617 40.2897C12.2617 24.717 24.9631 12.0156 40.5358 12.0156Z" fill="#6661A8"/>
<path d="M40.5356 66.4814C55.001 66.4814 66.7275 54.7549 66.7275 40.2895C66.7275 25.8242 55.001 14.0977 40.5356 14.0977C26.0703 14.0977 14.3438 25.8242 14.3438 40.2895C14.3438 54.7549 26.0703 66.4814 40.5356 66.4814Z" fill="url(#paint0_radial_926_958)"/>
<path d="M11.8671 20.5037L14.3191 22.8886L13.8623 23.6798L11.8202 23.1153L13.3388 24.5865L12.881 25.3787L9.58984 24.4478L10.022 23.6991L12.1743 24.4142L10.5282 22.821L10.9411 22.1058L13.1319 22.7612L11.4448 21.2327L11.8671 20.5037ZM17.6656 18.7292L17.1194 19.3574L16.0102 18.3939L15.2669 19.2493L16.3756 20.2128L15.8294 20.8415L13.327 18.666L13.8737 18.0383L14.7898 18.8334L15.5331 17.9795L14.6169 17.1829L15.1637 16.5542L17.6656 18.7292ZM20.2737 14.1121C20.6189 14.523 20.7799 14.9378 20.7582 15.3571C20.7365 15.7764 20.534 16.1473 20.1517 16.4678C19.768 16.7893 19.3675 16.9227 18.9492 16.8688C18.5309 16.814 18.1516 16.5839 17.8118 16.1789C17.469 15.771 17.308 15.3561 17.3278 14.9358C17.3476 14.5155 17.5481 14.1446 17.9318 13.8226C18.3136 13.5026 18.7136 13.3678 19.1314 13.4196C19.5487 13.47 19.9295 13.7016 20.2737 14.1121ZM19.6144 14.6632C19.5079 14.5303 19.3828 14.4134 19.243 14.316C19.1389 14.2425 19.0217 14.1894 18.8978 14.1595C18.7955 14.1356 18.6889 14.1378 18.5877 14.1659C18.495 14.1924 18.409 14.2382 18.3353 14.3002C18.2613 14.3607 18.2006 14.4359 18.157 14.521C18.1138 14.616 18.0937 14.7199 18.0982 14.8242C18.1007 14.9343 18.1323 15.0573 18.1916 15.1931C18.2508 15.3299 18.3437 15.4741 18.4701 15.6248C18.601 15.7808 18.725 15.8979 18.842 15.9749C18.9595 16.052 19.0736 16.1028 19.1852 16.1275C19.2988 16.1522 19.403 16.1512 19.4974 16.1226C19.5922 16.0944 19.6771 16.0495 19.7502 15.9878C19.8253 15.9246 19.8846 15.8475 19.928 15.7547C19.9715 15.6628 19.9898 15.5611 19.9838 15.4514C19.9749 15.3256 19.9444 15.2023 19.8935 15.087C19.8411 14.9635 19.7478 14.8227 19.6144 14.6632ZM27.3242 7.97522L28.0818 11.3108L27.2679 11.7257L25.8629 10.1399L26.3355 12.2008L25.5201 12.6166L23.2671 10.0431L24.037 9.65043L25.4529 11.4229L24.9398 9.19014L25.6757 8.8148L27.1563 10.5577L26.574 8.35748L27.3242 7.97522ZM30.0637 10.4772L30.2879 6.98452L31.1655 6.74895L33.1059 9.66179L32.2777 9.88354L31.9014 9.28349L30.8959 9.55265L30.8707 10.2618L30.0637 10.4772ZM31.57 8.75011L30.9606 7.78212L30.9161 8.92494L31.57 8.75011ZM37.4925 8.89975L36.6969 8.99704L35.1466 6.85809L35.4281 9.15261L34.6725 9.24546L34.2685 5.95431L35.2834 5.82936L36.5645 7.58606L36.3329 5.70046L37.089 5.60811L37.4925 8.89975ZM40.0503 8.72344L40.0033 6.04024L39.0235 6.05703L39.0131 5.42488L41.8045 5.375L41.8153 6.00715L40.8355 6.02394L40.8819 8.70763L40.0503 8.72344ZM44.4832 9.01186C44.2594 8.98788 44.0394 8.93612 43.8284 8.85777C43.6519 8.79029 43.4816 8.70784 43.3192 8.61133L43.4145 7.82904L43.4896 7.83842C43.6348 7.99595 43.8057 8.12785 43.9948 8.22858C44.1849 8.32735 44.3741 8.38909 44.5608 8.41181C44.6082 8.41823 44.6709 8.4202 44.7499 8.4202C44.828 8.41872 44.8927 8.40983 44.943 8.39403C45.0017 8.37732 45.0557 8.34742 45.1011 8.30661C45.149 8.26204 45.1783 8.201 45.183 8.13573C45.1889 8.09707 45.1854 8.05758 45.1728 8.02055C45.1603 7.98352 45.1391 7.95002 45.1109 7.92287C45.0487 7.8615 44.9746 7.81344 44.8931 7.78163C44.784 7.73817 44.6684 7.6952 44.544 7.65322C44.4195 7.61124 44.3049 7.56433 44.1997 7.51197C43.9558 7.39147 43.7874 7.24825 43.6955 7.0828C43.6036 6.91785 43.572 6.72178 43.6012 6.49213C43.6387 6.18445 43.7997 5.95085 44.0847 5.79183C44.3687 5.63329 44.706 5.57749 45.0976 5.62589C45.2932 5.65009 45.4853 5.69355 45.6744 5.75725C45.8636 5.82146 46.031 5.89603 46.1762 5.98246L46.0834 6.73364L46.0113 6.72475C45.8908 6.59652 45.7504 6.48861 45.5954 6.40521C45.4322 6.31301 45.2525 6.25361 45.0665 6.23038C44.9944 6.22149 44.9292 6.21952 44.8704 6.22149C44.8061 6.22661 44.7426 6.23937 44.6813 6.25952C44.6263 6.27729 44.5762 6.30774 44.5351 6.34842C44.4923 6.38673 44.4656 6.43986 44.4605 6.49707C44.4541 6.53491 44.4566 6.57374 44.4681 6.61039C44.4795 6.64704 44.4994 6.68047 44.5262 6.70795C44.5781 6.76524 44.6892 6.82352 44.8551 6.88328L45.1658 6.99637C45.265 7.03243 45.3712 7.07836 45.4823 7.13367C45.7001 7.2443 45.8572 7.37567 45.9515 7.52926C46.0453 7.68187 46.0784 7.8725 46.0503 8.10116C46.0098 8.42761 45.8498 8.67553 45.5668 8.84345C45.2813 9.00889 44.9213 9.06569 44.4832 9.01186ZM50.8053 10.366L51.635 7.81373L50.7025 7.51099L50.8981 6.90945L53.5546 7.77274L53.3591 8.37378L52.4266 8.07153L51.5979 10.6238L50.8053 10.366ZM57.4113 11.4817C57.1678 11.9598 56.8492 12.2704 56.4541 12.4146C56.0595 12.5578 55.6407 12.5164 55.1953 12.2902C54.7488 12.0625 54.4698 11.7454 54.3572 11.339C54.2441 10.933 54.3073 10.494 54.5483 10.0228C54.7903 9.54771 55.1098 9.23756 55.5039 9.09088C55.899 8.94469 56.3173 8.98469 56.7663 9.21187C57.2088 9.43856 57.4898 9.75464 57.6044 10.1586C57.7189 10.5636 57.6547 11.0041 57.4113 11.4817ZM56.6458 11.0901C56.7356 10.9142 56.7939 10.7542 56.8201 10.6125C56.8478 10.4698 56.8507 10.3433 56.8305 10.2317C56.8125 10.1286 56.7687 10.0317 56.7031 9.95021C56.6428 9.87513 56.5672 9.81384 56.4813 9.77044C56.3967 9.72583 56.3036 9.69942 56.2082 9.6929C56.1036 9.69011 55.9999 9.71212 55.9055 9.75711C55.7912 9.81426 55.6888 9.89252 55.6037 9.98774C55.4878 10.1151 55.3907 10.2582 55.3153 10.413C55.2224 10.5942 55.1627 10.7532 55.14 10.892C55.1136 11.0157 55.1109 11.1432 55.1321 11.2679C55.1543 11.381 55.1958 11.4777 55.259 11.5533C55.3217 11.6294 55.3963 11.6896 55.4822 11.7331C55.5701 11.7775 55.6635 11.8032 55.7657 11.8057C55.8664 11.8106 55.9662 11.7874 56.0655 11.7385C56.1736 11.6852 56.2729 11.6096 56.3652 11.5128C56.4586 11.416 56.5519 11.2748 56.6458 11.0901ZM63.0152 16.4095C62.909 16.536 62.7925 16.6268 62.6641 16.6826C62.5408 16.7369 62.407 16.7628 62.2724 16.7582C62.1172 16.7533 61.9644 16.7177 61.823 16.6535C61.6822 16.5898 61.5242 16.4841 61.3474 16.3355L60.3305 15.482L62.4606 12.9421L63.3579 13.6947C63.5441 13.8508 63.679 13.9767 63.7629 14.072C63.8469 14.1664 63.9136 14.2721 63.9585 14.3881C64.0099 14.5131 64.0212 14.636 63.998 14.7556C63.971 14.8818 63.9118 14.9988 63.8261 15.0953C63.7306 15.2145 63.6016 15.3024 63.4557 15.3477C63.314 15.3932 63.1673 15.3922 63.0196 15.3467L63.0093 15.3601C63.1377 15.5245 63.2073 15.6974 63.2162 15.8781C63.2281 16.0604 63.1599 16.2377 63.0152 16.4095ZM63.074 14.6805C63.11 14.636 63.1354 14.5838 63.1481 14.5279C63.1638 14.4688 63.157 14.4059 63.1288 14.3516C63.0977 14.2923 63.0554 14.2397 63.0043 14.1965C62.9205 14.1223 62.8352 14.0497 62.7485 13.9787L62.7046 13.9417L62.2537 14.479L62.3337 14.5467C62.4438 14.6385 62.5208 14.7012 62.5673 14.7358C62.6127 14.7704 62.6685 14.7966 62.7332 14.8143C62.7952 14.8333 62.8619 14.8294 62.9214 14.8035C62.9805 14.774 63.0326 14.732 63.074 14.6805ZM62.3682 15.847C62.4344 15.7685 62.469 15.6939 62.4749 15.6228C62.4785 15.5449 62.458 15.4678 62.4161 15.402C62.379 15.3419 62.3321 15.2883 62.2774 15.2435C62.1887 15.1652 62.0988 15.0883 62.0077 15.0129L61.8907 14.9146L61.3563 15.5502L61.3909 15.5793C61.5568 15.7181 61.6724 15.8139 61.7381 15.8643C61.8037 15.9147 61.8813 15.9552 61.9717 15.9813C62.0428 16.0056 62.1201 16.0043 62.1904 15.9779C62.26 15.9503 62.3212 15.9052 62.3682 15.847ZM63.598 18.3949L66.0999 16.2194L67.5712 17.9124L67.0936 18.3272L66.1661 17.26L65.7266 17.6417L66.5809 18.6245L66.1034 19.0394L65.2495 18.0566L64.6183 18.6053L65.5458 19.6725L65.0682 20.0874L63.598 18.3949ZM67.5593 23.4151L70.9912 22.7271L71.4456 23.5139L69.1343 26.1422L68.7051 25.3994L69.1876 24.8804L68.6675 23.9791L67.9781 24.1381L67.5593 23.4151ZM69.6177 24.4226L70.3946 23.584L69.279 23.8368L69.6177 24.4226Z" fill="#BCBEC0"/>
<path d="M11.6249 20.3831L14.0765 22.7675L13.6196 23.5587L11.5775 22.9942L13.0961 24.4654L12.6388 25.2581L9.34766 24.3266L9.77979 23.5779L11.9326 24.2931L10.2865 22.6993L10.6994 21.9837L12.8902 22.6391L11.2036 21.1106L11.6249 20.3831ZM17.4229 18.6086L16.8762 19.2373L15.7675 18.2733L15.0237 19.1287L16.1329 20.0922L15.5862 20.7209L13.0843 18.5459L13.6305 17.9182L14.5466 18.7143L15.2899 17.8594L14.3738 17.0633L14.9205 16.4351L17.4229 18.6086ZM20.0315 13.9914C20.3768 14.4023 20.5378 14.8172 20.516 15.237C20.4943 15.6563 20.2918 16.0272 19.9096 16.3472C19.5258 16.6692 19.1248 16.802 18.7065 16.7472C18.2882 16.6924 17.9089 16.4628 17.5691 16.0578C17.2269 15.6498 17.0649 15.235 17.0851 14.8147C17.1049 14.3939 17.3054 14.023 17.6891 13.701C18.0714 13.381 18.4714 13.2467 18.8887 13.298C19.306 13.3499 19.6868 13.581 20.0315 13.9914ZM19.3717 14.5426C19.265 14.41 19.14 14.2932 19.0003 14.1959C18.8961 14.1224 18.779 14.0692 18.6551 14.0388C18.5528 14.0148 18.446 14.0174 18.345 14.0462C18.253 14.0731 18.1674 14.1183 18.0934 14.1793C18.0195 14.2403 17.9587 14.3156 17.9148 14.4008C17.8717 14.4959 17.8514 14.5998 17.8556 14.7041C17.8585 14.8142 17.8896 14.9377 17.9489 15.0735C18.0082 15.2098 18.101 15.354 18.2279 15.5051C18.3588 15.6612 18.4823 15.7778 18.5998 15.8548C18.7169 15.9318 18.8314 15.9832 18.9431 16.0079C19.0571 16.0321 19.1613 16.0311 19.2552 16.0025C19.3492 15.9757 19.4363 15.9291 19.5107 15.8657C19.5851 15.8023 19.645 15.7236 19.6863 15.635C19.7298 15.5437 19.7481 15.4419 19.7421 15.3313C19.733 15.2055 19.7023 15.0822 19.6513 14.9668C19.5989 14.8434 19.5056 14.7016 19.3717 14.5426ZM27.0815 7.8551L27.8391 11.1902L27.0252 11.6051L25.6202 10.0192L26.0928 12.0802L25.2774 12.496L23.0244 9.92293L23.7948 9.5303L25.2108 11.3023L24.6976 9.06952L25.434 8.69467L26.9141 10.4375L26.3313 8.23735L27.0815 7.8551ZM29.8215 10.357L30.0457 6.86439L30.9233 6.62783L32.8638 9.54018L32.0355 9.76193L31.6587 9.16188L30.6537 9.43104L30.6285 10.1392L29.8215 10.357ZM31.3278 8.62948L30.7184 7.66199L30.6739 8.80431L31.3278 8.62948ZM37.2503 8.77913L36.4547 8.87642L34.9044 6.73796L35.1859 9.03248L34.4298 9.12533L34.0258 5.83418L35.0407 5.70923L36.3218 7.46642L36.0902 5.58083L36.8458 5.48798L37.2503 8.77913ZM39.8081 8.60282L39.7611 5.91962L38.7813 5.93641L38.7704 5.30475L41.5628 5.25586L41.5732 5.88801L40.5938 5.9048L40.6407 8.588L39.8081 8.60282ZM44.2405 8.89173C44.0169 8.86758 43.7971 8.81583 43.5862 8.73764C43.4098 8.66971 43.2394 8.58746 43.0765 8.49169L43.1723 7.70891L43.2479 7.71829C43.395 7.87781 43.5644 8.00869 43.7521 8.10845C43.9432 8.20723 44.1324 8.26896 44.3181 8.29217C44.3665 8.2981 44.4292 8.30007 44.5077 8.30007C44.5853 8.29909 44.6505 8.2902 44.7003 8.2739C44.7591 8.25706 44.8134 8.22737 44.8594 8.18698C44.907 8.14203 44.936 8.0809 44.9409 8.0156C44.9466 7.97691 44.943 7.9374 44.9304 7.90037C44.9177 7.86334 44.8964 7.82987 44.8683 7.80275C44.8065 7.74116 44.7327 7.69306 44.6514 7.6615C44.5362 7.61557 44.4198 7.57275 44.3023 7.53309C44.1843 7.49396 44.0692 7.44694 43.9576 7.39234C43.7136 7.27134 43.5452 7.12812 43.4533 6.96317C43.3605 6.79772 43.3289 6.60067 43.358 6.37201C43.396 6.06432 43.5565 5.83072 43.8415 5.6717C44.1255 5.51317 44.4643 5.45637 44.8544 5.50576C45.05 5.52996 45.2431 5.57342 45.4318 5.63713C45.6214 5.70133 45.7888 5.7759 45.9335 5.86283L45.8407 6.614L45.7681 6.60462C45.648 6.47644 45.5079 6.36868 45.3532 6.28558C45.1853 6.19174 45.009 6.13248 44.8238 6.11025C44.7517 6.10136 44.6875 6.0989 44.6277 6.10136C44.5637 6.10578 44.5004 6.11839 44.4396 6.1389C44.3844 6.15661 44.3341 6.18707 44.2929 6.2278C44.2505 6.26659 44.2235 6.31937 44.2168 6.37645C44.2104 6.41433 44.2131 6.45319 44.2246 6.48985C44.2361 6.52651 44.2561 6.55992 44.283 6.58733C44.3364 6.64462 44.4465 6.7029 44.6119 6.76315L44.9231 6.87575C45.0228 6.91181 45.128 6.95773 45.2396 7.01354C45.4579 7.12368 45.615 7.25505 45.7088 7.40864C45.8017 7.56174 45.8357 7.75237 45.8076 7.98103C45.7676 8.30748 45.6071 8.5554 45.3241 8.72283C45.0381 8.88827 44.6786 8.94507 44.2405 8.89173ZM50.5631 10.2454L51.3923 7.69311L50.4603 7.39037L50.6559 6.78932L53.3115 7.65212L53.1159 8.25365L52.1835 7.95091L51.3538 10.5032L50.5631 10.2454ZM57.1691 11.3611C56.9251 11.8391 56.6066 12.1503 56.2119 12.294C55.8173 12.4377 55.3976 12.3962 54.9521 12.17C54.5066 11.9424 54.2266 11.6248 54.115 11.2188C54.0019 10.8124 54.0641 10.3733 54.3056 9.90219C54.5476 9.42708 54.8662 9.11693 55.2612 8.97075C55.6558 8.82407 56.0747 8.86407 56.5221 9.09175C56.9656 9.31794 57.2471 9.63402 57.3622 10.0385C57.4767 10.4425 57.4121 10.8835 57.1691 11.3611ZM56.4036 10.9694C56.4939 10.7936 56.5517 10.6336 56.5779 10.4919C56.6065 10.3496 56.6085 10.2232 56.5883 10.1126C56.5704 10.0091 56.5268 9.91174 56.4614 9.82959C56.4004 9.75526 56.325 9.69412 56.2396 9.64989C56.1543 9.60565 56.0609 9.57925 55.965 9.57228C55.861 9.56976 55.7578 9.59176 55.6638 9.63649C55.564 9.68242 55.4627 9.75896 55.3605 9.86712C55.2583 9.97528 55.163 10.117 55.0721 10.2923C54.9793 10.4736 54.9205 10.6331 54.8968 10.7714C54.8716 10.9097 54.8686 11.0346 54.8899 11.1472C54.9121 11.2603 54.9536 11.3571 55.0173 11.4327C55.08 11.5087 55.1541 11.5685 55.24 11.613C55.3279 11.6574 55.4203 11.6816 55.5225 11.6856C55.6237 11.69 55.724 11.6668 55.8238 11.6179C55.9314 11.565 56.0312 11.489 56.1231 11.3922C56.2159 11.2954 56.3097 11.1546 56.4036 10.9694ZM62.7735 16.2894C62.6789 16.406 62.5588 16.4993 62.4224 16.562C62.294 16.6173 62.1651 16.6425 62.0307 16.6376C61.8755 16.6329 61.7228 16.5974 61.5813 16.5334C61.441 16.4697 61.2825 16.3635 61.1057 16.2153L60.0883 15.3619L62.2194 12.8215L63.1153 13.5746C63.3015 13.7292 63.4373 13.8561 63.5212 13.9519C63.6057 14.0458 63.6709 14.1514 63.7168 14.268C63.7667 14.3929 63.7795 14.5154 63.7548 14.6349C63.7284 14.7612 63.6697 14.8784 63.5844 14.9752C63.4807 15.0992 63.3573 15.1831 63.2135 15.2276C63.0719 15.2726 62.9198 15.272 62.7784 15.2261L62.7671 15.2394C62.897 15.4039 62.9656 15.5768 62.975 15.758C62.9854 15.9397 62.9177 16.117 62.7735 16.2894ZM62.8313 14.5599C62.8676 14.515 62.8932 14.4625 62.9064 14.4063C62.9216 14.3473 62.9144 14.2849 62.8861 14.231C62.8553 14.1718 62.8134 14.1192 62.7626 14.0759C62.6787 14.0023 62.5937 13.9298 62.5078 13.8586L62.4634 13.8215L62.012 14.3589L62.092 14.4265C62.2011 14.5179 62.2791 14.5806 62.3246 14.6157C62.3745 14.6519 62.4308 14.6783 62.4905 14.6937C62.5526 14.7128 62.6195 14.7091 62.6792 14.6833C62.7382 14.6537 62.7901 14.6116 62.8313 14.5599ZM62.126 15.7269C62.1917 15.6479 62.2273 15.5733 62.2322 15.5027C62.2367 15.4248 62.2165 15.3476 62.1744 15.2819C62.1375 15.2215 62.0905 15.1677 62.0357 15.1229C61.969 15.0651 61.8806 14.9881 61.7655 14.8922L61.649 14.794L61.1151 15.4296L61.1482 15.4587C61.3141 15.598 61.4297 15.6943 61.4954 15.7442C61.5611 15.7955 61.6391 15.835 61.73 15.8607C61.8008 15.8849 61.8778 15.8837 61.9478 15.8573C62.0174 15.8298 62.0787 15.7849 62.126 15.7269ZM63.3548 18.2748L65.8567 16.0993L67.328 17.7918L66.8504 18.2071L65.9234 17.1394L65.4834 17.5211L66.3378 18.5044L65.8592 18.9193L65.0053 17.936L64.3746 18.4852L65.3026 19.5519L64.8241 19.9673L63.3548 18.2748ZM67.3176 23.2945L70.749 22.607L71.2029 23.3937L68.8916 26.0216L68.4634 25.2793L68.9459 24.7603L68.4249 23.8589L67.7354 24.0175L67.3176 23.2945ZM69.3761 24.3024L70.1524 23.4634L69.0368 23.7162L69.3761 24.3024Z" fill="#FFFAFC"/>
<path d="M16.8806 61.8577L13.751 63.238L13.1885 62.518L14.477 60.8358L12.544 61.6932L11.9805 60.9716L14.0769 58.2687L14.6093 58.9497L13.1391 60.6778L15.2331 59.7483L15.7418 60.3983L14.3135 62.1836L16.3626 61.1924L16.8806 61.8577ZM17.4471 67.0927L16.848 66.5139L17.8689 65.456L17.0535 64.6683L16.0327 65.7256L15.4336 65.1478L17.737 62.7624L18.3361 63.3417L17.4925 64.2154L18.3079 65.0031L19.1515 64.129L19.7505 64.7088L17.4471 67.0927ZM22.4001 68.8301C22.0846 69.2642 21.7216 69.5205 21.3092 69.6015C20.8968 69.6805 20.4884 69.5739 20.0849 69.2825C19.6794 68.9872 19.4537 68.6311 19.4058 68.2118C19.3579 67.792 19.4888 67.3692 19.7999 66.9411C20.113 66.5104 20.4765 66.2536 20.8889 66.1706C21.3013 66.0877 21.7102 66.1928 22.1152 66.4877C22.5187 66.7805 22.7458 67.1361 22.7967 67.5539C22.8481 67.9708 22.7157 68.396 22.4001 68.8301ZM21.7058 68.3239C21.8218 68.1639 21.9043 68.0147 21.9527 67.8799C22.0021 67.7441 22.0248 67.6196 22.0218 67.507C22.0202 67.4021 21.9924 67.2992 21.9408 67.2077C21.8923 67.1251 21.8274 67.0531 21.7503 66.9961C21.6731 66.9392 21.5852 66.8984 21.4919 66.8764C21.3892 66.8578 21.2835 66.8632 21.1832 66.8922C21.0776 66.9218 20.9649 66.982 20.8474 67.0719C20.7289 67.1628 20.6113 67.2882 20.4958 67.4478C20.3763 67.6122 20.2928 67.7604 20.2469 67.8918C20.1999 68.0256 20.1782 68.1486 20.1817 68.2622C20.1856 68.3782 20.2118 68.479 20.2622 68.5634C20.3108 68.6482 20.3772 68.7215 20.4567 68.7783C20.5362 68.8352 20.627 68.8742 20.723 68.8928C20.8222 68.9131 20.9249 68.9057 21.0311 68.8736C21.1457 68.837 21.2563 68.7783 21.363 68.6973C21.4697 68.6158 21.5838 68.4908 21.7058 68.3239ZM30.4966 71.0017L28.4767 73.7614L27.6297 73.4206L27.9048 71.3192L26.6593 73.0285L25.8108 72.6853L26.275 69.2978L27.0766 69.6208L26.6677 71.8531L28.0159 70.0016L28.7819 70.3107L28.4377 72.5717L29.7168 70.6885L30.4966 71.0017ZM30.545 74.4849L32.4346 71.5375L33.3161 71.7568L33.6011 75.245L32.7689 75.0376L32.7309 74.3289L31.7209 74.077L31.356 74.6839L30.545 74.4849ZM32.6998 73.7041L32.6356 72.5623L32.0424 73.5401L32.6998 73.7041ZM38.0074 75.9344L37.2133 75.8228L36.2695 73.3559L35.9475 75.645L35.1933 75.5393L35.6546 72.2556L36.667 72.3978L37.4498 74.4261L37.7141 72.5445L38.4682 72.6507L38.0074 75.9344ZM40.6585 76.0045L40.5652 73.3219L39.5858 73.3554L39.5641 72.7238L42.3549 72.6275L42.3777 73.2581L41.3993 73.2922L41.4922 75.9744L40.6585 76.0045ZM45.1458 75.7714C44.8939 75.8065 44.6702 75.8134 44.4727 75.7917C44.2846 75.7718 44.0986 75.7362 43.9166 75.685L43.8069 74.9042L43.882 74.8938C44.0652 75.0089 44.2628 75.0909 44.4702 75.1393C44.6806 75.1862 44.8776 75.1956 45.0643 75.1699C45.1127 75.163 45.1725 75.1487 45.2485 75.1284C45.3111 75.1117 45.371 75.0867 45.4268 75.0539C45.4798 75.0225 45.525 74.9796 45.5592 74.9284C45.5931 74.8727 45.605 74.8063 45.5928 74.7422C45.5886 74.7032 45.5751 74.6658 45.5532 74.6333C45.5313 74.6008 45.5019 74.5741 45.4673 74.5555C45.3913 74.5115 45.3068 74.4842 45.2194 74.4755C45.0963 74.4611 44.9727 74.4504 44.849 74.4434C44.725 74.4354 44.6016 74.4196 44.4796 74.396C44.2124 74.3427 44.0139 74.2464 43.8815 74.1115C43.7491 73.9762 43.6681 73.793 43.6365 73.5663C43.5931 73.2591 43.6879 72.9915 43.922 72.7643C44.1556 72.5376 44.4672 72.3968 44.8579 72.3425C45.0533 72.3145 45.2511 72.3068 45.4481 72.3193C45.6318 72.3293 45.814 72.3591 45.9913 72.4082L46.097 73.1579L46.0244 73.1683C45.8753 73.0753 45.7119 73.0072 45.5409 72.9668C45.2944 72.9025 45.0352 72.9063 44.7907 72.9776C44.73 72.999 44.6719 73.0276 44.6179 73.0626C44.5692 73.0939 44.5286 73.1362 44.4993 73.186C44.4691 73.2346 44.4572 73.2924 44.4657 73.349C44.4696 73.3872 44.482 73.424 44.5022 73.4566C44.5224 73.4892 44.5498 73.5168 44.5823 73.5372C44.65 73.5787 44.7715 73.6068 44.9458 73.6216C45.0599 73.632 45.1695 73.6409 45.2752 73.6498C45.3809 73.6602 45.4945 73.6774 45.616 73.7011C45.855 73.7515 46.0402 73.8375 46.1716 73.9604C46.302 74.0839 46.3834 74.2592 46.4155 74.4874C46.461 74.8133 46.3701 75.0943 46.1414 75.3289C45.9153 75.5615 45.5819 75.7102 45.1458 75.7714ZM51.4387 74.2898L50.5216 71.7691L49.6005 72.1045L49.3842 71.5103L52.0086 70.5547L52.2249 71.1488L51.3039 71.4842L52.222 74.0049L51.4387 74.2898ZM56.6831 70.2994C56.9271 70.7784 56.9908 71.2175 56.8752 71.6229C56.7597 72.0254 56.4786 72.3415 56.0351 72.5672C55.5887 72.7959 55.1679 72.8344 54.7733 72.6867C54.3777 72.5381 54.0597 72.2294 53.8191 71.7583C53.5781 71.2832 53.5134 70.8431 53.626 70.4377C53.7391 70.0332 54.0187 69.7166 54.4651 69.4894C54.9086 69.2627 55.3299 69.2222 55.725 69.366C56.1216 69.5102 56.4401 69.8213 56.6831 70.2994ZM55.9176 70.688C55.8428 70.5349 55.747 70.393 55.6331 70.2663C55.5485 70.1714 55.4468 70.0931 55.3334 70.0356C55.2393 69.9885 55.1347 69.9665 55.0296 69.9719C54.9336 69.9775 54.8397 70.0023 54.7535 70.045C54.6617 70.0915 54.5886 70.1492 54.5308 70.2199C54.473 70.2905 54.4306 70.3838 54.4044 70.5014C54.3827 70.6095 54.3851 70.7379 54.4128 70.8821C54.4404 71.0288 54.4992 71.1898 54.5876 71.3656C54.6805 71.5474 54.7743 71.6886 54.8711 71.7904C54.9669 71.8916 55.0672 71.9662 55.1704 72.0161C55.2756 72.0654 55.3778 72.0882 55.4756 72.0812C55.5739 72.0753 55.6672 72.0506 55.7531 72.0072C55.8406 71.9617 55.9175 71.8982 55.9788 71.821C56.0416 71.742 56.0821 71.6461 56.1008 71.5375C56.1201 71.4126 56.1178 71.2853 56.0939 71.1612C56.0707 71.0313 56.0109 70.8727 55.9176 70.688ZM62.6658 66.9796C62.77 67.1075 62.8377 67.2398 62.8668 67.3762C62.8975 67.5125 62.8965 67.6448 62.8659 67.7762C62.8318 67.9278 62.7681 68.0712 62.6782 68.198C62.5883 68.3244 62.4545 68.4587 62.2752 68.6034L61.244 69.4381L59.1569 66.861L60.0671 66.1237C60.2562 65.9706 60.4059 65.8624 60.515 65.7977C60.6242 65.733 60.7402 65.6886 60.8617 65.6659C60.9951 65.6407 61.118 65.6521 61.2302 65.697C61.3433 65.7439 61.4435 65.8205 61.5309 65.9291C61.6322 66.0555 61.6914 66.1923 61.7072 66.3415C61.7241 66.4894 61.6944 66.6389 61.6223 66.7692L61.6327 66.782C61.8189 66.6872 62.0016 66.6507 62.1809 66.6763C62.3636 66.7035 62.5241 66.8043 62.6658 66.9796ZM60.9798 66.5919C60.9435 66.5479 60.8975 66.5129 60.8454 66.4897C60.7902 66.4635 60.7273 66.4585 60.6686 66.4758C60.6118 66.4906 60.5531 66.5227 60.4933 66.5687C60.4051 66.6369 60.3178 66.7064 60.2316 66.7771L60.1866 66.8131L60.6281 67.3584L60.7096 67.2917C60.8207 67.2018 60.8978 67.1376 60.9393 67.0996C60.9817 67.0611 61.0183 67.0117 61.0484 66.9519C61.0788 66.8945 61.0882 66.8283 61.0751 66.7647C61.0539 66.7019 61.0216 66.6434 60.9798 66.5919ZM61.9897 67.507C61.925 67.427 61.8593 67.3781 61.7912 67.3589C61.723 67.3396 61.6455 67.3455 61.5625 67.3737C61.4962 67.3982 61.4349 67.4343 61.3813 67.4804C61.3097 67.5327 61.2183 67.6088 61.1037 67.7006L60.9842 67.7969L61.5077 68.4424L61.5418 68.4143C61.7102 68.278 61.8253 68.1812 61.888 68.1273C61.9497 68.0735 62.0031 68.0044 62.0465 67.9209C62.0838 67.8553 62.0974 67.779 62.085 67.7046C62.0704 67.6318 62.0376 67.5638 61.9897 67.507ZM64.6146 66.5869L62.3112 64.2021L63.9247 62.6454L64.3647 63.0997L63.3469 64.0815L63.7509 64.5004L64.6872 63.5956L65.1273 64.0514L64.1899 64.9562L64.7717 65.5582L65.7901 64.5764L66.2306 65.0313L64.6146 66.5869ZM68.9607 61.8196L66.8869 59.0001L67.409 58.2559L70.7683 59.2396L70.2764 59.9424L69.6027 59.7246L69.0066 60.5785L69.4417 61.1366L68.9607 61.8196ZM69.0042 59.5286L67.9152 59.1789L68.6155 60.0832L69.0042 59.5286Z" fill="#BCBEC0"/>
<path d="M16.6419 61.737L13.5127 63.1174L12.9502 62.3979L14.2387 60.7162L12.3057 61.5721L11.7422 60.851L13.8387 58.1481L14.3706 58.8291L12.9008 60.5572L14.9943 59.6277L15.503 60.2782L14.0747 62.0625L16.1238 61.0713L16.6419 61.737ZM17.2088 66.9716L16.6093 66.3928L17.6301 65.3349L16.8147 64.5472L15.7939 65.6045L15.1948 65.0257L17.4982 62.6408L18.0973 63.2201L17.2538 64.0938L18.0692 64.8815L18.9127 64.0079L19.5122 64.5867L17.2088 66.9716ZM22.1619 68.709C21.8463 69.1431 21.4833 69.3999 21.0704 69.4804C20.658 69.5604 20.2496 69.4528 19.8461 69.1614C19.4406 68.8661 19.2154 68.5105 19.167 68.0907C19.1191 67.6714 19.25 67.2481 19.5611 66.8205C19.8742 66.3893 20.2377 66.1325 20.6501 66.0495C21.0625 65.967 21.4709 66.0722 21.8764 66.3666C22.2799 66.6604 22.5071 67.0155 22.5579 67.4329C22.6093 67.8507 22.4769 68.2754 22.1619 68.709ZM21.467 68.2023C21.583 68.0423 21.666 67.8936 21.7139 67.7578C21.7633 67.622 21.786 67.4975 21.7826 67.3849C21.7812 67.2798 21.7533 67.1767 21.7016 67.0852C21.6532 67.0023 21.5885 66.9303 21.5113 66.8734C21.4341 66.8164 21.3461 66.7759 21.2526 66.7543C21.1499 66.7355 21.0443 66.7407 20.944 66.7696C20.8217 66.8081 20.7078 66.8692 20.6081 66.9498C20.4896 67.0407 20.3721 67.1662 20.257 67.3252C20.137 67.4901 20.054 67.6378 20.0076 67.7702C19.9634 67.8886 19.9413 68.0141 19.9424 68.1406C19.9464 68.2556 19.9725 68.3569 20.0229 68.4413C20.0733 68.5258 20.1375 68.5974 20.215 68.6547C20.2945 68.7115 20.3839 68.7505 20.4837 68.7703C20.5825 68.7905 20.6857 68.7831 20.7919 68.751C20.9118 68.7124 21.0241 68.6532 21.1237 68.5762C21.2304 68.4952 21.345 68.3702 21.467 68.2023ZM30.2579 70.8801L28.2379 73.6398L27.3905 73.2981L27.6655 71.1966L26.4205 72.9059L25.572 72.5627L26.0358 69.1757L26.8373 69.4982L26.4284 71.7305L27.7767 69.879L28.5427 70.1886L28.1984 72.4491L29.4771 70.5665L30.2579 70.8801ZM30.3063 74.3638L32.1953 71.4174L33.0769 71.6372L33.3618 75.1249L32.5297 74.917L32.4916 74.2087L31.4817 73.9569L31.1167 74.5638L30.3063 74.3638ZM32.461 73.583L32.3973 72.4412L31.8042 73.419L32.461 73.583ZM37.7686 75.8143L36.9745 75.7022L36.0307 73.2353L35.7092 75.5244L34.9551 75.4182L35.4168 72.136L36.4293 72.2772L37.212 74.3055L37.4768 72.4239L38.2309 72.5296L37.7686 75.8143ZM40.4197 75.8835L40.3259 73.2017L39.347 73.2343L39.3253 72.6037L42.1162 72.5064L42.1384 73.138L41.159 73.1711L41.2519 75.8533L40.4197 75.8835ZM44.907 75.6504C44.6552 75.6854 44.4314 75.6928 44.2349 75.6706C44.0466 75.6513 43.8604 75.6158 43.6783 75.5644L43.5681 74.7836L43.6432 74.7732C43.8274 74.8888 44.024 74.9708 44.2324 75.0187C44.4418 75.0656 44.6394 75.076 44.8255 75.0493C44.8739 75.0424 44.9347 75.0286 45.0102 75.0078C45.073 74.9915 45.1331 74.9665 45.189 74.9337C45.2417 74.9021 45.2869 74.8593 45.3214 74.8083C45.3557 74.7527 45.3677 74.6862 45.355 74.6221C45.3509 74.5832 45.3373 74.5459 45.3154 74.5134C45.2935 74.481 45.2641 74.4544 45.2295 74.4359C45.1539 74.3915 45.0694 74.3642 44.9821 74.3559C44.8592 74.3407 44.7358 74.3297 44.6122 74.3228C44.488 74.3154 44.3644 74.2997 44.2423 74.2759C43.9756 74.2221 43.7756 74.1263 43.6442 73.991C43.5113 73.8556 43.4294 73.6724 43.3988 73.4457C43.3553 73.139 43.4501 72.8709 43.6842 72.6442C43.9173 72.417 44.2294 72.2767 44.6191 72.2224C44.815 72.1945 45.0133 72.1871 45.2108 72.2002C45.4088 72.2115 45.5915 72.2422 45.7535 72.2881L45.8597 73.0388L45.7866 73.0491C45.6373 72.9565 45.4741 72.8886 45.3031 72.8481C45.0565 72.7835 44.797 72.7872 44.5524 72.859C44.4917 72.8806 44.4337 72.9093 44.3796 72.9444C44.3307 72.9755 44.2902 73.0181 44.2615 73.0684C44.2311 73.1169 44.2188 73.1747 44.227 73.2314C44.2309 73.2695 44.2436 73.3062 44.2641 73.3386C44.2846 73.3709 44.3123 73.3982 44.345 73.4181C44.4112 73.4595 44.5322 73.4882 44.7075 73.503L45.0364 73.5316C45.1426 73.5415 45.2552 73.5583 45.3772 73.583C45.6167 73.6339 45.8019 73.7193 45.9333 73.8428C46.0637 73.9663 46.1447 74.1411 46.1763 74.3688C46.2019 74.5208 46.1903 74.6768 46.1426 74.8234C46.0949 74.9701 46.0124 75.103 45.9022 75.2108C45.6765 75.441 45.3441 75.5896 44.907 75.6504ZM51.2004 74.1687L50.2828 71.648L49.3627 71.9834L49.1464 71.3897L51.7698 70.4336L51.9862 71.0282L51.0656 71.3636L51.9827 73.8843L51.2004 74.1687ZM56.4453 70.1778C56.6883 70.6558 56.7525 71.0949 56.6374 71.5004C56.5219 71.9044 56.2408 72.2194 55.7964 72.4461C55.3509 72.6733 54.9301 72.7123 54.5345 72.5642C54.1394 72.416 53.8219 72.1073 53.5814 71.6372C53.3394 71.1606 53.2757 70.7215 53.3883 70.3156C53.5014 69.9116 53.7819 69.5945 54.2268 69.3668C54.6698 69.1407 55.0916 69.0997 55.4872 69.2439C55.8828 69.3896 56.2018 69.7007 56.4453 70.1778ZM55.6783 70.5679C55.5875 70.3921 55.4931 70.2494 55.3939 70.1462C55.3091 70.0512 55.2072 69.9729 55.0936 69.9155C54.9997 69.8686 54.8952 69.8467 54.7903 69.8518C54.694 69.8573 54.5998 69.8822 54.5133 69.9249C54.4277 69.9674 54.3519 70.027 54.2906 70.1002C54.2275 70.1833 54.1846 70.2798 54.1651 70.3822C54.1429 70.4899 54.1454 70.6178 54.173 70.763C54.2012 70.9097 54.2589 71.0712 54.3478 71.2465C54.4407 71.4268 54.535 71.568 54.6313 71.6698C54.7281 71.7715 54.8269 71.8451 54.9316 71.8955C55.0368 71.9458 55.138 71.9676 55.2358 71.9606C55.3341 71.9552 55.4284 71.93 55.5134 71.8871C55.6018 71.8426 55.6754 71.7809 55.7391 71.7009C55.8018 71.6219 55.8423 71.526 55.8616 71.4179C55.8818 71.2994 55.8798 71.1744 55.8546 71.0421C55.8319 70.9102 55.7727 70.7522 55.6783 70.5679ZM62.4266 66.8585C62.5308 66.9874 62.5984 67.1188 62.6281 67.2556C62.6582 67.3914 62.6577 67.5247 62.6271 67.6551C62.5928 67.8069 62.5285 67.9503 62.4379 68.0769C62.348 68.2033 62.2142 68.3381 62.0359 68.4828L61.0047 69.318L58.9171 66.7404L59.8273 66.0026C60.018 65.8495 60.1671 65.7418 60.2753 65.6776C60.3854 65.612 60.5 65.5685 60.6225 65.5448C60.7558 65.5196 60.8793 65.5319 60.9904 65.5764C61.1035 65.6228 61.2042 65.6994 61.2907 65.8085C61.3929 65.9344 61.4517 66.0713 61.468 66.2209C61.4843 66.37 61.4566 66.5118 61.383 66.6481L61.3944 66.6609C61.5796 66.5661 61.7628 66.5296 61.9411 66.5567C62.1233 66.5829 62.2848 66.6837 62.4266 66.8585ZM60.7405 66.4713C60.7039 66.4275 60.6578 66.3925 60.6057 66.3691C60.5504 66.3425 60.487 66.3377 60.4284 66.3557C60.3645 66.3743 60.3051 66.4055 60.2535 66.4476C60.1938 66.494 60.1059 66.5627 59.9913 66.656L59.9459 66.692L60.3884 67.2373L60.4694 67.1706C60.5805 67.0807 60.6575 67.0165 60.7 66.978C60.7452 66.9364 60.782 66.8864 60.8082 66.8308C60.8389 66.7735 60.8482 66.7072 60.8343 66.6437C60.8151 66.5804 60.7831 66.5218 60.7405 66.4713ZM61.7515 67.3859C61.6868 67.3064 61.6201 67.257 61.5519 67.2388C61.476 67.2199 61.3962 67.2249 61.3233 67.2531C61.2569 67.2778 61.1952 67.3137 61.141 67.3593C61.0704 67.4126 60.979 67.4877 60.8635 67.5795L60.7454 67.6758L61.268 68.3213L61.3025 68.2932C61.4714 68.1569 61.585 68.0611 61.6487 68.0067C61.7114 67.9534 61.7643 67.8833 61.8078 67.8003C61.8452 67.7348 61.8585 67.6582 61.8453 67.584C61.8312 67.5111 61.7989 67.443 61.7515 67.3859ZM64.3764 66.4663L62.073 64.0815L63.6869 62.5243L64.127 62.9796L63.1086 63.9614L63.5126 64.3802L64.45 63.4755L64.889 63.9303L63.9526 64.8351L64.5349 65.4376L65.5533 64.4568L65.9923 64.9111L64.3764 66.4663ZM68.7219 61.6985L66.6497 58.879L67.1712 58.1348L70.531 59.119L70.0391 59.8213L69.3649 59.605L68.7679 60.4574L69.2039 61.0155L68.7219 61.6985ZM68.7649 59.4075L67.6759 59.0578L68.3762 59.9621L68.7649 59.4075Z" fill="#FFFAFC"/>
<path d="M40.5344 3.0332C50.795 3.0332 60.1094 7.21776 66.8581 13.9665C73.6064 20.7152 77.7909 30.0276 77.7909 40.2888V40.2907C77.7909 50.5499 73.6064 59.8653 66.8572 66.614C60.1089 73.3627 50.7955 77.5473 40.5359 77.5473H40.5339C30.2737 77.5473 20.9594 73.3622 14.2106 66.6135C7.4619 59.8648 3.27784 50.5519 3.27734 40.2912V40.2888C3.27734 30.0291 7.4619 20.7147 14.2106 13.9655C20.9599 7.21677 30.2733 3.0332 40.5329 3.0332H40.5344ZM40.5354 3.43768H40.5329C30.3854 3.43818 21.1727 7.57631 14.4971 14.2519C7.82144 20.9276 3.68281 30.1407 3.68232 40.2888V40.2912C3.68281 50.4393 7.82144 59.6514 14.4966 66.3271C21.1722 73.0042 30.3854 77.1418 40.5339 77.1418H40.5359C50.6829 77.1413 59.8961 73.0032 66.5717 66.3276C73.2473 59.6519 77.3855 50.4388 77.386 40.2907V40.2883C77.385 30.1402 73.2468 20.9281 66.5717 14.2524C59.8961 7.57631 50.6834 3.43768 40.5354 3.43768Z" fill="#A49BC6"/>
<path d="M27.7131 12.405L27.7146 12.404L27.7151 12.403L28.6016 12L30.8388 14.8412L33.7329 19.7498L36.5732 24.5675L40.1043 31.3928L43.6454 39.0705L43.6469 39.0739L43.6498 39.0809L43.6513 39.0833L43.6528 39.0858L43.6553 39.0912L43.6582 39.0972L43.6592 39.1011H43.6602V39.1031L43.6612 39.1041C44.6235 41.1897 45.5614 43.2865 46.4748 45.394L47.3514 47.4208L48.1727 49.385L48.9273 51.2562L52.8304 60.9321L54.8192 67.9683L53.5939 68.5343L53.5929 68.5353L53.5904 68.5362L52.7039 68.9383L50.4677 66.097L47.5746 61.1889L44.7339 56.3707L41.2032 49.5469L37.6621 41.8683L37.6612 41.8643L37.6577 41.8569L37.6567 41.8544L37.6557 41.8525L37.6533 41.8455L37.6503 41.8386L37.6483 41.8352V41.8342V41.8332C34.1068 34.154 31.2092 27.0388 29.3903 21.7524L27.5363 16.3653L26.8281 12.8188L27.7107 12.4065L27.7117 12.4055L27.7131 12.405ZM27.883 12.7714L27.8811 12.7724C27.2198 13.085 27.9927 16.4473 29.7731 21.6211L31.5895 26.8996L34.4821 34.0029L38.0158 41.6677L38.0172 41.6707L38.0207 41.6776L38.0217 41.6806L38.0227 41.6836L38.0251 41.6895L38.0276 41.6949L38.0291 41.6994V41.7003L38.0296 41.7013V41.7023C41.5637 49.3677 45.0885 56.1781 47.9213 60.9845L50.7023 65.6999L52.7588 68.4706L53.4255 68.1678L54.4305 67.7046L52.3721 60.8734L48.5525 51.4078L47.8057 49.5563L46.9849 47.5962L46.1019 45.5565L45.2198 43.5203L44.281 41.4159L43.2918 39.2725L43.2908 39.2695L43.2878 39.2621L43.2858 39.2596L43.2849 39.2577L43.2819 39.2503L43.2779 39.2419L43.277 39.2389C39.7418 31.575 36.2186 24.7636 33.3847 19.9577L30.6047 15.2423L28.5483 12.4712L27.883 12.7714ZM38.0296 41.6979L38.0301 41.6989V41.6999M38.0296 41.6969C38.0296 41.6979 38.0296 41.6979 38.0296 41.6969V41.6969ZM37.6483 41.8342V41.8332V41.8342Z" fill="#849899"/>
<path d="M38.0997 9.66945L38.1135 9.66896L38.1145 9.66846L38.1155 9.66896H38.1165C38.2306 9.66303 38.3447 9.69513 38.4573 9.76378L38.5536 9.82304L38.6494 9.91095L38.7442 10.0245L39.1734 10.5456L39.6292 11.7096L40.089 13.3972V13.3997L40.09 13.4011L40.2856 14.1187L40.4836 14.9356L40.6817 15.8408L40.8772 16.7348L41.0753 17.725L41.2733 18.8026L42.2843 24.2989L43.2547 31.857L43.9461 40.1946L43.9471 40.2143L43.9491 40.2326L43.9526 40.277L44.6464 48.6728L44.9319 56.3268L44.8326 61.908L44.7314 67.5811L44.1862 71.1508L43.2256 71.2639V71.2649L43.1994 71.2679L43.2127 71.2669L43.2068 71.2679L43.2113 71.2669L43.195 71.2679H43.1915C42.2255 71.3163 41.101 67.8844 40.0653 62.3046L39.047 56.8128L38.0666 49.2166L37.3678 40.8247V40.8237L37.3673 40.8139L37.3638 40.7768L37.3614 40.7428L37.3599 40.724L37.3589 40.7042L37.3554 40.6603M38.1328 10.0734L38.1229 10.0739H38.1298L38.1328 10.0734C38.1353 10.0739 38.1343 10.0739 38.1328 10.0734C38.1336 10.0738 38.1344 10.074 38.1353 10.0739L38.1328 10.0734ZM38.1353 10.0739L38.1328 10.0734L38.1323 10.0739L38.1293 10.0734L37.4024 10.1525L36.9786 13.574L36.8813 19.0352L36.7821 24.5962L37.0675 32.2344L37.7614 40.6252V40.6262L37.7619 40.6366L37.7649 40.6721L37.7678 40.7067L37.7693 40.727L37.7708 40.7447L37.7742 40.7892L38.4731 49.1835L39.4504 56.7664L40.4639 62.2296L41.46 67.5989L42.4428 70.9029L43.1737 70.8614V70.8619H43.1767V70.8614L43.1871 70.8609H43.1767L43.1797 70.8604H43.1782L43.1767 70.8609L43.1737 70.8614H43.1767V70.8619H43.1801L43.9071 70.7824L44.3314 67.3609L44.4287 61.8992L44.5274 56.3382L44.242 48.6995L43.5481 40.3091L43.5471 40.2988L43.5441 40.2622L43.5412 40.2276L42.8493 31.8867L41.8823 24.3443L40.8762 18.8757L40.6822 17.8203L40.4846 16.834L40.2856 15.9268L40.0895 15.0314L39.8934 14.2214L39.6989 13.5078V13.5053L39.6984 13.5043L39.2524 11.8687L38.8237 10.756L38.4331 10.2818L38.3679 10.2028L38.3057 10.1446L38.2474 10.109L38.2064 10.0838L38.1688 10.072L38.1353 10.0739ZM38.1358 10.0734C38.1392 10.0724 38.1427 10.0724 38.1358 10.0734V10.0734ZM43.1747 70.8629C43.1668 70.8634 43.1708 70.8634 43.1747 70.8629V70.8629ZM37.3564 40.6583C36.6621 32.2625 36.3766 24.609 36.4764 19.0288L36.5776 13.3542L37.1214 9.78502L38.0839 9.67241V9.67143L38.1091 9.66797L38.0953 9.66945H38.0997" fill="#849899"/>
<path d="M48.792 10.6557L48.7945 10.6561L48.796 10.6571L49.7328 10.9214L49.6187 14.5345L48.6789 20.1523L47.7549 25.6683L46.0718 33.1623L43.8464 41.3126H43.8449L43.838 41.3378C43.8358 41.3453 43.8338 41.3529 43.8321 41.3605V41.363L41.6057 49.5153L39.249 56.8261L37.2424 62.0438L35.1977 67.3603L33.4598 70.5309L32.519 70.283H32.5175L32.515 70.282L32.5126 70.2811L32.5111 70.2801L31.5742 70.0168L31.6883 66.4037L32.6286 60.7864L33.5522 55.2699L35.2368 47.7754L37.4607 39.6241L37.4671 39.5989C37.4661 39.6019 37.4666 39.6014 37.4671 39.5989M48.6883 11.0463H48.6858L48.6833 11.0453C47.9751 10.8631 46.4051 13.934 44.442 19.0376L42.4394 24.2435L40.088 31.5394L37.8646 39.6789L37.8577 39.7036C37.8582 39.7021 37.8582 39.7016 37.8582 39.7041L37.8567 39.71L37.8577 39.7036C37.8567 39.7071 37.8557 39.7135 37.8518 39.7268V39.7293L35.6294 47.8707L33.9478 55.3509L33.0272 60.8496L32.1244 66.2432L31.9165 69.6869L32.6188 69.8904V69.8894L32.6212 69.8904H32.6232V69.8914C33.3314 70.0736 34.9019 67.0018 36.8646 61.8981L38.8667 56.6922L41.2185 49.3968L43.4419 41.2573C43.4449 41.2455 43.4478 41.2371 43.4488 41.2306C43.4488 41.2331 43.4478 41.2351 43.4488 41.2316V41.2306L43.4498 41.2297L43.4488 41.2316L43.4498 41.2321C43.4498 41.2287 43.4528 41.2218 43.4567 41.2089V41.2064L45.6791 33.0635L47.3593 25.5843L48.2804 20.0856L49.1827 14.6925L49.3906 11.2493L48.6883 11.0463ZM43.838 41.3378C43.839 41.3358 43.8405 41.3353 43.8395 41.3383L43.838 41.3378ZM43.838 41.3378C43.838 41.3383 43.839 41.3383 43.838 41.3378C43.838 41.3383 43.838 41.3383 43.838 41.3378ZM43.8375 41.3442L43.837 41.3452C43.8355 41.3521 43.8365 41.3492 43.837 41.3452M43.8375 41.3442C43.8385 41.3437 43.8375 41.3437 43.8375 41.3432V41.3442ZM43.4488 41.2306C43.4488 41.2301 43.4488 41.2301 43.4488 41.2306V41.2292C43.4488 41.2282 43.4498 41.2282 43.4498 41.2282L43.4488 41.2292M43.4498 41.2262L43.4508 41.2242C43.4508 41.2242 43.4508 41.2257 43.4498 41.2262ZM43.4498 41.2282V41.2297V41.2282ZM43.4488 41.2316C43.4488 41.2341 43.4488 41.2351 43.4488 41.2316V41.2316ZM43.8375 41.3442L43.837 41.3452L43.8375 41.3442ZM43.8385 41.3383C43.8395 41.3334 43.8395 41.3353 43.8385 41.3383V41.3383ZM37.4676 39.5994L37.4686 39.5964V39.5999L37.475 39.5767V39.5742L39.7008 31.4224L42.0581 24.1121L44.0642 18.8939L46.1093 13.5769L47.8482 10.4062L48.789 10.6547H48.791L48.7935 10.6557M37.469 39.5935C37.469 39.593 37.4695 39.593 37.469 39.5935C37.4695 39.593 37.4695 39.593 37.469 39.5935ZM37.4695 39.592C37.471 39.5856 37.4705 39.5885 37.4695 39.593V39.592ZM37.8558 39.713C37.8543 39.7184 37.8548 39.7164 37.8558 39.713V39.713ZM37.8572 39.7046C37.8582 39.7016 37.8582 39.7026 37.8572 39.7046V39.7046ZM37.4686 39.5999C37.4676 39.6038 37.4681 39.6019 37.4686 39.5999V39.5999Z" fill="#849899"/>
<path d="M58.5011 15.2373L58.5021 15.2378C58.5033 15.2389 58.5046 15.2397 58.5061 15.2403L58.5056 15.2408C58.512 15.2452 58.5184 15.2506 58.5283 15.259C59.275 15.87 57.9302 19.212 55.1483 24.125C52.3915 28.9945 48.2415 35.4633 43.3601 42.3626L43.3586 42.3651L43.3581 42.3661C43.3482 42.3794 43.3586 42.3641 43.3532 42.371C43.3556 42.3685 43.3551 42.3695 43.3463 42.3819L43.3433 42.3853C42.0166 44.2613 40.6678 46.1215 39.297 47.9656C38.0344 49.6662 36.7502 51.3508 35.4448 53.0188C29.0196 61.2235 23.9214 66.46 22.8097 65.6985L22.8077 65.6975L22.8067 65.6965L22.7939 65.6861C22.0382 65.0584 23.3831 61.7198 26.1621 56.8103C28.9193 51.9407 33.0688 45.472 37.9502 38.5727C37.9631 38.5539 37.9517 38.5702 37.9562 38.5648L37.9641 38.5544L37.9665 38.5509C39.2938 36.6756 40.6423 34.8154 42.0118 32.9707C43.2753 31.2704 44.5598 29.5859 45.865 27.9174C52.2902 19.7108 57.389 14.4763 58.5011 15.2373ZM58.2769 15.5746C58.2774 15.5751 58.2774 15.5751 58.2769 15.5746L58.2715 15.5712C57.3667 14.9311 52.4769 20.1276 46.1821 28.1648C44.8792 29.8308 43.5972 31.5129 42.3363 33.2107C40.969 35.0522 39.6228 36.9093 38.2979 38.7816C38.2836 38.8023 38.2984 38.7806 38.2895 38.7919C38.292 38.788 38.2945 38.7855 38.2841 38.8023L38.2816 38.8058C33.4027 45.7017 29.2596 52.158 26.5122 57.0108C23.8216 61.7623 22.4482 64.9241 23.0324 65.3621L23.0373 65.3651C23.9416 66.0061 28.8319 60.8087 35.1258 52.7724C36.3605 51.196 37.649 49.5064 38.9716 47.7256C40.2803 45.9659 41.632 44.1005 43.0094 42.1557C43.0173 42.1453 43.0173 42.1453 43.0154 42.1463L43.0243 42.1359L43.0267 42.1315C47.9057 35.2366 52.0487 28.7802 54.7961 23.9269C57.4872 19.1735 58.8622 16.0117 58.2769 15.5746ZM43.3586 42.3651L43.3581 42.3661L43.3586 42.3651ZM43.0213 42.1419L43.0193 42.1448C43.0201 42.1439 43.0208 42.1429 43.0213 42.1419ZM43.0178 42.1468C43.0159 42.1488 43.0178 42.1473 43.0178 42.1468V42.1468ZM22.7939 65.6861L22.8052 65.6965C22.7968 65.6901 22.7887 65.6831 22.781 65.6757L22.7939 65.6861ZM37.9571 38.5657L37.9586 38.5633L37.9591 38.5628L37.9606 38.5608C37.9621 38.5583 37.9636 38.5574 37.9606 38.5608" fill="#849899"/>
<path d="M66.0616 22.8754L66.0626 22.8769H66.0616C66.2448 23.147 66.1544 23.5658 65.8166 24.1131L65.5164 24.601L65.0106 25.2173L64.3242 25.9428L60.832 29.6311L52.5513 36.2445L42.5351 43.1809L42.5193 43.1912L42.5188 43.1908C40.6315 44.4984 38.7293 45.7846 36.8127 47.0489L34.975 48.2579L33.1827 49.4061L31.4626 50.4778L22.6055 55.9968L16.0173 59.1729L15.2483 58.0627L15.2459 58.0597L15.2454 58.0587C15.0621 57.7886 15.1525 57.3693 15.4908 56.822L15.7921 56.3346L16.2978 55.7183L16.9843 54.9933L20.4769 51.3036L28.7566 44.6896L38.7738 37.7518L38.7842 37.7439L38.7422 37.7715L38.7871 37.7409L38.7876 37.7414C40.6747 36.4335 42.5769 35.1475 44.4938 33.8838L46.332 32.6738L48.1242 31.5251L49.8439 30.4538L58.702 24.9353L65.2907 21.7598L66.0601 22.8705L66.0616 22.8754ZM65.7248 23.1011V23.0996C65.0832 22.1988 58.7143 25.4065 50.0577 30.8001L48.3697 31.851L46.5814 32.9973L44.718 34.2236L42.8468 35.4563L40.9355 36.7457L39.0128 38.0772L39.0089 38.0802L39.004 38.0836L39 38.0866L38.997 38.0891L38.9941 38.0906L38.9916 38.0925L38.9901 38.0935C29.0016 45.0126 20.7525 51.6018 17.2771 55.2703L16.6084 55.9765L16.1195 56.5707L15.8341 57.0339L15.5856 57.4349L15.4953 57.7085L15.5802 57.833L15.5817 57.834L15.5822 57.8355C16.2237 58.7358 22.5932 55.5286 31.2492 50.1355L32.9368 49.0841L34.7251 47.9378L36.5889 46.7106L38.4602 45.4784L40.371 44.1884L42.2936 42.8589L42.2981 42.8554L42.3094 42.8465L42.3163 42.8416L42.3193 42.8396L42.3203 42.8391L42.3213 42.8386C52.3083 35.921 60.5564 29.3333 64.0303 25.6648L64.699 24.9581L65.1875 24.3639L65.4719 23.9012L65.7218 23.4992L65.8117 23.2271L65.7268 23.1026L65.7248 23.1011ZM42.5341 43.1809C42.5341 43.1819 42.5341 43.1819 42.5341 43.1809L42.5312 43.1833L42.5297 43.1843L42.5331 43.1819M42.3035 42.8515L42.307 42.8485L42.3104 42.846L42.3139 42.8441C42.3101 42.8461 42.3066 42.8485 42.3035 42.8515ZM38.9941 38.092L38.9911 38.094L38.9896 38.095" fill="#849899"/>
<path d="M70.5464 32.6305L70.5469 32.6334L70.5479 32.6349L70.786 33.5777L67.5985 35.2831L62.2618 37.2738L57.0243 39.2276L49.6903 41.5113L41.5163 43.6551L41.5143 43.6561L41.4871 43.6635L41.4921 43.6625H41.4906L41.4763 43.6665L41.4713 43.6685L41.4615 43.6705C39.24 44.2537 37.0118 44.8107 34.7774 45.3422L32.6316 45.8499L30.5548 46.3156L28.5784 46.7324L18.3735 48.8842L11.1018 49.6122L10.7596 48.3054L10.7586 48.3034L10.7581 48.301L10.5195 47.3582L13.7075 45.6538L19.0442 43.6635L24.2822 41.7093L31.6157 39.4261L39.7897 37.2818L39.7912 37.2813L39.8174 37.2748L39.8134 37.2753L39.8154 37.2748L39.8307 37.2709L39.8351 37.2694L39.844 37.2674V37.2679C42.0654 36.6846 44.2936 36.1275 46.5281 35.5967L48.6739 35.0875L50.7502 34.6218L52.7281 34.2049L62.932 32.0541L70.2047 31.3262L70.5464 32.6305ZM70.1563 32.7327V32.7317L69.8758 31.661L62.7937 32.4942L52.8101 34.6L50.8598 35.0114L48.788 35.4762L46.6224 35.9898L44.4513 36.5049L42.2161 37.0635L39.9448 37.6581L39.9433 37.6591L39.9171 37.6655L39.9211 37.6645L39.9196 37.665L39.9043 37.6689L39.8998 37.6709L39.891 37.6729V37.6719C31.7303 39.8128 24.4116 42.0911 19.1865 44.0409L14.0596 45.9526L10.9724 47.4935L11.1522 48.2037V48.2047L11.4327 49.2754L18.5148 48.4417L28.4979 46.3359L30.4482 45.925L32.5204 45.4602L34.6856 44.9461L36.8566 44.431L39.0929 43.8729L41.3637 43.2778L41.3652 43.2768L41.3913 43.2704L41.3869 43.2714L41.3894 43.2709L41.4042 43.267L41.4086 43.265L41.4175 43.263H41.419C49.5782 41.1226 56.8979 38.8448 62.123 36.8941L67.2499 34.9818L70.3375 33.4414L70.1563 32.7327Z" fill="#849899"/>
<path d="M71.4241 43.3329C71.4236 43.3387 71.423 43.3444 71.4221 43.3502L71.3806 43.6722L71.0354 43.9324L70.4196 44.1325L69.8704 44.3102L69.0812 44.4559L68.0836 44.569L63.0313 45.1404L52.4847 44.8802L40.4046 43.7586C40.4545 43.763 40.4758 43.7655 40.2772 43.7482L40.2762 43.7477L31.8755 42.964L24.2862 41.9076L18.8141 40.8354L13.2433 39.7439L9.82422 38.5848L9.8825 37.6183V37.6163V37.6149V37.6183M71.0231 43.2998V43.2973H71.0221C71.0211 43.3072 71.0221 43.3023 71.0221 43.2973V43.2934L71.0735 42.5629L67.7784 41.5461L62.4179 40.4956L56.9517 39.4244L49.3768 38.3695L40.9973 37.5882V37.5902L40.6595 37.5595L41.1049 37.5986L40.9227 37.5813L28.8481 36.4572L18.3079 36.1955L13.2685 36.7654L12.298 36.875L11.5365 37.0153L11.0135 37.1852L10.5586 37.3333L10.3077 37.4835L10.2865 37.6336V37.6425L10.2356 38.3729L13.5302 39.3888L18.8917 40.4388L24.3588 41.51L31.9338 42.5644L40.3113 43.3467V43.3457L40.6496 43.3763L40.2036 43.3378L40.3854 43.3546L52.4615 44.4782L63.0017 44.7399L68.0406 44.171L69.0111 44.0603L69.7731 43.9206L70.2966 43.7497L70.7539 43.6015L71.0053 43.4504L71.0231 43.2998ZM71.0231 43.2973V43.2934V43.2973ZM9.882 37.6153C9.882 37.6099 9.88299 37.6144 9.88398 37.602C9.88398 37.5966 9.88496 37.5916 9.88595 37.5852L9.92694 37.2622L10.2727 37.0015L10.8885 36.8015L11.4382 36.6232L12.2269 36.477L13.2245 36.3639L18.2753 35.793L28.815 36.0522L40.8881 37.1738C40.8526 37.1699 40.857 37.1699 41.0323 37.1842L41.0328 37.1857L49.4336 37.9704L57.0229 39.0268L62.4944 40.099L68.0727 41.192L71.4937 42.3525L71.4261 43.3195C71.4256 43.325 71.4251 43.321 71.4241 43.3319V43.3329M10.2855 37.6415V37.64V37.6415ZM10.2855 37.6415C10.2855 37.6425 10.2855 37.6425 10.2855 37.6415V37.6415ZM71.0231 43.2934L71.0221 43.2973H71.0231" fill="#849899"/>
<path d="M68.5891 53.6802C68.5896 53.6797 68.5896 53.6802 68.5891 53.6802C68.5891 53.6797 68.5896 53.6797 68.5891 53.6802ZM68.5895 53.6782C68.5905 53.6757 68.591 53.6767 68.5895 53.6807L68.5846 53.691L68.4429 53.9883L68.0339 54.1202L67.3894 54.1009L66.8166 54.0836L66.0298 53.9533L65.0579 53.7202L60.1172 52.5354L50.2522 48.6659L39.2408 43.4516L39.2319 43.4472L39.2354 43.4492L39.2295 43.4462L39.2265 43.4452L37.0777 42.4268L35.0044 41.4149L33.0309 40.4237L31.0658 39.4365L29.1758 38.4571L27.3875 37.502L18.2079 32.5969L12.1758 28.4849L12.7181 27.2537C12.7161 27.2586 12.7171 27.2571 12.7181 27.2537L12.723 27.2418V27.2403C12.8657 26.945 13.2746 26.8146 13.9172 26.8339L14.4901 26.8512L15.2768 26.982L16.2487 27.2161L21.1889 28.3995L31.0535 32.2694L42.0658 37.4832H42.0668L42.0752 37.4872L42.0722 37.4862L42.0786 37.4881L42.0816 37.4901L44.2314 38.5075L46.3037 39.5194L48.2772 40.5106L50.2423 41.4979L52.1328 42.4762L53.9201 43.4328L63.0948 48.3345L69.1254 52.445L68.5895 53.6782ZM68.2177 53.5211C68.2177 53.5206 68.2182 53.5206 68.2177 53.5211L68.2187 53.5196L68.2216 53.5137C68.6804 52.5067 62.7219 48.5913 53.7295 43.7875L51.9763 42.8511L50.0907 41.8737L48.0959 40.8716L46.1101 39.874L44.0403 38.8636L41.9117 37.8556L41.8964 37.8487L41.8949 37.8482L41.8934 37.8472C30.9068 32.6472 21.0728 28.7881 16.1554 27.6088L15.2101 27.3821L14.451 27.2557L13.9063 27.2394L13.4332 27.225L13.1517 27.2818L13.087 27.4162L13.0855 27.4186V27.4196C12.6222 28.4246 18.5813 32.3415 27.5766 37.1459L29.3299 38.0823L31.2159 39.0591L33.2107 40.0612L35.1965 41.0593L37.2668 42.0693L39.3954 43.0773L39.4107 43.0847L39.4122 43.0852L39.4137 43.0862C50.4003 48.2866 60.2343 52.1462 65.1517 53.3241L66.097 53.5518L66.8561 53.6782L67.4013 53.6945L67.87 53.7078L68.1505 53.653L68.2177 53.5211ZM68.2182 53.5206L68.2187 53.5196L68.2182 53.5206ZM68.2177 53.5211C68.2177 53.5206 68.2182 53.5206 68.2177 53.5211V53.5211ZM12.7176 27.2542L12.72 27.2478C12.7195 27.25 12.7187 27.2522 12.7176 27.2542ZM12.723 27.2403C12.723 27.2408 12.723 27.2408 12.723 27.2403V27.2403Z" fill="#849899"/>
<path d="M62.3769 62.4515L62.3759 62.4525L62.3744 62.453C62.1403 62.6827 61.7112 62.6674 61.1131 62.4283C60.5817 62.2165 59.8873 61.8248 59.0527 61.2732C54.8172 58.47 46.8719 51.458 38.3077 42.7896L38.3072 42.7906C38.3047 42.7876 38.3126 42.7955 38.2968 42.7797C32.3541 36.7634 27.206 31.0572 23.6945 26.7038C20.1169 22.2683 18.2442 19.1747 18.9346 18.4868L18.9341 18.4863L18.9351 18.4853L18.9356 18.4848L18.9371 18.4843C19.1712 18.2541 19.6004 18.2699 20.1984 18.5085C20.7298 18.7204 21.4242 19.112 22.2584 19.6641C26.4943 22.4669 34.4397 29.4788 43.0039 38.1467L43.0078 38.1507L43.0088 38.1527C44.3428 39.5027 45.6639 40.8654 46.9721 42.2404C48.2024 43.533 49.4195 44.8381 50.6233 46.1553C56.5833 52.6798 60.8918 58.1045 62.1532 60.7023H62.1537L62.1561 60.7072V60.7082C62.208 60.8163 62.2574 60.9245 62.3028 61.0297C62.3502 61.1393 62.3878 61.2371 62.4164 61.3235C62.6001 61.853 62.5927 62.2362 62.3769 62.4515ZM62.0905 62.1666V62.1656L62.0924 62.1646C62.1868 62.0718 62.1645 61.8293 62.0337 61.4544C62.0029 61.3637 61.9685 61.2742 61.9304 61.1863C61.8929 61.0939 61.8465 60.9932 61.7936 60.8845L61.7897 60.8786V60.8776C60.5451 58.3154 56.2628 52.9243 50.3245 46.426C49.1225 45.1113 47.9077 43.8084 46.6802 42.5175C45.374 41.1441 44.0547 39.7833 42.7224 38.4352H42.7214L42.7174 38.4327L42.7169 38.4307C34.1725 29.783 26.2518 22.7908 22.0356 20.001C21.2257 19.4651 20.556 19.0868 20.0498 18.8848C19.6122 18.71 19.3287 18.668 19.2211 18.7712L19.2216 18.7717L19.2211 18.7722L19.2201 18.7727C18.701 19.2888 20.5718 22.1888 24.0096 26.4514C27.5141 30.796 32.6538 36.4928 38.5882 42.4997L38.5902 42.5017C38.5921 42.5051 38.5931 42.5051 38.5936 42.5061C38.5897 42.5012 38.5926 42.5041 38.5936 42.5061L38.5941 42.5071C47.139 51.1558 55.0592 58.1475 59.2754 60.9369C60.0858 61.4722 60.755 61.8515 61.2612 62.053C61.6998 62.2268 61.9823 62.2698 62.0905 62.1666ZM38.5936 42.5046C38.5941 42.5051 38.5941 42.5051 38.5936 42.5046V42.5046Z" fill="#849899"/>
<path d="M62.6152 18.7254L62.6167 18.7279L62.6992 18.8113L62.7506 18.9195L62.7728 19.0503L62.7901 19.162L62.7861 19.2914L62.7599 19.4366L62.6414 20.0988L62.0414 21.1997L61.0388 22.6437L61.0383 22.6447L61.0358 22.6482L60.6141 23.2552L60.1153 23.9313L59.5478 24.6671L58.9794 25.403L58.3487 26.1917L57.6593 27.0239L54.1029 31.3215L48.9326 36.92L42.9775 42.8139H42.9785L42.9765 42.8159H42.9755L41.8673 43.9132L40.7734 44.9805L39.6997 46.0112L38.6191 47.0493L37.5583 48.0519L36.5241 49.0139L31.1863 53.9818L26.4674 57.9624L23.2489 60.2401H23.2474L23.2439 60.2421L22.9234 60.4702L22.6098 60.6855L22.3046 60.8875L22.0048 61.0851L21.7238 61.2634L21.4625 61.4214L20.0328 62.2862L19.0658 62.5855L18.6929 62.2091L18.6919 62.2086L18.691 62.2072L18.5991 62.1143L18.5458 61.9908L18.5295 61.8387L18.5156 61.7108L18.529 61.5612L18.569 61.3913L18.7547 60.6036L19.5439 59.2647L20.8245 57.51L20.8255 57.509L21.2764 56.8911L21.7954 56.2121L22.3767 55.4792L22.9609 54.7433L23.5946 53.9699L24.2722 53.1644L27.7945 48.9769L32.7124 43.6811L38.3302 38.1211L38.3297 38.1206L38.3331 38.1177H38.3341L39.6794 36.7857L41.006 35.4977L42.3014 34.2615L43.6017 33.0214L44.873 31.8312L46.1057 30.6998L52.4553 24.8726L57.7906 20.5883L60.5301 19.122L60.5341 19.119L60.541 19.116L60.5449 19.1141L60.5489 19.1121L60.5509 19.1116H60.5518M62.3298 19.0118L62.3288 19.0113V19.0103C62.2167 18.8977 61.911 18.9457 61.4344 19.1378L61.3341 19.1783L61.2215 19.2281L61.0991 19.2864L60.9711 19.3472L60.8457 19.4109L60.7232 19.4761L60.7153 19.48L60.7711 19.4529L60.7124 19.4825L60.7114 19.482C58.001 20.934 52.6993 25.1956 46.3768 30.998L45.1451 32.1295L43.8749 33.3178L42.5775 34.5549L41.2771 35.797L39.9525 37.083L38.6171 38.4056L38.6142 38.4091L33.0132 43.9537L28.1036 49.2416L24.5808 53.4286L23.8889 54.2514L23.2573 55.0228L22.6918 55.7345L22.1243 56.4501L21.6092 57.1243L21.1519 57.7515L21.1509 57.7529L19.9014 59.4667L19.1354 60.7552L18.9621 61.4861L18.9325 61.612L18.9216 61.7172L18.9305 61.7982L18.9369 61.8555L18.9522 61.898L18.9774 61.9252L18.9779 61.9237L18.9784 61.9252V61.9262C19.1991 62.1484 19.9982 61.8343 21.2536 61.0752L21.5144 60.9172L21.791 60.7423L22.0814 60.5492L22.3663 60.3601L22.6765 60.1467L23.0098 59.9102H23.0108L23.0138 59.9082V59.9067L26.222 57.6354L30.9261 53.6686L36.2475 48.7171L37.2861 47.7506L38.3455 46.7495L39.4182 45.7193L40.4978 44.6822L41.5907 43.6174L42.6906 42.5294L42.6925 42.5269H42.6935L48.6343 36.645L53.7937 31.0568L57.3452 26.7661L58.0376 25.928L58.6668 25.1437L59.2248 24.4202L59.7819 23.6991L60.2753 23.03L60.6995 22.42H60.6985L60.6995 22.4185L60.7025 22.4156L61.6749 21.0155L62.2532 19.9675L62.3609 19.3654L62.3792 19.2657L62.3831 19.1822L62.3728 19.1155L62.3643 19.0696L62.352 19.035L62.3298 19.0118ZM62.6143 18.7254H62.6152H62.6143ZM60.5538 19.1101C60.6916 19.0365 60.8171 18.9733 60.9262 18.9205L61.0477 18.8632L61.1672 18.8103L61.2828 18.7629L61.9214 18.5056L62.3742 18.4844L62.6128 18.7249" fill="#A498A4"/>
<path d="M68.3629 27.7238L68.3619 27.7229L68.0532 27.0601L64.689 27.8295L59.5128 29.606L54.2323 31.4175L47.124 34.3032L39.4582 37.8289L39.4557 37.8304L39.4488 37.8334L39.4463 37.8348L39.4444 37.8358L39.436 37.8393L39.4281 37.8427L39.4256 37.8442C31.7563 41.37 24.9419 44.8873 20.1326 47.7157L15.4146 50.4907L12.642 52.5438L12.9443 53.212M68.7289 27.553L68.7294 27.5544V27.5554L69.2939 28.7817L63.2094 32.8359L53.9533 37.6506L52.1704 38.5781L50.2695 39.5362L48.2777 40.5091L46.3008 41.4742L44.2151 42.4634L42.0466 43.461L42.0446 43.4625L42.0377 43.4664L42.0347 43.4674L42.0327 43.4684L42.0238 43.4724L42.0159 43.4758L42.013 43.4773C34.3279 47.01 27.2102 49.9016 21.9248 51.7146L16.5342 53.5636L12.9873 54.2679L12.5759 53.3848V53.3838L12.5754 53.3824L12.5744 53.3809L12.5739 53.3794L12.1719 52.4929L15.0151 50.2596L19.9271 47.369L24.7478 44.5337L31.5765 41.0094L39.2582 37.4763L39.2601 37.4743L39.2671 37.4713L39.2695 37.4699L39.2715 37.4694L39.2789 37.4654L39.2868 37.462L39.2893 37.461C46.9739 33.9278 54.0925 31.0362 59.3764 29.2232L64.7675 27.3747L68.3155 26.6699L68.7269 27.553H68.7289ZM12.9443 53.212L13.2534 53.8757L16.6177 53.1063L21.7954 51.3293L27.0774 49.5178L34.1842 46.6312L41.85 43.1059L41.852 43.1044L41.8594 43.101L41.8619 43.1L41.8638 43.098L41.8727 43.095L41.8806 43.0906L41.8846 43.0896C43.9684 42.131 46.0411 41.1489 48.1024 40.1427L50.0912 39.1698L51.9896 38.2126L53.7681 37.2876L62.8212 32.5786L68.8257 28.7264L68.3644 27.7194" fill="#A498A4"/>
<path d="M32.7871 10.582L32.7891 10.5815L32.7896 10.5805L33.1071 10.5L33.4711 10.7292L33.8711 11.2349L34.2262 11.6843L34.6332 12.3708L35.0811 13.2662L37.3549 17.8103L40.7443 27.8452L43.8448 39.626L43.8483 39.6368L43.8513 39.6472L43.8527 39.6522L43.8532 39.6536V39.6546C44.4385 41.8753 44.9976 44.1028 45.5304 46.3367L46.0426 48.487L46.5098 50.5617L46.9281 52.5338L49.0907 62.7371L49.8256 70.0079L48.5198 70.3521H48.5154V70.3531L48.1963 70.4336L47.8333 70.2049L47.4323 69.6987L47.0772 69.2498L46.6703 68.5628L46.2228 67.6679L43.949 63.1248L40.5591 53.0884L37.4581 41.3076L37.4542 41.2943L37.4507 41.2809C35.3009 33.1118 33.6844 25.6035 32.8108 20.0796L31.9223 14.4584L31.8398 10.8462L32.7762 10.5854L32.7802 10.5835L32.7871 10.582ZM32.8888 10.9721L32.8873 10.9731L32.8868 10.9736L32.8824 10.9751C32.1821 11.184 32.3594 14.6258 33.2118 20.0174L34.0825 25.5235L35.6965 33.0175L37.8448 41.1782L37.8453 41.1812L37.8497 41.1985L37.8502 41.2024L37.8507 41.2054L40.9448 52.957L44.3229 62.9638L46.5873 67.4876L47.0224 68.3564L47.414 69.0191L47.7538 69.4478L48.0482 69.8202L48.2734 69.999L48.4186 69.9619V69.9629L48.4195 69.9624V69.9619L49.4903 69.6799L48.6502 62.5993L46.5359 52.6187L46.1211 50.664L45.6554 48.5917L45.1403 46.432L44.6217 44.2659L44.0611 42.0316L43.4626 39.7569L43.4621 39.7544L43.4571 39.7361L43.4562 39.7336L43.4552 39.7307L40.3616 27.9785L36.983 17.9718L34.7186 13.4479L34.2845 12.5792L33.8924 11.9169L33.5536 11.4877L33.2597 11.1159L33.0345 10.9376L32.8893 10.9746L32.8888 10.9721Z" fill="#A498A4"/>
<path d="M43.4908 9.6956L43.5012 9.69708H43.5042L43.8272 9.73659L44.0874 10.0813L44.2889 10.6972L44.4677 11.2459L44.6149 12.0331L44.7285 13.0297L45.3053 18.082L45.0559 28.638L43.9442 40.7294C43.9492 40.6835 43.9521 40.6612 43.9343 40.8435L43.9329 40.844L43.157 49.2442L42.1095 56.8345L41.0427 62.308L39.9552 67.8873L38.7981 71.3103L37.8306 71.2441V71.2436C37.8227 71.2426 37.8316 71.2426 37.8188 71.2417H37.8153L37.8054 71.2402H37.8025L36.8409 71.1226L36.3292 67.549L36.2794 61.8715L36.2305 56.3056L36.5846 48.6688L37.354 40.2844L37.3649 40.1659L37.3777 40.0246L37.3382 40.4489L37.3693 40.0923L37.3708 40.0918L38.1467 31.6921L39.1957 24.1023L40.2624 18.6287L41.3504 13.0495L42.5071 9.62695L43.4746 9.69313C43.4825 9.69412 43.4736 9.69412 43.4864 9.69511L43.4908 9.6956ZM43.9042 10.8216L43.7556 10.3678L43.6044 10.1184L43.4533 10.0986H43.4454L42.715 10.0482L41.7021 13.3438L40.6605 18.7053L39.5947 24.1724L38.5477 31.7484L37.7738 40.1279H37.7753L37.7481 40.4346L37.7847 40.0118L37.7669 40.2029L37.756 40.321L36.9891 48.6817L36.6359 56.3051L36.6848 61.868L36.7327 67.3243L37.1254 70.7483L37.8509 70.8411H37.8583L38.5887 70.892L39.6011 67.5964L40.6462 62.2359L41.7114 56.7683L42.7589 49.1919L43.5318 40.8124H43.5299L43.558 40.5052L43.522 40.9279L43.5392 40.7373L44.6524 28.6572L44.9033 18.1131L44.3275 13.0766L44.2163 12.1067L44.0756 11.3451L43.9042 10.8216Z" fill="#A498A4"/>
<path d="M53.6811 12.8902L53.6801 12.8897C53.6772 12.8887 53.6762 12.8877 53.6742 12.8877L53.6737 12.8872C53.0075 12.5855 50.9278 15.3368 48.1083 20.0212L45.231 24.8028L41.646 31.5822L38.0427 39.2129L38.0358 39.2278L38.0353 39.2297L38.0348 39.2307L38.0309 39.2391L38.0319 39.2357L38.0294 39.2416L38.0279 39.2451L34.4242 46.8783L31.4669 53.955L29.603 59.2147L27.7757 64.3707L26.9727 67.726L27.631 68.0451C27.6325 68.0457 27.634 68.0468 27.6354 68.0475C28.6424 68.5063 32.5519 62.5434 37.3479 53.546L38.2828 51.7923L39.2577 49.9052L40.2578 47.9095L41.2529 45.9237L42.2619 43.8524L43.2669 41.7228L43.2748 41.7075L43.2758 41.706L43.2768 41.704L43.2807 41.6956L43.2797 41.6986L43.2817 41.6927L43.2837 41.6892L46.8885 34.0565L49.8443 26.9793L51.7071 21.7201L53.532 16.5665L54.3355 13.2127L53.6811 12.8902ZM53.6811 12.8902L53.6801 12.8897L53.6811 12.8902ZM53.6747 12.8872C53.6747 12.8867 53.6747 12.8867 53.6747 12.8872V12.8872ZM53.8481 12.5213L53.8491 12.5218L53.85 12.5222L53.853 12.5237H53.854L53.8545 12.5242C54.7306 12.9475 53.9898 16.486 52.0889 21.8554L50.2216 27.125L47.2603 34.2145L43.6497 41.8596V41.8606L43.6492 41.8616M53.8491 12.5218L53.85 12.5222L53.8491 12.5218ZM43.6487 41.8636L43.6418 41.8784L43.6378 41.8878L43.6388 41.8838L43.6363 41.8887L43.6353 41.8922L42.6194 44.0425L41.6095 46.1163L40.6203 48.0908L39.6355 50.0569L38.6581 51.9479L37.7049 53.7362L32.8097 62.9212L28.7047 68.9573L27.472 68.4165C27.4749 68.4179 27.4759 68.4179 27.472 68.4165L27.4601 68.412L27.4596 68.4115V68.4105H27.4571C26.581 67.9868 27.3213 64.4482 29.2232 59.0794L31.0905 53.8088L34.0528 46.7198L37.662 39.0752L37.6689 39.0599L37.6694 39.0584L37.6699 39.0569L37.6733 39.0485L37.6723 39.052L37.6748 39.046L37.6763 39.0431L41.2875 31.396L44.8799 24.6028L47.7631 19.8123L50.7016 14.9299L52.965 12.1094L53.8471 12.5208M27.632 68.0461C27.632 68.0466 27.632 68.0466 27.632 68.0461V68.0461Z" fill="#A498A4"/>
<path d="M71.4576 37.9428V37.9438C71.4576 37.9443 71.4566 37.9453 71.4576 37.9566L71.4753 38.2816L71.1815 38.5987L70.6106 38.9034L70.1014 39.175L69.3507 39.456L68.3901 39.7405L63.5053 41.1855L53.0431 42.7664L40.925 43.7611H40.9241L40.8416 43.7675L38.4927 43.9596L36.1928 44.1201L33.9723 44.2505L31.7667 44.3794L29.6436 44.4762L27.633 44.5429L17.2341 44.8851L9.96731 44.3389L9.85421 42.9946V42.9926V42.9966L9.85372 42.9813L9.83594 42.6568L10.1293 42.3387L10.7007 42.0345L11.2099 41.7619L11.9601 41.4824L12.9206 41.1979L17.805 39.7528L28.2672 38.172L40.3857 37.1783M71.0521 37.9754C71.0521 37.9685 71.0521 37.9729 71.0521 37.9754V37.9754ZM71.0521 37.9754C71.0521 37.9774 71.0521 37.9784 71.0521 37.9754L70.9612 36.875L63.8638 36.4646L53.6891 36.8005L51.6934 36.8667L49.5732 36.9635L47.3607 37.0924L45.1624 37.2208L42.866 37.3813L40.5008 37.5749L40.4924 37.5754L40.4539 37.5788L40.4183 37.5818L28.319 38.573L17.889 40.1474L13.0337 41.5836L12.0974 41.8612L11.3729 42.1313L10.8894 42.3886L10.4676 42.6133L10.2503 42.8045L10.2587 42.958V42.9605C10.2582 42.958 10.2587 42.9585 10.2587 42.9605L10.2592 42.9615L10.3496 44.0623L17.448 44.4727L27.6207 44.1369L29.6169 44.0707L31.7366 43.9739L33.9501 43.8445L36.1488 43.7166L38.4448 43.5561L40.81 43.3615L40.8184 43.361L40.8569 43.3576L40.8924 43.3546L52.9913 42.3629L63.4213 40.7885L68.2761 39.3523L69.2124 39.0752L69.9369 38.8051L70.4204 38.5473L70.8422 38.3221L71.061 38.1305L71.0521 37.9779V37.9754ZM40.925 43.7601H40.9241H40.925ZM10.2587 42.9605C10.2587 42.964 10.2587 42.9674 10.2587 42.9605V42.9605ZM40.3862 37.1758C40.4139 37.1737 40.4416 37.1711 40.4692 37.1679L42.8176 36.9758L45.118 36.8153L47.3384 36.6859L49.5446 36.5575L51.6677 36.4602L53.6778 36.3935L64.0767 36.0508L71.3435 36.5975L71.4566 37.9413" fill="#A498A4"/>
<path d="M70.4615 48.6361L70.4611 48.6386L70.4601 48.6406L70.3702 48.9562L69.9894 49.1562L69.3503 49.249L68.7819 49.332L67.9843 49.3409L66.9882 49.2806L61.9156 48.9715L51.5315 46.875L39.7838 43.6545L39.7833 43.6535H39.7824L39.7769 43.651L39.7611 43.6471H39.7596L31.6128 41.4138L24.304 39.0501L19.0848 37.0371L13.7702 34.9876L10.6016 33.2481L10.851 32.3078V32.3063L10.8515 32.3039L10.852 32.3009L10.8524 32.2994L10.9418 31.9833L11.3226 31.7833L11.9612 31.6905L12.5311 31.608L13.3282 31.5996L14.3239 31.6604L19.3964 31.969L29.7805 34.066L41.5287 37.2855L41.5297 37.2865L41.5307 37.287L41.5371 37.2885L41.5519 37.2924H41.5539L49.7007 39.5257L57.009 41.8904L62.2287 43.9034L67.5428 45.952L70.7114 47.6924L70.4615 48.6322V48.6361ZM70.0704 48.5329L70.0714 48.53V48.5265L70.0724 48.527C70.2551 47.8183 67.1852 46.2458 62.0835 44.2777L56.8826 42.2716L49.5891 39.9139L41.4482 37.6811L41.423 37.6737L29.7025 34.4621L19.3505 32.3705L14.3011 32.0634L13.3277 32.0041L12.5573 32.012L12.0195 32.0895L11.5528 32.1577L11.2856 32.2619L11.2431 32.4056L11.2426 32.4081L11.2421 32.4105C11.0589 33.1192 14.1283 34.6927 19.2305 36.6608L24.4309 38.6664L31.7249 41.0256L39.8658 43.2579L39.8905 43.2663V43.2653L51.611 46.4774L61.963 48.568L67.0129 48.8757L67.9863 48.9349L68.7577 48.9275L69.296 48.8505L69.7617 48.7828L70.0294 48.6771L70.0704 48.5329Z" fill="#A498A4"/>
<path d="M65.8669 58.3377L65.8659 58.3387L65.8654 58.3392L65.8649 58.3407L65.8516 58.358L65.8506 58.3585L65.8496 58.3599C65.654 58.6128 65.2332 58.6661 64.6149 58.5382L64.0544 58.4217L63.3032 58.157L62.3861 57.7579L57.7264 55.733L48.6847 50.2076L38.7455 43.1596L38.745 43.1586M65.5315 58.112C65.5296 58.114 65.5296 58.115 65.5306 58.113V58.1135L65.5315 58.112ZM64.6969 58.1417L65.1547 58.2365L65.4397 58.2296L65.5306 58.112V58.1115L65.5335 58.1081L65.5365 58.1041L65.5394 58.0987L65.5404 58.0977C65.936 57.4858 63.5921 54.9601 59.4836 51.3776L55.2798 47.7096L49.2299 42.9932L42.3434 38.1103V38.1113L42.333 38.1034L42.334 38.1039L42.3355 38.1049L42.3251 38.0975L42.3221 38.0935L35.4346 33.2106L28.9807 29.0626L24.1265 26.3093L19.376 23.6132L16.2162 22.2363L15.7781 22.8216L15.7766 22.824L15.7747 22.827L15.7727 22.8305L15.7717 22.8309V22.8319C15.7717 22.8321 15.7717 22.8318 15.7717 22.8319C15.7716 22.8321 15.7715 22.8325 15.7714 22.8326C15.7713 22.8327 15.7715 22.8326 15.7714 22.8326C15.7713 22.8327 15.7708 22.8329 15.7707 22.8329C15.3697 23.4414 17.7136 25.968 21.8241 29.553L26.0279 33.221L32.0773 37.9364L38.9643 42.8208L38.9648 42.8213L38.9885 42.8381L38.9594 42.8169L38.9781 42.8292L38.9786 42.8302L48.8965 49.8619L57.9106 55.3715L62.5481 57.386L63.44 57.7732L64.1655 58.0295L64.6969 58.1417ZM38.7455 43.1606C38.746 43.1616 38.746 43.1621 38.7455 43.1606V43.1606ZM38.744 43.1596C38.7416 43.1586 38.744 43.1596 38.7455 43.1606L38.744 43.1596ZM38.744 43.1596L38.7292 43.1492L31.8328 38.2589L25.7726 33.5346L21.5584 29.8582L17.2706 26.1172L14.8906 23.3989L15.4423 22.5978C15.4413 22.5988 15.4413 22.5993 15.4423 22.5978L15.4477 22.5894L15.4536 22.5806L15.4665 22.5677C16.0848 21.8274 19.4219 23.1747 24.327 25.9586L29.1906 28.7184L35.6544 32.8748L42.5523 37.7651L42.5528 37.7641L42.5725 37.7774L42.5538 37.7656L42.5612 37.771L42.572 37.7784L42.5755 37.7814L49.4734 42.6722L55.5346 47.398L59.7493 51.0749L64.0376 54.8154L66.4175 57.5342L65.8684 58.3352C65.8689 58.3352 65.8693 58.3357 65.8684 58.3367M15.4418 22.5973C15.4418 22.5969 15.4418 22.5969 15.4418 22.5973V22.5973ZM15.7712 22.8305V22.8314V22.8305ZM15.7722 22.83L15.7712 22.8305L15.7722 22.83ZM42.3355 38.1068C42.3355 38.1073 42.336 38.1073 42.3355 38.1068C42.336 38.1073 42.3369 38.1088 42.3355 38.1068Z" fill="#A498A4"/>
<path d="M58.2228 65.8933L58.2218 65.8938C57.9516 66.0766 57.5323 65.9867 56.9856 65.6474C56.4977 65.3466 55.8823 64.8389 55.1578 64.1529C51.4726 60.6568 44.8666 52.3707 37.9395 42.3461C37.9326 42.3357 37.9608 42.3792 37.9292 42.3328C33.1213 35.3742 29.044 28.862 26.344 23.9663C23.5911 18.9757 22.2844 15.6031 23.0839 15.046L23.0874 15.044L23.0884 15.043L23.0894 15.0425L23.0899 15.043C23.8959 14.4978 26.5865 16.9098 30.2781 21.2465C33.9007 25.5012 38.5519 31.6193 43.3627 38.5789L43.3716 38.5907L43.3726 38.5902L43.3746 38.5937V38.5957C44.3231 39.9668 45.2597 41.3463 46.1842 42.7338C47.0628 44.0507 47.9301 45.3752 48.7859 46.707C53.0495 53.3456 56.2517 59.0083 57.6746 62.3878L57.678 62.3933C57.7896 62.657 57.8879 62.9025 57.9739 63.1277C58.0628 63.3603 58.1388 63.5786 58.2065 63.7816C58.5709 64.9051 58.5951 65.6375 58.2277 65.8909L58.2228 65.8933ZM57.9976 65.557L57.9986 65.556C58.1951 65.4148 58.124 64.8404 57.8203 63.905C57.7556 63.7075 57.681 63.4946 57.5956 63.2689C57.5067 63.0363 57.4109 62.7953 57.3066 62.5479L57.3032 62.5424C55.8907 59.1851 52.6993 53.5456 48.4451 46.9238C47.5914 45.5937 46.7257 44.2712 45.8484 42.9565C44.9243 41.5715 43.9889 40.194 43.0422 38.8243L43.0392 38.8214V38.8199L43.0308 38.807C38.2339 31.8662 33.5905 25.76 29.9695 21.5078C26.4205 17.3405 23.9191 14.9635 23.3156 15.3774L23.3151 15.3779L23.3146 15.3789L23.3141 15.3793C22.7185 15.8031 24.0573 18.9821 26.6991 23.7707C29.3956 28.659 33.4671 35.1613 38.2655 42.1056L38.2689 42.11L38.2744 42.1199L38.2769 42.1234L38.2788 42.1268C45.1886 52.1242 51.7699 60.3827 55.4364 63.8611C56.1426 64.5303 56.7362 65.0207 57.1975 65.3066C57.5985 65.5555 57.8711 65.6464 57.9951 65.5615L57.9976 65.557ZM38.2759 42.1219L38.2778 42.1254L38.2759 42.1219ZM38.2734 42.1184L38.2759 42.1219L38.2734 42.1184Z" fill="#A498A4"/>
<path d="M38.4722 17.5635C40.4423 14.9662 42.758 12.5023 45.1563 11.482C49.0144 9.83987 52.6572 11.7684 53.0098 15.9485C53.1935 18.1161 52.4557 20.5015 51.2699 22.0108C49.531 24.2228 46.3342 25.8961 44.5592 27.3663C43.2381 28.4588 43.1413 28.9368 42.9235 30.5429C42.7635 31.7213 42.7082 32.9342 42.7487 34.1921L39.9385 36.1715C39.8971 34.2627 39.9489 32.3534 40.0931 30.5503C40.18 29.4608 40.3272 28.5235 40.547 27.8385C40.9381 26.6166 41.6478 25.9351 43.2746 24.7661C44.9212 23.5828 47.1421 22.2197 48.4978 20.9589C49.7142 19.8279 50.859 18.208 51.1262 16.5081C51.3213 15.2729 50.9998 14.1074 50.2683 13.3671C49.6214 12.7147 48.6549 12.3932 47.4394 12.6475C46.6339 12.8164 45.8304 13.2076 45.1795 13.7419C43.6218 15.0206 42.2133 17.1896 40.7347 19.781C39.98 19.094 39.2259 18.2495 38.4722 17.5635ZM37.0124 42.254L37.7453 43.2042L34.5376 44.836C35.5164 45.92 36.2325 47.2303 37.0331 48.5054C36.1486 48.8255 35.5555 49.0847 34.6704 49.4043C34.4398 48.0866 33.9672 46.9231 33.0051 45.6153L27.3809 48.4758C28.2773 51.1832 28.9825 54.2205 25.2681 55.4171C22.2254 56.3965 19.6938 55.2892 17.707 53.3967L14.003 55.2808L13.2701 54.3306L16.858 52.5058C15.3695 50.797 14.2484 48.7425 13.4992 46.727C14.3319 46.6687 15.2455 46.6159 16.0777 46.5561C16.341 48.1987 16.7237 49.9791 18.1149 51.7803L18.1633 51.842L24.2992 48.7213C23.4181 46.1838 22.7795 43.5035 26.2643 42.3805C28.3667 41.7034 31.4707 41.9923 33.6876 43.9455L37.0124 42.254ZM24.6967 49.8414L19.0093 52.7344C20.5038 54.0516 22.4758 54.6349 24.1051 54.1104C25.8746 53.5404 25.3951 51.8213 24.6967 49.8414ZM26.9997 47.3478L32.1823 44.7115C30.9723 43.6961 29.0211 43.0556 27.2663 43.6206C25.9808 44.0354 26.3882 45.5328 26.9997 47.3478ZM41.3584 44.0359L42.2518 43.2358L44.1127 46.3171C45.1232 45.2627 46.3781 44.4537 47.592 43.5618C47.9738 44.4211 48.2766 44.994 48.6588 45.8534C47.3614 46.1793 46.2354 46.7344 45.0012 47.7883L48.2627 53.1903C50.898 52.0998 53.8756 51.1778 55.3379 54.7954C56.536 57.7591 55.6155 60.3633 53.8706 62.4824L56.018 66.0398L55.1236 66.8394L53.0429 63.3927C51.4472 65.0012 49.4776 66.267 47.5224 67.1614C47.4039 66.3351 47.2854 65.4279 47.1653 64.6012C48.7847 64.2204 50.5316 63.7092 52.2285 62.1906L52.2853 62.1392L48.7284 56.2449C46.2626 57.3067 43.6342 58.1384 42.2622 54.744C41.4345 52.6964 41.4972 49.5796 43.2855 47.2268L41.3584 44.0359ZM49.8169 55.7698L53.114 61.233C54.3195 59.6466 54.7586 57.6381 54.1171 56.0513C53.4207 54.3272 51.7406 54.9297 49.8169 55.7698ZM47.1624 53.653L44.1577 48.6758C43.2336 49.9569 42.7363 51.9497 43.4272 53.658C43.933 54.909 45.3963 54.3943 47.1624 53.653ZM43.3127 38.2201L42.5951 37.2595L45.8279 35.6782C44.8669 34.5788 44.1715 33.2582 43.3897 31.9697C44.2792 31.6645 44.8768 31.4146 45.7662 31.1089C45.9771 32.43 46.4315 33.6014 47.3718 34.9235L53.0409 32.1514C52.187 29.4302 51.5292 26.382 55.2623 25.2447C58.3199 24.3122 60.8337 25.4595 62.7909 27.3831L66.5241 25.5583L67.2416 26.5184L63.6265 28.2869C65.0879 30.0194 66.1769 32.0912 66.8945 34.1185C66.0608 34.1639 65.1466 34.2025 64.312 34.2479C64.0754 32.6013 63.7209 30.8165 62.3578 28.9926C62.3425 28.9719 62.3272 28.9512 62.3099 28.9304L56.1261 31.9544C56.9662 34.5047 57.5633 37.1958 54.0603 38.2636C51.9485 38.9076 48.8485 38.5693 46.6626 36.5819L43.3127 38.2201ZM55.7463 30.8279L61.4777 28.0247C60.0045 26.6838 58.0409 26.0699 56.4042 26.5687C54.6262 27.1105 55.0786 28.8381 55.7463 30.8279ZM53.4044 33.2854L48.1812 35.8396C49.3754 36.8738 51.3173 37.5445 53.0794 37.0067C54.3709 36.6131 53.9867 35.1102 53.4044 33.2854ZM38.8906 36.8511L37.9883 37.6423L36.1595 34.5427C35.1391 35.5873 33.8763 36.3839 32.6525 37.2625C32.2791 36.4002 31.9833 35.8238 31.6094 34.9606C32.9098 34.6484 34.0417 34.1042 35.2863 33.0626L32.0806 27.6281C29.4344 28.6914 26.4465 29.5843 25.0212 25.9514C23.8537 22.9768 24.8009 20.3805 26.566 18.2791L24.4552 14.7005L25.357 13.9094L27.4022 17.3763C29.0151 15.7841 30.9956 14.5371 32.9607 13.6639C33.0713 14.4911 33.1809 15.3994 33.2911 16.2261C31.6682 16.5916 29.9164 17.0825 28.2042 18.5838L28.1464 18.6357L31.644 24.5651C34.1213 23.5275 36.7575 22.7225 38.0949 26.1307C38.9019 28.1871 38.8071 31.3035 36.9956 33.637L38.8906 36.8511ZM30.5506 25.0333L27.3088 19.537C26.087 21.111 25.6277 23.1151 26.2534 24.7088C26.932 26.4393 28.6191 25.8536 30.5506 25.0333ZM33.1829 27.1757L36.1372 32.184C37.0746 30.9133 37.5917 28.9255 36.919 27.2108C36.4252 25.9524 34.9569 26.4522 33.1829 27.1757ZM62.9005 39.0602C65.4726 41.0648 67.9059 43.4122 68.8961 45.8213C70.4893 49.7001 68.5119 53.3182 64.3283 53.6165C62.1577 53.7721 59.7842 53.0046 58.2888 51.7971C56.098 50.0315 54.4672 46.812 53.0202 45.0167C51.943 43.6838 51.467 43.5806 49.8643 43.3396C48.6879 43.1647 47.4755 43.0951 46.2176 43.1203L44.2737 40.284C46.1825 40.2677 48.0909 40.3432 49.8925 40.5107C50.9805 40.6124 51.9169 40.7704 52.5984 40.9991C53.8148 41.4056 54.487 42.1237 55.6352 43.7668C56.7978 45.4286 58.1312 47.6664 59.3738 49.0388C60.49 50.2695 62.095 51.437 63.789 51.726C65.0217 51.9359 66.1917 51.6302 66.9409 50.9076C67.6017 50.27 67.9365 49.308 67.6975 48.0886C67.539 47.2821 67.1577 46.4732 66.6327 45.8148C65.3748 44.2404 63.2245 42.8042 60.6519 41.2935C61.3518 40.5467 62.2052 39.8049 62.9005 39.0602ZM41.4646 63.2573C39.4674 65.8348 37.1269 68.2741 34.7188 69.2707C30.8444 70.8738 27.2209 68.9077 26.9108 64.7236C26.7493 62.5541 27.5118 60.1776 28.7134 58.6806C30.474 56.4864 33.6881 54.8448 35.4794 53.3943C36.8099 52.3137 36.9121 51.8386 37.1472 50.2355C37.3196 49.0586 37.3867 47.8461 37.3586 46.5882C38.3028 45.9388 39.2456 45.2874 40.1899 44.6374C40.2131 46.5131 40.1424 48.3887 39.9781 50.2572C39.8793 51.3452 39.7227 52.2826 39.496 52.9641C39.0925 54.1825 38.3755 54.8551 36.7373 56.0083C35.0789 57.1748 32.8446 58.5147 31.4756 59.7617C30.2478 60.8818 29.0848 62.4884 28.8003 64.1853C28.5934 65.4175 28.903 66.587 29.627 67.3347C30.2666 67.994 31.2292 68.3259 32.448 68.0844C33.2545 67.9239 34.0615 67.5402 34.7188 67.0132C36.2898 65.7504 37.7201 63.5956 39.2254 61.0201C39.9726 61.7115 40.7174 62.5639 41.4646 63.2573ZM17.8097 42.1153C15.1517 40.2272 12.6172 37.9895 11.5223 35.6233C9.76014 31.8186 11.5746 28.1175 15.7409 27.634C17.9016 27.3821 20.3087 28.0454 21.855 29.1843C24.1204 30.853 25.8929 33.996 27.4175 35.7256C28.5509 37.0111 29.0314 37.0931 30.6434 37.261C31.8257 37.384 33.0402 37.4008 34.2961 37.3208L36.3629 40.0677C34.4556 40.1684 32.5458 40.1768 30.7397 40.0889C29.6478 40.0366 28.706 39.918 28.0146 39.72C26.7809 39.3669 26.0781 38.6789 24.8582 37.0901C23.6236 35.4811 22.1928 33.3036 20.89 31.9885C19.7215 30.8066 18.066 29.7122 16.3592 29.4979C15.1186 29.3433 13.9635 29.7004 13.2469 30.455C12.6147 31.1212 12.3238 32.0966 12.6162 33.3051C12.8098 34.1047 13.2261 34.8949 13.7802 35.5295C15.1073 37.0467 17.3193 38.3865 19.9551 39.7832C19.2923 40.561 18.4715 41.3404 17.8097 42.1153Z" fill="url(#paint1_radial_926_958)"/>
<path d="M51.0996 22.2238C50.7583 22.6307 50.3686 23.0189 49.9503 23.3908C49.0641 22.869 48.138 22.418 47.1807 22.042C47.6667 21.6775 48.1176 21.3145 48.5003 20.9609L48.568 20.8972C49.4409 21.2816 50.2867 21.7248 51.0996 22.2238ZM41.111 19.1316C40.9866 19.345 40.8621 19.5618 40.7367 19.7811C40.4973 19.5614 40.2632 19.3362 40.0344 19.1055H40.0586C40.4112 19.1055 40.7624 19.1144 41.111 19.1316ZM55.0263 25.3223C55.4447 25.7414 55.8457 26.1776 56.2284 26.6296C55.5814 26.8785 55.2772 27.3091 55.1893 27.8652C54.6799 27.2474 54.1341 26.6606 53.5546 26.108C53.9304 25.7994 54.4149 25.5332 55.0263 25.3223ZM58.3175 29.5725C58.517 29.9123 58.7091 30.2551 58.8894 30.6052L57.4591 31.305C57.2777 30.9557 57.0856 30.612 56.8833 30.2743L58.3175 29.5725ZM61.2367 40.7034C61.2304 41.0078 61.2179 41.3121 61.1992 41.6161C61.0196 41.5075 60.839 41.4007 60.6574 41.2955C60.8416 41.097 61.0367 40.8995 61.2367 40.7034ZM59.3566 49.0142C58.9589 49.8874 58.5024 50.7326 57.99 51.5438C57.582 51.178 57.2003 50.7839 56.8477 50.3645C57.3818 49.4793 57.8451 48.5532 58.233 47.5948C58.6098 48.1183 58.9872 48.6038 59.3566 49.0142ZM55.3775 54.8957C54.9803 55.312 54.566 55.7117 54.1359 56.0939C54.1309 56.0795 54.1254 56.0654 54.1196 56.0514C53.8628 55.4158 53.4716 55.0957 52.9842 54.9891C53.5387 54.5007 54.0658 53.982 54.5631 53.4353C54.8525 53.7924 55.1127 54.2413 55.3375 54.7974C55.3523 54.8295 55.3651 54.8626 55.3775 54.8957ZM51.3025 58.2274C50.9702 58.4368 50.6329 58.6368 50.2881 58.8279L49.4644 57.4638C49.8087 57.2736 50.1475 57.0735 50.4802 56.8638L51.3025 58.2274ZM39.6931 61.4686C39.4531 61.4647 39.2141 61.4583 38.976 61.4464C39.0595 61.3052 39.1435 61.1629 39.2274 61.0187C39.383 61.1634 39.5376 61.3136 39.6931 61.4686ZM31.5601 59.6872C30.6772 59.2983 29.8221 58.8491 29.0009 58.3429C29.3693 57.9349 29.7654 57.5525 30.1861 57.1986C31.0841 57.7253 32.0224 58.1797 32.9923 58.5578C32.4663 58.938 31.9759 59.3159 31.5601 59.6872ZM25.2598 55.4217C24.837 55.009 24.4315 54.579 24.0444 54.1327C24.0656 54.1248 24.0869 54.1199 24.1076 54.1129C24.7481 53.907 25.0944 53.5484 25.2415 53.0842C25.7251 53.6427 26.2396 54.1738 26.7824 54.675C26.3888 54.9678 25.8915 55.2202 25.2707 55.4197C25.2672 55.4192 25.2633 55.4207 25.2598 55.4217ZM21.9405 51.2465C21.7365 50.9099 21.5418 50.5677 21.3567 50.2203L22.7761 49.4987C22.9623 49.8459 23.1584 50.1882 23.3643 50.5215L21.9405 51.2465ZM18.8859 40.9498C18.8673 40.3719 18.8725 39.7934 18.9017 39.2158C19.245 39.4055 19.5971 39.5956 19.9571 39.7858C19.6262 40.1735 19.2563 40.5621 18.8859 40.9498ZM20.6688 31.7722C21.0484 30.9118 21.485 30.0776 21.9756 29.2752C22.4038 29.6072 22.8066 29.9707 23.1806 30.3627C22.6676 31.2293 22.2225 32.1343 21.8491 33.0696C21.5472 32.6952 21.2279 32.3353 20.892 31.991C20.8188 31.9169 20.7444 31.8439 20.6688 31.7722ZM24.8761 25.5426C25.2792 25.1277 25.6988 24.7291 26.1339 24.3479C26.1685 24.4704 26.209 24.5919 26.2554 24.7099C26.4461 25.1944 26.7157 25.4976 27.0476 25.6646C26.5444 26.1126 26.0644 26.586 25.6095 27.0829C25.3724 26.7293 25.176 26.3501 25.0237 25.9525C24.9709 25.8172 24.9217 25.6805 24.8761 25.5426ZM28.9283 22.2796C29.2616 22.0721 29.6004 21.8736 29.9461 21.685L30.7556 23.0564C30.4099 23.2446 30.0706 23.4431 29.7372 23.6506L28.9283 22.2796Z" fill="#306F37"/>
<path d="M6.53876 42.9929C6.53876 43.0897 6.55654 43.1579 6.59358 43.1974C6.63062 43.2369 6.71063 43.27 6.83162 43.2982V43.4483H4.88281V43.2982C5.00381 43.27 5.08431 43.2369 5.12086 43.1974C5.1574 43.1579 5.17568 43.0902 5.17568 42.9929V38.3501C5.17568 38.2493 5.1574 38.1797 5.12086 38.1402C5.08382 38.1002 5.00381 38.0681 4.88281 38.0394V37.8937H7.7843V38.0384C7.70676 38.0631 7.64848 38.0898 7.60651 38.1214C7.567 38.1515 7.54576 38.1886 7.54576 38.2291C7.54576 38.2641 7.567 38.3343 7.61194 38.4375C7.61737 38.4503 7.6233 38.4582 7.6233 38.4617L8.55325 40.4589L9.61162 38.4617C9.63236 38.4227 9.64569 38.3787 9.65903 38.3348C9.67038 38.3006 9.6767 38.265 9.6778 38.2291C9.6778 38.1886 9.65804 38.1525 9.61902 38.1214C9.56472 38.0832 9.504 38.0551 9.43975 38.0384V37.8937H12.4128V38.0384C12.2918 38.0671 12.2109 38.1002 12.1728 38.1392C12.1328 38.1792 12.1141 38.2488 12.1141 38.3491V42.9924C12.1141 43.0887 12.1333 43.1559 12.1728 43.1964C12.2109 43.2349 12.2918 43.269 12.4128 43.2972V43.4478H10.2601V43.2972C10.3811 43.269 10.4616 43.2359 10.4981 43.1964C10.5347 43.1584 10.5529 43.0892 10.5529 42.9924V39.6519L8.5093 43.5451L6.53876 39.6519V42.9929ZM14.6066 43.4478V43.2972C14.7237 43.272 14.8002 43.2423 14.8353 43.2043C14.8703 43.1663 14.8881 43.0962 14.8881 42.992V38.3486C14.8881 38.2444 14.8698 38.1738 14.8353 38.1367C14.8007 38.0992 14.7237 38.0661 14.6066 38.0379V37.8937H16.8596V38.0384C16.7387 38.0671 16.6581 38.0997 16.6216 38.1392C16.5851 38.1787 16.5668 38.2488 16.5668 38.3491V42.9924C16.5668 43.0887 16.5851 43.1574 16.6216 43.1964C16.6586 43.2359 16.7387 43.269 16.8596 43.2972V43.4478H14.6066ZM24.2855 42.1356C24.3892 42.1356 24.4613 42.1198 24.5048 42.0847C24.5462 42.0541 24.5823 41.981 24.6124 41.8714H24.7734V43.7091H24.6124C24.5823 43.5994 24.5482 43.5278 24.5067 43.4957C24.4667 43.4621 24.3931 43.4453 24.2855 43.4453H18.6603V43.2952C18.7773 43.27 18.8549 43.2409 18.889 43.2023C18.925 43.1658 18.9418 43.0942 18.9418 42.99V38.3476C18.9418 38.2434 18.925 38.1728 18.889 38.1357C18.8549 38.0967 18.7773 38.0651 18.6603 38.037V37.8923H20.9133V38.037C20.7923 38.0656 20.7128 38.0987 20.6748 38.1377C20.6392 38.1777 20.62 38.2468 20.62 38.3476V42.1346L24.2855 42.1356ZM30.8569 42.1356C30.9611 42.1356 31.0332 42.1193 31.0762 42.0847C31.1172 42.0541 31.1537 41.981 31.1838 41.8714H31.3444V43.7091H31.1838C31.1532 43.5994 31.1187 43.5288 31.0782 43.4957C31.0377 43.4636 30.9651 43.4453 30.8569 43.4453H25.2317V43.2952C25.3488 43.27 25.4253 43.2399 25.4604 43.2023C25.495 43.1653 25.5127 43.0942 25.5127 42.99V38.3476C25.5127 38.2434 25.495 38.1728 25.4604 38.1357C25.4253 38.0982 25.3488 38.0651 25.2317 38.037V37.8923H27.4848V38.037C27.3638 38.0656 27.2833 38.0977 27.2462 38.1377C27.2097 38.1772 27.1914 38.2473 27.1914 38.3476V42.1346L30.8569 42.1356ZM32.2886 43.4478V43.2972C32.4057 43.272 32.4837 43.2433 32.5173 43.2043C32.5534 43.1673 32.5701 43.0962 32.5701 42.992V38.3486C32.5701 38.2444 32.5534 38.1738 32.5173 38.1367C32.4837 38.0977 32.4057 38.0661 32.2886 38.0379V37.8937H34.5417V38.0384C34.4207 38.0671 34.3417 38.1002 34.3036 38.1392C34.2676 38.1792 34.2488 38.2483 34.2488 38.3491V42.9924C34.2488 43.0892 34.2681 43.1559 34.3036 43.1964C34.3417 43.2354 34.4207 43.269 34.5417 43.2972V43.4478H32.2886ZM40.4646 43.5569C39.4152 43.5569 38.5509 43.2744 37.8679 42.708C37.1873 42.1425 36.8456 41.4358 36.8456 40.5848C36.8456 39.7309 37.1849 39.0227 37.862 38.4632C38.54 37.9031 39.4073 37.6241 40.4646 37.6241C41.5196 37.6241 42.3878 37.9031 43.0659 38.4632C43.743 39.0227 44.0818 39.7299 44.0818 40.5848C44.0818 41.4358 43.7405 42.1425 43.0604 42.708C42.3774 43.2744 41.5131 43.5569 40.4646 43.5569ZM38.6408 40.5947C38.6408 41.0896 38.8067 41.4852 39.1381 41.781C39.4695 42.0778 39.915 42.2264 40.475 42.2264C41.0247 42.2264 41.4642 42.0763 41.7961 41.779C42.127 41.4807 42.2934 41.0856 42.2934 40.5947C42.2934 40.1082 42.125 39.7131 41.7902 39.4109C41.4539 39.1106 41.0133 38.958 40.4651 38.958C39.9189 38.958 39.4799 39.1106 39.1445 39.4109C38.8087 39.7131 38.6408 40.1082 38.6408 40.5947ZM46.3294 42.9929C46.3294 43.0971 46.3466 43.1678 46.3812 43.2058C46.4158 43.2428 46.4933 43.2744 46.6099 43.2986V43.4488H44.6062V43.2986C44.7238 43.2735 44.8003 43.2433 44.8349 43.2058C44.8695 43.1683 44.8877 43.0971 44.8877 42.9929V38.3501C44.8877 38.2459 44.8695 38.1752 44.8349 38.1382C44.8003 38.1007 44.7238 38.0676 44.6062 38.0394V37.8937H47.2124V38.0384C47.1393 38.0597 47.083 38.0844 47.0435 38.116C47.004 38.1476 46.9857 38.1812 46.9857 38.2202C46.9857 38.2607 47.0292 38.3239 47.1151 38.4108L47.1684 38.4671L49.6709 41.0249V38.3491C49.6709 38.2483 49.6531 38.1787 49.6161 38.1392C49.5805 38.0992 49.5005 38.0671 49.379 38.0384V37.8937H51.4231V38.0384C51.3016 38.0671 51.2206 38.1002 51.1831 38.1392C51.1436 38.1792 51.1243 38.2488 51.1243 38.3491V42.9924C51.1243 43.0887 51.1436 43.1559 51.1831 43.1964C51.2206 43.2349 51.3016 43.269 51.4231 43.2972V43.4478H49.2684V43.2972C49.3284 43.2859 49.3851 43.2612 49.4343 43.2251C49.4718 43.193 49.4891 43.1589 49.4891 43.1209C49.4891 43.0759 49.4378 42.9989 49.3355 42.8887C49.3276 42.8813 49.3202 42.8764 49.3133 42.8675L46.3279 39.8193V42.991H46.3289L46.3294 42.9929ZM54.3439 41.3404H56.3386L55.3084 38.8958L54.3439 41.3404ZM56.8433 43.4478V43.2972C56.902 43.2858 56.9575 43.2617 57.0058 43.2265C57.0233 43.212 57.0371 43.1935 57.0461 43.1727C57.0552 43.1519 57.0593 43.1292 57.0582 43.1065C57.0567 43.075 57.0513 43.0438 57.0419 43.0137C57.0243 42.9629 57.0061 42.9123 56.9871 42.8621L56.75 42.262H53.9853L53.7414 42.8621C53.7277 42.8927 53.7168 42.9244 53.7088 42.9569C53.7012 42.9845 53.6977 43.0132 53.6984 43.0418C53.6984 43.109 53.7196 43.1618 53.7562 43.2023C53.7957 43.2448 53.8544 43.2744 53.9354 43.2952V43.4458H51.9086V43.2952C52.1066 43.1989 52.2731 42.9732 52.4084 42.6181L52.44 42.5346L54.0075 38.5358C54.0382 38.4567 54.0614 38.3881 54.0801 38.3298C54.0936 38.2898 54.1025 38.2484 54.1068 38.2063C54.1068 38.1496 54.0945 38.1096 54.0693 38.0849C54.0426 38.0577 53.9992 38.0419 53.9354 38.035V37.8903H56.8997V38.035C56.8369 38.0419 56.7915 38.0577 56.7663 38.0849C56.7391 38.1096 56.7268 38.1496 56.7268 38.2063C56.7268 38.2256 56.7367 38.2676 56.7574 38.3298C56.7782 38.3916 56.8038 38.4607 56.8325 38.5358L58.727 42.99C58.727 42.9944 58.7284 42.9999 58.7324 43.0058C58.7946 43.1539 58.8909 43.2507 59.0193 43.2952V43.4458H56.8443V43.4478H56.8433ZM59.735 43.4478V43.2972C59.8525 43.272 59.93 43.2433 59.9636 43.2043C59.9997 43.1673 60.0165 43.0962 60.0165 42.992V38.3486C60.0165 38.2444 59.9997 38.1738 59.9636 38.1367C59.93 38.0977 59.8525 38.0661 59.735 38.0379V37.8937H61.988V38.0384C61.8665 38.0671 61.7875 38.1002 61.7499 38.1392C61.7144 38.1792 61.6951 38.2483 61.6951 38.3491V42.9924C61.6951 43.0892 61.7144 43.1559 61.7499 43.1964C61.7875 43.2354 61.8665 43.269 61.988 43.2972V43.4478H59.735ZM63.6202 43.4478V43.2972C63.7368 43.272 63.8138 43.2423 63.8489 43.2043C63.8835 43.1668 63.9017 43.0962 63.9017 42.992V38.3486C63.9017 38.2444 63.8835 38.1738 63.8489 38.1367C63.8138 38.0992 63.7368 38.0661 63.6202 38.0379V37.8937H67.7554C68.4962 37.8937 69.075 38.0478 69.4849 38.3565C69.8968 38.6656 70.1033 39.0973 70.1033 39.6504C70.1033 40.0811 69.9749 40.4431 69.72 40.7335C69.4627 41.0249 69.081 41.2377 68.5767 41.3755L69.4612 42.6739C69.6203 42.9075 69.7408 43.069 69.8366 43.1465C69.9324 43.2241 70.0341 43.2735 70.1487 43.2986V43.4483H67.7574L67.7633 43.2986C67.8147 43.2867 67.8625 43.2624 67.9026 43.228C67.9175 43.2146 67.9295 43.1983 67.9377 43.18C67.946 43.1617 67.9503 43.1419 67.9505 43.1218C67.9505 43.0729 67.9184 43.0028 67.8468 42.909C67.8166 42.8719 67.7939 42.8423 67.7771 42.8206L66.8037 41.3953H65.5804V42.991C65.5804 43.0873 65.5982 43.1559 65.6352 43.1949C65.6718 43.2344 65.7508 43.2675 65.8723 43.2957V43.4453H63.6192V43.4473H63.6202V43.4478ZM65.5804 39.0153V40.2747H67.0418C67.5065 40.2747 67.8433 40.2243 68.0488 40.1231C68.2552 40.0213 68.3589 39.8603 68.3589 39.6396C68.3589 39.4079 68.2626 39.2484 68.068 39.1546C67.8749 39.0617 67.5174 39.0153 66.9978 39.0153H65.5804ZM76.2045 42.1356C76.3087 42.1356 76.3808 42.1198 76.4238 42.0847C76.4658 42.0541 76.5013 41.981 76.5315 41.8714H76.6925V43.7091H76.5315C76.5013 43.5994 76.4678 43.5278 76.4263 43.4957C76.3863 43.4621 76.3127 43.4453 76.2045 43.4453H70.8288V43.2952C70.9463 43.27 71.0238 43.2409 71.0574 43.2023C71.0935 43.1658 71.1103 43.0942 71.1103 42.99V38.3476C71.1103 38.2434 71.0935 38.1728 71.0574 38.1357C71.0238 38.0967 70.9463 38.0651 70.8288 38.037V37.8923H76.2159C76.3201 37.8923 76.3912 37.875 76.4347 37.8374C76.4762 37.8029 76.5078 37.7283 76.53 37.6191H76.691V39.4677H76.53C76.5038 39.3581 76.4702 39.286 76.4283 39.2538C76.3848 39.2208 76.3152 39.2035 76.2144 39.2035H72.7874V39.9828H74.8405C74.9481 39.9828 75.0237 39.9675 75.0652 39.9334C75.1072 39.9018 75.1467 39.8292 75.1832 39.7196H75.3383V41.4452H75.1773C75.1447 41.335 75.1057 41.2634 75.0637 41.2313C75.0173 41.1977 74.9442 41.1809 74.8405 41.1809H72.7874V42.1326H76.2035L76.2045 42.1356Z" fill="#BCBEC0"/>
<path d="M6.34345 42.7952C6.34345 42.892 6.36172 42.9601 6.39827 43.0001C6.43531 43.0396 6.51531 43.0722 6.63631 43.1004V43.25H4.6875V43.1004C4.8085 43.0712 4.889 43.0396 4.92555 43.0001C4.96259 42.9601 4.98037 42.892 4.98037 42.7952V38.1513C4.98037 38.0505 4.96259 37.9809 4.92555 37.9414C4.88851 37.9014 4.8085 37.8693 4.6875 37.8407V37.6964H7.58899V37.8407C7.51145 37.8653 7.45317 37.892 7.41119 37.9236C7.37168 37.9538 7.35045 37.9908 7.35045 38.0313C7.35045 38.0668 7.37168 38.1365 7.41662 38.2397C7.42255 38.2525 7.42798 38.2604 7.42798 38.2644L8.35794 40.2611L9.4168 38.2644C9.43754 38.2249 9.45088 38.1809 9.46421 38.137C9.47556 38.1028 9.48188 38.0672 9.48298 38.0313C9.48298 37.9908 9.46322 37.9552 9.4247 37.9236C9.3702 37.8855 9.30932 37.8574 9.24493 37.8407V37.6964H12.2185V37.8407C12.0975 37.8693 12.016 37.9024 11.9785 37.9414C11.939 37.9814 11.9197 38.051 11.9197 38.1513V42.7952C11.9197 42.892 11.939 42.9591 11.9785 43.0001C12.0165 43.0376 12.0975 43.0722 12.2185 43.1004V43.25H10.0657V43.1004C10.1867 43.0712 10.2672 43.0396 10.3038 43.0001C10.3408 42.9606 10.3586 42.892 10.3586 42.7952V39.4551L8.31497 43.3473L6.34345 39.4551V42.7952ZM14.4108 43.25V43.1004C14.5279 43.0742 14.6049 43.0446 14.6395 43.007C14.6745 42.969 14.6923 42.8994 14.6923 42.7952V38.1513C14.6923 38.0471 14.6745 37.977 14.6395 37.9394C14.6044 37.9019 14.5279 37.8678 14.4108 37.8407V37.6964H16.6638V37.8407C16.5428 37.8693 16.4623 37.9019 16.4258 37.9414C16.3893 37.9809 16.371 38.051 16.371 38.1513V42.7952C16.371 42.892 16.3893 42.9601 16.4258 43.0001C16.4628 43.0396 16.5428 43.0722 16.6638 43.1004V43.25H14.4108ZM24.0902 41.9383C24.1939 41.9383 24.266 41.9225 24.3094 41.8884C24.3509 41.8568 24.387 41.7847 24.4171 41.6741H24.5781V43.5132H24.4171C24.387 43.4026 24.3534 43.3315 24.3119 43.2984C24.2719 43.2653 24.1983 43.2485 24.0907 43.2485H18.4655V43.0979C18.5825 43.0727 18.6601 43.0446 18.6941 43.0051C18.7302 42.968 18.747 42.8974 18.747 42.7932V38.1513C18.747 38.0471 18.7297 37.9765 18.6941 37.9394C18.6601 37.9004 18.5825 37.8678 18.4655 37.8407V37.6964H20.7185V37.8407C20.5975 37.8693 20.518 37.9024 20.4805 37.9414C20.4444 37.9814 20.4257 38.0505 20.4257 38.1513V41.9383H24.0902ZM30.6616 41.9383C30.7658 41.9383 30.8379 41.922 30.8809 41.8884C30.9224 41.8573 30.9584 41.7847 30.9885 41.6741H31.1495V43.5132H30.9885C30.9584 43.4026 30.9233 43.332 30.8829 43.2984C30.8424 43.2668 30.7688 43.2485 30.6611 43.2485H25.0359V43.0979C25.1535 43.0727 25.23 43.0431 25.2646 43.0051C25.2992 42.9675 25.3174 42.8974 25.3174 42.7932V38.1513C25.3174 38.0471 25.2992 37.977 25.2646 37.9394C25.2295 37.9019 25.153 37.8678 25.0359 37.8407V37.6964H27.289V37.8407C27.168 37.8693 27.0875 37.9014 27.0509 37.9414C27.0139 37.9809 26.9961 38.051 26.9961 38.1513V41.9383H30.6616ZM32.0938 43.25V43.1004C32.2109 43.0742 32.2884 43.046 32.322 43.007C32.358 42.97 32.3753 42.8994 32.3753 42.7952V38.1513C32.3753 38.0471 32.358 37.9765 32.322 37.9394C32.2884 37.9004 32.2109 37.8678 32.0938 37.8407V37.6964H34.3469V37.8407C34.2259 37.8693 34.1463 37.9024 34.1088 37.9414C34.0728 37.9814 34.054 38.0505 34.054 38.1513V42.7952C34.054 42.892 34.0728 42.9591 34.1088 43.0001C34.1463 43.0386 34.2259 43.0722 34.3469 43.1004V43.25H32.0938ZM40.2693 43.3597C39.2199 43.3597 38.3556 43.0777 37.6726 42.5107C36.992 41.9457 36.6503 41.2385 36.6503 40.388C36.6503 39.5341 36.9896 38.8264 37.6666 38.2669C38.3447 37.7068 39.212 37.4278 40.2693 37.4278C41.3247 37.4278 42.192 37.7068 42.8701 38.2669C43.5476 38.8264 43.8869 39.5327 43.8869 40.388C43.8869 41.2385 43.5462 41.9457 42.8656 42.5107C42.1816 43.0777 41.3168 43.3597 40.2693 43.3597ZM38.445 40.3974C38.445 40.8923 38.6109 41.2884 38.9423 41.5837C39.2737 41.8805 39.7192 42.0297 40.2792 42.0297C40.8294 42.0297 41.2689 41.879 41.5998 41.5822C41.9317 41.2839 42.0976 40.8888 42.0976 40.3974C42.0976 39.911 41.9297 39.5159 41.5939 39.2141C41.2591 38.9124 40.8175 38.7607 40.2693 38.7607C39.7231 38.7607 39.2841 38.9124 38.9487 39.2141C38.6134 39.5159 38.445 39.9105 38.445 40.3974ZM46.1331 42.7952C46.1331 42.8994 46.1513 42.9695 46.1859 43.007C46.2195 43.0446 46.2975 43.0757 46.4146 43.1004V43.25H44.4114V43.1004C44.528 43.0742 44.6055 43.0446 44.6401 43.007C44.6747 42.9695 44.6929 42.8994 44.6929 42.7952V38.1513C44.6929 38.0471 44.6747 37.977 44.6401 37.9394C44.6055 37.9019 44.528 37.8678 44.4114 37.8407V37.6964H47.0176V37.8407C46.957 37.8559 46.8997 37.8822 46.8487 37.9182C46.8092 37.9488 46.7909 37.9834 46.7909 38.0224C46.7909 38.0629 46.8344 38.1261 46.9193 38.213L46.9741 38.2693L49.4756 40.8271V38.1513C49.4756 38.0505 49.4588 37.9809 49.4222 37.9414C49.3857 37.9014 49.3047 37.8693 49.1842 37.8407V37.6964H51.2273V37.8407C51.1068 37.8693 51.0258 37.9024 50.9883 37.9414C50.9493 37.9814 50.93 38.051 50.93 38.1513V42.7952C50.93 42.892 50.9493 42.9591 50.9883 43.0001C51.0258 43.0376 51.1068 43.0722 51.2273 43.1004V43.25H49.0726V43.1004C49.133 43.0894 49.1901 43.0647 49.2395 43.0283C49.277 42.9967 49.2943 42.9631 49.2943 42.9241C49.2943 42.8796 49.243 42.8021 49.1407 42.6929C49.1328 42.6855 49.1254 42.6796 49.1175 42.6717L46.1331 39.6235V42.7952ZM54.1491 41.1437H56.1428L55.1126 38.6995L54.1491 41.1437ZM56.6471 43.25V43.1004C56.7061 43.0891 56.7618 43.0646 56.81 43.0288C56.8274 43.0142 56.8412 42.9957 56.8502 42.9749C56.8592 42.9541 56.8632 42.9314 56.8619 42.9087C56.8604 42.8776 56.8549 42.8467 56.8456 42.8169C56.8282 42.7656 56.8099 42.7145 56.7908 42.6638L56.5532 42.0637H53.7895L53.5456 42.6638C53.5307 42.6969 53.5189 42.7295 53.5125 42.7586C53.5051 42.7863 53.5017 42.8149 53.5021 42.8436C53.5021 42.9107 53.5223 42.9636 53.5589 43.0041C53.6091 43.0514 53.6715 43.0837 53.7391 43.0974V43.247H51.7123V43.0974C51.9108 43.0006 52.0768 42.7749 52.2111 42.4203C52.2264 42.3833 52.2363 42.3546 52.2427 42.3373L53.8103 38.337C53.8404 38.258 53.8651 38.1893 53.8834 38.131C53.8966 38.0909 53.9057 38.0496 53.9105 38.0076C53.9105 37.9508 53.8972 37.9108 53.8725 37.8861C53.8458 37.8589 53.8024 37.8431 53.7387 37.8362V37.692H56.7019V37.8362C56.6401 37.8431 56.5937 37.8589 56.569 37.8861C56.5424 37.9108 56.5295 37.9508 56.5295 38.0076C56.5295 38.0268 56.5399 38.0693 56.5601 38.131C56.5814 38.1928 56.6056 38.2619 56.6352 38.337L58.5292 42.7922C58.5292 42.7957 58.5312 42.8011 58.5356 42.808C58.5983 42.9562 58.6941 43.0525 58.823 43.0974V43.247H56.6471V43.25ZM59.5401 43.25V43.1004C59.6567 43.0742 59.7357 43.046 59.7688 43.007C59.8044 42.97 59.8216 42.8994 59.8216 42.7952V38.1513C59.8216 38.0471 59.8044 37.9765 59.7688 37.9394C59.7357 37.9004 59.6567 37.8678 59.5401 37.8407V37.6964H61.7932V37.8407C61.6722 37.8693 61.5932 37.9024 61.5556 37.9414C61.5196 37.9814 61.5013 38.0505 61.5013 38.1513V42.7952C61.5013 42.892 61.5196 42.9591 61.5556 43.0001C61.5932 43.0386 61.6722 43.0722 61.7932 43.1004V43.25H59.5401ZM63.4244 43.25V43.1004C63.542 43.0742 63.6185 43.0446 63.6536 43.007C63.6887 42.9695 63.7059 42.8994 63.7059 42.7952V38.1513C63.7059 38.0471 63.6887 37.977 63.6536 37.9394C63.6185 37.9019 63.542 37.8678 63.4244 37.8407V37.6964H67.5606C68.3014 37.6964 68.8797 37.85 69.2901 38.1587C69.702 38.4679 69.9084 38.8995 69.9084 39.4526C69.9084 39.8833 69.78 40.2453 69.5247 40.5357C69.2679 40.8276 68.8861 41.0399 68.3829 41.1782L69.2669 42.4761C69.4254 42.7102 69.5459 42.8712 69.6413 42.9488C69.7341 43.0268 69.8393 43.0757 69.9534 43.1009V43.2515H67.5621L67.569 43.1009C67.6204 43.0892 67.6681 43.065 67.7078 43.0302C67.7228 43.0169 67.7349 43.0006 67.7433 42.9823C67.7516 42.964 67.756 42.9442 67.7562 42.9241C67.7562 42.8762 67.7231 42.8055 67.652 42.7122C67.6218 42.6747 67.5991 42.645 67.5828 42.6238L66.6089 41.1975H65.3856V42.7937C65.3856 42.8895 65.4029 42.9586 65.4394 42.9986C65.477 43.0372 65.557 43.0707 65.6775 43.0979V43.2485L63.4244 43.25ZM65.3856 38.818V40.0779H66.846C67.3112 40.0779 67.648 40.0265 67.8539 39.9248C68.0604 39.823 68.1636 39.662 68.1636 39.4413C68.1636 39.2102 68.0673 39.0501 67.8727 38.9563C67.6791 38.8635 67.3225 38.817 66.8025 38.817L65.3856 38.818ZM76.0092 41.9383C76.1134 41.9383 76.1841 41.9225 76.227 41.8884C76.269 41.8568 76.3046 41.7847 76.3362 41.6741H76.4957V43.5132H76.3362C76.3055 43.4026 76.2715 43.3315 76.23 43.2984C76.1905 43.2653 76.1169 43.2485 76.0092 43.2485H70.6334V43.0979C70.749 43.0727 70.828 43.0446 70.8621 43.0051C70.8967 42.968 70.9135 42.8974 70.9135 42.7932V38.1513C70.9135 38.0471 70.8967 37.9765 70.8621 37.9394C70.828 37.9004 70.749 37.8678 70.6334 37.8407V37.6964H76.0191C76.1233 37.6964 76.1939 37.6787 76.2384 37.6416C76.2799 37.6066 76.3115 37.532 76.3337 37.4238H76.4942V39.2724H76.3337C76.307 39.1627 76.2729 39.0906 76.2315 39.059C76.188 39.0255 76.1184 39.0091 76.0176 39.0091H72.5911V39.789H74.6437C74.7518 39.789 74.8269 39.7732 74.8684 39.7386C74.9109 39.708 74.9499 39.6349 74.9879 39.5247H75.142V41.2503H74.982C74.9479 41.1397 74.9099 41.0686 74.8664 41.0355C74.821 41.0029 74.7479 40.9861 74.6437 40.9861H72.5911V41.9368H76.0077V41.9378L76.0092 41.9383Z" fill="#FFFAFC"/>
</g>
<defs>
<radialGradient id="paint0_radial_926_958" cx="0" cy="0" r="1" gradientUnits="userSpaceOnUse" gradientTransform="translate(40.5353 40.2887) scale(26.1926)">
<stop stop-color="#938EAE"/>
<stop offset="0.23" stop-color="#908BAC"/>
<stop offset="0.62" stop-color="#645E89"/>
<stop offset="1" stop-color="#47416A"/>
</radialGradient>
<radialGradient id="paint1_radial_926_958" cx="0" cy="0" r="1" gradientUnits="userSpaceOnUse" gradientTransform="translate(40.1486 40.3631) scale(29.464 29.464)">
<stop stop-color="white"/>
<stop offset="0.12" stop-color="white"/>
<stop offset="0.29" stop-color="#89C651"/>
<stop offset="0.42" stop-color="#2D6B3B"/>
<stop offset="0.599" stop-color="#1B3A25"/>
<stop offset="1" stop-color="#253426"/>
</radialGradient>
<clipPath id="clip0_926_958">
<rect width="80" height="80" fill="white" transform="translate(0.535156 0.289062)"/>
</clipPath>
</defs>
</svg>
